<svg width="22" height="22" viewBox="0 0 22 22" fill="none" xmlns="http://www.w3.org/2000/svg">
<path d="M11 15.5833C10.766 15.5821 10.5351 15.5289 10.3243 15.4274C10.1134 15.3259 9.92774 15.1788 9.78081 14.9966L5.92164 10.3216C5.69613 10.0402 5.55423 9.70107 5.51209 9.34289C5.46995 8.98472 5.52928 8.62191 5.68331 8.29581C5.80823 8.0124 6.01209 7.77094 6.27054 7.60027C6.52899 7.42959 6.83111 7.33692 7.14081 7.33331H14.8591C15.1688 7.33692 15.471 7.42959 15.7294 7.60027C15.9879 7.77094 16.1917 8.0124 16.3166 8.29581C16.4707 8.62191 16.53 8.98472 16.4879 9.34289C16.4457 9.70107 16.3038 10.0402 16.0783 10.3216L12.2191 14.9966C12.0722 15.1788 11.8866 15.3259 11.6757 15.4274C11.4648 15.5289 11.234 15.5821 11 15.5833Z" fill="#78849E"/>
</svg>
