<svg width="24" height="24" viewBox="0 0 24 24" fill="none" xmlns="http://www.w3.org/2000/svg">
<path d="M8.2 11.4H7.6V12.6H8.2V11.4ZM15.4 12.6H16V11.4H15.4V12.6ZM8.2 7.8H7.6V9H8.2V7.8ZM10.6 9H11.2V7.8H10.6V9ZM15.4 3.6L15.8248 3.1752L15.6484 3H15.4V3.6ZM19 7.2H19.6V6.9516L19.4248 6.7752L19 7.2ZM12.4 16.2L11.9752 16.6248L12.4 16.2ZM11.8 16.8L12.0688 17.3364L12.1168 17.3124L12.16 17.28L11.8 16.8ZM8.2 12.6H15.4V11.4H8.2V12.6ZM8.2 9H10.6V7.8H8.2V9ZM17.8 19.8H5.8V21H17.8V19.8ZM5.2 19.2V4.8H4V19.2H5.2ZM5.8 4.2H15.4V3H5.8V4.2ZM18.4 7.2V19.2H19.6V7.2H18.4ZM14.9752 4.0248L18.5752 7.6248L19.4248 6.7752L15.8248 3.1752L14.9752 4.0248ZM5.8 19.8C5.64087 19.8 5.48826 19.7368 5.37574 19.6243C5.26321 19.5117 5.2 19.3591 5.2 19.2H4C4 19.6774 4.18964 20.1352 4.52721 20.4728C4.86477 20.8104 5.32261 21 5.8 21V19.8ZM17.8 21C18.2774 21 18.7352 20.8104 19.0728 20.4728C19.4104 20.1352 19.6 19.6774 19.6 19.2H18.4C18.4 19.3591 18.3368 19.5117 18.2243 19.6243C18.1117 19.7368 17.9591 19.8 17.8 19.8V21ZM5.2 4.8C5.2 4.64087 5.26321 4.48826 5.37574 4.37574C5.48826 4.26321 5.64087 4.2 5.8 4.2V3C5.32261 3 4.86477 3.18964 4.52721 3.52721C4.18964 3.86477 4 4.32261 4 4.8H5.2ZM9.3688 16.9896C9.502 16.59 9.8812 16.2192 10.3648 16.0896C10.8172 15.9684 11.3992 16.0476 11.9752 16.6248L12.8248 15.7752C11.9608 14.9112 10.942 14.6916 10.054 14.9304C9.1984 15.1608 8.4976 15.81 8.23 16.6104L9.37 16.9896H9.3688ZM11.9752 16.6248C12.009 16.6576 12.0406 16.6924 12.07 16.7292L13.018 15.9924C12.9581 15.9165 12.8936 15.8443 12.8248 15.7764L11.9752 16.6248ZM12.07 16.7292C12.1636 16.8492 12.142 16.8876 12.1456 16.8612C12.148 16.8444 12.1528 16.872 12.0808 16.9368C11.9771 17.0235 11.8594 17.0921 11.7328 17.1396C11.5807 17.2008 11.422 17.2443 11.26 17.2692C11.1611 17.288 11.06 17.2921 10.96 17.2812C10.9396 17.2764 10.9816 17.2812 11.044 17.3256C11.1205 17.3847 11.1768 17.4661 11.2049 17.5585C11.2331 17.651 11.2318 17.7499 11.2012 17.8416C11.1944 17.8615 11.1851 17.8804 11.1736 17.898C11.1712 17.9004 11.1916 17.874 11.26 17.8176C11.3968 17.7072 11.6488 17.5464 12.0688 17.3376L11.5312 16.2636C11.0788 16.4892 10.7392 16.6956 10.5064 16.884C10.3883 16.9761 10.2834 17.0839 10.1944 17.2044C10.0812 17.3559 10.0221 17.5409 10.0264 17.73C10.0384 17.9892 10.1788 18.18 10.3324 18.2916C10.468 18.3924 10.618 18.4356 10.7284 18.4584C10.9528 18.5028 11.2084 18.4908 11.44 18.456C11.896 18.3864 12.4864 18.1896 12.8884 17.8248C13.0972 17.634 13.2952 17.3604 13.3372 17.0016C13.3804 16.6344 13.2484 16.29 13.0168 15.9936L12.0688 16.7292H12.07ZM12.16 17.28C12.352 17.1332 12.5606 17.0095 12.7816 16.9116L12.3052 15.81C12.0172 15.9348 11.7292 16.104 11.44 16.32L12.16 17.28ZM12.7816 16.9116C13.5616 16.5744 14.2588 16.752 14.9728 17.0916C15.1528 17.178 15.328 17.2716 15.5056 17.3676C15.6784 17.4612 15.8608 17.5608 16.0336 17.6496C16.3648 17.8164 16.7752 18 17.2 18V16.8C17.0872 16.8 16.9024 16.7436 16.576 16.5792C16.4224 16.5 16.2616 16.4112 16.0768 16.3116C15.8968 16.2144 15.6976 16.1076 15.4888 16.0092C14.6512 15.6096 13.5556 15.27 12.3052 15.81L12.7816 16.9116Z" fill="#20215A"/>
</svg>
