<svg width="15" height="15" viewBox="0 0 15 15" fill="none" xmlns="http://www.w3.org/2000/svg">
<g clip-path="url(#clip0)">
<path fill-rule="evenodd" clip-rule="evenodd" d="M12.1833 2.81683C13.4253 4.05888 14.1231 5.74347 14.1231 7.5C14.1231 9.25653 13.4253 10.9411 12.1833 12.1832C10.9412 13.4252 9.25665 14.123 7.50012 14.123C5.74359 14.123 4.059 13.4252 2.81695 12.1832C1.5749 10.9411 0.877118 9.25653 0.877118 7.5C0.877118 5.74347 1.5749 4.05888 2.81695 2.81683C4.059 1.57478 5.74359 0.876999 7.50012 0.876999C9.25665 0.876999 10.9412 1.57478 12.1833 2.81683ZM11.5115 11.5114C12.5754 10.4475 13.1731 9.00457 13.1731 7.5C13.1731 5.99543 12.5754 4.55248 11.5115 3.48858C10.4476 2.42469 9.00469 1.827 7.50012 1.827C5.99555 1.827 4.5526 2.42469 3.4887 3.48858C2.42481 4.55248 1.82712 5.99543 1.82712 7.5C1.82712 9.00457 2.42481 10.4475 3.4887 11.5114C4.55259 12.5753 5.99554 13.173 7.50012 13.173C9.00469 13.173 10.4476 12.5753 11.5115 11.5114ZM7.49941 10.8284C7.36683 10.8283 7.23968 10.7757 7.14593 10.6819C7.05218 10.5882 6.99951 10.461 6.99949 10.3284L7.00019 7.99992L4.67169 8.00063C4.53892 8.00063 4.41158 7.94789 4.31769 7.854C4.2238 7.76011 4.17106 7.63277 4.17106 7.5C4.17106 7.36722 4.2238 7.23989 4.31769 7.146C4.41158 7.05211 4.53892 6.99937 4.67169 6.99937L7.00019 7.00008L6.99949 4.67157C6.99949 4.60583 7.01244 4.54073 7.03759 4.47999C7.06275 4.41925 7.09963 4.36406 7.14612 4.31757C7.19261 4.27108 7.2478 4.23421 7.30853 4.20905C7.36927 4.18389 7.43437 4.17094 7.50012 4.17094C7.56586 4.17094 7.63096 4.18389 7.6917 4.20905C7.75244 4.23421 7.80763 4.27108 7.85412 4.31757C7.90061 4.36406 7.93748 4.41925 7.96264 4.47999C7.9878 4.54073 8.00075 4.60583 8.00075 4.67157L8.00004 7.00008L10.3285 6.99937C10.4613 6.99937 10.5887 7.05211 10.6825 7.146C10.7764 7.23989 10.8292 7.36722 10.8292 7.5C10.8292 7.63278 10.7764 7.76011 10.6825 7.854C10.5887 7.94789 10.4613 8.00063 10.3285 8.00063L8.00004 7.99992L8.00075 10.3284C8.00083 10.3942 7.98794 10.4593 7.96281 10.5201C7.93768 10.5809 7.90081 10.6361 7.8543 10.6826C7.8078 10.7291 7.75258 10.766 7.6918 10.7911C7.63102 10.8162 7.56589 10.8291 7.50012 10.8291L7.49941 10.8284Z" fill="black"/>
</g>
<defs>
<clipPath id="clip0">
<rect width="15" height="15" fill="white" transform="translate(15) rotate(90)"/>
</clipPath>
</defs>
</svg>
