<svg width="16" height="16" viewBox="0 0 16 16" fill="none" xmlns="http://www.w3.org/2000/svg">
<path opacity="0.3" d="M8.00002 2.66663C5.06002 2.66663 2.66669 5.05996 2.66669 7.99996C2.66669 10.94 5.06002 13.3333 8.00002 13.3333C10.94 13.3333 13.3334 10.94 13.3334 7.99996C13.3334 5.05996 10.94 2.66663 8.00002 2.66663ZM8.00002 9.99996L5.33335 7.33329H10.6667L8.00002 9.99996Z" fill="#A7A7A7"/>
<path d="M7.99998 1.33337C4.31998 1.33337 1.33331 4.32004 1.33331 8.00004C1.33331 11.68 4.31998 14.6667 7.99998 14.6667C11.68 14.6667 14.6666 11.68 14.6666 8.00004C14.6666 4.32004 11.68 1.33337 7.99998 1.33337ZM7.99998 13.3334C5.05998 13.3334 2.66665 10.94 2.66665 8.00004C2.66665 5.06004 5.05998 2.66671 7.99998 2.66671C10.94 2.66671 13.3333 5.06004 13.3333 8.00004C13.3333 10.94 10.94 13.3334 7.99998 13.3334ZM7.99998 10L10.6666 7.33337H5.33331L7.99998 10Z" fill="#A7A7A7"/>
</svg>
