<svg width="32" height="32" viewBox="0 0 32 32" fill="none" xmlns="http://www.w3.org/2000/svg">
<path d="M10.5861 3.272C10.2111 3.64706 10.0005 4.15568 10.0005 4.686C10.0005 5.21633 10.2111 5.72495 10.5861 6.1L20.4861 16L10.5861 25.9C10.2217 26.2772 10.0202 26.7824 10.0247 27.3068C10.0293 27.8312 10.2396 28.3328 10.6104 28.7036C10.9812 29.0745 11.4829 29.2848 12.0073 29.2893C12.5317 29.2939 13.0369 29.0923 13.4141 28.728L24.7281 17.414C25.103 17.0389 25.3136 16.5303 25.3136 16C25.3136 15.4697 25.103 14.9611 24.7281 14.586L13.4141 3.272C13.039 2.89706 12.5304 2.68643 12.0001 2.68643C11.4697 2.68643 10.9611 2.89706 10.5861 3.272Z" fill="white"/>
</svg>
