<svg width="24" height="24" viewBox="0 0 24 24" fill="none" xmlns="http://www.w3.org/2000/svg">
<path opacity="0.3" d="M12 20C16.41 20 20 16.41 20 12C20 7.59 16.41 4 12 4C7.59 4 4 7.59 4 12C4 16.41 7.59 20 12 20ZM12 9L16 13L8 13L12 9Z" fill="#F8D548"/>
<path d="M12 22C17.52 22 22 17.52 22 12C22 6.47999 17.52 1.99999 12 1.99999C6.48 1.99999 2 6.47999 2 12C2 17.52 6.48 22 12 22ZM12 3.99999C16.41 3.99999 20 7.58999 20 12C20 16.41 16.41 20 12 20C7.59 20 4 16.41 4 12C4 7.58999 7.59 3.99999 12 3.99999ZM12 8.99999L8 13L16 13L12 8.99999Z" fill="#F8D548"/>
</svg>
