<svg width="156" height="96" viewBox="0 0 156 96" fill="none" xmlns="http://www.w3.org/2000/svg">
<g filter="url(#filter0_d_536_2452)">
<rect width="156" height="96" fill="#F5F5F5"/>
</g>
<circle cx="78" cy="48" r="16" fill="#00B2FF"/>
<path d="M72.6666 43.3333H81.3333V48H82.6666V43.3333C82.6666 42.598 82.0686 42 81.3333 42H72.6666C71.9313 42 71.3333 42.598 71.3333 43.3333V51.3333C71.3333 52.0687 71.9313 52.6667 72.6666 52.6667H78V51.3333H72.6666V43.3333Z" fill="white"/>
<path d="M75.3333 47.3333L73.3333 50H80.6666L78 46L76 48.6667L75.3333 47.3333Z" fill="white"/>
<path d="M82.6666 49.3333H81.3333V51.3333H79.3333V52.6667H81.3333V54.6667H82.6666V52.6667H84.6666V51.3333H82.6666V49.3333Z" fill="white"/>
<defs>
<filter id="filter0_d_536_2452" x="0" y="0" width="156" height="96" filterUnits="userSpaceOnUse" color-interpolation-filters="sRGB">
<feFlood flood-opacity="0" result="BackgroundImageFix"/>
<feColorMatrix in="SourceAlpha" type="matrix" values="0 0 0 0 0 0 0 0 0 0 0 0 0 0 0 0 0 0 127 0" result="hardAlpha"/>
<feOffset/>
<feComposite in2="hardAlpha" operator="out"/>
<feColorMatrix type="matrix" values="0 0 0 0 0 0 0 0 0 0 0 0 0 0 0 0 0 0 0.1 0"/>
<feBlend mode="normal" in2="BackgroundImageFix" result="effect1_dropShadow_536_2452"/>
<feBlend mode="normal" in="SourceGraphic" in2="effect1_dropShadow_536_2452" result="shape"/>
</filter>
</defs>
</svg>
