<svg width="24" height="24" viewBox="0 0 24 24" fill="none" xmlns="http://www.w3.org/2000/svg">
<path d="M7 6.5V4.5C7 4.23478 7.10536 3.98043 7.29289 3.79289C7.48043 3.60536 7.73478 3.5 8 3.5H21C21.2652 3.5 21.5196 3.60536 21.7071 3.79289C21.8946 3.98043 22 4.23478 22 4.5V13.5C22 13.7652 21.8946 14.0196 21.7071 14.2071C21.5196 14.3946 21.2652 14.5 21 14.5H20" stroke="#20215A" stroke-width="1.5" stroke-linecap="round" stroke-linejoin="round"/>
<path d="M16 9.5H3C2.44772 9.5 2 9.94772 2 10.5V19.5C2 20.0523 2.44772 20.5 3 20.5H16C16.5523 20.5 17 20.0523 17 19.5V10.5C17 9.94772 16.5523 9.5 16 9.5Z" stroke="#20215A" stroke-width="1.5" stroke-linecap="round" stroke-linejoin="round"/>
<path d="M2 14H17" stroke="#20215A" stroke-width="1.5" stroke-linecap="round" stroke-linejoin="round"/>
<path d="M17 11.5V17.5" stroke="#20215A" stroke-width="1.5" stroke-linecap="round" stroke-linejoin="round"/>
<path d="M2 11.5V17.5" stroke="#20215A" stroke-width="1.5" stroke-linecap="round" stroke-linejoin="round"/>
<path d="M5.5 17H9.5" stroke="#20215A" stroke-width="1.5" stroke-linecap="round" stroke-linejoin="round"/>
<path d="M12.5 17H13.5" stroke="#20215A" stroke-width="1.5" stroke-linecap="round" stroke-linejoin="round"/>
</svg>
