<svg width="140" height="140" viewBox="0 0 140 140" fill="none" xmlns="http://www.w3.org/2000/svg">
<path d="M117.688 34.5909L133.103 48.1195L117.688 61.647V34.5909Z" fill="#5886EE"/>
<path d="M70 103.499L117.688 61.647V6.89719H22.3125V61.647L70 103.499Z" fill="#F1F1FB"/>
<path d="M70 103.499L6.89722 48.1195V133.103H133.103V48.1195L70 103.499Z" fill="#005ABB"/>
<path d="M22.3125 34.5909L6.89722 48.1195L22.3125 61.647V34.5909Z" fill="#5886EE"/>
<path d="M133.103 133.103L75.7718 82.7903C74.1754 81.3893 72.124 80.6168 70 80.6168C67.8761 80.6168 65.8247 81.3893 64.2283 82.7903L6.89722 133.103H133.103Z" fill="#5D86F9"/>
<path d="M92.9867 52.6521C95.8763 39.9569 87.9273 27.3228 75.2321 24.4332C62.5369 21.5435 49.9028 29.4925 47.0132 42.1878C44.1235 54.883 52.0725 67.517 64.7677 70.4067C77.463 73.2963 90.097 65.3473 92.9867 52.6521Z" fill="#E1D8FA"/>
<path d="M54.449 48.2234C54.5032 43.8998 56.2502 39.7696 59.315 36.7193C62.3798 33.669 66.5182 31.9417 70.8421 31.908C79.1185 31.908 85.5509 38.2222 85.5509 45.6356C85.5509 52.3075 81.5105 55.44 77.8629 55.44C76.821 55.5421 75.7763 55.2765 74.9097 54.6892C74.0432 54.1019 73.4094 53.2299 73.1182 52.2244C72.4445 53.1853 71.5533 53.9735 70.5172 54.5247C69.4812 55.0759 68.3295 55.3745 67.1562 55.3963C63.2734 55.3963 60.5674 52.5722 60.5674 48.3755C60.5674 42.9636 64.9599 38.6105 69.5099 38.6105C70.5615 38.5703 71.604 38.8196 72.5236 39.3313C73.4432 39.843 74.2047 40.5974 74.7249 41.5122L75.1963 39.1595L79.2355 39.4734C77.9843 45.9878 77.1968 49.2833 77.1968 50.5772C77.1707 50.8876 77.2127 51.2 77.3197 51.4925C77.4268 51.7851 77.5963 52.0507 77.8165 52.2711C78.0367 52.4914 78.3023 52.661 78.5948 52.7682C78.8873 52.8754 79.1996 52.9175 79.5101 52.8916C81.5882 52.8916 83.9813 50.6942 83.9813 45.6356C83.9813 38.8894 78.2162 33.3988 70.7644 33.3988C66.854 33.4227 63.1112 34.9893 60.3496 37.758C57.5881 40.5267 56.0312 44.2736 56.0174 48.1841C56.0245 49.9447 56.3798 51.6866 57.0628 53.3094C57.7458 54.9322 58.743 56.4039 59.9971 57.6397C61.2511 58.8756 62.7372 59.8512 64.3699 60.5104C66.0025 61.1696 67.7493 61.4994 69.5099 61.4808C72.4809 61.5186 75.3981 60.6868 77.9023 59.0877L78.6865 60.2252C75.9275 62.0357 72.6893 62.9782 69.3896 62.9311C67.4425 62.9477 65.5113 62.5803 63.7063 61.8499C61.9013 61.1195 60.258 60.0404 58.8704 58.6745C57.4828 57.3085 56.378 55.6823 55.6194 53.8891C54.8607 52.0958 54.463 50.1705 54.449 48.2234ZM73.7843 46.3017C74.0194 43.7128 72.7999 42.0273 70.3335 42.0273C67.2349 42.0273 64.8024 44.8897 64.8024 48.1064C64.7586 48.6107 64.8223 49.1185 64.9894 49.5963C65.1565 50.0741 65.4232 50.5109 65.7717 50.878C66.1202 51.245 66.5427 51.5339 67.0112 51.7254C67.4797 51.917 67.9836 52.0069 68.4894 51.9892C71.471 51.9892 73.4704 49.5184 73.7843 46.3017Z" fill="#5D86F9"/>
</svg>
