<svg width="20" height="20" viewBox="0 0 20 20" fill="none" xmlns="http://www.w3.org/2000/svg">
<path d="M5.33333 9.16667H7V10.7593H5.33333V9.16667ZM15.3333 3.59259H14.5V2H12.8333V3.59259H6.16667V2H4.5V3.59259H3.66667C2.74167 3.59259 2.00833 4.30926 2.00833 5.18518L2 16.3333C2 16.7557 2.17559 17.1608 2.48816 17.4595C2.80072 17.7581 3.22464 17.9259 3.66667 17.9259H15.3333C16.25 17.9259 17 17.2093 17 16.3333V5.18518C17 4.30926 16.25 3.59259 15.3333 3.59259ZM15.3333 16.3333H3.66667V8.37037H15.3333V16.3333ZM15.3333 6.77778H3.66667V5.18518H15.3333V6.77778ZM12 9.16667H13.6667V10.7593H12V9.16667ZM8.66667 9.16667H10.3333V10.7593H8.66667V9.16667Z" fill="#737373"/>
</svg>
