<svg width="15" height="15" viewBox="0 0 15 15" fill="none" xmlns="http://www.w3.org/2000/svg">
<path fill-rule="evenodd" clip-rule="evenodd" d="M0.876953 7.50001C0.876953 5.74349 1.57473 4.0589 2.81678 2.81685C4.05884 1.57479 5.74342 0.877014 7.49995 0.877014C9.25648 0.877014 10.9411 1.57479 12.1831 2.81685C13.4252 4.0589 14.123 5.74349 14.123 7.50001C14.123 9.25654 13.4252 10.9411 12.1831 12.1832C10.9411 13.4252 9.25648 14.123 7.49995 14.123C5.74342 14.123 4.05884 13.4252 2.81678 12.1832C1.57473 10.9411 0.876953 9.25654 0.876953 7.50001ZM7.49995 1.82701C5.99538 1.82701 4.55243 2.4247 3.48854 3.4886C2.42464 4.55249 1.82695 5.99544 1.82695 7.50001C1.82695 9.00459 2.42464 10.4475 3.48854 11.5114C4.55243 12.5753 5.99538 13.173 7.49995 13.173C9.00453 13.173 10.4475 12.5753 11.5114 11.5114C12.5753 10.4475 13.173 9.00459 13.173 7.50001C13.173 5.99544 12.5753 4.55249 11.5114 3.4886C10.4475 2.4247 9.00453 1.82701 7.49995 1.82701ZM9.85395 5.14701C9.94769 5.24078 10.0003 5.36793 10.0003 5.50051C10.0003 5.6331 9.94769 5.76025 9.85395 5.85401L8.20695 7.50001L9.85395 9.14601C9.94784 9.2399 10.0006 9.36724 10.0006 9.50001C10.0006 9.63279 9.94784 9.76013 9.85395 9.85401C9.76007 9.9479 9.63273 10.0006 9.49995 10.0006C9.36718 10.0006 9.23984 9.9479 9.14595 9.85401L7.49995 8.20701L5.85395 9.85401C5.80747 9.9005 5.75228 9.93738 5.69154 9.96254C5.6308 9.9877 5.5657 10.0006 5.49995 10.0006C5.43421 10.0006 5.36911 9.9877 5.30837 9.96254C5.24763 9.93738 5.19244 9.9005 5.14595 9.85401C5.09947 9.80753 5.06259 9.75234 5.03743 9.6916C5.01227 9.63086 4.99932 9.56576 4.99932 9.50001C4.99932 9.43427 5.01227 9.36917 5.03743 9.30843C5.06259 9.24769 5.09947 9.1925 5.14595 9.14601L6.79295 7.50001L5.14595 5.85401C5.05207 5.76013 4.99932 5.63279 4.99932 5.50001C4.99932 5.36724 5.05207 5.2399 5.14595 5.14601C5.23984 5.05213 5.36718 4.99938 5.49995 4.99938C5.63273 4.99938 5.76007 5.05213 5.85395 5.14601L7.49995 6.79301L9.14595 5.14601C9.1924 5.09945 9.24757 5.06251 9.30832 5.0373C9.36907 5.01209 9.43419 4.99912 9.49995 4.99912C9.56572 4.99912 9.63084 5.01209 9.69159 5.0373C9.75233 5.06251 9.80751 5.09945 9.85395 5.14601V5.14701Z" fill="black"/>
</svg>
