<svg width="22" height="22" viewBox="0 0 22 22" fill="none" xmlns="http://www.w3.org/2000/svg">
<path d="M9.03841 16.4999C8.91272 16.4995 8.78846 16.4733 8.67334 16.4228C8.55822 16.3723 8.45471 16.2987 8.36925 16.2066L3.91425 11.4674C3.74771 11.2899 3.6585 11.0536 3.66624 10.8103C3.67397 10.5671 3.77802 10.3369 3.9555 10.1703C4.13297 10.0038 4.36933 9.91459 4.61258 9.92233C4.85583 9.93006 5.08604 10.0341 5.25258 10.2116L9.02925 14.2358L16.7384 5.80242C16.8166 5.705 16.914 5.6246 17.0244 5.56616C17.1348 5.50772 17.2561 5.47248 17.3806 5.46259C17.5052 5.4527 17.6304 5.46839 17.7487 5.50867C17.867 5.54896 17.9758 5.613 18.0684 5.69686C18.161 5.78072 18.2355 5.88263 18.2873 5.99633C18.3391 6.11003 18.3671 6.23312 18.3696 6.35805C18.3721 6.48297 18.3491 6.60708 18.3018 6.72276C18.2546 6.83844 18.1843 6.94325 18.0951 7.03075L9.71675 16.1974C9.63208 16.2912 9.52893 16.3666 9.41378 16.4186C9.29862 16.4707 9.17394 16.4983 9.04758 16.4999H9.03841Z" fill="#005ABB"/>
</svg>
