<svg width="24" height="24" viewBox="0 0 24 24" fill="none" xmlns="http://www.w3.org/2000/svg">
<path d="M5.6 7.2H4V18.4C4 18.8243 4.16857 19.2313 4.46863 19.5314C4.76869 19.8314 5.17565 20 5.6 20H16.8V18.4H5.6V7.2ZM17.2 13.8C17.2 12.6 14.8 12 13.6 12C12.4 12 10 12.6 10 13.8V14.4H17.2V13.8ZM13.6 10.6C14.592 10.6 15.4 9.792 15.4 8.8C15.4 7.808 14.592 7 13.6 7C12.608 7 11.8 7.808 11.8 8.8C11.8 9.792 12.608 10.6 13.6 10.6ZM18.4 4H8.8C7.92 4 7.2 4.72 7.2 5.6V15.2C7.2 15.6243 7.36857 16.0313 7.66863 16.3314C7.96869 16.6314 8.37565 16.8 8.8 16.8H18.4C19.288 16.8 20 16.088 20 15.2V5.6C20 5.17565 19.8314 4.76869 19.5314 4.46863C19.2313 4.16857 18.8243 4 18.4 4ZM18.4 15.2H8.8V5.6H18.4V15.2Z" fill="#20215A"/>
</svg>
