<svg width="109" height="25" viewBox="0 0 109 25" fill="none" xmlns="http://www.w3.org/2000/svg">
<path d="M11 0H96.5C103.404 0 109 5.59644 109 12.5C109 19.4036 103.404 25 96.5 25H11V0Z" fill="#256CD3"/>
<circle cx="12.5" cy="12.5" r="12.5" fill="white"/>
<path d="M37.323 15.928C37.3977 15.928 37.463 15.9583 37.519 16.019L38.058 16.6C37.6473 17.076 37.148 17.447 36.56 17.713C35.9767 17.979 35.2697 18.112 34.439 18.112C33.7203 18.112 33.067 17.9883 32.479 17.741C31.891 17.489 31.3893 17.139 30.974 16.691C30.5587 16.2383 30.2367 15.697 30.008 15.067C29.7793 14.437 29.665 13.744 29.665 12.988C29.665 12.232 29.784 11.539 30.022 10.909C30.26 10.279 30.5937 9.73767 31.023 9.285C31.457 8.83233 31.975 8.48233 32.577 8.235C33.179 7.983 33.844 7.857 34.572 7.857C35.286 7.857 35.916 7.97133 36.462 8.2C37.008 8.42867 37.4887 8.739 37.904 9.131L37.456 9.754C37.428 9.80067 37.3907 9.84033 37.344 9.873C37.302 9.901 37.2437 9.915 37.169 9.915C37.085 9.915 36.9823 9.87067 36.861 9.782C36.7397 9.68867 36.581 9.586 36.385 9.474C36.189 9.362 35.944 9.26167 35.65 9.173C35.356 9.07967 34.9943 9.033 34.565 9.033C34.047 9.033 33.5733 9.124 33.144 9.306C32.7147 9.48333 32.3437 9.74233 32.031 10.083C31.723 10.4237 31.4827 10.839 31.31 11.329C31.1373 11.819 31.051 12.372 31.051 12.988C31.051 13.6133 31.1397 14.171 31.317 14.661C31.499 15.151 31.744 15.5663 32.052 15.907C32.3647 16.243 32.731 16.4997 33.151 16.677C33.5757 16.8543 34.033 16.943 34.523 16.943C34.8217 16.943 35.09 16.9267 35.328 16.894C35.5707 16.8567 35.7923 16.8007 35.993 16.726C36.1983 16.6513 36.3873 16.558 36.56 16.446C36.7373 16.3293 36.9123 16.1917 37.085 16.033C37.1643 15.963 37.2437 15.928 37.323 15.928ZM40.5916 11.854C40.8949 11.532 41.2309 11.2753 41.5996 11.084C41.9682 10.8927 42.3929 10.797 42.8736 10.797C43.2609 10.797 43.6016 10.8623 43.8956 10.993C44.1942 11.119 44.4416 11.301 44.6376 11.539C44.8382 11.7723 44.9899 12.0547 45.0926 12.386C45.1952 12.7173 45.2466 13.0837 45.2466 13.485V18H43.9936V13.485C43.9936 12.9483 43.8699 12.533 43.6226 12.239C43.3799 11.9403 43.0089 11.791 42.5096 11.791C42.1409 11.791 41.7956 11.8797 41.4736 12.057C41.1562 12.2343 40.8622 12.4747 40.5916 12.778V18H39.3386V7.689H40.5916V11.854ZM50.9882 14.808C50.4142 14.8267 49.9242 14.8733 49.5182 14.948C49.1169 15.018 48.7879 15.1113 48.5312 15.228C48.2792 15.3447 48.0949 15.4823 47.9782 15.641C47.8662 15.7997 47.8102 15.977 47.8102 16.173C47.8102 16.3597 47.8405 16.5207 47.9012 16.656C47.9619 16.7913 48.0435 16.9033 48.1462 16.992C48.2535 17.076 48.3772 17.139 48.5172 17.181C48.6619 17.2183 48.8159 17.237 48.9792 17.237C49.1985 17.237 49.3992 17.216 49.5812 17.174C49.7632 17.1273 49.9335 17.062 50.0922 16.978C50.2555 16.894 50.4095 16.7937 50.5542 16.677C50.7035 16.5603 50.8482 16.4273 50.9882 16.278V14.808ZM46.9632 11.91C47.3552 11.532 47.7775 11.2497 48.2302 11.063C48.6829 10.8763 49.1845 10.783 49.7352 10.783C50.1319 10.783 50.4842 10.8483 50.7922 10.979C51.1002 11.1097 51.3592 11.2917 51.5692 11.525C51.7792 11.7583 51.9379 12.0407 52.0452 12.372C52.1525 12.7033 52.2062 13.0673 52.2062 13.464V18H51.6532C51.5319 18 51.4385 17.9813 51.3732 17.944C51.3079 17.902 51.2565 17.8227 51.2192 17.706L51.0792 17.034C50.8925 17.2067 50.7105 17.3607 50.5332 17.496C50.3559 17.6267 50.1692 17.7387 49.9732 17.832C49.7772 17.9207 49.5672 17.9883 49.3432 18.035C49.1239 18.0863 48.8789 18.112 48.6082 18.112C48.3329 18.112 48.0739 18.0747 47.8312 18C47.5885 17.9207 47.3762 17.804 47.1942 17.65C47.0169 17.496 46.8745 17.3023 46.7672 17.069C46.6645 16.831 46.6132 16.551 46.6132 16.229C46.6132 15.949 46.6902 15.6807 46.8442 15.424C46.9982 15.1627 47.2479 14.9317 47.5932 14.731C47.9385 14.5303 48.3889 14.367 48.9442 14.241C49.4995 14.1103 50.1809 14.0357 50.9882 14.017V13.464C50.9882 12.9133 50.8692 12.498 50.6312 12.218C50.3932 11.9333 50.0455 11.791 49.5882 11.791C49.2802 11.791 49.0212 11.8307 48.8112 11.91C48.6059 11.9847 48.4262 12.071 48.2722 12.169C48.1229 12.2623 47.9922 12.3487 47.8802 12.428C47.7729 12.5027 47.6655 12.54 47.5582 12.54C47.4742 12.54 47.4019 12.519 47.3412 12.477C47.2805 12.4303 47.2292 12.3743 47.1872 12.309L46.9632 11.91ZM56.1855 18.112C55.6255 18.112 55.1938 17.9557 54.8905 17.643C54.5918 17.3303 54.4425 16.88 54.4425 16.292V11.952H53.5885C53.5138 11.952 53.4508 11.931 53.3995 11.889C53.3482 11.8423 53.3225 11.7723 53.3225 11.679V11.182L54.4845 11.035L54.7715 8.844C54.7855 8.774 54.8158 8.718 54.8625 8.676C54.9138 8.62933 54.9792 8.606 55.0585 8.606H55.6885V11.049H57.7395V11.952H55.6885V16.208C55.6885 16.5067 55.7608 16.7283 55.9055 16.873C56.0502 17.0177 56.2368 17.09 56.4655 17.09C56.5962 17.09 56.7082 17.0737 56.8015 17.041C56.8995 17.0037 56.9835 16.964 57.0535 16.922C57.1235 16.88 57.1818 16.8427 57.2285 16.81C57.2798 16.7727 57.3242 16.754 57.3615 16.754C57.4268 16.754 57.4852 16.7937 57.5365 16.873L57.9005 17.468C57.6858 17.6687 57.4268 17.8273 57.1235 17.944C56.8202 18.056 56.5075 18.112 56.1855 18.112ZM67.7643 14.276L66.1893 10.195C66.1426 10.0737 66.0936 9.93367 66.0423 9.775C65.9909 9.61167 65.9419 9.439 65.8953 9.257C65.7973 9.635 65.6969 9.95 65.5943 10.202L64.0193 14.276H67.7643ZM70.5923 18H69.5423C69.4209 18 69.3229 17.9697 69.2483 17.909C69.1736 17.8483 69.1176 17.7713 69.0803 17.678L68.1423 15.256H63.6413L62.7033 17.678C62.6753 17.762 62.6216 17.8367 62.5423 17.902C62.4629 17.9673 62.3649 18 62.2483 18H61.1983L65.2093 7.969H66.5813L70.5923 18ZM76.0875 12.596C75.8541 12.2833 75.6021 12.0663 75.3315 11.945C75.0608 11.819 74.7575 11.756 74.4215 11.756C73.7635 11.756 73.2571 11.9917 72.9025 12.463C72.5478 12.9343 72.3705 13.6063 72.3705 14.479C72.3705 14.941 72.4101 15.3377 72.4895 15.669C72.5688 15.9957 72.6855 16.2663 72.8395 16.481C72.9935 16.691 73.1825 16.845 73.4065 16.943C73.6305 17.041 73.8848 17.09 74.1695 17.09C74.5801 17.09 74.9371 16.9967 75.2405 16.81C75.5485 16.6233 75.8308 16.3597 76.0875 16.019V12.596ZM77.3335 7.689V18H76.5915C76.4141 18 76.3021 17.9137 76.2555 17.741L76.1435 16.88C75.8401 17.244 75.4948 17.538 75.1075 17.762C74.7201 17.986 74.2721 18.098 73.7635 18.098C73.3575 18.098 72.9888 18.021 72.6575 17.867C72.3261 17.7083 72.0438 17.4773 71.8105 17.174C71.5771 16.8707 71.3975 16.4927 71.2715 16.04C71.1455 15.5873 71.0825 15.067 71.0825 14.479C71.0825 13.9563 71.1525 13.471 71.2925 13.023C71.4325 12.5703 71.6331 12.1783 71.8945 11.847C72.1558 11.5157 72.4755 11.2567 72.8535 11.07C73.2361 10.8787 73.6655 10.783 74.1415 10.783C74.5755 10.783 74.9465 10.8577 75.2545 11.007C75.5671 11.1517 75.8448 11.3547 76.0875 11.616V7.689H77.3335ZM79.3015 18V10.909H80.0505C80.2278 10.909 80.3375 10.9953 80.3795 11.168L80.4705 11.896C80.7318 11.574 81.0258 11.3103 81.3525 11.105C81.6791 10.8997 82.0571 10.797 82.4865 10.797C82.9625 10.797 83.3475 10.93 83.6415 11.196C83.9401 11.462 84.1548 11.8213 84.2855 12.274C84.3881 12.0173 84.5188 11.7957 84.6775 11.609C84.8408 11.4223 85.0228 11.2683 85.2235 11.147C85.4241 11.0257 85.6365 10.937 85.8605 10.881C86.0891 10.825 86.3201 10.797 86.5535 10.797C86.9268 10.797 87.2581 10.8577 87.5475 10.979C87.8415 11.0957 88.0888 11.2683 88.2895 11.497C88.4948 11.7257 88.6511 12.008 88.7585 12.344C88.8658 12.6753 88.9195 13.0557 88.9195 13.485V18H87.6665V13.485C87.6665 12.9297 87.5451 12.5097 87.3025 12.225C87.0598 11.9357 86.7098 11.791 86.2525 11.791C86.0471 11.791 85.8511 11.8283 85.6645 11.903C85.4825 11.973 85.3215 12.078 85.1815 12.218C85.0415 12.358 84.9295 12.5353 84.8455 12.75C84.7661 12.96 84.7265 13.205 84.7265 13.485V18H83.4735V13.485C83.4735 12.9157 83.3591 12.491 83.1305 12.211C82.9018 11.931 82.5681 11.791 82.1295 11.791C81.8215 11.791 81.5368 11.875 81.2755 12.043C81.0141 12.2063 80.7738 12.4303 80.5545 12.715V18H79.3015ZM92.1292 10.909V18H90.8832V10.909H92.1292ZM92.3952 8.683C92.3952 8.80433 92.3695 8.91867 92.3182 9.026C92.2715 9.12867 92.2062 9.222 92.1222 9.306C92.0428 9.38533 91.9472 9.44833 91.8352 9.495C91.7278 9.54167 91.6135 9.565 91.4922 9.565C91.3708 9.565 91.2565 9.54167 91.1492 9.495C91.0465 9.44833 90.9555 9.38533 90.8762 9.306C90.7968 9.222 90.7338 9.12867 90.6872 9.026C90.6405 8.91867 90.6172 8.80433 90.6172 8.683C90.6172 8.56167 90.6405 8.44733 90.6872 8.34C90.7338 8.228 90.7968 8.13233 90.8762 8.053C90.9555 7.969 91.0465 7.90367 91.1492 7.857C91.2565 7.81033 91.3708 7.787 91.4922 7.787C91.6135 7.787 91.7278 7.81033 91.8352 7.857C91.9472 7.90367 92.0428 7.969 92.1222 8.053C92.2062 8.13233 92.2715 8.228 92.3182 8.34C92.3695 8.44733 92.3952 8.56167 92.3952 8.683ZM95.3525 11.938C95.5065 11.7653 95.6698 11.609 95.8425 11.469C96.0151 11.329 96.1971 11.21 96.3885 11.112C96.5845 11.0093 96.7898 10.9323 97.0045 10.881C97.2238 10.825 97.4595 10.797 97.7115 10.797C98.0988 10.797 98.4395 10.8623 98.7335 10.993C99.0321 11.119 99.2795 11.301 99.4755 11.539C99.6761 11.7723 99.8278 12.0547 99.9305 12.386C100.033 12.7173 100.084 13.0837 100.084 13.485V18H98.8315V13.485C98.8315 12.9483 98.7078 12.533 98.4605 12.239C98.2178 11.9403 97.8468 11.791 97.3475 11.791C96.9788 11.791 96.6335 11.8797 96.3115 12.057C95.9941 12.2343 95.7001 12.4747 95.4295 12.778V18H94.1765V10.909H94.9255C95.1028 10.909 95.2125 10.9953 95.2545 11.168L95.3525 11.938Z" fill="white"/>
<path d="M5.50001 10.875C5.50028 9.66062 5.89352 8.47896 6.62098 7.5066C7.34843 6.53425 8.37101 5.82342 9.5359 5.48035C10.7008 5.13729 11.9454 5.18042 13.0838 5.60328C14.2221 6.02615 15.1931 6.80606 15.8515 7.82643C16.5099 8.8468 16.8204 10.0528 16.7366 11.2643C16.6528 12.4758 16.1792 13.6276 15.3866 14.5476C14.594 15.4676 13.525 16.1065 12.3393 16.3686C11.1535 16.6307 9.91483 16.5021 8.80826 16.002C7.86476 16.2195 6.84851 16.407 6.38126 16.491C6.26184 16.5123 6.13903 16.5042 6.02344 16.4675C5.90784 16.4307 5.80294 16.3663 5.7178 16.2799C5.63265 16.1935 5.56983 16.0877 5.53476 15.9716C5.49969 15.8555 5.49342 15.7326 5.51651 15.6135C5.60501 15.156 5.80151 14.175 6.02726 13.2562C5.67886 12.5108 5.49885 11.6978 5.50001 10.875ZM10.108 7.73022C9.77651 7.90722 9.51551 8.18247 9.31826 8.54772C9.2537 8.6782 9.24224 8.82863 9.28629 8.96739C9.33035 9.10614 9.42648 9.22242 9.55449 9.29176C9.68249 9.3611 9.83239 9.37812 9.97268 9.33923C10.113 9.30034 10.2327 9.20857 10.3068 9.08322C10.417 8.88072 10.5303 8.78022 10.6383 8.72322C10.7508 8.66247 10.9038 8.62572 11.125 8.62572C11.293 8.62572 11.4903 8.68497 11.635 8.80422C11.7633 8.90922 11.875 9.07722 11.875 9.37497C11.875 9.52122 11.8188 9.58872 11.434 9.89097C11.0965 10.1565 10.5625 10.587 10.5625 11.4375C10.5625 11.5867 10.6218 11.7297 10.7273 11.8352C10.8327 11.9407 10.9758 12 11.125 12C11.2742 12 11.4173 11.9407 11.5228 11.8352C11.6282 11.7297 11.6875 11.5867 11.6875 11.4375C11.6875 11.16 11.8105 11.0257 12.1285 10.7752L12.1923 10.7265C12.4825 10.503 13 10.1062 13 9.37497C13 8.73897 12.7368 8.25147 12.349 7.93347C12.002 7.6544 11.5703 7.50177 11.125 7.50072C10.7838 7.50072 10.4335 7.55622 10.108 7.73022ZM11.875 13.5C11.875 13.3011 11.796 13.1103 11.6553 12.9696C11.5147 12.829 11.3239 12.75 11.125 12.75C10.9261 12.75 10.7353 12.829 10.5947 12.9696C10.454 13.1103 10.375 13.3011 10.375 13.5C10.375 13.6989 10.454 13.8896 10.5947 14.0303C10.7353 14.171 10.9261 14.25 11.125 14.25C11.3239 14.25 11.5147 14.171 11.6553 14.0303C11.796 13.8896 11.875 13.6989 11.875 13.5Z" fill="#005ABB"/>
<path d="M11.05 17.25C12.0892 18.2161 13.4561 18.7521 14.875 18.75C15.7 18.75 16.4845 18.5722 17.1918 18.252C18.1368 18.4695 19.1575 18.657 19.6278 18.7395C19.7474 18.7606 19.8703 18.7522 19.986 18.7151C20.1016 18.678 20.2065 18.6132 20.2915 18.5264C20.3764 18.4396 20.4389 18.3333 20.4736 18.2169C20.5082 18.1005 20.5139 17.9774 20.4903 17.8582C20.3347 17.0706 20.1621 16.2864 19.9728 15.5062C20.3063 14.7922 20.486 14.0161 20.5005 13.2282C20.515 12.4403 20.3638 11.6581 20.0567 10.9323C19.7496 10.2065 19.2935 9.55335 18.718 9.01506C18.1424 8.47676 17.4602 8.06536 16.7155 7.8075C17.2516 8.78398 17.5225 9.8839 17.5011 10.9977C17.4798 12.1114 17.1669 13.2002 16.5938 14.1554C16.0207 15.1106 15.2073 15.899 14.2346 16.4419C13.2619 16.9849 12.1639 17.2635 11.05 17.25Z" fill="#2196F3"/>
</svg>
