<svg width="24" height="24" viewBox="0 0 24 24" fill="none" xmlns="http://www.w3.org/2000/svg">
<path d="M9.4247 9.775C9.36897 9.71913 9.30276 9.6748 9.22986 9.64455C9.15697 9.6143 9.07882 9.59873 8.9999 9.59873C8.92098 9.59873 8.84284 9.6143 8.76994 9.64455C8.69705 9.6748 8.63084 9.71913 8.5751 9.775L7.7999 10.5514L7.0247 9.775C6.91204 9.66234 6.75923 9.59905 6.5999 9.59905C6.44057 9.59905 6.28777 9.66234 6.1751 9.775C6.06244 9.88767 5.99914 10.0405 5.99914 10.1998C5.99914 10.3591 6.06244 10.5119 6.1751 10.6246L6.9515 11.3998L6.1751 12.175C6.06244 12.2877 5.99914 12.4405 5.99914 12.5998C5.99914 12.7591 6.06244 12.9119 6.1751 13.0246C6.28777 13.1373 6.44057 13.2006 6.5999 13.2006C6.75923 13.2006 6.91204 13.1373 7.0247 13.0246L7.7999 12.2482L8.5751 13.0246C8.68777 13.1373 8.84057 13.2006 8.9999 13.2006C9.15923 13.2006 9.31204 13.1373 9.4247 13.0246C9.53737 12.9119 9.60066 12.7591 9.60066 12.5998C9.60066 12.4405 9.53737 12.2877 9.4247 12.175L8.6483 11.3998L9.4247 10.6246C9.48058 10.5689 9.52491 10.5027 9.55516 10.4298C9.5854 10.3569 9.60097 10.2787 9.60097 10.1998C9.60097 10.1209 9.5854 10.0427 9.55516 9.96984C9.52491 9.89695 9.48058 9.83074 9.4247 9.775ZM13.3751 9.775C13.4878 9.66234 13.6406 9.59905 13.7999 9.59905C13.9592 9.59905 14.112 9.66234 14.2247 9.775C14.3374 9.88767 14.4007 10.0405 14.4007 10.1998C14.4007 10.3591 14.3374 10.5119 14.2247 10.6246L13.4483 11.3998L14.2247 12.175C14.3374 12.2877 14.4007 12.4405 14.4007 12.5998C14.4007 12.7591 14.3374 12.9119 14.2247 13.0246C14.112 13.1373 13.9592 13.2006 13.7999 13.2006C13.6406 13.2006 13.4878 13.1373 13.3751 13.0246L12.5999 12.2482L11.8247 13.0246C11.712 13.1373 11.5592 13.2006 11.3999 13.2006C11.2406 13.2006 11.0878 13.1373 10.9751 13.0246C10.8624 12.9119 10.7991 12.7591 10.7991 12.5998C10.7991 12.4405 10.8624 12.2877 10.9751 12.175L11.7515 11.3998L10.9751 10.6246C10.8624 10.5119 10.7991 10.3591 10.7991 10.1998C10.7991 10.0405 10.8624 9.88767 10.9751 9.775C11.0878 9.66234 11.2406 9.59905 11.3999 9.59905C11.5592 9.59905 11.712 9.66234 11.8247 9.775L12.5999 10.5514L13.3751 9.775ZM16.1999 11.9998C16.0408 11.9998 15.8882 12.063 15.7756 12.1755C15.6631 12.2881 15.5999 12.4407 15.5999 12.5998C15.5999 12.7589 15.6631 12.9115 15.7756 13.0241C15.8882 13.1366 16.0408 13.1998 16.1999 13.1998H18.5999C18.759 13.1998 18.9116 13.1366 19.0242 13.0241C19.1367 12.9115 19.1999 12.7589 19.1999 12.5998C19.1999 12.4407 19.1367 12.2881 19.0242 12.1755C18.9116 12.063 18.759 11.9998 18.5999 11.9998H16.1999ZM5.6999 4.7998C4.82469 4.7998 3.98532 5.14748 3.36645 5.76635C2.74758 6.38522 2.3999 7.22459 2.3999 8.0998V14.6998C2.3999 15.575 2.74758 16.4144 3.36645 17.0333C3.98532 17.6521 4.82469 17.9998 5.6999 17.9998H18.2999C19.1751 17.9998 20.0145 17.6521 20.6334 17.0333C21.2522 16.4144 21.5999 15.575 21.5999 14.6998V8.0998C21.5999 7.22459 21.2522 6.38522 20.6334 5.76635C20.0145 5.14748 19.1751 4.7998 18.2999 4.7998H5.6999ZM3.5999 8.0998C3.5999 6.9406 4.5407 5.9998 5.6999 5.9998H18.2999C19.4591 5.9998 20.3999 6.9406 20.3999 8.0998V14.6998C20.3999 15.2568 20.1787 15.7909 19.7848 16.1847C19.391 16.5786 18.8569 16.7998 18.2999 16.7998H5.6999C5.14295 16.7998 4.6088 16.5786 4.21498 16.1847C3.82115 15.7909 3.5999 15.2568 3.5999 14.6998V8.0998Z" fill="#20215A"/>
</svg>
