<svg width="22" height="22" viewBox="0 0 22 22" fill="none" xmlns="http://www.w3.org/2000/svg">
<path d="M17.4167 3.66659H16.5V2.74992C16.5 2.24575 16.0875 1.83325 15.5833 1.83325C15.0792 1.83325 14.6667 2.24575 14.6667 2.74992V3.66659H7.33333V2.74992C7.33333 2.24575 6.92083 1.83325 6.41667 1.83325C5.9125 1.83325 5.5 2.24575 5.5 2.74992V3.66659H4.58333C3.56583 3.66659 2.75917 4.49159 2.75917 5.49992L2.75 18.3333C2.75 18.8195 2.94315 19.2858 3.28697 19.6296C3.63079 19.9734 4.0971 20.1666 4.58333 20.1666H17.4167C18.425 20.1666 19.25 19.3416 19.25 18.3333V5.49992C19.25 4.49159 18.425 3.66659 17.4167 3.66659ZM17.4167 17.4166C17.4167 17.9208 17.0042 18.3333 16.5 18.3333H5.5C4.99583 18.3333 4.58333 17.9208 4.58333 17.4166V8.24992H17.4167V17.4166ZM6.41667 10.0833H8.25V11.9166H6.41667V10.0833ZM10.0833 10.0833H11.9167V11.9166H10.0833V10.0833ZM13.75 10.0833H15.5833V11.9166H13.75V10.0833Z" fill="#78849E"/>
</svg>
