<svg width="22" height="22" viewBox="0 0 22 22" fill="none" xmlns="http://www.w3.org/2000/svg">
<path d="M0 4C0 1.79086 1.79086 0 4 0H22V22H0V4Z" fill="#CB3A31"/>
<path d="M5 7H17" stroke="white" stroke-width="2" stroke-linecap="round" stroke-linejoin="round"/>
<path d="M8.33337 7V5.66667C8.33337 5.31305 8.47385 4.97391 8.7239 4.72386C8.97395 4.47381 9.31309 4.33334 9.66671 4.33334H12.3334C12.687 4.33334 13.0261 4.47381 13.2762 4.72386C13.5262 4.97391 13.6667 5.31305 13.6667 5.66667V7M15.6667 7V16.3333C15.6667 16.687 15.5262 17.0261 15.2762 17.2761C15.0261 17.5262 14.687 17.6667 14.3334 17.6667H7.66671C7.31309 17.6667 6.97395 17.5262 6.7239 17.2761C6.47385 17.0261 6.33337 16.687 6.33337 16.3333V7H15.6667Z" stroke="white" stroke-width="2" stroke-linecap="round" stroke-linejoin="round"/>
</svg>
