<svg width="24" height="24" viewBox="0 0 24 24" fill="none" xmlns="http://www.w3.org/2000/svg">
<path d="M23 1.5C23.2733 1.5 23.5067 1.6 23.7 1.8C23.9 1.99333 24 2.22667 24 2.5V21.5C24 21.7733 23.9 22.0067 23.7 22.2C23.5067 22.4 23.2733 22.5 23 22.5H7C6.72667 22.5 6.49333 22.4 6.3 22.2C6.1 22.0067 6 21.7733 6 21.5V18H1C0.726667 18 0.493333 17.9 0.3 17.7C0.1 17.5067 0 17.2733 0 17V7C0 6.72667 0.1 6.49333 0.3 6.3C0.486667 6.1 0.72 6 1 6H6V2.5C6 2.22667 6.1 1.99333 6.3 1.8C6.49333 1.6 6.72667 1.5 7 1.5H23ZM6 13.28L7.42 15.94H9.56L7.18 12.07L9.52 8.27H7.46L6.16 10.67L6.11 10.75L6.07 10.84L5.43 9.56L4.77 8.27H2.59L4.86 12.09L2.38 15.94H4.54L6 13.28ZM14.25 21V18H7.5V21H14.25ZM14.25 16.5V12.75H12V16.5H14.25ZM14.25 11.25V7.5H12V11.25H14.25ZM14.25 6V3H7.5V6H14.25ZM22.5 21V18H15.75V21H22.5ZM22.5 11.25V7.5H15.75V11.25H22.5ZM22.5 6V3H15.75V6H22.5Z" fill="black"/>
<path d="M20.1345 14.69L19.4841 15.32V12.5C19.4841 12.3674 19.4318 12.2402 19.3387 12.1464C19.2457 12.0527 19.1194 12 18.9877 12C18.8561 12 18.7298 12.0527 18.6367 12.1464C18.5436 12.2402 18.4913 12.3674 18.4913 12.5V15.295L17.8509 14.645C17.8046 14.5984 17.7497 14.5614 17.6892 14.5362C17.6287 14.5109 17.5639 14.498 17.4985 14.498C17.433 14.498 17.3682 14.5109 17.3077 14.5362C17.2472 14.5614 17.1923 14.5984 17.146 14.645C17.0997 14.6916 17.063 14.747 17.0379 14.8079C17.0129 14.8688 17 14.9341 17 15C17 15.0659 17.0129 15.1312 17.0379 15.1921C17.063 15.253 17.0997 15.3084 17.146 15.355L18.6353 16.855C18.6817 16.9013 18.7367 16.938 18.7971 16.9629C18.8576 16.9878 18.9224 17.0004 18.9877 17C19.1155 16.9995 19.2382 16.9493 19.3303 16.86L20.8195 15.41C20.8722 15.3662 20.9153 15.312 20.9463 15.2506C20.9772 15.1893 20.9952 15.1222 20.9992 15.0535C21.0031 14.9848 20.993 14.9161 20.9694 14.8515C20.9458 14.787 20.9092 14.728 20.862 14.6784C20.8147 14.6287 20.7578 14.5894 20.6948 14.5629C20.6318 14.5364 20.564 14.5233 20.4957 14.5244C20.4274 14.5255 20.3601 14.5408 20.2979 14.5693C20.2358 14.5977 20.1801 14.6389 20.1345 14.69Z" fill="#F8D548"/>
</svg>
