<svg width="32" height="32" viewBox="0 0 32 32" fill="none" xmlns="http://www.w3.org/2000/svg">
<circle cx="16" cy="16" r="16" fill="#005ABB"/>
<path d="M25.9161 8.42102H12.6946V25.9162H25.9161V8.42102Z" fill="#172B4D"/>
<path d="M25.9161 8.42102L19.3053 14.8316L12.6946 8.42102H25.9161Z" fill="#5886EE"/>
<path d="M19.3053 23.579H6.08383V8.42102L8.42081 6.08386H19.3053V23.579Z" fill="#F1F1FB"/>
<path d="M8.42081 6.08386V8.42102H6.08383L8.42081 6.08386Z" fill="#E1D8FA"/>
<path d="M14.9809 8.72156H10.409C10.3293 8.72156 10.2528 8.68987 10.1964 8.63346C10.14 8.57705 10.1083 8.50055 10.1083 8.42078C10.1083 8.341 10.14 8.2645 10.1964 8.20809C10.2528 8.15168 10.3293 8.12 10.409 8.12H14.9809C15.0607 8.12 15.1372 8.15168 15.1936 8.20809C15.25 8.2645 15.2817 8.341 15.2817 8.42078C15.2817 8.50055 15.25 8.57705 15.1936 8.63346C15.1372 8.68987 15.0607 8.72156 14.9809 8.72156Z" fill="#E1D8FA"/>
<path d="M16.9683 11.286H8.4203C8.34053 11.286 8.26402 11.2543 8.20762 11.1979C8.15121 11.1415 8.11952 11.065 8.11952 10.9852C8.11952 10.9055 8.15121 10.829 8.20762 10.7725C8.26402 10.7161 8.34053 10.6844 8.4203 10.6844H16.9683C17.0481 10.6844 17.1246 10.7161 17.181 10.7725C17.2374 10.829 17.2691 10.9055 17.2691 10.9852C17.2691 11.065 17.2374 11.1415 17.181 11.1979C17.1246 11.2543 17.0481 11.286 16.9683 11.286Z" fill="#E1D8FA"/>
<path d="M16.9683 13.8502H8.4203C8.34053 13.8502 8.26402 13.8185 8.20762 13.7621C8.15121 13.7057 8.11952 13.6292 8.11952 13.5494C8.11952 13.4697 8.15121 13.3932 8.20762 13.3368C8.26402 13.2803 8.34053 13.2487 8.4203 13.2487H16.9683C17.0481 13.2487 17.1246 13.2803 17.181 13.3368C17.2374 13.3932 17.2691 13.4697 17.2691 13.5494C17.2691 13.6292 17.2374 13.7057 17.181 13.7621C17.1246 13.8185 17.0481 13.8502 16.9683 13.8502Z" fill="#E1D8FA"/>
<path d="M16.9683 16.4144H8.4203C8.34053 16.4144 8.26402 16.3827 8.20762 16.3263C8.15121 16.2699 8.11952 16.1934 8.11952 16.1136C8.11952 16.0339 8.15121 15.9574 8.20762 15.901C8.26402 15.8446 8.34053 15.8129 8.4203 15.8129H16.9683C17.0481 15.8129 17.1246 15.8446 17.181 15.901C17.2374 15.9574 17.2691 16.0339 17.2691 16.1136C17.2691 16.1934 17.2374 16.2699 17.181 16.3263C17.1246 16.3827 17.0481 16.4144 16.9683 16.4144Z" fill="#E1D8FA"/>
<path d="M16.9683 18.9786H8.4203C8.34053 18.9786 8.26402 18.9469 8.20762 18.8905C8.15121 18.8341 8.11952 18.7576 8.11952 18.6779C8.11952 18.5981 8.15121 18.5216 8.20762 18.4652C8.26402 18.4088 8.34053 18.3771 8.4203 18.3771H16.9683C17.0481 18.3771 17.1246 18.4088 17.181 18.4652C17.2374 18.5216 17.2691 18.5981 17.2691 18.6779C17.2691 18.7576 17.2374 18.8341 17.181 18.8905C17.1246 18.9469 17.0481 18.9786 16.9683 18.9786Z" fill="#E1D8FA"/>
<path d="M16.9683 21.5428H8.4203C8.34053 21.5428 8.26402 21.5112 8.20762 21.4547C8.15121 21.3983 8.11952 21.3218 8.11952 21.2421C8.11952 21.1623 8.15121 21.0858 8.20762 21.0294C8.26402 20.973 8.34053 20.9413 8.4203 20.9413H16.9683C17.0481 20.9413 17.1246 20.973 17.181 21.0294C17.2374 21.0858 17.2691 21.1623 17.2691 21.2421C17.2691 21.3218 17.2374 21.3983 17.181 21.4547C17.1246 21.5112 17.0481 21.5428 16.9683 21.5428Z" fill="#E1D8FA"/>
</svg>
