<svg width="200" height="150" viewBox="0 0 200 150" fill="none" xmlns="http://www.w3.org/2000/svg">
<path d="M200 130.96H0V131.06H200V130.96Z" fill="#EBEBEB"/>
<path d="M179.96 137.396H166.712V137.496H179.96V137.396Z" fill="#EBEBEB"/>
<path d="M120.576 137.448H117.1V137.548H120.576V137.448Z" fill="#EBEBEB"/>
<path d="M166.308 133.684H141.732V133.784H166.308V133.684Z" fill="#EBEBEB"/>
<path d="M90.056 136.044H84.98V136.144H90.056V136.044Z" fill="#EBEBEB"/>
<path d="M81.42 136.044H66.688V136.144H81.42V136.044Z" fill="#EBEBEB"/>
<path d="M31.1559 134.356H20.9839V134.456H31.1559V134.356Z" fill="#EBEBEB"/>
<path d="M63.5119 134.356H33.5559V134.456H63.5119V134.356Z" fill="#EBEBEB"/>
<path d="M94.7999 113.12H17.5639C16.9589 113.119 16.379 112.878 15.9515 112.45C15.524 112.021 15.2839 111.441 15.2839 110.836V2.264C15.2892 1.66241 15.5316 1.08719 15.9585 0.663287C16.3854 0.239383 16.9623 0.00103056 17.5639 0H94.7999C95.4057 0 95.9866 0.240635 96.415 0.668968C96.8433 1.0973 97.0839 1.67825 97.0839 2.284V110.836C97.0839 111.442 96.8433 112.023 96.415 112.451C95.9866 112.879 95.4057 113.12 94.7999 113.12ZM17.5639 0.0800003C16.9854 0.0810599 16.4309 0.311626 16.0222 0.721091C15.6135 1.13056 15.3839 1.68546 15.3839 2.264V110.836C15.3839 111.415 15.6135 111.969 16.0222 112.379C16.4309 112.788 16.9854 113.019 17.5639 113.02H94.7999C95.3788 113.019 95.9337 112.789 96.3431 112.379C96.7524 111.97 96.9829 111.415 96.9839 110.836V2.264C96.9829 1.68509 96.7524 1.1302 96.3431 0.720847C95.9337 0.311496 95.3788 0.0810577 94.7999 0.0800003H17.5639Z" fill="#EBEBEB"/>
<path d="M181.324 113.12H104.084C103.479 113.119 102.898 112.878 102.47 112.45C102.042 112.022 101.801 111.441 101.8 110.836V2.264C101.806 1.66205 102.05 1.08683 102.477 0.663037C102.905 0.239243 103.482 0.00101932 104.084 0H181.324C181.925 0.0020818 182.501 0.2409 182.927 0.664691C183.353 1.08848 183.595 1.6631 183.6 2.264V110.836C183.6 111.44 183.361 112.02 182.934 112.448C182.507 112.876 181.928 113.118 181.324 113.12ZM104.084 0.0800003C103.505 0.0810577 102.95 0.311496 102.541 0.720847C102.132 1.1302 101.901 1.68509 101.9 2.264V110.836C101.901 111.415 102.132 111.97 102.541 112.379C102.95 112.789 103.505 113.019 104.084 113.02H181.324C181.903 113.019 182.458 112.789 182.867 112.379C183.277 111.97 183.507 111.415 183.508 110.836V2.264C183.507 1.68509 183.277 1.1302 182.867 0.720847C182.458 0.311496 181.903 0.0810577 181.324 0.0800003H104.084Z" fill="#EBEBEB"/>
<path d="M76.3121 77.804L173.528 77.804V6.79195L76.3121 6.79195L76.3121 77.804Z" fill="#E6E6E6"/>
<path d="M72.016 77.804L172.532 77.804V6.79195L72.016 6.79195L72.016 77.804Z" fill="#F0F0F0"/>
<path d="M166.512 71.7881V12.8081L78.028 12.8081V71.7881H166.512Z" fill="#FAFAFA"/>
<path d="M145.004 71.7841L124.86 12.8081H105.624L125.768 71.7841H145.004Z" fill="white"/>
<path d="M121.636 71.7841L101.492 12.8081H93.9961L114.14 71.7841H121.636Z" fill="white"/>
<path d="M78.7959 71.7881V12.8081H78.0319V71.7881H78.7959Z" fill="#E6E6E6"/>
<path d="M25.828 58.488L60.156 58.488L60.156 9.82003L25.828 9.82003L25.828 58.488Z" fill="#E0E0E0"/>
<path d="M23.3999 58.488L58.7839 58.488L58.7839 9.82003L23.3999 9.82003L23.3999 58.488Z" fill="#F5F5F5"/>
<path d="M55.292 54.6481V13.6521L26.892 13.6521L26.892 54.6481H55.292Z" fill="white"/>
<path d="M39.1719 92.56C41.7199 86.272 47.7799 83.932 49.8759 79.96C52.6159 74.76 52.5999 66.956 50.2759 64.144C48.2439 61.696 41.5239 78.24 40.7679 80.088C38.6939 85.0756 37.3961 90.3514 36.9199 95.732C36.9759 91.848 37.0279 88.28 37.0719 85.528C37.2159 76.552 37.3919 73.664 37.4719 72.776C37.7519 72.34 38.0839 71.836 38.2719 71.576C39.8999 69.284 43.5079 66.552 45.3119 63.22C47.9439 58.352 47.5199 52.528 45.6719 50.36C43.7399 48.092 40.3279 53.452 38.5159 58.76C36.7039 64.068 37.4759 69.16 36.9679 73.56C36.8639 74.424 36.7519 77.708 36.6519 82.268C36.0999 77.364 35.0039 74.08 32.9759 71.016C30.4799 67.252 28.3239 62.668 26.2679 63.26C24.2119 63.852 25.3159 69.92 26.9439 74.176C28.3999 77.968 35.5399 81.752 36.5919 84.8C36.4679 90.976 36.3559 98.8 36.2799 106.092C35.7159 102.328 36.1039 102.012 33.7919 96.248C32.4199 92.824 26.7999 88.6 26.1199 90.952C25.4399 93.304 26.4679 97.752 28.5919 100.872C30.3079 103.384 34.1119 103.38 34.992 104.94C35.1959 105.304 35.8759 106.7 36.2639 107.5C36.1719 116.396 36.1319 124.252 36.1759 126.928L36.5439 126.956C36.5439 126.264 36.5719 121.756 36.6439 115.756C37.5679 112.556 43.7879 110.712 45.7079 107.396C47.7079 103.928 49.1639 99.88 48.2999 97.172C47.5799 94.912 41.8999 97.972 39.6159 101.728C38.0839 104.224 37.1479 106.884 36.7119 110.46C36.7639 106.38 36.8239 101.996 36.8799 97.86C37.3479 96.82 38.3999 94.444 39.1719 92.56Z" fill="#E6E6E6"/>
<path d="M42.824 130.96H29.752C29.4065 130.96 29.0718 130.84 28.8043 130.621C28.5368 130.403 28.353 130.098 28.284 129.76L27.356 125.2H45.224L44.296 129.772C44.2229 130.108 44.0371 130.409 43.7694 130.625C43.5016 130.842 43.168 130.96 42.824 130.96Z" fill="#F0F0F0"/>
<path d="M45.5999 126.956H26.9799C26.7642 126.956 26.5563 126.876 26.3955 126.732C26.2347 126.588 26.1324 126.39 26.1079 126.176L25.7079 122.796C25.6944 122.673 25.7069 122.549 25.7446 122.432C25.7822 122.314 25.8442 122.206 25.9264 122.114C26.0086 122.022 26.1093 121.948 26.2219 121.897C26.3345 121.847 26.4565 121.82 26.5799 121.82H45.9559C46.0795 121.82 46.2018 121.846 46.3147 121.896C46.4276 121.947 46.5285 122.02 46.6109 122.112C46.6932 122.205 46.7552 122.313 46.7926 122.431C46.83 122.549 46.842 122.673 46.8279 122.796L46.4279 126.176C46.4045 126.383 46.3085 126.575 46.1569 126.718C46.0052 126.861 45.8079 126.945 45.5999 126.956Z" fill="#F0F0F0"/>
<path d="M162.252 128.044H166.248V85.048H162.252V128.044Z" fill="#F0F0F0"/>
<path d="M80.8241 130.908H164.716V128.044H80.8241V130.908Z" fill="#F0F0F0"/>
<path d="M162.256 85.0481H79.292V128.044H162.256V85.0481Z" fill="#F5F5F5"/>
<path d="M163.196 85.0481H167.324V82.3361H163.196V85.0481Z" fill="#E0E0E0"/>
<path d="M163.196 82.3359H78.2161V85.0479H163.196V82.3359Z" fill="#EBEBEB"/>
<path d="M156.3 103.6H85.2439C84.3953 103.6 83.5813 103.263 82.9812 102.663C82.3811 102.063 82.0439 101.249 82.0439 100.4V91.2C82.0439 90.3513 82.3811 89.5374 82.9812 88.9373C83.5813 88.3371 84.3953 88 85.2439 88H156.3C157.149 88 157.963 88.3371 158.563 88.9373C159.163 89.5374 159.5 90.3513 159.5 91.2V100.4C159.5 101.249 159.163 102.063 158.563 102.663C157.963 103.263 157.149 103.6 156.3 103.6ZM85.2439 88.8C84.6074 88.8 83.997 89.0529 83.5469 89.5029C83.0968 89.953 82.8439 90.5635 82.8439 91.2V100.4C82.8439 101.037 83.0968 101.647 83.5469 102.097C83.997 102.547 84.6074 102.8 85.2439 102.8H156.3C156.936 102.8 157.547 102.547 157.997 102.097C158.447 101.647 158.7 101.037 158.7 100.4V91.2C158.7 90.5635 158.447 89.953 157.997 89.5029C157.547 89.0529 156.936 88.8 156.3 88.8H85.2439Z" fill="white"/>
<path d="M156.3 122.876H85.2439C84.3953 122.876 83.5813 122.539 82.9812 121.939C82.3811 121.339 82.0439 120.525 82.0439 119.676V110.476C82.0439 109.627 82.3811 108.813 82.9812 108.213C83.5813 107.613 84.3953 107.276 85.2439 107.276H156.3C157.149 107.276 157.963 107.613 158.563 108.213C159.163 108.813 159.5 109.627 159.5 110.476V119.676C159.5 120.525 159.163 121.339 158.563 121.939C157.963 122.539 157.149 122.876 156.3 122.876ZM85.2439 108.044C84.6074 108.044 83.997 108.297 83.5469 108.747C83.0968 109.197 82.8439 109.808 82.8439 110.444V119.644C82.8439 120.281 83.0968 120.891 83.5469 121.341C83.997 121.791 84.6074 122.044 85.2439 122.044H156.3C156.936 122.044 157.547 121.791 157.997 121.341C158.447 120.891 158.7 120.281 158.7 119.644V110.444C158.7 109.808 158.447 109.197 157.997 108.747C157.547 108.297 156.936 108.044 156.3 108.044H85.2439Z" fill="white"/>
<path d="M140.152 97.1999H101.392C101.117 97.1999 100.853 97.0909 100.658 96.8967C100.463 96.7025 100.353 96.439 100.352 96.1639V95.4039C100.353 95.1288 100.463 94.8653 100.658 94.6711C100.853 94.4769 101.117 94.3679 101.392 94.3679H140.152C140.427 94.3679 140.691 94.4769 140.886 94.6711C141.081 94.8653 141.191 95.1288 141.192 95.4039V96.1639C141.191 96.439 141.081 96.7025 140.886 96.8967C140.691 97.0909 140.427 97.1999 140.152 97.1999ZM101.392 95.1999C101.329 95.2009 101.27 95.226 101.225 95.2699C101.18 95.3138 101.154 95.3733 101.152 95.4359V96.1959C101.154 96.2585 101.18 96.318 101.225 96.3619C101.27 96.4059 101.329 96.4309 101.392 96.4319H140.152C140.215 96.4319 140.275 96.4072 140.32 96.363C140.365 96.3189 140.391 96.2589 140.392 96.1959V95.4359C140.391 95.373 140.365 95.3129 140.32 95.2688C140.275 95.2246 140.215 95.1999 140.152 95.1999H101.392Z" fill="white"/>
<path d="M140.152 116.476H101.392C101.117 116.476 100.853 116.367 100.658 116.173C100.463 115.979 100.353 115.715 100.352 115.44V114.68C100.353 114.405 100.463 114.141 100.658 113.947C100.853 113.753 101.117 113.644 101.392 113.644H140.152C140.427 113.644 140.691 113.753 140.886 113.947C141.081 114.141 141.191 114.405 141.192 114.68V115.44C141.191 115.715 141.081 115.979 140.886 116.173C140.691 116.367 140.427 116.476 140.152 116.476ZM101.392 114.444C101.329 114.445 101.27 114.47 101.225 114.514C101.18 114.558 101.154 114.617 101.152 114.68V115.44C101.154 115.503 101.18 115.562 101.225 115.606C101.27 115.65 101.329 115.675 101.392 115.676H140.152C140.215 115.676 140.275 115.651 140.32 115.607C140.365 115.563 140.391 115.503 140.392 115.44V114.68C140.391 114.617 140.365 114.557 140.32 114.513C140.275 114.469 140.215 114.444 140.152 114.444H101.392Z" fill="white"/>
<path d="M98.0001 149.024C140.833 149.024 175.556 146.997 175.556 144.496C175.556 141.995 140.833 139.968 98.0001 139.968C55.1671 139.968 20.4441 141.995 20.4441 144.496C20.4441 146.997 55.1671 149.024 98.0001 149.024Z" fill="#F5F5F5"/>
<path d="M149.916 45.101L149.764 47.4561L150.163 47.4819L150.315 45.1268L149.916 45.101Z" fill="#9D9D9D"/>
<path d="M150.523 35.536L150.024 43.2759L150.423 43.3016L150.922 35.5617L150.523 35.536Z" fill="#9D9D9D"/>
<path d="M145.776 24.2959H98.756C97.5486 24.3171 96.3924 24.7873 95.5131 25.6149C94.6337 26.4425 94.0943 27.568 94 28.7719L87.924 122.572C87.8796 123.147 87.9552 123.725 88.1461 124.269C88.337 124.813 88.6389 125.312 89.0327 125.733C89.4265 126.154 89.9036 126.489 90.4337 126.716C90.9638 126.943 91.5353 127.057 92.112 127.052H139.124C140.333 127.032 141.492 126.562 142.374 125.733C143.255 124.905 143.797 123.778 143.892 122.572L149.964 28.7719C150.008 28.1971 149.933 27.6194 149.742 27.0754C149.551 26.5314 149.249 26.0331 148.855 25.6122C148.461 25.1912 147.984 24.8568 147.454 24.6302C146.924 24.4036 146.352 24.2897 145.776 24.2959Z" fill="#9D9D9D"/>
<path opacity="0.7" d="M144.284 24.2959H98.756C97.5486 24.3171 96.3924 24.7873 95.5131 25.6149C94.6337 26.4425 94.0943 27.568 94 28.7719L87.924 122.572C87.8796 123.147 87.9552 123.725 88.1461 124.269C88.337 124.813 88.6389 125.312 89.0327 125.733C89.4265 126.154 89.9036 126.489 90.4337 126.716C90.9638 126.943 91.5353 127.057 92.112 127.052H137.632C138.841 127.032 140 126.562 140.882 125.733C141.763 124.905 142.305 123.778 142.4 122.572L148.472 28.7719C148.516 28.1971 148.441 27.6194 148.25 27.0754C148.059 26.5314 147.757 26.0331 147.363 25.6122C146.969 25.1912 146.492 24.8568 145.962 24.6302C145.432 24.4036 144.86 24.2897 144.284 24.2959Z" fill="white"/>
<path d="M140.444 120.12H90.364C90.1767 120.12 89.9913 120.082 89.8193 120.008C89.6473 119.934 89.4924 119.825 89.3642 119.689C89.2359 119.552 89.1371 119.391 89.0737 119.214C89.0104 119.038 88.9839 118.851 88.996 118.664L94.492 33.7839C94.5143 33.4372 94.6677 33.1121 94.921 32.8744C95.1744 32.6366 95.5086 32.5042 95.856 32.5039H145.94C146.127 32.5041 146.313 32.5427 146.485 32.6173C146.657 32.6919 146.812 32.801 146.94 32.9378C147.068 33.0746 147.167 33.2363 147.23 33.4127C147.294 33.5892 147.32 33.7768 147.308 33.9639L141.812 118.84C141.79 119.187 141.636 119.513 141.381 119.751C141.127 119.989 140.792 120.121 140.444 120.12Z" fill="white"/>
<path d="M129.316 29.728H111.112C111.018 29.7288 110.925 29.7101 110.839 29.6732C110.753 29.6363 110.676 29.5819 110.612 29.5134C110.548 29.445 110.499 29.364 110.468 29.2756C110.437 29.1872 110.425 29.0933 110.432 29C110.45 28.806 110.539 28.6254 110.681 28.492C110.823 28.3587 111.009 28.2819 111.204 28.276H129.408C129.501 28.2746 129.594 28.2927 129.68 28.3292C129.766 28.3656 129.844 28.4197 129.908 28.4878C129.972 28.556 130.021 28.6367 130.052 28.7249C130.083 28.8131 130.095 28.9068 130.088 29C130.07 29.1947 129.982 29.3762 129.84 29.5104C129.698 29.6445 129.511 29.7219 129.316 29.728Z" fill="white"/>
<path d="M115.108 123.684C115.079 124.163 114.869 124.614 114.521 124.945C114.173 125.276 113.712 125.463 113.232 125.468C113.001 125.47 112.773 125.425 112.56 125.334C112.348 125.244 112.156 125.111 111.998 124.944C111.839 124.777 111.716 124.578 111.638 124.362C111.559 124.145 111.526 123.914 111.54 123.684C111.57 123.205 111.78 122.756 112.128 122.426C112.476 122.095 112.936 121.909 113.416 121.904C113.646 121.901 113.875 121.946 114.087 122.036C114.299 122.126 114.491 122.258 114.65 122.425C114.809 122.592 114.931 122.79 115.01 123.007C115.089 123.223 115.122 123.454 115.108 123.684Z" fill="white"/>
<path opacity="0.2" d="M134.988 56H92.2239L89.5039 97.96H134.988C136.175 97.9579 137.312 97.4858 138.152 96.6469C138.992 95.8081 139.465 94.6708 139.468 93.484V60.492C139.469 59.3024 138.998 58.161 138.158 57.3187C137.318 56.4764 136.178 56.0021 134.988 56Z" fill="#9D9D9D"/>
<path d="M131.004 52.2839H78.596C76.1217 52.2839 74.116 54.2897 74.116 56.7639V89.7679C74.116 92.2422 76.1217 94.2479 78.596 94.2479H131.004C133.478 94.2479 135.484 92.2422 135.484 89.7679V56.7639C135.484 54.2897 133.478 52.2839 131.004 52.2839Z" fill="#9D9D9D"/>
<path d="M72.684 51.8001C72.5791 51.7997 72.4785 51.758 72.404 51.6841L71.684 50.9681C71.6087 50.8928 71.5664 50.7906 71.5664 50.6841C71.5664 50.5776 71.6087 50.4754 71.684 50.4001C71.7594 50.3248 71.8615 50.2825 71.968 50.2825C72.0746 50.2825 72.1767 50.3248 72.252 50.4001L72.968 51.1201C73.0425 51.1951 73.0844 51.2964 73.0844 51.4021C73.0844 51.5078 73.0425 51.6092 72.968 51.6841C72.9307 51.7212 72.8863 51.7505 72.8376 51.7704C72.7889 51.7903 72.7367 51.8004 72.684 51.8001Z" fill="#9D9D9D"/>
<path d="M71.6 54.312H70.588C70.4819 54.312 70.3802 54.2698 70.3051 54.1948C70.2301 54.1198 70.188 54.018 70.188 53.912C70.188 53.8059 70.2301 53.7041 70.3051 53.6291C70.3802 53.5541 70.4819 53.512 70.588 53.512H71.6C71.7061 53.512 71.8078 53.5541 71.8828 53.6291C71.9578 53.7041 72 53.8059 72 53.912C72 54.018 71.9578 54.1198 71.8828 54.1948C71.8078 54.2698 71.7061 54.312 71.6 54.312Z" fill="#9D9D9D"/>
<path d="M75.2321 50.72C75.1307 50.7203 75.033 50.682 74.9587 50.6129C74.8844 50.5439 74.8392 50.4492 74.8321 50.348L74.7601 49.336C74.7563 49.2834 74.7629 49.2307 74.7795 49.1807C74.7962 49.1307 74.8226 49.0845 74.8571 49.0447C74.8917 49.0049 74.9338 48.9724 74.981 48.9489C75.0282 48.9255 75.0795 48.9116 75.1321 48.908C75.2376 48.9014 75.3414 48.9368 75.4208 49.0065C75.5003 49.0762 75.5489 49.1746 75.5561 49.28L75.6321 50.292C75.6359 50.3446 75.6293 50.3973 75.6126 50.4473C75.596 50.4973 75.5696 50.5435 75.535 50.5833C75.5005 50.6231 75.4584 50.6556 75.4112 50.6791C75.364 50.7026 75.3127 50.7165 75.2601 50.72H75.2321Z" fill="#9D9D9D"/>
<path d="M109.276 89.9319L125.368 106.02V89.9319H109.276Z" fill="#9D9D9D"/>
<path d="M113.688 82.884L112.888 79.488C112.686 78.5953 112.686 77.6687 112.888 76.776L114 71.94C114.455 69.8778 114.209 67.7227 113.3 65.8163C112.391 63.9099 110.872 62.3613 108.984 61.416C109.019 61.327 109.05 61.2362 109.076 61.144C109.142 60.8506 109.149 60.5472 109.097 60.251C109.046 59.9549 108.936 59.6718 108.775 59.4179C108.614 59.164 108.405 58.9443 108.159 58.7714C107.913 58.5985 107.635 58.4757 107.342 58.41C107.049 58.3443 106.745 58.3371 106.449 58.3887C106.153 58.4403 105.87 58.5498 105.616 58.7108C105.362 58.8718 105.142 59.0812 104.969 59.3272C104.797 59.5731 104.674 59.8506 104.608 60.144C104.588 60.2375 104.576 60.3325 104.572 60.428C102.461 60.4775 100.427 61.2299 98.7916 62.5659C97.1563 63.9019 96.0135 65.7452 95.544 67.804L94.46 72.644C94.2609 73.5351 93.8645 74.3703 93.3 75.088L91.144 77.828C90.9332 78.0968 90.7937 78.4146 90.7388 78.7517C90.6838 79.0889 90.7151 79.4345 90.8297 79.7563C90.9443 80.0782 91.1385 80.3658 91.3942 80.5923C91.6499 80.8189 91.9587 80.977 92.292 81.052L111.292 85.308C111.624 85.3798 111.969 85.3666 112.295 85.2697C112.62 85.1728 112.916 84.9953 113.155 84.7536C113.394 84.5119 113.568 84.2139 113.661 83.8871C113.754 83.5603 113.764 83.2153 113.688 82.884Z" fill="white"/>
<path d="M99.3399 83.932C99.1954 83.9001 99.0452 83.9044 98.9028 83.9444C98.7603 83.9844 98.6299 84.059 98.5231 84.1614C98.4163 84.2638 98.3364 84.3911 98.2905 84.5317C98.2446 84.6724 98.2341 84.8223 98.2599 84.968C98.369 85.6108 98.667 86.2065 99.1158 86.6793C99.5646 87.1521 100.144 87.4807 100.78 87.6231C101.416 87.7655 102.081 87.7154 102.688 87.479C103.296 87.2427 103.819 86.8309 104.192 86.296C104.277 86.1755 104.331 86.0358 104.35 85.8894C104.368 85.7429 104.35 85.5942 104.298 85.4563C104.245 85.3184 104.16 85.1955 104.048 85.0985C103.937 85.0015 103.804 84.9333 103.66 84.9L99.3399 83.932Z" fill="white"/>
<path d="M84.748 77.2001C84.6489 77.2008 84.5512 77.1767 84.4638 77.1299C84.3764 77.083 84.3022 77.015 84.248 76.9321C82.3588 74.1016 81.6712 70.6367 82.3366 67.2993C83.002 63.962 84.9657 61.0256 87.796 59.1361C87.9286 59.048 88.0908 59.0163 88.2468 59.0478C88.4028 59.0793 88.5399 59.1715 88.628 59.3041C88.716 59.4367 88.7478 59.5988 88.7163 59.7549C88.6848 59.9109 88.5926 60.048 88.46 60.1361C85.8978 61.8521 84.1217 64.5151 83.5217 67.5399C82.9216 70.5647 83.5469 73.704 85.26 76.2681C85.3485 76.4002 85.3809 76.562 85.3501 76.718C85.3194 76.874 85.228 77.0114 85.096 77.1001C84.9928 77.168 84.8714 77.2029 84.748 77.2001Z" fill="white"/>
<path d="M87.2879 75.4961C87.1896 75.4955 87.093 75.4707 87.0065 75.424C86.92 75.3772 86.8463 75.31 86.7919 75.2281C85.354 73.0719 84.8306 70.4332 85.3369 67.8914C85.8431 65.3497 87.3376 63.1128 89.4919 61.6721C89.5576 61.6282 89.6312 61.5977 89.7087 61.5823C89.7861 61.5669 89.8658 61.567 89.9433 61.5824C90.0207 61.5978 90.0944 61.6283 90.16 61.6722C90.2257 61.7161 90.282 61.7724 90.3259 61.8381C90.3698 61.9038 90.4003 61.9774 90.4157 62.0549C90.4311 62.1323 90.4311 62.212 90.4156 62.2895C90.4002 62.3669 90.3697 62.4406 90.3258 62.5062C90.2819 62.5719 90.2256 62.6282 90.1599 62.6721C88.269 63.934 86.9567 65.8954 86.5119 68.1249C86.0671 70.3543 86.5261 72.6691 87.7879 74.5601C87.8764 74.6922 87.9088 74.854 87.8781 75.01C87.8473 75.166 87.7559 75.3034 87.6239 75.3921C87.5244 75.4587 87.4076 75.4948 87.2879 75.4961Z" fill="white"/>
<path d="M89.8321 73.7961C89.734 73.7966 89.6374 73.7727 89.5508 73.7266C89.4642 73.6806 89.3904 73.6137 89.3361 73.5321C88.846 72.7982 88.5055 71.9749 88.3339 71.1093C88.1623 70.2437 88.1631 69.3528 88.3363 68.4875C88.5094 67.6222 88.8514 66.7996 89.3429 66.0666C89.8343 65.3337 90.4654 64.7048 91.2001 64.216C91.3322 64.134 91.491 64.1064 91.643 64.1392C91.795 64.1719 91.9284 64.2624 92.015 64.3915C92.1016 64.5207 92.1347 64.6784 92.1073 64.8315C92.0799 64.9845 91.9941 65.121 91.8681 65.2121C91.2655 65.6143 90.748 66.1314 90.3453 66.7337C89.9425 67.336 89.6624 68.0117 89.5209 68.7223C89.3794 69.4329 89.3792 70.1644 89.5205 70.8751C89.6617 71.5857 89.9416 72.2616 90.3441 72.8641C90.4315 72.9965 90.4633 73.158 90.4327 73.3137C90.402 73.4694 90.3112 73.6067 90.1801 73.6961C90.0769 73.764 89.9556 73.7988 89.8321 73.7961Z" fill="white"/>
<path d="M119.34 85.6359C119.206 85.6356 119.076 85.5903 118.97 85.5073C118.865 85.4243 118.79 85.3084 118.759 85.1781C118.727 85.0477 118.74 84.9105 118.795 84.7883C118.85 84.6661 118.945 84.566 119.064 84.5039C121.805 83.088 123.871 80.6418 124.808 77.703C125.746 74.7642 125.478 71.5734 124.064 68.8319C124.021 68.7616 123.993 68.6831 123.982 68.6014C123.97 68.5197 123.976 68.4366 123.998 68.3572C124.021 68.2778 124.059 68.2038 124.111 68.1399C124.163 68.076 124.228 68.0235 124.301 67.9858C124.375 67.948 124.455 67.9258 124.537 67.9204C124.62 67.9151 124.702 67.9268 124.78 67.9548C124.857 67.9828 124.928 68.0264 124.988 68.0831C125.048 68.1397 125.096 68.2081 125.128 68.2839C125.9 69.782 126.37 71.4176 126.51 73.0972C126.651 74.7769 126.459 76.4677 125.945 78.0731C125.432 79.6785 124.607 81.1671 123.519 82.4537C122.43 83.7404 121.098 84.8 119.6 85.5719C119.519 85.6116 119.43 85.6334 119.34 85.6359Z" fill="white"/>
<path d="M117.936 82.92C117.802 82.9197 117.672 82.8744 117.566 82.7914C117.461 82.7084 117.386 82.5925 117.354 82.4621C117.323 82.3318 117.336 82.1945 117.391 82.0723C117.446 81.9501 117.541 81.85 117.66 81.788C118.661 81.272 119.55 80.5637 120.277 79.7036C121.004 78.8436 121.555 77.8486 121.897 76.7757C122.239 75.7028 122.366 74.573 122.271 73.4508C122.176 72.3287 121.861 71.2362 121.344 70.236C121.271 70.0944 121.257 69.9295 121.305 69.7776C121.354 69.6257 121.46 69.4992 121.602 69.426C121.744 69.3528 121.908 69.3389 122.06 69.3872C122.212 69.4356 122.339 69.5424 122.412 69.684C123.002 70.8243 123.361 72.0695 123.469 73.3486C123.577 74.6277 123.431 75.9156 123.041 77.1385C122.651 78.3615 122.024 79.4955 121.195 80.4759C120.367 81.4563 119.353 82.2637 118.212 82.852C118.127 82.8974 118.032 82.9207 117.936 82.92Z" fill="white"/>
<path d="M116.532 80.204C116.398 80.2019 116.269 80.1554 116.165 80.0719C116.06 79.9884 115.986 79.8726 115.955 79.7427C115.923 79.6128 115.936 79.4761 115.99 79.354C116.045 79.2319 116.138 79.1313 116.256 79.0681C116.9 78.7366 117.472 78.2815 117.94 77.7286C118.408 77.1757 118.762 76.536 118.983 75.846C119.203 75.1561 119.285 74.4294 119.224 73.7077C119.163 72.986 118.961 72.2834 118.628 71.6401C118.555 71.4984 118.541 71.3335 118.589 71.1816C118.638 71.0297 118.744 70.9032 118.886 70.83C119.028 70.7568 119.192 70.7429 119.344 70.7913C119.496 70.8397 119.623 70.9464 119.696 71.0881C120.51 72.6722 120.662 74.5147 120.119 76.211C119.576 77.9074 118.383 79.319 116.8 80.1361C116.717 80.1789 116.625 80.2021 116.532 80.204Z" fill="white"/>
<path d="M81.344 28.3402H78.288C78.2087 28.3422 78.1326 28.3722 78.0733 28.4249C78.014 28.4776 77.9753 28.5496 77.964 28.6282L77.324 34.7242C77.3194 34.7609 77.3228 34.7982 77.3338 34.8335C77.3448 34.8688 77.3632 34.9014 77.3878 34.9291C77.4125 34.9567 77.4427 34.9788 77.4765 34.9938C77.5103 35.0088 77.547 35.0164 77.584 35.0162H80.64C80.7199 35.014 80.7964 34.9834 80.8558 34.9299C80.9152 34.8764 80.9536 34.8034 80.964 34.7242L81.604 28.6282C81.6086 28.5916 81.6053 28.5545 81.5943 28.5194C81.5832 28.4842 81.5647 28.4519 81.54 28.4245C81.5154 28.3972 81.4851 28.3755 81.4512 28.3609C81.4174 28.3464 81.3808 28.3393 81.344 28.3402Z" fill="#9D9D9D"/>
<path opacity="0.4" d="M81.068 28.3401H78.288C78.2087 28.3421 78.1326 28.3721 78.0733 28.4248C78.014 28.4775 77.9753 28.5495 77.964 28.6281L77.324 34.7241C77.3194 34.7608 77.3228 34.7981 77.3338 34.8334C77.3448 34.8687 77.3632 34.9013 77.3878 34.929C77.4125 34.9566 77.4427 34.9787 77.4765 34.9937C77.5103 35.0087 77.547 35.0163 77.584 35.0161H80.384C80.4635 35.0138 80.5395 34.983 80.5982 34.9294C80.6569 34.8759 80.6945 34.803 80.704 34.7241L81.344 28.6281C81.3497 28.59 81.3466 28.5511 81.335 28.5143C81.3233 28.4776 81.3034 28.4441 81.2767 28.4163C81.2501 28.3885 81.2174 28.3671 81.1812 28.3539C81.145 28.3407 81.1063 28.336 81.068 28.3401Z" fill="white"/>
<path d="M66.0282 141.06C66.4282 141.06 66.8282 141 66.9682 140.816C67.0022 140.767 67.0205 140.708 67.0205 140.648C67.0205 140.588 67.0022 140.529 66.9682 140.48C66.9099 140.39 66.8199 140.326 66.7162 140.3C66.1722 140.152 65.0682 140.8 65.0202 140.828C65.0077 140.836 64.9979 140.847 64.9922 140.861C64.9865 140.875 64.9851 140.89 64.9882 140.904C64.9911 140.92 64.9988 140.935 65.0102 140.946C65.0217 140.957 65.0363 140.965 65.0522 140.968C65.3743 141.026 65.7008 141.057 66.0282 141.06ZM66.5162 140.432C66.5653 140.426 66.615 140.426 66.6642 140.432C66.7278 140.447 66.7834 140.486 66.8202 140.54C66.8762 140.636 66.8602 140.684 66.8202 140.708C66.6802 140.92 65.8602 140.924 65.2562 140.84C65.6441 140.62 66.0728 140.481 66.5162 140.432Z" fill="#9D9D9D"/>
<path d="M65.0442 140.968H65.0762C65.4762 140.792 66.2042 140.092 66.1282 139.724C66.1282 139.64 66.0442 139.532 65.8322 139.512C65.7571 139.504 65.6812 139.511 65.609 139.533C65.5368 139.555 65.4698 139.591 65.4122 139.64C65.0122 139.98 64.9682 140.84 64.9642 140.888C64.9637 140.902 64.9667 140.916 64.973 140.929C64.9793 140.941 64.9886 140.952 65.0002 140.96C65.0138 140.967 65.029 140.97 65.0442 140.968ZM65.7802 139.656H65.8242C65.9642 139.656 65.9762 139.724 65.9762 139.74C66.0242 139.96 65.5202 140.512 65.1322 140.752C65.1567 140.385 65.2967 140.035 65.5322 139.752C65.6015 139.693 65.689 139.659 65.7802 139.656Z" fill="#9D9D9D"/>
<path d="M64.7161 133.392H61.4761V140.892H64.7161V133.392Z" fill="#FF8B7B"/>
<path d="M37.98 137.316L41.216 137.668L43.324 130.388L40.088 130.036L37.98 137.316Z" fill="#FF8B7B"/>
<path d="M42.7201 138.4C43.1201 138.504 43.5201 138.548 43.7001 138.4C43.744 138.359 43.7739 138.305 43.7854 138.246C43.7969 138.188 43.7894 138.126 43.7641 138.072C43.7476 138.022 43.7215 137.976 43.6872 137.936C43.6528 137.896 43.611 137.864 43.5641 137.84C43.0641 137.564 41.8241 137.912 41.7721 137.924C41.7568 137.928 41.7432 137.937 41.7332 137.949C41.7232 137.961 41.7172 137.976 41.7161 137.992C41.716 138.008 41.7205 138.024 41.729 138.037C41.7375 138.05 41.7497 138.061 41.7641 138.068C42.0727 138.206 42.3925 138.317 42.7201 138.4ZM43.3521 137.92C43.4006 137.932 43.4476 137.949 43.4921 137.972C43.5513 138 43.5973 138.05 43.6201 138.112C43.6521 138.22 43.6201 138.26 43.6201 138.284C43.4281 138.448 42.6241 138.252 42.0521 138.02C42.475 137.904 42.9166 137.871 43.3521 137.924V137.92Z" fill="#9D9D9D"/>
<path d="M41.7801 138.076H41.8121C42.2121 138 43.1321 137.512 43.1481 137.144C43.1481 137.056 43.1161 136.936 42.9121 136.864C42.8403 136.838 42.764 136.827 42.6877 136.831C42.6115 136.835 42.5368 136.855 42.4681 136.888C41.9961 137.116 41.7321 137.94 41.7201 137.972C41.7135 137.984 41.71 137.997 41.71 138.01C41.71 138.023 41.7135 138.037 41.7201 138.048C41.7269 138.057 41.736 138.065 41.7465 138.07C41.757 138.075 41.7686 138.077 41.7801 138.076ZM42.8201 137H42.8681C43.0001 137.048 42.9961 137.104 42.9961 137.12C42.9961 137.344 42.3561 137.748 41.9161 137.88C42.0269 137.534 42.2456 137.233 42.5401 137.02C42.628 136.98 42.7275 136.973 42.8201 137Z" fill="#9D9D9D"/>
<path d="M41.3881 137.368L37.8481 136.352C37.7873 136.334 37.722 136.337 37.6635 136.362C37.6051 136.387 37.5571 136.432 37.5281 136.488L36.2241 139.076C36.1936 139.142 36.178 139.213 36.1782 139.285C36.1785 139.357 36.1947 139.429 36.2256 139.494C36.2565 139.559 36.3014 139.617 36.3572 139.663C36.4129 139.709 36.4781 139.742 36.5481 139.76C37.7881 140.092 38.4081 140.196 39.9641 140.64C40.9201 140.916 42.8681 141.58 44.1921 141.96C45.5161 142.34 46.0041 141.096 45.4921 140.824C43.1961 139.604 42.4601 138.62 41.8521 137.708C41.743 137.543 41.5784 137.422 41.3881 137.368Z" fill="#263238"/>
<path d="M64.6801 140.516H61.1441C61.0805 140.515 61.0188 140.538 60.9703 140.579C60.9218 140.62 60.8897 140.677 60.8801 140.74L60.3641 143.6C60.3525 143.671 60.3566 143.745 60.376 143.814C60.3953 143.884 60.4296 143.948 60.4764 144.004C60.5231 144.059 60.5813 144.103 60.6469 144.134C60.7124 144.164 60.7838 144.18 60.8561 144.18C62.1321 144.156 63.9721 144.08 65.5761 144.08C67.4521 144.08 68.4761 144.184 70.6761 144.184C72.0041 144.184 72.3161 142.84 71.7521 142.716C69.1961 142.164 67.7201 142.104 65.4721 140.752C65.2333 140.605 64.9602 140.524 64.6801 140.516Z" fill="#263238"/>
<path opacity="0.2" d="M64.7161 133.392H61.4761V137.26H64.7161V133.392Z" fill="black"/>
<path opacity="0.2" d="M40.088 130.04L43.324 130.388L42.152 134.428L39 133.792L40.088 130.04Z" fill="black"/>
<path d="M59.388 58.8C59.388 58.8 57.6 83.2561 56 92.5281C54.236 102.684 43.972 133.78 43.972 133.78L38.092 132.704C38.092 132.704 45.504 103.504 46.324 93.4481C47.216 82.536 48.288 60.044 48.288 60.044L59.388 58.8Z" fill="#9D9D9D"/>
<path opacity="0.3" d="M56.376 68.9601C56.696 67.6161 57.432 69.3081 58.288 72.2401C57.64 79.4961 56.796 87.9001 55.988 92.5321C55.808 93.5681 55.536 94.8241 55.188 96.2481C55.496 85.8961 55.508 72.5961 56.376 68.9601Z" fill="black"/>
<path d="M65.4961 58.136C65.4961 58.136 67.8441 82.72 67.9241 92.596C68.0081 102.872 65.8921 136.512 65.8921 136.512H60.4001C60.4001 136.512 58.7521 103.472 58.0681 93.38C57.3201 82.38 54.1721 59.38 54.1721 59.38L65.4961 58.136Z" fill="#9D9D9D"/>
<path d="M45.2002 131.8C45.2242 131.8 44.2762 133.932 44.2762 133.932L37.6602 132.732L38.0602 130.752L45.2002 131.8Z" fill="#263238"/>
<path d="M66.852 134.324C66.876 134.324 66.64 136.604 66.64 136.604H59.968L59.696 134.572L66.852 134.324Z" fill="#263238"/>
<path d="M48.4481 36.224C48.0081 37.076 47.5241 37.972 47.0841 38.856L45.7401 41.52C45.3041 42.408 44.8761 43.3 44.4641 44.192C44.0521 45.084 43.6641 45.972 43.3321 46.86L43.3001 45.46C43.5339 46.1789 43.8145 46.8817 44.1401 47.564C44.2961 47.916 44.4961 48.252 44.6681 48.6C44.8401 48.948 45.0681 49.28 45.2721 49.608C45.6965 50.286 46.1558 50.9415 46.6481 51.572C46.8961 51.888 47.1441 52.212 47.4081 52.516C47.6721 52.82 47.9601 53.136 48.2081 53.396L48.2881 53.484C48.4724 53.6863 48.5786 53.9477 48.5877 54.2212C48.5968 54.4947 48.5083 54.7626 48.3379 54.9768C48.1675 55.191 47.9264 55.3375 47.6578 55.3901C47.3892 55.4427 47.1107 55.398 46.8721 55.264C46.4586 55.0311 46.058 54.776 45.6721 54.5C45.2721 54.236 44.9201 53.96 44.5601 53.668C43.8394 53.0768 43.1629 52.4338 42.5361 51.744C41.8962 51.043 41.3142 50.2912 40.7961 49.496C40.2637 48.6858 39.8007 47.8321 39.4121 46.944C39.2409 46.567 39.2111 46.1411 39.3281 45.744L39.3841 45.556C39.6881 44.512 40.0281 43.5 40.4041 42.508C40.7801 41.516 41.1801 40.544 41.6041 39.588C42.0281 38.632 42.4721 37.688 42.9401 36.756C43.4081 35.824 43.8801 34.912 44.4201 33.98C44.7185 33.4466 45.2154 33.0525 45.8027 32.8833C46.39 32.7142 47.0204 32.7836 47.5568 33.0766C48.0932 33.3696 48.4923 33.8624 48.6675 34.448C48.8426 35.0336 48.7796 35.6646 48.4921 36.204L48.4481 36.224Z" fill="#FF8B7B"/>
<path d="M50.7441 34.8001C50.9041 37.8521 47.4401 43.4561 47.4401 43.4561L40.3081 39.8921C41.1748 37.3642 42.5162 35.025 44.2601 33.0001C48.0321 28.8321 50.5961 32.0001 50.7441 34.8001Z" fill="#263238"/>
<path d="M45.9121 54.6922L47.3481 57.0922L50.3361 55.1802C49.8142 54.2449 48.9969 53.5092 48.0121 53.0882C47.7844 53.0154 47.5381 53.0267 47.318 53.1199C47.0979 53.2131 46.9184 53.3821 46.8121 53.5962L45.9121 54.6922Z" fill="#FF8B7B"/>
<path d="M48.5441 58.1159L49.9321 57.856C50.049 57.8344 50.1604 57.7898 50.2599 57.725C50.3595 57.6601 50.4452 57.5761 50.5121 57.4779C50.5791 57.3798 50.6259 57.2693 50.6499 57.1529C50.674 57.0366 50.6747 56.9166 50.6521 56.8L50.3361 55.2L47.3481 57.112L47.5481 57.596C47.63 57.7832 47.7734 57.9369 47.9545 58.0315C48.1357 58.126 48.3437 58.1559 48.5441 58.1159Z" fill="#FF8B7B"/>
<path d="M56.972 19.4641C57 19.7241 57.164 19.9281 57.332 19.9121C57.5 19.8961 57.612 19.6761 57.58 19.4161C57.548 19.1561 57.388 18.9521 57.22 18.9641C57.052 18.9761 56.94 19.2001 56.972 19.4641Z" fill="#263238"/>
<path d="M57.1401 19.928C57.5447 20.7049 58.049 21.4256 58.6401 22.072C58.2401 22.54 57.4401 22.404 57.4401 22.404L57.1401 19.928Z" fill="#FF5652"/>
<path d="M55.852 18.0841C55.8728 18.0871 55.894 18.0855 55.9141 18.0793C55.9342 18.0731 55.9526 18.0624 55.968 18.0481C56.1067 17.9182 56.2751 17.8244 56.4586 17.7748C56.642 17.7253 56.8348 17.7216 57.02 17.7641C57.0389 17.7701 57.0588 17.7722 57.0786 17.7701C57.0983 17.7681 57.1174 17.762 57.1347 17.7523C57.152 17.7425 57.1671 17.7293 57.179 17.7134C57.1909 17.6975 57.1994 17.6794 57.204 17.6601C57.214 17.6203 57.2084 17.5782 57.1883 17.5425C57.1682 17.5068 57.1352 17.4801 57.096 17.468C56.8621 17.4122 56.6182 17.4144 56.3853 17.4744C56.1525 17.5343 55.9378 17.6502 55.76 17.8121C55.7451 17.8262 55.7333 17.8433 55.7252 17.8622C55.7171 17.8811 55.7129 17.9015 55.7129 17.9221C55.7129 17.9426 55.7171 17.963 55.7252 17.9819C55.7333 18.0008 55.7451 18.0179 55.76 18.0321C55.7711 18.0464 55.7849 18.0584 55.8007 18.0674C55.8165 18.0763 55.834 18.082 55.852 18.0841Z" fill="#263238"/>
<path d="M48.908 22.3601C49.672 24.6761 50.688 28.9441 49.24 30.6561C49.24 30.6561 50.192 32.9881 54.576 32.6161C59.404 32.2161 56.576 30.0361 56.576 30.0361C53.864 29.6361 53.68 27.6801 53.904 25.8121L48.908 22.3601Z" fill="#FF8B7B"/>
<path d="M48.204 31.5C47.752 30.776 47.248 29.948 48.104 29.64C49.044 29.3 54.324 28.748 56.204 29.212C58.084 29.676 57.7 31.212 57.7 31.212L48.204 31.5Z" fill="#9D9D9D"/>
<path d="M63.6642 32.476C64.3522 33.108 65.0961 33.808 65.8361 34.448C66.5761 35.088 67.3242 35.744 68.0761 36.376C68.8281 37.008 69.5961 37.604 70.3681 38.184C71.1401 38.764 71.9242 39.292 72.7082 39.784L71.1082 39.632C71.7731 39.4546 72.4023 39.1636 72.9681 38.772C73.6293 38.3098 74.243 37.7833 74.8001 37.2C75.4006 36.5855 75.963 35.9349 76.4842 35.252C76.7522 34.904 77.0202 34.552 77.2842 34.188C77.5482 33.824 77.7882 33.44 78.0082 33.104L78.0522 33.04C78.2041 32.8079 78.4343 32.6382 78.701 32.5619C78.9676 32.4855 79.2528 32.5075 79.5045 32.6239C79.7562 32.7403 79.9577 32.9434 80.0722 33.196C80.1867 33.4486 80.2066 33.7339 80.1282 34C79.9762 34.52 79.8161 34.964 79.6321 35.428C79.4481 35.892 79.2562 36.348 79.0402 36.796C78.6022 37.7098 78.0898 38.5861 77.5082 39.416C76.8976 40.296 76.1861 41.1014 75.3881 41.816C74.505 42.6043 73.4802 43.2179 72.3681 43.624C72.1294 43.7081 71.8764 43.744 71.6237 43.7295C71.371 43.7151 71.1237 43.6507 70.8962 43.54L70.7642 43.472C69.771 42.9838 68.8067 42.4389 67.8762 41.84C66.9682 41.252 66.0882 40.64 65.2402 39.984C64.3922 39.328 63.5721 38.664 62.7721 37.984C61.9721 37.304 61.2041 36.592 60.4241 35.796C60.0091 35.363 59.7778 34.7862 59.7788 34.1865C59.7798 33.5867 60.013 33.0107 60.4296 32.5792C60.8461 32.1476 61.4135 31.8942 62.0128 31.872C62.6122 31.8497 63.1968 32.0605 63.6442 32.46L63.6642 32.476Z" fill="#FF8B7B"/>
<path d="M61.22 30.4001C61.22 30.4001 65.252 34.3121 65.72 58.5081C59.272 60.0721 53.068 60.6481 48.276 60.0401C48.048 57.0041 47.708 46.4681 44.628 35.3601C44.4957 34.8922 44.4621 34.402 44.5293 33.9204C44.5965 33.4389 44.7631 32.9766 45.0185 32.5629C45.2739 32.1491 45.6125 31.793 46.0128 31.5171C46.4131 31.2412 46.8665 31.0515 47.344 30.9601C47.956 30.8401 48.6 30.7321 49.24 30.6481C51.6713 30.3003 54.1207 30.0933 56.576 30.0281C58.1309 30.0408 59.6829 30.1651 61.22 30.4001Z" fill="#263238"/>
<path d="M58.092 34.616C58.492 37.644 63.692 43.464 63.692 43.464L69.864 37.064C68.0306 35.1392 66.0485 33.3617 63.936 31.748C59.412 28.368 57.732 31.808 58.092 34.616Z" fill="#263238"/>
<path d="M79.7281 35.0641L81.7921 33.1721L79.3201 30.6321C78.5024 31.3283 77.9396 32.2768 77.7201 33.3281C77.6959 33.5684 77.7596 33.8094 77.8993 34.0064C78.039 34.2035 78.2453 34.3433 78.4801 34.4001L79.7281 35.0641Z" fill="#FF8B7B"/>
<path d="M82.5522 31.7961L82.0202 30.4881C81.9752 30.3759 81.908 30.2739 81.8228 30.188C81.7376 30.1022 81.6361 30.0344 81.5242 29.9885C81.4123 29.9426 81.2923 29.9196 81.1714 29.921C81.0505 29.9223 80.9311 29.9478 80.8202 29.9961L79.3042 30.6321L81.7762 33.1721L82.2082 32.8801C82.3816 32.7667 82.5104 32.5968 82.5731 32.3994C82.6358 32.2019 82.6284 31.9888 82.5522 31.7961Z" fill="#FF8B7B"/>
<path d="M48.292 19.6002C48.872 22.8002 49.048 24.6962 50.848 26.2202C53.556 28.5122 57.292 26.7282 57.648 23.4602C57.984 20.5162 56.98 15.7762 53.724 14.7442C50.468 13.7122 47.712 16.4002 48.292 19.6002Z" fill="#FF8B7B"/>
<path d="M54.6 20.7521C55.724 21.0081 56.6 19.7081 56.72 19.3401C56.172 19.3921 55.2 19.1121 55.008 18.8641C55.608 18.9161 56.188 18.1761 56.26 17.8921C55.6234 17.7691 55.0596 17.4033 54.688 16.8721C55.66 16.8521 56.828 15.1401 55.76 13.6081C54.692 12.0761 50.228 13.3601 49.6 12.2681C48.664 12.8121 49.496 13.5361 49.496 13.5361C49.496 13.5361 43.18 14.7361 46.092 17.1721C43.956 17.3641 43.656 19.8881 45.436 21.1721C47.216 22.4561 47.308 23.3041 46.6 23.2001C46.884 23.7441 48.152 23.8161 48.224 23.2881C48.524 24.3961 49.388 25.8961 51.38 25.6521C53.372 25.4081 55.324 22.6201 54.6 20.7521Z" fill="#263238"/>
<path d="M46.644 16.8001C45.14 17.0081 44.456 16.1601 44.832 15.4121C42.968 16.3641 45.004 18.4681 46.644 16.8001Z" fill="#263238"/>
<path d="M53.0442 20.264C53.3031 20.9344 53.7609 21.5095 54.3562 21.912C55.1562 22.44 55.8802 21.912 55.7442 21.112C55.6202 20.376 55.0562 19.212 54.2242 19.004C54.0519 18.9475 53.867 18.9413 53.6913 18.9863C53.5156 19.0312 53.3564 19.1254 53.2325 19.2578C53.1085 19.3902 53.0249 19.5552 52.9916 19.7334C52.9582 19.9117 52.9765 20.0958 53.0442 20.264Z" fill="#FF8B7B"/>
<path d="M154.712 133.008C151.752 126.024 150.556 117.808 153.944 118.148C157.42 118.484 157.012 130.868 157.576 132.228C156.492 133.16 154.712 133.008 154.712 133.008Z" fill="#9D9D9D"/>
<path d="M155.672 119.756C154.944 122.42 154.172 126.536 153.584 130.024C153.92 131.024 154.3 132.024 154.712 133.008C154.712 133.008 156.488 133.16 157.58 132.228C157.132 131.156 157.292 123.22 155.672 119.756Z" fill="#263238"/>
<path d="M155.688 131.728C154.76 116.888 157.288 103.132 163.944 103.752C169.656 104.288 161.328 129.272 161.488 132.152C158.872 133.168 155.688 131.728 155.688 131.728Z" fill="#9D9D9D"/>
<path d="M160 131.632C161.044 120.964 166.672 108.516 169.088 112.676C172.156 117.956 164.288 130.532 164.076 132.6C162.108 133.024 160 131.632 160 131.632Z" fill="#9D9D9D"/>
<path d="M158.948 107.716C158.272 107.604 157.896 107.184 157.94 106.588C157.988 105.916 158.54 105.248 159.052 105.24C159.3 105.24 159.716 105.368 159.82 106.292L159.42 106.34C159.372 105.9 159.24 105.64 159.064 105.64C158.792 105.64 158.376 106.136 158.344 106.616C158.316 107.016 158.54 107.24 159.016 107.32L158.948 107.716Z" fill="#9D9D9D"/>
<path d="M166.132 110.4C165.841 110.377 165.563 110.27 165.332 110.092L165.548 109.76C165.92 110 166.208 110.064 166.32 109.928C166.488 109.712 166.372 109.08 166.024 108.748C165.744 108.48 165.416 108.5 165.052 108.82L164.792 108.516C164.886 108.411 165 108.325 165.127 108.265C165.255 108.205 165.393 108.171 165.534 108.166C165.675 108.161 165.815 108.184 165.947 108.235C166.079 108.285 166.199 108.362 166.3 108.46C166.788 108.924 166.952 109.772 166.632 110.176C166.573 110.251 166.497 110.311 166.409 110.35C166.322 110.389 166.227 110.406 166.132 110.4Z" fill="#9D9D9D"/>
<path d="M156.328 116.44C156.086 116.457 155.846 116.386 155.653 116.238C155.46 116.091 155.327 115.878 155.28 115.64C155.12 114.988 155.44 114.184 155.928 114.016C156.156 113.94 156.596 113.932 156.98 114.784L156.612 114.952C156.432 114.552 156.212 114.336 156.056 114.396C155.8 114.484 155.556 115.08 155.656 115.544C155.748 115.944 156.056 116.08 156.512 116.008L156.572 116.408C156.492 116.426 156.41 116.437 156.328 116.44Z" fill="#9D9D9D"/>
<path d="M152.068 124.724C151.873 124.729 151.681 124.674 151.518 124.568C151.354 124.461 151.227 124.308 151.152 124.128C150.872 123.516 151.036 122.664 151.48 122.408C151.692 122.288 152.124 122.2 152.66 122.968L152.332 123.196C152.076 122.832 151.832 122.668 151.68 122.756C151.444 122.892 151.316 123.524 151.516 123.956C151.68 124.312 151.992 124.408 152.444 124.248L152.576 124.628C152.413 124.689 152.241 124.722 152.068 124.724Z" fill="#9D9D9D"/>
<path d="M159.156 112.648C159.114 112.648 159.074 112.635 159.04 112.612C158.791 112.475 158.601 112.252 158.504 111.985C158.407 111.718 158.41 111.425 158.512 111.16C158.628 110.894 158.826 110.673 159.077 110.529C159.329 110.385 159.62 110.326 159.908 110.36C160.156 110.404 160.736 110.624 160.776 111.688C160.776 111.741 160.755 111.792 160.717 111.83C160.68 111.867 160.629 111.888 160.576 111.888C160.523 111.888 160.472 111.867 160.434 111.83C160.397 111.792 160.376 111.741 160.376 111.688C160.352 111.132 160.164 110.796 159.836 110.736C159.637 110.72 159.438 110.767 159.266 110.869C159.095 110.972 158.96 111.125 158.88 111.308C158.736 111.648 158.88 111.992 159.28 112.276C159.315 112.301 159.341 112.336 159.355 112.376C159.368 112.416 159.369 112.46 159.356 112.501C159.343 112.542 159.317 112.577 159.283 112.602C159.248 112.627 159.206 112.64 159.164 112.64L159.156 112.648Z" fill="white"/>
<path d="M163.896 123.444C163.85 123.445 163.805 123.429 163.77 123.4C163.735 123.37 163.711 123.329 163.704 123.284C163.698 123.259 163.697 123.232 163.702 123.206C163.706 123.181 163.716 123.156 163.73 123.134C163.744 123.112 163.763 123.093 163.784 123.078C163.806 123.064 163.83 123.053 163.856 123.048C164.4 122.936 164.7 122.692 164.708 122.36C164.69 122.161 164.611 121.973 164.481 121.821C164.351 121.669 164.177 121.561 163.984 121.512C163.624 121.424 163.304 121.62 163.092 122.06C163.08 122.084 163.064 122.105 163.044 122.122C163.025 122.14 163.002 122.153 162.977 122.162C162.952 122.17 162.926 122.174 162.899 122.172C162.873 122.17 162.847 122.164 162.824 122.152C162.8 122.141 162.779 122.124 162.762 122.105C162.744 122.085 162.731 122.062 162.722 122.037C162.714 122.012 162.71 121.986 162.712 121.96C162.713 121.933 162.72 121.908 162.732 121.884C162.83 121.619 163.018 121.397 163.264 121.257C163.51 121.117 163.798 121.069 164.076 121.12C164.358 121.19 164.611 121.348 164.797 121.572C164.982 121.796 165.091 122.074 165.108 122.364C165.108 122.616 164.98 123.224 163.94 123.44L163.896 123.444Z" fill="white"/>
<path d="M169.52 120.072C169.288 120.072 168.98 119.936 168.636 119.42L168.968 119.196C169.216 119.564 169.452 119.732 169.608 119.648C169.848 119.52 170.008 118.888 169.796 118.448C169.644 118.092 169.332 117.988 168.876 118.136L168.752 117.756C169.4 117.544 169.928 117.756 170.164 118.292C170.432 118.908 170.252 119.756 169.8 120C169.715 120.048 169.618 120.073 169.52 120.072Z" fill="#9D9D9D"/>
<path d="M168.328 135.548C168.331 133.414 167.565 131.349 166.172 129.732C166.309 129.712 166.434 129.644 166.525 129.54C166.616 129.436 166.666 129.302 166.668 129.164C166.667 129.008 166.604 128.858 166.493 128.748C166.382 128.638 166.232 128.576 166.076 128.576H152.684C152.538 128.578 152.398 128.635 152.292 128.735C152.186 128.834 152.121 128.971 152.11 129.116C152.099 129.261 152.142 129.406 152.232 129.52C152.322 129.635 152.452 129.712 152.596 129.736C151.72 130.753 151.085 131.955 150.738 133.252C150.39 134.549 150.34 135.907 150.59 137.226C150.84 138.545 151.385 139.79 152.183 140.87C152.981 141.949 154.012 142.834 155.2 143.46C155.07 143.527 154.967 143.635 154.907 143.768C154.847 143.9 154.833 144.049 154.867 144.19C154.902 144.332 154.983 144.457 155.098 144.547C155.213 144.637 155.354 144.685 155.5 144.684H163.256C163.427 144.683 163.592 144.615 163.713 144.493C163.834 144.372 163.903 144.208 163.904 144.036C163.903 143.918 163.871 143.802 163.809 143.7C163.748 143.599 163.661 143.516 163.556 143.46C164.996 142.701 166.202 141.562 167.043 140.168C167.884 138.774 168.328 137.176 168.328 135.548Z" fill="#263238"/>
</svg>
