<svg width="200" height="150" viewBox="0 0 200 150" fill="none" xmlns="http://www.w3.org/2000/svg">
<path d="M200 130.96H0V131.06H200V130.96Z" fill="#EBEBEB"/>
<path d="M34.2321 134.768H20.9841V134.868H34.2321V134.768Z" fill="#EBEBEB"/>
<path d="M90.0001 134.82H68.4561V134.92H90.0001V134.82Z" fill="#EBEBEB"/>
<path d="M49.9839 136.832H42.3079V136.932H49.9839V136.832Z" fill="#EBEBEB"/>
<path d="M178.4 136.784H170.708V136.884H178.4V136.784Z" fill="#EBEBEB"/>
<path d="M167.144 136.784H155.028V136.884H167.144V136.784Z" fill="#EBEBEB"/>
<path d="M148.356 136.124H131.332V136.224H148.356V136.124Z" fill="#EBEBEB"/>
<path d="M94.7999 113.12H17.5639C16.9589 113.119 16.379 112.878 15.9515 112.45C15.524 112.021 15.2839 111.441 15.2839 110.836V2.264C15.2892 1.66241 15.5316 1.08719 15.9585 0.663287C16.3854 0.239383 16.9623 0.00103055 17.5639 0H94.7999C95.4057 0 95.9866 0.240635 96.415 0.668968C96.8433 1.0973 97.0839 1.67825 97.0839 2.284V110.836C97.0839 111.442 96.8433 112.023 96.415 112.451C95.9866 112.879 95.4057 113.12 94.7999 113.12ZM17.5639 0.0800003C16.9854 0.0810599 16.4309 0.311626 16.0222 0.721091C15.6135 1.13056 15.3839 1.68546 15.3839 2.264V110.836C15.3839 111.415 15.6135 111.969 16.0222 112.379C16.4309 112.788 16.9854 113.019 17.5639 113.02H94.7999C95.3788 113.019 95.9337 112.788 96.3431 112.379C96.7524 111.97 96.9829 111.415 96.9839 110.836V2.264C96.9829 1.68509 96.7524 1.1302 96.3431 0.720847C95.9337 0.311496 95.3788 0.0810577 94.7999 0.0800003H17.5639Z" fill="#EBEBEB"/>
<path d="M181.324 113.12H104.084C103.479 113.119 102.898 112.878 102.47 112.45C102.042 112.022 101.801 111.441 101.8 110.836V2.264C101.806 1.66205 102.05 1.08683 102.477 0.663037C102.905 0.239243 103.482 0.00101932 104.084 0H181.324C181.925 0.0020818 182.501 0.2409 182.927 0.664691C183.353 1.08848 183.595 1.6631 183.6 2.264V110.836C183.6 111.44 183.361 112.02 182.934 112.448C182.507 112.876 181.928 113.118 181.324 113.12ZM104.084 0.0800003C103.505 0.0810577 102.95 0.311496 102.541 0.720847C102.132 1.1302 101.901 1.68509 101.9 2.264V110.836C101.901 111.415 102.132 111.97 102.541 112.379C102.95 112.788 103.505 113.019 104.084 113.02H181.324C181.903 113.019 182.458 112.788 182.867 112.379C183.277 111.97 183.507 111.415 183.508 110.836V2.264C183.507 1.68509 183.277 1.1302 182.867 0.720847C182.458 0.311496 181.903 0.0810577 181.324 0.0800003H104.084Z" fill="#EBEBEB"/>
<path d="M120.888 130.96H132.216V74.6H120.888V130.96Z" fill="#E6E6E6"/>
<path d="M123.036 130.96H120.884V124.84H125.292L123.036 130.96Z" fill="#F0F0F0"/>
<path d="M163.224 130.96H174.552V74.6H163.224V130.96Z" fill="#E6E6E6"/>
<path d="M120.888 127.204H165.104V74.5999H120.888V127.204Z" fill="#F0F0F0"/>
<path d="M122.556 109.324V119.552H142.272V109.324H122.556Z" fill="#E6E6E6"/>
<path d="M143.716 109.324V119.552H163.432V109.324H143.716Z" fill="#E6E6E6"/>
<path d="M151.624 111.036H155.524C156.363 111.036 157.193 110.866 157.963 110.534C158.733 110.203 159.428 109.717 160.004 109.108H147.144C147.72 109.717 148.415 110.203 149.185 110.534C149.955 110.866 150.785 111.036 151.624 111.036Z" fill="#F0F0F0"/>
<path d="M130.264 111.036H134.164C135.003 111.036 135.833 110.866 136.603 110.534C137.373 110.203 138.068 109.717 138.644 109.108H125.784C126.36 109.717 127.055 110.203 127.825 110.534C128.596 110.866 129.426 111.036 130.264 111.036Z" fill="#F0F0F0"/>
<path d="M122.552 93.4239V103.652H142.268V93.4239H122.552Z" fill="#E6E6E6"/>
<path d="M143.716 93.428V103.656H163.432V93.428H143.716Z" fill="#E6E6E6"/>
<path d="M151.624 95.1359H155.524C156.363 95.1342 157.192 94.9616 157.961 94.6288C158.731 94.2959 159.425 93.8098 160 93.2H147.144C147.72 93.8102 148.414 94.2967 149.185 94.6296C149.955 94.9624 150.785 95.1347 151.624 95.1359Z" fill="#F0F0F0"/>
<path d="M130.264 95.1359H134.164C135.002 95.1363 135.832 94.9658 136.602 94.635C137.372 94.3043 138.067 93.82 138.644 93.2119H125.784C126.361 93.82 127.056 94.3043 127.826 94.635C128.596 94.9658 129.426 95.1363 130.264 95.1359Z" fill="#F0F0F0"/>
<path d="M122.556 77.5279V87.7559H142.272V77.5279H122.556Z" fill="#E6E6E6"/>
<path d="M143.716 77.5279V87.7559H163.432V77.5279H143.716Z" fill="#E6E6E6"/>
<path d="M151.624 79.24H155.524C156.363 79.2405 157.193 79.0698 157.963 78.7383C158.733 78.4068 159.428 77.9214 160.004 77.312H147.144C147.72 77.9214 148.415 78.4068 149.185 78.7383C149.955 79.0698 150.785 79.2405 151.624 79.24Z" fill="#F0F0F0"/>
<path d="M130.264 79.24H134.164C135.003 79.2405 135.833 79.0698 136.603 78.7383C137.373 78.4068 138.068 77.9214 138.644 77.312H125.784C126.36 77.9214 127.055 78.4068 127.825 78.7383C128.596 79.0698 129.426 79.2405 130.264 79.24Z" fill="#F0F0F0"/>
<path d="M162.952 130.96H165.104V124.84H160.696L162.952 130.96Z" fill="#F0F0F0"/>
<path d="M164.816 35.908L166.548 40.644H164.816L154.188 35.908H164.816Z" fill="#F5F5F5"/>
<path d="M166.548 35.908V40.644L155.924 35.908H166.548Z" fill="#E6E6E6"/>
<path d="M123.148 35.908L124.88 40.644H123.148L112.524 35.908H123.148Z" fill="#F5F5F5"/>
<path d="M124.88 35.908V40.644L114.256 35.908H124.88Z" fill="#E6E6E6"/>
<path d="M174.348 32.5239H162.792V36.1279H174.348V32.5239Z" fill="#E6E6E6"/>
<path d="M105.34 36.1321L162.792 36.1321V32.5281L105.34 32.5281V36.1321Z" fill="#F5F5F5"/>
<path d="M151.124 20C151.124 20 151.24 32.528 155.564 32.528C159.888 32.528 160 20 160 20H151.124Z" fill="#F0F0F0"/>
<path d="M124.312 28.4399C124.312 28.4399 124.616 32.5239 136.248 32.5239C147.88 32.5239 148.184 28.4399 148.184 28.4399H124.312Z" fill="#F0F0F0"/>
<path d="M89.7439 130.96H90.5159L92.7279 120.06L93.1279 118.148L95.5279 106.268H104.8L109.812 130.96H110.588L105.48 105.816C105.463 105.73 105.417 105.652 105.349 105.597C105.281 105.541 105.196 105.511 105.108 105.512H95.2199C95.1326 105.511 95.048 105.542 94.9807 105.597C94.9134 105.653 94.8678 105.73 94.8519 105.816L92.7319 116.248L92.3319 118.156L89.7439 130.96Z" fill="#F0F0F0"/>
<path d="M74.8921 130.96H75.6641L80.6801 106.268H89.9281L92.3281 118.156L92.7281 120.06L94.9441 130.96H95.7161L93.1161 118.16L92.7161 116.26L90.5961 105.828C90.5754 105.744 90.5279 105.669 90.4608 105.614C90.3937 105.559 90.3107 105.528 90.2241 105.524H80.3721C80.2844 105.523 80.1991 105.554 80.1312 105.609C80.0633 105.665 80.0169 105.742 80.0001 105.828L74.8921 130.96Z" fill="#F0F0F0"/>
<path d="M106.184 102.632H79.276C78.6589 102.633 78.0674 102.879 77.631 103.315C77.1947 103.751 76.9491 104.343 76.948 104.96V105.04C76.948 105.266 77.0378 105.483 77.1975 105.643C77.3573 105.802 77.574 105.892 77.8 105.892H107.66C107.886 105.892 108.103 105.802 108.262 105.643C108.422 105.483 108.512 105.266 108.512 105.04V104.96C108.511 104.343 108.265 103.751 107.829 103.315C107.393 102.879 106.801 102.633 106.184 102.632Z" fill="#F0F0F0"/>
<path d="M62.74 130.96H63.512L65.724 120.06L66.124 118.148L68.524 106.268H77.772L82.8 130.96H83.576L78.468 105.816C78.4512 105.73 78.4048 105.652 78.3369 105.597C78.2689 105.541 78.1837 105.511 78.096 105.512H68.216C68.1287 105.511 68.0441 105.542 67.9768 105.597C67.9095 105.653 67.8639 105.73 67.848 105.816L65.728 116.248L65.328 118.156L62.74 130.96Z" fill="#F0F0F0"/>
<path d="M47.8879 130.96H48.6639L53.6759 106.268H62.9279L65.3279 118.156L65.7279 120.06L67.9439 130.96H68.7159L66.1159 118.16L65.7159 116.26L63.5999 105.816C63.5792 105.732 63.5317 105.657 63.4647 105.602C63.3976 105.547 63.3145 105.516 63.2279 105.512H53.3679C53.2802 105.511 53.195 105.541 53.1271 105.597C53.0591 105.652 53.0127 105.73 52.9959 105.816L47.8879 130.96Z" fill="#F0F0F0"/>
<path d="M79.2001 102.632H52.2721C51.655 102.633 51.0635 102.879 50.6271 103.315C50.1908 103.751 49.9451 104.343 49.9441 104.96V105.04C49.9441 105.266 50.0339 105.483 50.1936 105.643C50.3534 105.802 50.5701 105.892 50.7961 105.892H80.6601C80.7718 105.892 80.8824 105.87 80.9855 105.827C81.0887 105.784 81.1823 105.721 81.2611 105.642C81.3399 105.563 81.4023 105.469 81.4447 105.366C81.4871 105.262 81.5086 105.152 81.5081 105.04V104.96C81.5071 104.346 81.2642 103.758 80.8322 103.322C80.4001 102.886 79.8137 102.638 79.2001 102.632Z" fill="#F0F0F0"/>
<path d="M33.7318 71.04H72.3918L72.3918 9.10805L33.7318 9.10805L33.7318 71.04Z" fill="#E6E6E6"/>
<path d="M31.2079 71.04H71.2119L71.2119 9.10805L31.2079 9.10805L31.2079 71.04Z" fill="#F0F0F0"/>
<path d="M33.7318 75.7319H72.3918V71.0359H33.7318V75.7319Z" fill="#E6E6E6"/>
<path d="M26.9999 75.7319H67.0039V71.0359H26.9999V75.7319Z" fill="#F0F0F0"/>
<path d="M67.6721 67.504V12.644L34.7401 12.644V67.504H67.6721Z" fill="#FAFAFA"/>
<path d="M67.956 67.5L56.372 12.644H46.572L58.156 67.5H67.956Z" fill="white"/>
<path d="M65.2881 60.9479C65.355 60.9479 65.4191 60.9213 65.4663 60.8741C65.5136 60.8268 65.5401 60.7627 65.5401 60.6959V14.9439C65.5401 14.8771 65.5136 14.813 65.4663 14.7657C65.4191 14.7184 65.355 14.6919 65.2881 14.6919C65.2213 14.6919 65.1572 14.7184 65.1099 14.7657C65.0627 14.813 65.0361 14.8771 65.0361 14.9439V60.6959C65.0361 60.7627 65.0627 60.8268 65.1099 60.8741C65.1572 60.9213 65.2213 60.9479 65.2881 60.9479Z" fill="#F0F0F0"/>
<path d="M56.052 67.5L44.4679 12.644H40.6479L52.228 67.5H56.052Z" fill="white"/>
<path d="M35.1921 67.504V12.644H34.7441V67.504H35.1921Z" fill="#E6E6E6"/>
<path opacity="0.6" d="M30.3679 15.3599H69.0279L69.3559 14.0159H30.6959L30.3679 15.3599Z" fill="#F0F0F0"/>
<path opacity="0.6" d="M30.3679 18.484H69.0279L69.3559 17.144H30.6959L30.3679 18.484Z" fill="#F0F0F0"/>
<path opacity="0.6" d="M30.3679 21.6118H69.0279L69.3559 20.2678H30.6959L30.3679 21.6118Z" fill="#F0F0F0"/>
<path opacity="0.6" d="M30.3679 24.736H69.0279L69.3559 23.396H30.6959L30.3679 24.736Z" fill="#F0F0F0"/>
<path opacity="0.6" d="M30.3679 27.8639H69.0279L69.3559 26.5239H30.6959L30.3679 27.8639Z" fill="#F0F0F0"/>
<path opacity="0.6" d="M30.3679 30.9919H69.0279L69.3559 29.6479H30.6959L30.3679 30.9919Z" fill="#F0F0F0"/>
<path d="M100 149.024C142.833 149.024 177.556 146.997 177.556 144.496C177.556 141.995 142.833 139.968 100 139.968C57.1671 139.968 22.4441 141.995 22.4441 144.496C22.4441 146.997 57.1671 149.024 100 149.024Z" fill="#F5F5F5"/>
<path d="M97.248 83.0918H72.812C72.4674 83.0918 72.188 83.3712 72.188 83.7158V93.9078C72.188 94.2524 72.4674 94.5318 72.812 94.5318H97.248C97.5926 94.5318 97.872 94.2524 97.872 93.9078V83.7158C97.872 83.3712 97.5926 83.0918 97.248 83.0918Z" fill="#9D9D9D"/>
<path opacity="0.6" d="M97.248 83.0918H72.812C72.4674 83.0918 72.188 83.3712 72.188 83.7158V93.9078C72.188 94.2524 72.4674 94.5318 72.812 94.5318H97.248C97.5926 94.5318 97.872 94.2524 97.872 93.9078V83.7158C97.872 83.3712 97.5926 83.0918 97.248 83.0918Z" fill="white"/>
<path opacity="0.1" d="M97.244 83.0918H72.8C72.6345 83.0918 72.4758 83.1575 72.3588 83.2746C72.2418 83.3916 72.176 83.5503 72.176 83.7158V86.9838L84.896 89.4878C84.9739 89.5037 85.0542 89.5037 85.132 89.4878L97.856 86.9838V83.7158C97.8561 83.5524 97.792 83.3954 97.6775 83.2787C97.5631 83.1621 97.4074 83.0949 97.244 83.0918Z" fill="black"/>
<path d="M97.78 78.9079H90.316V77.6559C90.3149 77.1385 90.1089 76.6426 89.7431 76.2768C89.3772 75.9109 88.8813 75.7049 88.364 75.7039H81.696C81.1786 75.7049 80.6827 75.9109 80.3169 76.2768C79.951 76.6426 79.745 77.1385 79.744 77.6559V78.9079H72.284C72.1206 78.9079 71.9639 78.9728 71.8484 79.0883C71.7329 79.2038 71.668 79.3605 71.668 79.5239V85.6879C71.6688 85.8302 71.7185 85.9679 71.8088 86.0779C71.8991 86.1878 72.0245 86.2634 72.164 86.2919L84.912 88.7999C84.9902 88.8119 85.0698 88.8119 85.148 88.7999L97.896 86.2919C98.0358 86.2635 98.1617 86.1881 98.2527 86.0782C98.3437 85.9683 98.3942 85.8305 98.396 85.6879V79.5239C98.396 79.3605 98.3311 79.2038 98.2155 79.0883C98.1 78.9728 97.9433 78.9079 97.78 78.9079ZM81.228 77.6559C81.229 77.5317 81.2785 77.4128 81.3659 77.3246C81.4534 77.2365 81.5718 77.1859 81.696 77.1839H88.364C88.4881 77.1859 88.6066 77.2365 88.694 77.3246C88.7814 77.4128 88.8309 77.5317 88.832 77.6559V78.9079H81.232L81.228 77.6559Z" fill="#9D9D9D"/>
<path opacity="0.6" d="M97.78 78.9079H90.316V77.6559C90.3149 77.1385 90.1089 76.6426 89.7431 76.2768C89.3772 75.9109 88.8813 75.7049 88.364 75.7039H81.696C81.1786 75.7049 80.6827 75.9109 80.3169 76.2768C79.951 76.6426 79.745 77.1385 79.744 77.6559V78.9079H72.284C72.1206 78.9079 71.9639 78.9728 71.8484 79.0883C71.7329 79.2038 71.668 79.3605 71.668 79.5239V85.6879C71.6688 85.8302 71.7185 85.9679 71.8088 86.0779C71.8991 86.1878 72.0245 86.2634 72.164 86.2919L84.912 88.7999C84.9902 88.8119 85.0698 88.8119 85.148 88.7999L97.896 86.2919C98.0358 86.2635 98.1617 86.1881 98.2527 86.0782C98.3437 85.9683 98.3942 85.8305 98.396 85.6879V79.5239C98.396 79.3605 98.3311 79.2038 98.2155 79.0883C98.1 78.9728 97.9433 78.9079 97.78 78.9079ZM81.228 77.6559C81.229 77.5317 81.2785 77.4128 81.3659 77.3246C81.4534 77.2365 81.5718 77.1859 81.696 77.1839H88.364C88.4881 77.1859 88.6066 77.2365 88.694 77.3246C88.7814 77.4128 88.8309 77.5317 88.832 77.6559V78.9079H81.232L81.228 77.6559Z" fill="white"/>
<path d="M86.348 87.116H83.716C83.3891 87.116 83.124 87.381 83.124 87.708V89.372C83.124 89.6989 83.3891 89.964 83.716 89.964H86.348C86.675 89.964 86.94 89.6989 86.94 89.372V87.708C86.94 87.381 86.675 87.116 86.348 87.116Z" fill="#9D9D9D"/>
<path opacity="0.3" d="M86.348 87.116H83.716C83.3891 87.116 83.124 87.381 83.124 87.708V89.372C83.124 89.6989 83.3891 89.964 83.716 89.964H86.348C86.675 89.964 86.94 89.6989 86.94 89.372V87.708C86.94 87.381 86.675 87.116 86.348 87.116Z" fill="white"/>
<path d="M97.248 9.50781H72.812C72.4674 9.50781 72.188 9.78719 72.188 10.1318V20.3238C72.188 20.6684 72.4674 20.9478 72.812 20.9478H97.248C97.5926 20.9478 97.872 20.6684 97.872 20.3238V10.1318C97.872 9.78719 97.5926 9.50781 97.248 9.50781Z" fill="#9D9D9D"/>
<path opacity="0.6" d="M97.248 9.50781H72.812C72.4674 9.50781 72.188 9.78719 72.188 10.1318V20.3238C72.188 20.6684 72.4674 20.9478 72.812 20.9478H97.248C97.5926 20.9478 97.872 20.6684 97.872 20.3238V10.1318C97.872 9.78719 97.5926 9.50781 97.248 9.50781Z" fill="white"/>
<path opacity="0.1" d="M97.244 9.50781H72.8C72.6345 9.50781 72.4758 9.57356 72.3588 9.69058C72.2418 9.8076 72.176 9.96632 72.176 10.1318V13.3998L84.896 15.9038C84.9739 15.9198 85.0542 15.9198 85.132 15.9038L97.856 13.3998V10.1318C97.8561 9.96838 97.792 9.81145 97.6775 9.69477C97.5631 9.57809 97.4074 9.51096 97.244 9.50781Z" fill="black"/>
<path d="M97.78 5.32387H90.316V4.07187C90.3149 3.5545 90.1089 3.05861 89.7431 2.69277C89.3772 2.32693 88.8813 2.12093 88.364 2.11987H81.696C81.1786 2.12093 80.6827 2.32693 80.3169 2.69277C79.951 3.05861 79.745 3.5545 79.744 4.07187V5.32387H72.284C72.1206 5.32387 71.9639 5.38877 71.8484 5.5043C71.7329 5.61982 71.668 5.7765 71.668 5.93987V12.1039C71.668 12.2464 71.7175 12.3845 71.8079 12.4946C71.8984 12.6047 72.0242 12.6801 72.164 12.7079L84.912 15.1999C84.9898 15.2158 85.0701 15.2158 85.148 15.1999L97.896 12.6919C98.0342 12.6656 98.1595 12.5931 98.2511 12.4862C98.3427 12.3794 98.3952 12.2445 98.4 12.1039V5.93987C98.4 5.85864 98.3839 5.77821 98.3527 5.70321C98.3215 5.62821 98.2758 5.56013 98.2181 5.50288C98.1605 5.44562 98.0921 5.40033 98.0169 5.36961C97.9417 5.33889 97.8612 5.32334 97.78 5.32387ZM81.228 4.07187C81.228 3.94738 81.2771 3.82793 81.3648 3.73952C81.4524 3.65112 81.5715 3.60093 81.696 3.59987H88.364C88.4878 3.60092 88.6062 3.65056 88.6937 3.7381C88.7813 3.82564 88.8309 3.94407 88.832 4.06787V5.31987H81.232L81.228 4.07187Z" fill="#9D9D9D"/>
<path opacity="0.6" d="M97.78 5.32387H90.316V4.07187C90.3149 3.5545 90.1089 3.05861 89.7431 2.69277C89.3772 2.32693 88.8813 2.12093 88.364 2.11987H81.696C81.1786 2.12093 80.6827 2.32693 80.3169 2.69277C79.951 3.05861 79.745 3.5545 79.744 4.07187V5.32387H72.284C72.1206 5.32387 71.9639 5.38877 71.8484 5.5043C71.7329 5.61982 71.668 5.7765 71.668 5.93987V12.1039C71.668 12.2464 71.7175 12.3845 71.8079 12.4946C71.8984 12.6047 72.0242 12.6801 72.164 12.7079L84.912 15.1999C84.9898 15.2158 85.0701 15.2158 85.148 15.1999L97.896 12.6919C98.0342 12.6656 98.1595 12.5931 98.2511 12.4862C98.3427 12.3794 98.3952 12.2445 98.4 12.1039V5.93987C98.4 5.85864 98.3839 5.77821 98.3527 5.70321C98.3215 5.62821 98.2758 5.56013 98.2181 5.50288C98.1605 5.44562 98.0921 5.40033 98.0169 5.36961C97.9417 5.33889 97.8612 5.32334 97.78 5.32387ZM81.228 4.07187C81.228 3.94738 81.2771 3.82793 81.3648 3.73952C81.4524 3.65112 81.5715 3.60093 81.696 3.59987H88.364C88.4878 3.60092 88.6062 3.65056 88.6937 3.7381C88.7813 3.82564 88.8309 3.94407 88.832 4.06787V5.31987H81.232L81.228 4.07187Z" fill="white"/>
<path d="M86.348 13.5359H83.716C83.3891 13.5359 83.124 13.8009 83.124 14.1279V15.7919C83.124 16.1188 83.3891 16.3839 83.716 16.3839H86.348C86.675 16.3839 86.94 16.1188 86.94 15.7919V14.1279C86.94 13.8009 86.675 13.5359 86.348 13.5359Z" fill="#9D9D9D"/>
<path opacity="0.3" d="M86.348 13.5359H83.716C83.3891 13.5359 83.124 13.8009 83.124 14.1279V15.7919C83.124 16.1188 83.3891 16.3839 83.716 16.3839H86.348C86.675 16.3839 86.94 16.1188 86.94 15.7919V14.1279C86.94 13.8009 86.675 13.5359 86.348 13.5359Z" fill="white"/>
<path d="M59.1838 83.0918H34.7478C34.4032 83.0918 34.1238 83.3712 34.1238 83.7158V93.9078C34.1238 94.2524 34.4032 94.5318 34.7478 94.5318H59.1838C59.5284 94.5318 59.8078 94.2524 59.8078 93.9078V83.7158C59.8078 83.3712 59.5284 83.0918 59.1838 83.0918Z" fill="#9D9D9D"/>
<path opacity="0.6" d="M59.1838 83.0918H34.7478C34.4032 83.0918 34.1238 83.3712 34.1238 83.7158V93.9078C34.1238 94.2524 34.4032 94.5318 34.7478 94.5318H59.1838C59.5284 94.5318 59.8078 94.2524 59.8078 93.9078V83.7158C59.8078 83.3712 59.5284 83.0918 59.1838 83.0918Z" fill="white"/>
<path opacity="0.1" d="M59.1998 83.0918H34.7478C34.5823 83.0918 34.4236 83.1575 34.3065 83.2746C34.1895 83.3916 34.1238 83.5503 34.1238 83.7158V86.9838L46.8438 89.4878C46.923 89.5037 47.0046 89.5037 47.0838 89.4878L59.8078 86.9838V83.7158C59.8078 83.553 59.7443 83.3967 59.6307 83.2801C59.5171 83.1635 59.3625 83.096 59.1998 83.0918Z" fill="black"/>
<path d="M59.7119 78.9079H52.2479V77.6559C52.2468 77.1385 52.0408 76.6426 51.675 76.2768C51.3091 75.9109 50.8132 75.7049 50.2959 75.7039H43.6319C43.1145 75.7049 42.6186 75.9109 42.2528 76.2768C41.8869 76.6426 41.6809 77.1385 41.6799 77.6559V78.9079H34.2159C34.0525 78.9079 33.8958 78.9728 33.7803 79.0883C33.6648 79.2038 33.5999 79.3605 33.5999 79.5239V85.6879C33.6007 85.8302 33.6504 85.9679 33.7407 86.0778C33.831 86.1878 33.9564 86.2634 34.0959 86.2919L46.8439 88.7999C46.9234 88.8119 47.0043 88.8119 47.0839 88.7999L59.8319 86.2919C59.9713 86.2634 60.0967 86.1878 60.187 86.0778C60.2773 85.9679 60.3271 85.8302 60.3279 85.6879V79.5239C60.3279 79.3605 60.263 79.2038 60.1474 79.0883C60.0319 78.9728 59.8752 78.9079 59.7119 78.9079ZM43.1599 77.6559C43.1619 77.5313 43.2123 77.4125 43.3004 77.3244C43.3885 77.2363 43.5073 77.1859 43.6319 77.1839H50.2959C50.4204 77.1859 50.5393 77.2363 50.6273 77.3244C50.7154 77.4125 50.7658 77.5313 50.7679 77.6559V78.9079H43.1679L43.1599 77.6559Z" fill="#9D9D9D"/>
<path opacity="0.6" d="M59.7119 78.9079H52.2479V77.6559C52.2468 77.1385 52.0408 76.6426 51.675 76.2768C51.3091 75.9109 50.8132 75.7049 50.2959 75.7039H43.6319C43.1145 75.7049 42.6186 75.9109 42.2528 76.2768C41.8869 76.6426 41.6809 77.1385 41.6799 77.6559V78.9079H34.2159C34.0525 78.9079 33.8958 78.9728 33.7803 79.0883C33.6648 79.2038 33.5999 79.3605 33.5999 79.5239V85.6879C33.6007 85.8302 33.6504 85.9679 33.7407 86.0778C33.831 86.1878 33.9564 86.2634 34.0959 86.2919L46.8439 88.7999C46.9234 88.8119 47.0043 88.8119 47.0839 88.7999L59.8319 86.2919C59.9713 86.2634 60.0967 86.1878 60.187 86.0778C60.2773 85.9679 60.3271 85.8302 60.3279 85.6879V79.5239C60.3279 79.3605 60.263 79.2038 60.1474 79.0883C60.0319 78.9728 59.8752 78.9079 59.7119 78.9079ZM43.1599 77.6559C43.1619 77.5313 43.2123 77.4125 43.3004 77.3244C43.3885 77.2363 43.5073 77.1859 43.6319 77.1839H50.2959C50.4204 77.1859 50.5393 77.2363 50.6273 77.3244C50.7154 77.4125 50.7658 77.5313 50.7679 77.6559V78.9079H43.1679L43.1599 77.6559Z" fill="white"/>
<path d="M48.2799 87.116H45.6479C45.321 87.116 45.0559 87.381 45.0559 87.708V89.372C45.0559 89.6989 45.321 89.964 45.6479 89.964H48.2799C48.6069 89.964 48.8719 89.6989 48.8719 89.372V87.708C48.8719 87.381 48.6069 87.116 48.2799 87.116Z" fill="#9D9D9D"/>
<path opacity="0.3" d="M48.2799 87.116H45.6479C45.321 87.116 45.0559 87.381 45.0559 87.708V89.372C45.0559 89.6989 45.321 89.964 45.6479 89.964H48.2799C48.6069 89.964 48.8719 89.6989 48.8719 89.372V87.708C48.8719 87.381 48.6069 87.116 48.2799 87.116Z" fill="white"/>
<path d="M59.1838 9.50781H34.7478C34.4032 9.50781 34.1238 9.78719 34.1238 10.1318V20.3238C34.1238 20.6684 34.4032 20.9478 34.7478 20.9478H59.1838C59.5284 20.9478 59.8078 20.6684 59.8078 20.3238V10.1318C59.8078 9.78719 59.5284 9.50781 59.1838 9.50781Z" fill="#9D9D9D"/>
<path opacity="0.6" d="M59.1838 9.50781H34.7478C34.4032 9.50781 34.1238 9.78719 34.1238 10.1318V20.3238C34.1238 20.6684 34.4032 20.9478 34.7478 20.9478H59.1838C59.5284 20.9478 59.8078 20.6684 59.8078 20.3238V10.1318C59.8078 9.78719 59.5284 9.50781 59.1838 9.50781Z" fill="white"/>
<path opacity="0.1" d="M59.1998 9.50781H34.7478C34.5823 9.50781 34.4236 9.57356 34.3065 9.69058C34.1895 9.8076 34.1238 9.96632 34.1238 10.1318V13.3998L46.8438 15.9038C46.923 15.9199 47.0046 15.9199 47.0838 15.9038L59.8078 13.3998V10.1318C59.8078 9.96905 59.7443 9.81272 59.6307 9.69614C59.5171 9.57957 59.3625 9.51199 59.1998 9.50781Z" fill="black"/>
<path d="M59.7119 5.32412H52.2479V4.07212C52.2468 3.55474 52.0408 3.05886 51.675 2.69301C51.3091 2.32717 50.8132 2.12117 50.2959 2.12012H43.6319C43.1145 2.12117 42.6186 2.32717 42.2528 2.69301C41.8869 3.05886 41.6809 3.55474 41.6799 4.07212V5.32412H34.2159C34.0525 5.32412 33.8958 5.38902 33.7803 5.50454C33.6648 5.62006 33.5999 5.77674 33.5999 5.94012V12.1041C33.5999 12.2466 33.6494 12.3847 33.7398 12.4949C33.8302 12.605 33.9561 12.6804 34.0959 12.7081L46.8439 15.2001C46.923 15.2162 47.0047 15.2162 47.0839 15.2001L59.8319 12.6921C59.9716 12.6644 60.0975 12.589 60.1879 12.4789C60.2784 12.3687 60.3278 12.2306 60.3279 12.0881V5.94012C60.3279 5.77674 60.263 5.62006 60.1474 5.50454C60.0319 5.38902 59.8752 5.32412 59.7119 5.32412ZM43.1599 4.07212C43.1609 3.94726 43.211 3.82781 43.2993 3.73952C43.3875 3.65123 43.507 3.60116 43.6319 3.60012H50.2959C50.42 3.60114 50.5389 3.65066 50.6271 3.73809C50.7153 3.82552 50.7658 3.94395 50.7679 4.06812V5.32012H43.1679L43.1599 4.07212Z" fill="#9D9D9D"/>
<path opacity="0.6" d="M59.7119 5.32412H52.2479V4.07212C52.2468 3.55474 52.0408 3.05886 51.675 2.69301C51.3091 2.32717 50.8132 2.12117 50.2959 2.12012H43.6319C43.1145 2.12117 42.6186 2.32717 42.2528 2.69301C41.8869 3.05886 41.6809 3.55474 41.6799 4.07212V5.32412H34.2159C34.0525 5.32412 33.8958 5.38902 33.7803 5.50454C33.6648 5.62006 33.5999 5.77674 33.5999 5.94012V12.1041C33.5999 12.2466 33.6494 12.3847 33.7398 12.4949C33.8302 12.605 33.9561 12.6804 34.0959 12.7081L46.8439 15.2001C46.923 15.2162 47.0047 15.2162 47.0839 15.2001L59.8319 12.6921C59.9716 12.6644 60.0975 12.589 60.1879 12.4789C60.2784 12.3687 60.3278 12.2306 60.3279 12.0881V5.94012C60.3279 5.77674 60.263 5.62006 60.1474 5.50454C60.0319 5.38902 59.8752 5.32412 59.7119 5.32412ZM43.1599 4.07212C43.1609 3.94726 43.211 3.82781 43.2993 3.73952C43.3875 3.65123 43.507 3.60116 43.6319 3.60012H50.2959C50.42 3.60114 50.5389 3.65066 50.6271 3.73809C50.7153 3.82552 50.7658 3.94395 50.7679 4.06812V5.32012H43.1679L43.1599 4.07212Z" fill="white"/>
<path d="M48.2799 13.5359H45.6479C45.321 13.5359 45.0559 13.8009 45.0559 14.1279V15.7919C45.0559 16.1188 45.321 16.3839 45.6479 16.3839H48.2799C48.6069 16.3839 48.8719 16.1188 48.8719 15.7919V14.1279C48.8719 13.8009 48.6069 13.5359 48.2799 13.5359Z" fill="#9D9D9D"/>
<path opacity="0.3" d="M48.2799 13.5359H45.6479C45.321 13.5359 45.0559 13.8009 45.0559 14.1279V15.7919C45.0559 16.1188 45.321 16.3839 45.6479 16.3839H48.2799C48.6069 16.3839 48.8719 16.1188 48.8719 15.7919V14.1279C48.8719 13.8009 48.6069 13.5359 48.2799 13.5359Z" fill="white"/>
<path d="M55.9999 57.7398H34.7479C34.5813 57.7398 34.4216 57.6736 34.3038 57.5559C34.186 57.4381 34.1199 57.2784 34.1199 57.1118V46.9238C34.1205 46.8398 34.1382 46.7568 34.1719 46.6798C34.1881 46.6439 34.2068 46.6091 34.2279 46.5758C34.2501 46.5416 34.2771 46.5106 34.3079 46.4838C34.4244 46.3666 34.5826 46.3005 34.7479 46.2998H54.8639C54.6965 47.6958 54.6417 49.103 54.6999 50.5078C54.6999 50.7358 54.6999 50.9638 54.7359 51.1878C54.7639 51.6078 54.7959 52.0318 54.8439 52.4518C55.0498 54.249 55.4371 56.0207 55.9999 57.7398Z" fill="#9D9D9D"/>
<path opacity="0.6" d="M55.9999 57.7398H34.7479C34.5813 57.7398 34.4216 57.6736 34.3038 57.5559C34.186 57.4381 34.1199 57.2784 34.1199 57.1118V46.9238C34.1205 46.8398 34.1382 46.7568 34.1719 46.6798C34.1881 46.6439 34.2068 46.6091 34.2279 46.5758C34.2501 46.5416 34.2771 46.5106 34.3079 46.4838C34.4244 46.3666 34.5826 46.3005 34.7479 46.2998H54.8639C54.6965 47.6958 54.6417 49.103 54.6999 50.5078C54.6999 50.7358 54.6999 50.9638 54.7359 51.1878C54.7639 51.6078 54.7959 52.0318 54.8439 52.4518C55.0498 54.249 55.4371 56.0207 55.9999 57.7398Z" fill="white"/>
<path opacity="0.1" d="M54.8638 46.2998C54.6964 47.6958 54.6416 49.103 54.6998 50.5078C54.6998 50.7358 54.6998 50.9638 54.7358 51.1878L48.8718 52.3398L47.0798 52.6918C47.0024 52.7118 46.9212 52.7118 46.8438 52.6918L45.0558 52.3438L34.1238 50.1918V46.9198C34.125 46.8376 34.1413 46.7562 34.1718 46.6798C34.188 46.6439 34.2068 46.6091 34.2278 46.5758C34.25 46.5416 34.277 46.5106 34.3078 46.4838C34.4243 46.3666 34.5825 46.3005 34.7478 46.2998H54.8638Z" fill="black"/>
<path d="M55.6999 42.1159H52.2519V40.8639C52.2497 40.3461 52.0429 39.8502 51.6764 39.4845C51.3099 39.1188 50.8136 38.9129 50.2959 38.9119H43.6319C43.1142 38.9119 42.6177 39.1175 42.2516 39.4836C41.8855 39.8497 41.6799 40.3462 41.6799 40.8639V42.1159H34.2159C34.135 42.1159 34.0549 42.1318 33.9801 42.1628C33.9054 42.1937 33.8375 42.2391 33.7803 42.2963C33.7231 42.3535 33.6777 42.4214 33.6467 42.4961C33.6158 42.5709 33.5999 42.651 33.5999 42.7319V48.8919C33.5999 49.0354 33.6498 49.1745 33.741 49.2854C33.8322 49.3963 33.959 49.4721 34.0999 49.4999H34.1239L45.0559 51.6559L46.8439 52.0039C46.9217 52.0198 47.002 52.0198 47.0799 52.0039L48.8719 51.6519L54.6999 50.5039C54.6417 49.0991 54.6965 47.6919 54.8639 46.2959C55.03 44.8824 55.3095 43.4845 55.6999 42.1159ZM43.1599 40.8639C43.1619 40.7397 43.2125 40.6213 43.3006 40.5338C43.3888 40.4464 43.5077 40.3969 43.6319 40.3959H50.2959C50.4197 40.3969 50.5381 40.4466 50.6256 40.5341C50.7132 40.6216 50.7628 40.7401 50.7639 40.8639V42.1159H43.1639L43.1599 40.8639Z" fill="#9D9D9D"/>
<path opacity="0.6" d="M55.6999 42.1159H52.2519V40.8639C52.2497 40.3461 52.0429 39.8502 51.6764 39.4845C51.3099 39.1188 50.8136 38.9129 50.2959 38.9119H43.6319C43.1142 38.9119 42.6177 39.1175 42.2516 39.4836C41.8855 39.8497 41.6799 40.3462 41.6799 40.8639V42.1159H34.2159C34.135 42.1159 34.0549 42.1318 33.9801 42.1628C33.9054 42.1937 33.8375 42.2391 33.7803 42.2963C33.7231 42.3535 33.6777 42.4214 33.6467 42.4961C33.6158 42.5709 33.5999 42.651 33.5999 42.7319V48.8919C33.5999 49.0354 33.6498 49.1745 33.741 49.2854C33.8322 49.3963 33.959 49.4721 34.0999 49.4999H34.1239L45.0559 51.6559L46.8439 52.0039C46.9217 52.0198 47.002 52.0198 47.0799 52.0039L48.8719 51.6519L54.6999 50.5039C54.6417 49.0991 54.6965 47.6919 54.8639 46.2959C55.03 44.8824 55.3095 43.4845 55.6999 42.1159ZM43.1599 40.8639C43.1619 40.7397 43.2125 40.6213 43.3006 40.5338C43.3888 40.4464 43.5077 40.3969 43.6319 40.3959H50.2959C50.4197 40.3969 50.5381 40.4466 50.6256 40.5341C50.7132 40.6216 50.7628 40.7401 50.7639 40.8639V42.1159H43.1639L43.1599 40.8639Z" fill="white"/>
<path d="M48.2799 50.324H45.6479C45.321 50.324 45.0559 50.589 45.0559 50.916V52.58C45.0559 52.9069 45.321 53.172 45.6479 53.172H48.2799C48.6069 53.172 48.8719 52.9069 48.8719 52.58V50.916C48.8719 50.589 48.6069 50.324 48.2799 50.324Z" fill="#9D9D9D"/>
<path opacity="0.3" d="M48.2799 50.324H45.6479C45.321 50.324 45.0559 50.589 45.0559 50.916V52.58C45.0559 52.9069 45.321 53.172 45.6479 53.172H48.2799C48.6069 53.172 48.8719 52.9069 48.8719 52.58V50.916C48.8719 50.589 48.6069 50.324 48.2799 50.324Z" fill="white"/>
<path d="M110.876 94.5278H135.312C135.657 94.5278 135.936 94.2485 135.936 93.9038V83.7118C135.936 83.3672 135.657 83.0878 135.312 83.0878H110.876C110.531 83.0878 110.252 83.3672 110.252 83.7118V93.9038C110.252 94.2485 110.531 94.5278 110.876 94.5278Z" fill="#9D9D9D"/>
<path opacity="0.6" d="M110.876 94.5278H135.312C135.657 94.5278 135.936 94.2485 135.936 93.9038V83.7118C135.936 83.3672 135.657 83.0878 135.312 83.0878H110.876C110.531 83.0878 110.252 83.3672 110.252 83.7118V93.9038C110.252 94.2485 110.531 94.5278 110.876 94.5278Z" fill="white"/>
<path opacity="0.1" d="M110.88 83.092H135.312C135.477 83.092 135.636 83.1577 135.753 83.2748C135.87 83.3918 135.936 83.5505 135.936 83.716V86.984L123.2 89.488C123.122 89.5039 123.042 89.5039 122.964 89.488L110.24 86.984V83.716C110.24 83.6327 110.257 83.5502 110.289 83.4734C110.321 83.3967 110.369 83.3272 110.428 83.269C110.488 83.2108 110.559 83.1652 110.636 83.1348C110.714 83.1044 110.797 83.0899 110.88 83.092Z" fill="black"/>
<path d="M110.348 78.9079H117.812V77.6559C117.813 77.1385 118.019 76.6426 118.385 76.2768C118.751 75.9109 119.246 75.7049 119.764 75.7039H126.432C126.949 75.7049 127.445 75.9109 127.811 76.2768C128.177 76.6426 128.383 77.1385 128.384 77.6559V78.9079H135.844C135.925 78.9079 136.005 78.9238 136.08 78.9547C136.154 78.9857 136.222 79.0311 136.279 79.0883C136.337 79.1455 136.382 79.2134 136.413 79.2881C136.444 79.3629 136.46 79.443 136.46 79.5239V85.6879C136.459 85.8302 136.409 85.9679 136.319 86.0778C136.229 86.1878 136.103 86.2634 135.964 86.2919L123.2 88.7999C123.12 88.8119 123.039 88.8119 122.96 88.7999L110.212 86.2919C110.072 86.2634 109.947 86.1878 109.857 86.0778C109.766 85.9679 109.717 85.8302 109.716 85.6879V79.5239C109.716 79.4416 109.732 79.3602 109.764 79.2844C109.796 79.2086 109.843 79.1399 109.902 79.0825C109.961 79.0251 110.031 78.9801 110.107 78.9501C110.184 78.9201 110.266 78.9057 110.348 78.9079ZM126.9 77.6559C126.899 77.5317 126.849 77.4128 126.762 77.3246C126.674 77.2365 126.556 77.1859 126.432 77.1839H119.764C119.639 77.1859 119.52 77.2363 119.432 77.3244C119.344 77.4125 119.294 77.5313 119.292 77.6559V78.9079H126.892L126.9 77.6559Z" fill="#9D9D9D"/>
<path opacity="0.6" d="M110.348 78.9079H117.812V77.6559C117.813 77.1385 118.019 76.6426 118.385 76.2768C118.751 75.9109 119.246 75.7049 119.764 75.7039H126.432C126.949 75.7049 127.445 75.9109 127.811 76.2768C128.177 76.6426 128.383 77.1385 128.384 77.6559V78.9079H135.844C135.925 78.9079 136.005 78.9238 136.08 78.9547C136.154 78.9857 136.222 79.0311 136.279 79.0883C136.337 79.1455 136.382 79.2134 136.413 79.2881C136.444 79.3629 136.46 79.443 136.46 79.5239V85.6879C136.459 85.8302 136.409 85.9679 136.319 86.0778C136.229 86.1878 136.103 86.2634 135.964 86.2919L123.2 88.7999C123.12 88.8119 123.039 88.8119 122.96 88.7999L110.212 86.2919C110.072 86.2634 109.947 86.1878 109.857 86.0778C109.766 85.9679 109.717 85.8302 109.716 85.6879V79.5239C109.716 79.4416 109.732 79.3602 109.764 79.2844C109.796 79.2086 109.843 79.1399 109.902 79.0825C109.961 79.0251 110.031 78.9801 110.107 78.9501C110.184 78.9201 110.266 78.9057 110.348 78.9079ZM126.9 77.6559C126.899 77.5317 126.849 77.4128 126.762 77.3246C126.674 77.2365 126.556 77.1859 126.432 77.1839H119.764C119.639 77.1859 119.52 77.2363 119.432 77.3244C119.344 77.4125 119.294 77.5313 119.292 77.6559V78.9079H126.892L126.9 77.6559Z" fill="white"/>
<path d="M121.78 89.9639H124.412C124.739 89.9639 125.004 89.6988 125.004 89.3719V87.7079C125.004 87.3809 124.739 87.1159 124.412 87.1159H121.78C121.453 87.1159 121.188 87.3809 121.188 87.7079V89.3719C121.188 89.6988 121.453 89.9639 121.78 89.9639Z" fill="#9D9D9D"/>
<path opacity="0.3" d="M121.78 89.9639H124.412C124.739 89.9639 125.004 89.6988 125.004 89.3719V87.7079C125.004 87.3809 124.739 87.1159 124.412 87.1159H121.78C121.453 87.1159 121.188 87.3809 121.188 87.7079V89.3719C121.188 89.6988 121.453 89.9639 121.78 89.9639Z" fill="white"/>
<path d="M110.876 20.9438L135.312 20.9438C135.657 20.9438 135.936 20.6645 135.936 20.3198V10.1278C135.936 9.78322 135.657 9.50385 135.312 9.50385L110.876 9.50385C110.531 9.50385 110.252 9.78322 110.252 10.1278V20.3198C110.252 20.6645 110.531 20.9438 110.876 20.9438Z" fill="#9D9D9D"/>
<path opacity="0.6" d="M110.876 20.9438L135.312 20.9438C135.657 20.9438 135.936 20.6645 135.936 20.3198V10.1278C135.936 9.78322 135.657 9.50385 135.312 9.50385L110.876 9.50385C110.531 9.50385 110.252 9.78322 110.252 10.1278V20.3198C110.252 20.6645 110.531 20.9438 110.876 20.9438Z" fill="white"/>
<path opacity="0.1" d="M110.88 9.50781H135.312C135.477 9.50781 135.636 9.57356 135.753 9.69058C135.87 9.8076 135.936 9.96632 135.936 10.1318V13.3998L123.2 15.9038C123.122 15.9198 123.042 15.9198 122.964 15.9038L110.256 13.3998V10.1318C110.256 9.96632 110.322 9.8076 110.439 9.69058C110.556 9.57356 110.714 9.50781 110.88 9.50781Z" fill="black"/>
<path d="M110.348 5.32391H117.812V4.07191C117.813 3.55453 118.019 3.05865 118.385 2.69281C118.751 2.32696 119.246 2.12097 119.764 2.11991H126.432C126.689 2.11833 126.945 2.16762 127.183 2.26496C127.422 2.3623 127.638 2.50577 127.821 2.68714C128.004 2.8685 128.149 3.08419 128.249 3.32183C128.348 3.55947 128.399 3.81437 128.4 4.07191V5.32391H135.86C136.023 5.32391 136.18 5.38881 136.295 5.50433C136.411 5.61985 136.476 5.77654 136.476 5.93991V12.1039C136.476 12.2464 136.426 12.3845 136.336 12.4946C136.245 12.6048 136.12 12.6801 135.98 12.7079L123.2 15.1999C123.121 15.216 123.039 15.216 122.96 15.1999L110.212 12.6919C110.072 12.6641 109.946 12.5888 109.856 12.4786C109.765 12.3685 109.716 12.2304 109.716 12.0879V5.93991C109.716 5.85765 109.732 5.77622 109.764 5.70042C109.796 5.62462 109.843 5.55599 109.902 5.49858C109.961 5.44116 110.031 5.39613 110.107 5.36613C110.184 5.33613 110.266 5.32177 110.348 5.32391ZM126.9 4.07191C126.9 3.94742 126.851 3.82796 126.763 3.73956C126.675 3.65116 126.556 3.60097 126.432 3.59991H119.764C119.64 3.60094 119.521 3.65045 119.433 3.73788C119.344 3.82532 119.294 3.94375 119.292 4.06791V5.31991H126.892L126.9 4.07191Z" fill="#9D9D9D"/>
<path opacity="0.6" d="M110.348 5.32391H117.812V4.07191C117.813 3.55453 118.019 3.05865 118.385 2.69281C118.751 2.32696 119.246 2.12097 119.764 2.11991H126.432C126.689 2.11833 126.945 2.16762 127.183 2.26496C127.422 2.3623 127.638 2.50577 127.821 2.68714C128.004 2.8685 128.149 3.08419 128.249 3.32183C128.348 3.55947 128.399 3.81437 128.4 4.07191V5.32391H135.86C136.023 5.32391 136.18 5.38881 136.295 5.50433C136.411 5.61985 136.476 5.77654 136.476 5.93991V12.1039C136.476 12.2464 136.426 12.3845 136.336 12.4946C136.245 12.6048 136.12 12.6801 135.98 12.7079L123.2 15.1999C123.121 15.216 123.039 15.216 122.96 15.1999L110.212 12.6919C110.072 12.6641 109.946 12.5888 109.856 12.4786C109.765 12.3685 109.716 12.2304 109.716 12.0879V5.93991C109.716 5.85765 109.732 5.77622 109.764 5.70042C109.796 5.62462 109.843 5.55599 109.902 5.49858C109.961 5.44116 110.031 5.39613 110.107 5.36613C110.184 5.33613 110.266 5.32177 110.348 5.32391ZM126.9 4.07191C126.9 3.94742 126.851 3.82796 126.763 3.73956C126.675 3.65116 126.556 3.60097 126.432 3.59991H119.764C119.64 3.60094 119.521 3.65045 119.433 3.73788C119.344 3.82532 119.294 3.94375 119.292 4.06791V5.31991H126.892L126.9 4.07191Z" fill="white"/>
<path d="M121.78 16.3799H124.412C124.739 16.3799 125.004 16.1148 125.004 15.7879V14.1239C125.004 13.7969 124.739 13.5319 124.412 13.5319H121.78C121.453 13.5319 121.188 13.7969 121.188 14.1239V15.7879C121.188 16.1148 121.453 16.3799 121.78 16.3799Z" fill="#9D9D9D"/>
<path opacity="0.3" d="M121.78 16.3799H124.412C124.739 16.3799 125.004 16.1148 125.004 15.7879V14.1239C125.004 13.7969 124.739 13.5319 124.412 13.5319H121.78C121.453 13.5319 121.188 13.7969 121.188 14.1239V15.7879C121.188 16.1148 121.453 16.3799 121.78 16.3799Z" fill="white"/>
<path d="M114.076 57.7398H135.316C135.482 57.7388 135.64 57.6721 135.757 57.5545C135.874 57.4368 135.94 57.2777 135.94 57.1118V46.9238C135.939 46.8398 135.922 46.7568 135.888 46.6798C135.873 46.6431 135.854 46.6082 135.832 46.5758C135.81 46.5416 135.783 46.5106 135.752 46.4838C135.694 46.4254 135.626 46.3791 135.55 46.3475C135.475 46.3159 135.394 46.2997 135.312 46.2998H115.2C115.367 47.6958 115.422 49.103 115.364 50.5078C115.364 50.7358 115.364 50.9638 115.328 51.1878C115.304 51.6078 115.268 52.0318 115.22 52.4518C115.018 54.2486 114.635 56.0202 114.076 57.7398Z" fill="#9D9D9D"/>
<path opacity="0.6" d="M114.076 57.7398H135.316C135.482 57.7388 135.64 57.6721 135.757 57.5545C135.874 57.4368 135.94 57.2777 135.94 57.1118V46.9238C135.939 46.8398 135.922 46.7568 135.888 46.6798C135.873 46.6431 135.854 46.6082 135.832 46.5758C135.81 46.5416 135.783 46.5106 135.752 46.4838C135.694 46.4254 135.626 46.3791 135.55 46.3475C135.475 46.3159 135.394 46.2997 135.312 46.2998H115.2C115.367 47.6958 115.422 49.103 115.364 50.5078C115.364 50.7358 115.364 50.9638 115.328 51.1878C115.304 51.6078 115.268 52.0318 115.22 52.4518C115.018 54.2486 114.635 56.0202 114.076 57.7398Z" fill="white"/>
<path opacity="0.1" d="M115.2 46.2998C115.367 47.6958 115.422 49.103 115.364 50.5078C115.364 50.7358 115.364 50.9638 115.328 51.1878L121.2 52.3398L122.992 52.6918C123.069 52.7118 123.151 52.7118 123.228 52.6918L125.016 52.3438L135.948 50.1918V46.9198C135.947 46.8376 135.93 46.7562 135.9 46.6798C135.885 46.6431 135.867 46.6082 135.844 46.5758C135.822 46.5416 135.795 46.5106 135.764 46.4838C135.707 46.4254 135.638 46.3791 135.562 46.3475C135.487 46.3159 135.406 46.2997 135.324 46.2998H115.2Z" fill="black"/>
<path d="M114.36 42.1159H117.812V40.8639C117.813 40.3465 118.019 39.8506 118.385 39.4848C118.75 39.1189 119.246 38.9129 119.764 38.9119H126.428C126.946 38.9119 127.443 39.1174 127.809 39.4833C128.176 39.8493 128.383 40.3458 128.384 40.8639V42.1159H135.844C136.007 42.1159 136.164 42.1808 136.279 42.2963C136.395 42.4118 136.46 42.5685 136.46 42.7319V48.8919C136.46 49.0349 136.411 49.1735 136.32 49.2843C136.23 49.3951 136.104 49.4713 135.964 49.4999H135.936L125.004 51.6559L123.2 51.9999C123.122 52.0158 123.042 52.0158 122.964 51.9999L121.172 51.6479L115.344 50.4999C115.457 47.6646 115.12 44.8293 114.344 42.0999L114.36 42.1159ZM126.9 40.8639C126.898 40.7397 126.847 40.6213 126.759 40.5338C126.671 40.4464 126.552 40.3969 126.428 40.3959H119.764C119.64 40.3969 119.522 40.4466 119.434 40.5341C119.346 40.6216 119.297 40.7401 119.296 40.8639V42.1159H126.896L126.9 40.8639Z" fill="#9D9D9D"/>
<path opacity="0.6" d="M114.36 42.1159H117.812V40.8639C117.813 40.3465 118.019 39.8506 118.385 39.4848C118.75 39.1189 119.246 38.9129 119.764 38.9119H126.428C126.946 38.9119 127.443 39.1174 127.809 39.4833C128.176 39.8493 128.383 40.3458 128.384 40.8639V42.1159H135.844C136.007 42.1159 136.164 42.1808 136.279 42.2963C136.395 42.4118 136.46 42.5685 136.46 42.7319V48.8919C136.46 49.0349 136.411 49.1735 136.32 49.2843C136.23 49.3951 136.104 49.4713 135.964 49.4999H135.936L125.004 51.6559L123.2 51.9999C123.122 52.0158 123.042 52.0158 122.964 51.9999L121.172 51.6479L115.344 50.4999C115.457 47.6646 115.12 44.8293 114.344 42.0999L114.36 42.1159ZM126.9 40.8639C126.898 40.7397 126.847 40.6213 126.759 40.5338C126.671 40.4464 126.552 40.3969 126.428 40.3959H119.764C119.64 40.3969 119.522 40.4466 119.434 40.5341C119.346 40.6216 119.297 40.7401 119.296 40.8639V42.1159H126.896L126.9 40.8639Z" fill="white"/>
<path d="M121.78 53.1758H124.412C124.739 53.1758 125.004 52.9107 125.004 52.5838V50.9198C125.004 50.5928 124.739 50.3278 124.412 50.3278H121.78C121.453 50.3278 121.188 50.5928 121.188 50.9198V52.5838C121.188 52.9107 121.453 53.1758 121.78 53.1758Z" fill="#9D9D9D"/>
<path opacity="0.3" d="M121.78 53.1758H124.412C124.739 53.1758 125.004 52.9107 125.004 52.5838V50.9198C125.004 50.5928 124.739 50.3278 124.412 50.3278H121.78C121.453 50.3278 121.188 50.5928 121.188 50.9198V52.5838C121.188 52.9107 121.453 53.1758 121.78 53.1758Z" fill="white"/>
<path d="M103.88 43.8159H68.7678C68.273 43.8159 67.8718 44.2171 67.8718 44.7119V59.3559C67.8718 59.8508 68.273 60.2519 68.7678 60.2519H103.88C104.375 60.2519 104.776 59.8508 104.776 59.3559V44.7119C104.776 44.2171 104.375 43.8159 103.88 43.8159Z" fill="#9D9D9D"/>
<path d="M91.112 41.1998H81.532C80.8056 41.1987 80.1093 40.9097 79.5957 40.3961C79.0821 39.8824 78.7931 39.1861 78.792 38.4598V35.9998C78.7931 35.2734 79.0821 34.5771 79.5957 34.0635C80.1093 33.5498 80.8056 33.2608 81.532 33.2598H91.112C91.8387 33.2598 92.5356 33.5484 93.0495 34.0623C93.5633 34.5761 93.852 35.2731 93.852 35.9998V38.4478C93.8536 38.8086 93.7839 39.1662 93.6469 39.5C93.5099 39.8338 93.3083 40.1373 93.0537 40.393C92.7991 40.6487 92.4965 40.8516 92.1633 40.9901C91.8301 41.1285 91.4728 41.1998 91.112 41.1998ZM81.532 35.2718C81.3392 35.2738 81.1548 35.3511 81.0181 35.487C80.8814 35.623 80.8031 35.807 80.8 35.9998V38.4478C80.8 38.644 80.878 38.8322 81.0167 38.971C81.1555 39.1098 81.3437 39.1878 81.54 39.1878H91.12C91.3163 39.1878 91.5045 39.1098 91.6433 38.971C91.782 38.8322 91.86 38.644 91.86 38.4478V35.9998C91.86 35.8035 91.782 35.6153 91.6433 35.4765C91.5045 35.3377 91.3163 35.2598 91.12 35.2598L81.532 35.2718Z" fill="#9D9D9D"/>
<path opacity="0.2" d="M103.876 43.8159H68.7718C68.6538 43.8154 68.5369 43.8382 68.4277 43.883C68.3185 43.9278 68.2193 43.9937 68.1357 44.0769C68.052 44.1602 67.9857 44.2591 67.9404 44.3681C67.8951 44.4771 67.8718 44.5939 67.8718 44.7119V49.4119L86.1518 53.0119C86.2639 53.0363 86.3798 53.0363 86.4918 53.0119L104.776 49.4119V44.7119C104.776 44.5939 104.753 44.4771 104.707 44.3681C104.662 44.2591 104.596 44.1602 104.512 44.0769C104.428 43.9937 104.329 43.9278 104.22 43.883C104.111 43.8382 103.994 43.8154 103.876 43.8159Z" fill="black"/>
<path d="M104.8 48.3999L86.4839 51.9999C86.3701 52.0199 86.2537 52.0199 86.1399 51.9999L67.8239 48.3999C67.6227 48.3601 67.4414 48.252 67.3109 48.0937C67.1804 47.9355 67.1086 47.737 67.1079 47.5319V38.6919C67.1079 38.5758 67.1308 38.4608 67.1752 38.3536C67.2196 38.2463 67.2847 38.1489 67.3668 38.0668C67.4489 37.9847 67.5464 37.9196 67.6536 37.8752C67.7609 37.8307 67.8758 37.8079 67.9919 37.8079H104.64C104.756 37.8079 104.871 37.8307 104.978 37.8752C105.085 37.9196 105.183 37.9847 105.265 38.0668C105.347 38.1489 105.412 38.2463 105.457 38.3536C105.501 38.4608 105.524 38.5758 105.524 38.6919V47.5479C105.52 47.7516 105.446 47.9476 105.314 48.1029C105.182 48.2581 105 48.363 104.8 48.3999Z" fill="#9D9D9D"/>
<path d="M88.22 49.6038H84.432C83.9636 49.6038 83.584 49.9834 83.584 50.4518V52.8478C83.584 53.3161 83.9636 53.6958 84.432 53.6958H88.22C88.6883 53.6958 89.068 53.3161 89.068 52.8478V50.4518C89.068 49.9834 88.6883 49.6038 88.22 49.6038Z" fill="#9D9D9D"/>
<path opacity="0.4" d="M88.22 49.6038H84.432C83.9636 49.6038 83.584 49.9834 83.584 50.4518V52.8478C83.584 53.3161 83.9636 53.6958 84.432 53.6958H88.22C88.6883 53.6958 89.068 53.3161 89.068 52.8478V50.4518C89.068 49.9834 88.6883 49.6038 88.22 49.6038Z" fill="black"/>
<path d="M152.36 52.884C152.82 53.832 153.16 54.728 153.56 55.664C153.96 56.6 154.252 57.532 154.564 58.488C155.197 60.4263 155.664 62.4148 155.96 64.432C156 64.684 156.02 64.956 156.048 65.232L156.088 65.632C156.088 65.704 156.088 65.756 156.088 65.84V66.1C156.101 66.7066 156.049 67.3128 155.932 67.908C155.734 68.9426 155.451 69.9593 155.088 70.948C154.405 72.8276 153.554 74.6417 152.544 76.368L150.512 75.508C150.964 73.684 151.42 71.824 151.764 70.028C151.932 69.1675 152.051 68.2981 152.12 67.424C152.144 67.0667 152.136 66.708 152.096 66.352L152.052 66.1L151.996 65.78C151.952 65.568 151.924 65.356 151.872 65.14C151.473 63.3744 150.957 61.6372 150.328 59.94C150.024 59.072 149.688 58.208 149.352 57.34C149.016 56.472 148.644 55.6 148.3 54.8L152.36 52.884Z" fill="#7F3E3B"/>
<path d="M150.6 74.9761L149.04 76.4961L152.444 78.0961C152.444 78.0961 153.268 76.6561 152.7 75.3521L150.6 74.9761Z" fill="#7F3E3B"/>
<path d="M147.784 78.7641L150.656 79.9401L152.444 78.0801L149.04 76.4961L147.784 78.7641Z" fill="#7F3E3B"/>
<path opacity="0.2" d="M89.5241 77.1239C95.1843 76.49 100.529 74.192 104.884 70.5205C109.238 66.849 112.406 61.9689 113.987 56.4972C115.568 51.0254 115.491 45.2078 113.766 39.7797C112.041 34.3517 108.745 29.5571 104.295 26.002C99.8451 22.447 94.4411 20.2911 88.7661 19.8071C83.0912 19.3231 77.4001 20.5325 72.4125 23.2827C67.4249 26.0328 63.3647 30.2 60.7452 35.2574C58.1257 40.3149 57.0647 46.0355 57.6961 51.6959C58.1156 55.4558 59.2716 59.0961 61.0983 62.409C62.925 65.7219 65.3865 68.6424 68.3422 71.0038C71.2979 73.3651 74.6898 75.121 78.3243 76.1711C81.9588 77.2213 85.7645 77.545 89.5241 77.1239Z" fill="#9D9D9D"/>
<path opacity="0.1" d="M68.5681 25.8162L112.368 60.8002C112.556 60.4002 112.732 60.0002 112.904 59.6002C114.002 56.9884 114.703 54.2273 114.984 51.4082L77.1521 21.2002C74.0474 22.2356 71.1438 23.797 68.5681 25.8162Z" fill="white"/>
<path opacity="0.1" d="M58.4639 41.1481L99.6399 74.0481C103.552 72.0076 106.944 69.0953 109.552 65.5361L64.5839 29.6001C61.6859 32.9296 59.592 36.8806 58.4639 41.1481Z" fill="white"/>
<path d="M157.268 80.848C157.215 80.12 156.977 79.4177 156.576 78.808C156.284 78.3595 155.877 77.9986 155.396 77.764L152.664 76.424C150.848 75.524 149.02 74.6479 147.192 73.7719C145.364 72.896 143.524 72.0359 141.692 71.1679C139.86 70.2999 138.012 69.456 136.16 68.628C132.464 66.9533 128.744 65.324 125 63.74C123.128 62.94 121.252 62.172 119.36 61.42C118.808 61.2024 118.359 60.7831 118.104 60.2468C117.849 59.7106 117.808 59.0976 117.988 58.532C120.521 50.5472 119.944 41.9006 116.373 34.3229C112.803 26.7452 106.502 20.7957 98.732 17.6654C90.9622 14.535 82.2967 14.4548 74.4702 17.4409C66.6438 20.4269 60.2339 26.2588 56.5238 33.7692C52.8137 41.2795 52.0771 49.914 54.4615 57.9442C56.8459 65.9744 62.1753 72.8078 69.3829 77.0763C76.5904 81.3449 85.1443 82.7337 93.3321 80.9647C101.52 79.1956 108.738 74.3993 113.54 67.5359C113.88 67.0481 114.393 66.7077 114.974 66.5837C115.556 66.4597 116.163 66.5613 116.672 66.868C118.421 67.908 120.179 68.9306 121.944 69.936C125.472 71.9466 129.027 73.9066 132.608 75.8159C134.396 76.784 136.208 77.716 137.988 78.664C139.768 79.612 141.588 80.536 143.4 81.464C145.212 82.392 147 83.2999 148.836 84.1959L151.56 85.548C152.039 85.7886 152.574 85.8937 153.108 85.852C153.835 85.8004 154.536 85.5621 155.144 85.16C155.869 84.7148 156.453 84.0737 156.829 83.3107C157.204 82.5476 157.357 81.6939 157.268 80.848ZM74.72 72C70.07 69.7054 66.2049 66.0835 63.6135 61.5922C61.0221 57.101 59.8207 51.9421 60.1614 46.768C60.502 41.594 62.3694 36.6371 65.5273 32.5244C68.6852 28.4117 72.9918 25.3278 77.9025 23.6627C82.8131 21.9977 88.1073 21.8263 93.1154 23.1702C98.1234 24.5141 102.621 27.3129 106.038 31.2128C109.455 35.1126 111.639 39.9383 112.314 45.0795C112.989 50.2207 112.123 55.4465 109.828 60.096C108.305 63.1829 106.188 65.9396 103.599 68.2085C101.01 70.4774 97.9997 72.2142 94.7395 73.3196C91.4794 74.425 88.0335 74.8774 84.5985 74.651C81.1635 74.4245 77.8068 73.5237 74.72 72Z" fill="#9D9D9D"/>
<path d="M137.276 40.5201C137.276 40.7561 137.152 40.9481 136.996 40.9481C136.84 40.9481 136.716 40.7561 136.716 40.5201C136.716 40.2841 136.84 40.0881 136.996 40.0881C137.152 40.0881 137.276 40.2801 137.276 40.5201Z" fill="#263238"/>
<path d="M137.172 40.948C136.891 41.6726 136.511 42.355 136.044 42.976C136.206 43.0918 136.391 43.1707 136.586 43.2073C136.782 43.244 136.983 43.2374 137.176 43.188L137.172 40.948Z" fill="#630F0F"/>
<path d="M138.116 39.1999C138.145 39.1991 138.173 39.1893 138.196 39.1718C138.22 39.1543 138.237 39.1301 138.246 39.1024C138.254 39.0747 138.254 39.0449 138.245 39.0173C138.237 38.9896 138.219 38.9654 138.196 38.9479C138.019 38.8155 137.814 38.7268 137.596 38.6893C137.378 38.6517 137.155 38.6663 136.944 38.732C136.925 38.7371 136.908 38.7461 136.892 38.7585C136.877 38.7709 136.865 38.7863 136.856 38.8038C136.847 38.8212 136.842 38.8404 136.841 38.8599C136.84 38.8795 136.843 38.899 136.85 38.9173C136.857 38.9356 136.868 38.9521 136.882 38.966C136.896 38.9798 136.912 38.9906 136.931 38.9977C136.949 39.0047 136.968 39.0078 136.988 39.0068C137.007 39.0059 137.027 39.0008 137.044 38.9919C137.212 38.942 137.389 38.9323 137.562 38.9635C137.734 38.9948 137.896 39.0662 138.036 39.1719C138.059 39.1904 138.087 39.2003 138.116 39.1999Z" fill="#263238"/>
<path d="M145.368 42.304C144.944 44.456 144.524 48.396 146.028 49.828C146.028 49.828 145.44 52.008 141.448 52.008C137.048 52.008 139.348 49.828 139.348 49.828C141.748 49.256 141.684 47.476 141.264 45.828L145.368 42.304Z" fill="#7F3E3B"/>
<path d="M146.8 48.4801C147.132 48.5881 146.7 50.5641 146.7 50.5641C146.7 50.5641 146.152 51.9441 139.344 51.4641C138.82 51.4241 139.02 49.5281 139.52 49.2521C141.132 48.3721 145.728 48.1281 146.8 48.4801Z" fill="#263238"/>
<path d="M160.628 131.124C160.996 131.088 161.532 130.412 161.684 130.164C161.691 130.153 161.695 130.141 161.695 130.128C161.695 130.115 161.691 130.103 161.684 130.092C161.678 130.08 161.668 130.071 161.655 130.065C161.643 130.059 161.629 130.057 161.616 130.06C161.576 130.06 160.608 130.244 160.372 130.62C160.347 130.659 160.331 130.704 160.324 130.75C160.317 130.796 160.32 130.843 160.332 130.888C160.384 131.064 160.484 131.112 160.564 131.124H160.628ZM161.472 130.232C161.212 130.592 160.784 131.012 160.58 130.984C160.56 130.984 160.5 130.984 160.464 130.848C160.456 130.822 160.454 130.794 160.459 130.767C160.463 130.74 160.473 130.715 160.488 130.692C160.764 130.445 161.106 130.285 161.472 130.232Z" fill="#9D9D9D"/>
<path d="M161.432 130.232C161.503 130.226 161.574 130.214 161.644 130.196C161.656 130.192 161.666 130.185 161.675 130.176C161.683 130.167 161.689 130.156 161.692 130.144C161.694 130.132 161.693 130.119 161.689 130.107C161.685 130.095 161.678 130.084 161.668 130.076C161.644 130.052 160.996 129.5 160.556 129.544C160.503 129.547 160.451 129.562 160.405 129.587C160.358 129.612 160.317 129.646 160.284 129.688C160.246 129.724 160.223 129.773 160.218 129.825C160.212 129.877 160.226 129.929 160.256 129.972C160.4 130.2 161.032 130.272 161.432 130.232ZM161.464 130.092C161.064 130.14 160.48 130.06 160.368 129.896C160.368 129.896 160.336 129.844 160.392 129.772C160.414 129.746 160.442 129.724 160.473 129.708C160.504 129.692 160.537 129.683 160.572 129.68C160.904 129.726 161.214 129.869 161.464 130.092Z" fill="#9D9D9D"/>
<path d="M133.128 141.644C133.431 141.643 133.733 141.616 134.032 141.564C134.045 141.56 134.058 141.553 134.067 141.544C134.077 141.534 134.084 141.522 134.088 141.508C134.09 141.494 134.088 141.479 134.082 141.466C134.075 141.453 134.065 141.443 134.052 141.436C134.008 141.408 132.984 140.824 132.492 140.956C132.4 140.98 132.321 141.039 132.272 141.12C132.241 141.165 132.224 141.218 132.224 141.272C132.224 141.327 132.241 141.38 132.272 141.424C132.4 141.6 132.752 141.644 133.128 141.644ZM133.808 141.46C133.26 141.536 132.516 141.532 132.38 141.344C132.36 141.32 132.344 141.276 132.38 141.188C132.395 141.163 132.414 141.142 132.438 141.126C132.461 141.109 132.488 141.098 132.516 141.092C132.832 141.008 133.448 141.276 133.808 141.46Z" fill="#9D9D9D"/>
<path d="M134 141.564C134.014 141.568 134.03 141.568 134.044 141.564C134.053 141.556 134.061 141.547 134.065 141.535C134.07 141.524 134.073 141.512 134.072 141.5C134.072 141.468 133.988 140.676 133.616 140.368C133.561 140.322 133.497 140.288 133.428 140.267C133.36 140.247 133.287 140.24 133.216 140.248C133.024 140.268 132.972 140.364 132.956 140.444C132.904 140.776 133.608 141.412 133.96 141.572L134 141.564ZM133.284 140.364C133.373 140.367 133.459 140.399 133.528 140.456C133.75 140.71 133.89 141.025 133.928 141.36C133.564 141.144 133.088 140.644 133.128 140.444C133.128 140.444 133.128 140.38 133.264 140.368L133.284 140.364Z" fill="#9D9D9D"/>
<path d="M137.248 141.496H134.312L134.016 134.688H136.956L137.248 141.496Z" fill="#7F3E3B"/>
<path d="M164.252 128.012L161.96 129.848L156.128 125.8L158.424 123.964L164.252 128.012Z" fill="#7F3E3B"/>
<path d="M161.54 129.732L163.884 127.408C163.926 127.368 163.98 127.343 164.038 127.337C164.096 127.331 164.155 127.345 164.204 127.376L166.456 128.824C166.51 128.859 166.556 128.907 166.59 128.962C166.624 129.018 166.644 129.081 166.65 129.146C166.656 129.21 166.647 129.276 166.623 129.336C166.6 129.397 166.563 129.452 166.516 129.496C165.684 130.296 165.24 130.64 164.208 131.66C163.576 132.292 162.028 134.172 161.152 135.04C160.276 135.908 159.3 135.156 159.584 134.72C160.844 132.776 161.272 131.172 161.328 130.196C161.34 130.021 161.415 129.856 161.54 129.732Z" fill="#263238"/>
<path d="M134.328 141.156H137.528C137.586 141.156 137.642 141.175 137.688 141.212C137.733 141.248 137.764 141.299 137.776 141.356L138.356 143.968C138.371 144.031 138.371 144.096 138.356 144.159C138.342 144.222 138.313 144.28 138.273 144.33C138.232 144.381 138.181 144.421 138.123 144.448C138.064 144.475 138 144.489 137.936 144.488C136.776 144.488 135.104 144.404 133.648 144.404C131.948 144.404 130.48 144.496 128.484 144.496C127.284 144.496 126.944 143.276 127.448 143.164C129.748 142.664 131.624 142.608 133.608 141.384C133.822 141.242 134.071 141.163 134.328 141.156Z" fill="#263238"/>
<path d="M151.82 50.708C154.368 51.908 155.42 60.132 155.42 60.132L149.56 62.432C148.65 60.2052 147.914 57.9118 147.356 55.572C146.536 51.86 149.2 49.46 151.82 50.708Z" fill="#9D9D9D"/>
<path opacity="0.3" d="M151.82 50.708C154.368 51.908 155.42 60.132 155.42 60.132L149.56 62.432C148.65 60.2052 147.914 57.9118 147.356 55.572C146.536 51.86 149.2 49.46 151.82 50.708Z" fill="white"/>
<path opacity="0.2" d="M148.024 53.1201C147.824 53.0231 147.615 52.9467 147.4 52.8921C147.166 53.7691 147.158 54.691 147.376 55.5721C147.931 57.9121 148.667 60.2056 149.576 62.4321L151.508 61.6761C151.152 59.5281 150.06 54.0961 148.024 53.1201Z" fill="black"/>
<path d="M134.828 50.644C134.828 50.644 131.7 54.176 134.652 76.044H150.372C150.48 73.644 148.964 61.86 151.292 50.492C149.553 50.1576 147.795 49.9359 146.028 49.828C143.803 49.6999 141.573 49.6999 139.348 49.828C137.822 49.9817 136.311 50.2545 134.828 50.644Z" fill="#9D9D9D"/>
<path opacity="0.3" d="M134.828 50.644C134.828 50.644 131.7 54.176 134.652 76.044H150.372C150.48 73.644 148.964 61.86 151.292 50.492C149.553 50.1576 147.795 49.9359 146.028 49.828C143.803 49.6999 141.573 49.6999 139.348 49.828C137.822 49.9817 136.311 50.2545 134.828 50.644Z" fill="white"/>
<path opacity="0.2" d="M138 55.3321C137.288 53.1961 135.576 52.5121 133.832 53.7801C133.48 55.8521 133.232 59.1921 133.516 64.4881L136.584 64.4601C136.584 64.4601 139.052 58.5121 138 55.3321Z" fill="black"/>
<path d="M137.424 54.4559C137.296 55.5279 137.12 56.4999 136.924 57.5119C136.728 58.5239 136.5 59.5119 136.24 60.5079C135.727 62.5436 135.028 64.5279 134.152 66.4359C133.924 66.9279 133.66 67.4119 133.38 67.8959C133.236 68.1399 133.092 68.3839 132.928 68.6239C132.715 68.9575 132.464 69.2649 132.18 69.5399C131.628 70.0518 130.973 70.4404 130.26 70.6799C129.68 70.8829 129.081 71.0237 128.472 71.0999C127.385 71.2347 126.286 71.2481 125.196 71.1399C124.663 71.0973 124.143 71.0293 123.636 70.9359C123.116 70.8439 122.624 70.7479 122.088 70.6079L122.348 68.4159C124.174 68.3393 125.986 68.0711 127.756 67.6159C128.116 67.5094 128.465 67.3701 128.8 67.1999C129.02 67.0992 129.212 66.9469 129.36 66.7559C129.328 66.7839 129.62 66.2999 129.792 65.9559C129.964 65.6119 130.156 65.1559 130.32 64.7559C130.656 63.9319 130.944 63.0599 131.208 62.1679C131.472 61.2759 131.704 60.3679 131.92 59.4479C132.136 58.5279 132.32 57.5999 132.52 56.6479C132.72 55.6959 132.864 54.7519 133.008 53.8679L137.424 54.4559Z" fill="#7F3E3B"/>
<path d="M138.756 52.8001C139.584 55.4841 136.224 63.4841 136.224 63.4841L129.148 61.7041C129.581 59.1755 130.31 56.7065 131.32 54.3481C133.6 49.3561 137.76 49.5641 138.756 52.8001Z" fill="#9D9D9D"/>
<path opacity="0.3" d="M138.756 52.8001C139.584 55.4841 136.224 63.4841 136.224 63.4841L129.148 61.7041C129.581 59.1755 130.31 56.7065 131.32 54.3481C133.6 49.3561 137.76 49.5641 138.756 52.8001Z" fill="white"/>
<path d="M122.448 68.428L119.12 68.344L120.72 71.804C120.72 71.804 122.072 71.984 123.184 70.156L124.356 68.76L123.008 68.488C122.823 68.452 122.636 68.4319 122.448 68.428Z" fill="#7F3E3B"/>
<path d="M117.02 68.988L118.928 71.856L120.724 71.804L119.12 68.344L117.02 68.988Z" fill="#7F3E3B"/>
<path opacity="0.2" d="M134.02 134.692L134.168 138.2H137.108L136.956 134.692H134.02Z" fill="black"/>
<path opacity="0.2" d="M158.424 123.964L156.128 125.8L159.136 127.888L161.432 126.052L158.424 123.964Z" fill="black"/>
<path d="M145.2 39.9999C145.024 42.9119 145.072 44.6239 143.6 46.1199C141.392 48.3679 137.796 47.0399 137.1 44.1199C136.472 41.5039 136.868 37.1839 139.716 36.0199C140.344 35.7602 141.028 35.6657 141.703 35.7456C142.378 35.8254 143.021 36.077 143.571 36.4762C144.121 36.8753 144.56 37.4088 144.845 38.0257C145.13 38.6426 145.252 39.3223 145.2 39.9999Z" fill="#7F3E3B"/>
<path d="M147.552 37.2961C147.552 37.2961 149.084 37.7521 148.604 39.5001C147.88 42.1561 146.176 45.2121 143.976 45.4041C141.236 45.6481 140 42.8201 139.64 39.8961C138 38.7721 136.784 37.7201 137.176 36.5521C137.776 34.7521 139.952 33.2001 143.416 33.6001C146.88 34.0001 148.604 36.2401 147.552 37.2961Z" fill="#263238"/>
<path d="M141.308 40.4961C141.255 41.2184 140.965 41.903 140.484 42.4441C139.844 43.1481 139.172 42.7081 139.06 41.8521C138.96 41.0761 139.168 39.7761 139.952 39.3881C140.736 39.0001 141.36 39.6241 141.308 40.4961Z" fill="#7F3E3B"/>
<path d="M140.228 76.0439C140.228 76.0439 139.236 95.8519 141.168 104.244C144.228 117.532 157.68 128.18 157.68 128.18L162 124.72C162 124.72 150.932 116.484 149.936 105.42C149.044 95.4839 150.364 84.0719 150.364 76.0439H140.228Z" fill="#9D9D9D"/>
<path opacity="0.2" d="M140.228 76.0439C140.228 76.0439 139.236 95.8519 141.168 104.244C144.228 117.532 157.68 128.18 157.68 128.18L162 124.72C162 124.72 150.932 116.484 149.936 105.42C149.044 95.4839 150.364 84.0719 150.364 76.0439H140.228Z" fill="black"/>
<path opacity="0.2" d="M141.704 81.9122C141.304 81.1402 140.524 83.4402 139.98 86.3922C139.98 90.4642 140.052 95.0962 140.408 99.0202C143.124 94.0002 142.548 83.5122 141.704 81.9122Z" fill="black"/>
<path d="M155.72 127.328L157.36 128.6L162.348 124.556L160.852 123.2L155.72 127.328Z" fill="#2C6BDB"/>
<path opacity="0.4" d="M155.72 127.328L157.36 128.6L162.348 124.556L160.852 123.2L155.72 127.328Z" fill="#FAFAFA"/>
<path d="M134.652 76.0439C134.652 76.0439 130.228 94.8039 129.916 103.764C129.568 113.816 133.072 137.52 133.072 137.52H138.052C138.052 137.52 138.664 113.632 138.888 104.476C139.128 94.4959 144.984 76.0439 144.984 76.0439H134.652Z" fill="#9D9D9D"/>
<path opacity="0.2" d="M134.652 76.0439C134.652 76.0439 130.228 94.8039 129.916 103.764C129.568 113.816 133.072 137.52 133.072 137.52H138.052C138.052 137.52 138.664 113.632 138.888 104.476C139.128 94.4959 144.984 76.0439 144.984 76.0439H134.652Z" fill="black"/>
<path d="M132.116 135.536C132.092 135.536 132.396 137.604 132.396 137.604H138.452L138.616 135.76L132.116 135.536Z" fill="#2C6BDB"/>
<path opacity="0.4" d="M132.116 135.536C132.092 135.536 132.396 137.604 132.396 137.604H138.452L138.616 135.76L132.116 135.536Z" fill="#FAFAFA"/>
</svg>
