<svg width="20" height="20" viewBox="0 0 20 20" fill="none" xmlns="http://www.w3.org/2000/svg">
<path d="M6 2C5.46957 2 4.96086 2.21071 4.58579 2.58579C4.21071 2.96086 4 3.46957 4 4V16C4 16.5304 4.21071 17.0391 4.58579 17.4142C4.96086 17.7893 5.46957 18 6 18H10.257C10.0023 17.6915 9.782 17.3562 9.6 17H6C5.73478 17 5.48043 16.8946 5.29289 16.7071C5.10536 16.5196 5 16.2652 5 16V4C5 3.73478 5.10536 3.48043 5.29289 3.29289C5.48043 3.10536 5.73478 3 6 3H10V6.5C10 6.89782 10.158 7.27936 10.4393 7.56066C10.7206 7.84196 11.1022 8 11.5 8H15V9.022C15.3383 9.05265 15.6731 9.11458 16 9.207V7.414C15.9997 7.01631 15.8414 6.63503 15.56 6.354L11.646 2.439C11.3648 2.15798 10.9835 2.00008 10.586 2H6ZM14.793 7H11.5C11.3674 7 11.2402 6.94732 11.1464 6.85355C11.0527 6.75979 11 6.63261 11 6.5V3.207L14.793 7ZM9 14.5C9 14.332 9.008 14.165 9.022 14H8.5C8.36739 14 8.24021 14.0527 8.14645 14.1464C8.05268 14.2402 8 14.3674 8 14.5C8 14.6326 8.05268 14.7598 8.14645 14.8536C8.24021 14.9473 8.36739 15 8.5 15H9.022C9.00718 14.8337 8.99984 14.6669 9 14.5ZM9.207 13C9.306 12.651 9.437 12.317 9.6 12H8.5C8.36739 12 8.24021 12.0527 8.14645 12.1464C8.05268 12.2402 8 12.3674 8 12.5C8 12.6326 8.05268 12.7598 8.14645 12.8536C8.24021 12.9473 8.36739 13 8.5 13H9.207ZM10.257 11C10.57 10.62 10.934 10.284 11.337 10H8.5C8.36739 10 8.24021 10.0527 8.14645 10.1464C8.05268 10.2402 8 10.3674 8 10.5C8 10.6326 8.05268 10.7598 8.14645 10.8536C8.24021 10.9473 8.36739 11 8.5 11H10.257ZM6.5 10C6.36739 10 6.24021 10.0527 6.14645 10.1464C6.05268 10.2402 6 10.3674 6 10.5C6 10.6326 6.05268 10.7598 6.14645 10.8536C6.24021 10.9473 6.36739 11 6.5 11C6.63261 11 6.75979 10.9473 6.85355 10.8536C6.94732 10.7598 7 10.6326 7 10.5C7 10.3674 6.94732 10.2402 6.85355 10.1464C6.75979 10.0527 6.63261 10 6.5 10ZM6 12.5C6 12.3674 6.05268 12.2402 6.14645 12.1464C6.24021 12.0527 6.36739 12 6.5 12C6.63261 12 6.75979 12.0527 6.85355 12.1464C6.94732 12.2402 7 12.3674 7 12.5C7 12.6326 6.94732 12.7598 6.85355 12.8536C6.75979 12.9473 6.63261 13 6.5 13C6.36739 13 6.24021 12.9473 6.14645 12.8536C6.05268 12.7598 6 12.6326 6 12.5ZM6 14.5C6 14.3674 6.05268 14.2402 6.14645 14.1464C6.24021 14.0527 6.36739 14 6.5 14C6.63261 14 6.75979 14.0527 6.85355 14.1464C6.94732 14.2402 7 14.3674 7 14.5C7 14.6326 6.94732 14.7598 6.85355 14.8536C6.75979 14.9473 6.63261 15 6.5 15C6.36739 15 6.24021 14.9473 6.14645 14.8536C6.05268 14.7598 6 14.6326 6 14.5ZM19 14.5C19 15.6935 18.5259 16.8381 17.682 17.682C16.8381 18.5259 15.6935 19 14.5 19C13.3065 19 12.1619 18.5259 11.318 17.682C10.4741 16.8381 10 15.6935 10 14.5C10 13.3065 10.4741 12.1619 11.318 11.318C12.1619 10.4741 13.3065 10 14.5 10C15.6935 10 16.8381 10.4741 17.682 11.318C18.5259 12.1619 19 13.3065 19 14.5ZM15 11.5C15 11.3674 14.9473 11.2402 14.8536 11.1464C14.7598 11.0527 14.6326 11 14.5 11C14.3674 11 14.2402 11.0527 14.1464 11.1464C14.0527 11.2402 14 11.3674 14 11.5V14.5C14 14.6326 14.0527 14.7598 14.1464 14.8536C14.2402 14.9473 14.3674 15 14.5 15H16.5C16.6326 15 16.7598 14.9473 16.8536 14.8536C16.9473 14.7598 17 14.6326 17 14.5C17 14.3674 16.9473 14.2402 16.8536 14.1464C16.7598 14.0527 16.6326 14 16.5 14H15V11.5Z" fill="#20215A"/>
</svg>
