<svg width="24" height="24" viewBox="0 0 24 24" fill="none" xmlns="http://www.w3.org/2000/svg">
<path d="M9.99992 17.2399L11.3333 17.9066V13.5133C11.3325 13.3384 11.2631 13.1708 11.1399 13.0466L6.81992 8.66659H17.1933L12.8799 13.0466C12.7568 13.1708 12.6873 13.3384 12.6866 13.5133L12.6666 18.6666L13.9999 19.3333V13.7866L18.3866 9.33325C18.5621 9.15523 18.6623 8.91652 18.6666 8.66659V7.99992C18.6666 7.82311 18.5963 7.65354 18.4713 7.52851C18.3463 7.40349 18.1767 7.33325 17.9999 7.33325H5.99992C5.82311 7.33325 5.65354 7.40349 5.52851 7.52851C5.40349 7.65354 5.33325 7.82311 5.33325 7.99992V8.66659C5.33752 8.91652 5.43778 9.15523 5.61325 9.33325L9.99992 13.7866V17.2399Z" fill="#00B2FF"/>
<path d="M11.9999 1.33325C9.89026 1.33325 7.82796 1.95884 6.07384 3.13091C4.31972 4.30298 2.95254 5.96888 2.14521 7.91796C1.33787 9.86704 1.12664 12.0118 1.53821 14.0809C1.94979 16.15 2.96569 18.0506 4.45745 19.5424C5.94921 21.0342 7.84983 22.0501 9.91896 22.4616C11.9881 22.8732 14.1328 22.662 16.0819 21.8546C18.031 21.0473 19.6969 19.6801 20.8689 17.926C22.041 16.1719 22.6666 14.1096 22.6666 11.9999C22.6666 9.17094 21.5428 6.45783 19.5424 4.45745C17.542 2.45706 14.8289 1.33325 11.9999 1.33325ZM11.9999 21.3333C10.154 21.3333 8.34946 20.7859 6.8146 19.7603C5.27974 18.7347 4.08347 17.2771 3.37705 15.5716C2.67063 13.8662 2.4858 11.9896 2.84593 10.1791C3.20606 8.36859 4.09497 6.70554 5.40026 5.40025C6.70555 4.09496 8.36859 3.20605 10.1791 2.84592C11.9896 2.48579 13.8662 2.67063 15.5716 3.37704C17.2771 4.08346 18.7347 5.27974 19.7603 6.8146C20.7859 8.34945 21.3333 10.154 21.3333 11.9999C21.3333 14.4753 20.3499 16.8492 18.5996 18.5996C16.8492 20.3499 14.4753 21.3333 11.9999 21.3333Z" fill="#00B2FF"/>
</svg>
