<svg width="22" height="22" viewBox="0 0 22 22" fill="none" xmlns="http://www.w3.org/2000/svg">
<path d="M1.98456 17.9217C2.15506 18.1784 2.44198 18.3333 2.74998 18.3333H16.5C16.8666 18.3333 17.1985 18.1152 17.3424 17.7778L20.0924 11.3612C20.1527 11.2218 20.1773 11.0696 20.164 10.9183C20.1507 10.767 20.1 10.6214 20.0165 10.4946C19.9329 10.3678 19.819 10.2639 19.6852 10.1921C19.5514 10.1203 19.4018 10.0829 19.25 10.0833H18.3333V6.41667C18.3333 5.40558 17.5111 4.58333 16.5 4.58333H10.9083L8.81465 2.94525C8.65361 2.81874 8.45476 2.74998 8.24998 2.75H3.66665C2.65556 2.75 1.83331 3.57225 1.83331 4.58333V17.4167H1.83973C1.83769 17.5956 1.88803 17.7711 1.98456 17.9217V17.9217ZM15.8959 16.5H4.14056L6.10498 11.9167H17.8603L15.8959 16.5ZM16.5 6.41667V10.0833H5.49998C5.13331 10.0833 4.80148 10.3015 4.65756 10.6388L3.66665 12.9516V6.41667H16.5Z" fill="#78849E"/>
</svg>
