<svg width="16" height="16" viewBox="0 0 16 16" fill="none" xmlns="http://www.w3.org/2000/svg">
<path d="M2 4C2 3.46957 2.21071 2.96086 2.58579 2.58579C2.96086 2.21071 3.46957 2 4 2H12C12.5304 2 13.0391 2.21071 13.4142 2.58579C13.7893 2.96086 14 3.46957 14 4V9.33333C14 9.86377 13.7893 10.3725 13.4142 10.7475C13.0391 11.1226 12.5304 11.3333 12 11.3333H9.60933L11.138 12.862C11.2594 12.9877 11.3266 13.1561 11.3251 13.3309C11.3236 13.5057 11.2535 13.6729 11.1299 13.7965C11.0063 13.9202 10.8391 13.9903 10.6643 13.9918C10.4895 13.9933 10.3211 13.9261 10.1953 13.8047L8 11.6093L5.80467 13.8047C5.67893 13.9261 5.51053 13.9933 5.33573 13.9918C5.16093 13.9903 4.99373 13.9202 4.87012 13.7965C4.74652 13.6729 4.6764 13.5057 4.67488 13.3309C4.67336 13.1561 4.74056 12.9877 4.862 12.862L6.39067 11.3333H4C3.46957 11.3333 2.96086 11.1226 2.58579 10.7475C2.21071 10.3725 2 9.86377 2 9.33333V4ZM4 3.33333C3.82319 3.33333 3.65362 3.40357 3.5286 3.5286C3.40357 3.65362 3.33333 3.82319 3.33333 4V9.33333C3.33333 9.51014 3.40357 9.67971 3.5286 9.80474C3.65362 9.92976 3.82319 10 4 10H12C12.1768 10 12.3464 9.92976 12.4714 9.80474C12.5964 9.67971 12.6667 9.51014 12.6667 9.33333V4C12.6667 3.82319 12.5964 3.65362 12.4714 3.5286C12.3464 3.40357 12.1768 3.33333 12 3.33333H4ZM10.6667 4.66667C10.8435 4.66667 11.013 4.7369 11.1381 4.86193C11.2631 4.98695 11.3333 5.15652 11.3333 5.33333V8C11.3333 8.17681 11.2631 8.34638 11.1381 8.4714C11.013 8.59643 10.8435 8.66667 10.6667 8.66667C10.4899 8.66667 10.3203 8.59643 10.1953 8.4714C10.0702 8.34638 10 8.17681 10 8V5.33333C10 5.15652 10.0702 4.98695 10.1953 4.86193C10.3203 4.7369 10.4899 4.66667 10.6667 4.66667ZM8 6C8.17681 6 8.34638 6.07024 8.4714 6.19526C8.59643 6.32029 8.66667 6.48986 8.66667 6.66667V8C8.66667 8.17681 8.59643 8.34638 8.4714 8.4714C8.34638 8.59643 8.17681 8.66667 8 8.66667C7.82319 8.66667 7.65362 8.59643 7.5286 8.4714C7.40357 8.34638 7.33333 8.17681 7.33333 8V6.66667C7.33333 6.48986 7.40357 6.32029 7.5286 6.19526C7.65362 6.07024 7.82319 6 8 6ZM4.66667 8C4.66667 7.82319 4.7369 7.65362 4.86193 7.5286C4.98695 7.40357 5.15652 7.33333 5.33333 7.33333H5.34C5.51681 7.33333 5.68638 7.40357 5.8114 7.5286C5.93643 7.65362 6.00667 7.82319 6.00667 8C6.00667 8.17681 5.93643 8.34638 5.8114 8.4714C5.68638 8.59643 5.51681 8.66667 5.34 8.66667H5.33333C5.15652 8.66667 4.98695 8.59643 4.86193 8.4714C4.7369 8.34638 4.66667 8.17681 4.66667 8Z" fill="#20215A"/>
</svg>
