<svg width="360" height="120" viewBox="0 0 360 120" fill="none" xmlns="http://www.w3.org/2000/svg">
<path d="M27.7944 66.2932C38.9437 64.8777 53.2148 55.2528 63.9182 56.1021C74.6216 56.9513 101.826 64.8777 110.299 64.3116C118.773 63.7454 140.18 55.5359 150.883 56.6682C161.586 57.8006 173.182 50.1572 185.669 52.4219C198.156 54.6866 207.521 62.0469 218.671 60.3483C229.82 58.6498 244.586 53.5543 259.303 57.2344C274.02 60.9145 284.723 66.2932 293.197 64.8777C301.67 63.4623 312.819 52.1388 324.861 53.5543C336.902 54.9697 334.672 60.3483 352.065 61.4807C406.275 91.4412 351.45 103.953 351.45 103.953L-5.07411 104C-5.07411 104 -14.6507 73.2446 27.7944 66.2931V66.2932Z" fill="#F2F2F2"/>
<path fill-rule="evenodd" clip-rule="evenodd" d="M51.3392 80.5259C52.103 77.3154 54.5644 74.9995 57.3369 73L57.337 73.0002C60.3144 76.1736 60.7607 79.3539 60.0991 82.1428C62.2502 80.214 65.3153 78.7649 68.6624 78.2846C67.8828 80.5063 67.0098 82.3297 66.098 83.8333C67.5706 83.2969 69.3373 82.9527 71.4543 82.9504C71.1777 83.8916 70.8227 84.7106 70.4149 85.4337C72.7982 85.4899 75.1623 85.5962 77.4865 85.7516C78.3492 84.909 79.3189 84.1357 80.3315 83.4054C81.1915 84.322 81.8373 85.2393 82.3099 86.1477C87.7171 86.676 92.7251 87.4729 97.0845 88.4987C96.0336 87.3825 96.094 86.1679 96.4764 84.9633C102.951 85.2232 106.12 86.7562 107.658 88.3415C107.836 85.3317 110.902 83.3141 114.429 81.6116C117.877 84.0707 118.205 86.5369 117.276 88.6565C118.322 87.3526 120.088 86.1724 122.315 85.4173C122.421 86.4888 122.402 87.4316 122.29 88.2647C123.487 87.6462 125.292 87.1163 127.923 87.212C127.015 88.8313 125.383 89.5478 123.856 89.8487C124.137 89.8444 124.418 89.8412 124.699 89.8393C128.214 89.8431 131.702 90.0295 135.019 90.3907C134.583 89.7662 134.158 89.0878 133.749 88.3432C135.754 88.5078 137.671 88.9258 139.368 89.5213C140.381 89.2968 141.438 89.1322 142.521 89.0432C142.243 89.5509 141.956 90.0261 141.664 90.4771C143.586 89.7973 145.821 89.2035 148.302 88.7137C147.078 88.1039 145.735 87.25 144.309 86.0525C146.978 85.7817 149.769 86.2144 151.73 87.1018C152.069 86.4119 152.483 85.6783 152.993 84.8941C153.731 85.376 154.37 85.9061 154.911 86.4649C156.834 85.7138 159.4 85.3662 161.861 85.6158C161.047 86.2988 160.262 86.8654 159.51 87.344C160.746 87.2693 161.997 87.2173 163.255 87.1882C162.606 85.8535 162.123 84.1987 161.937 82.1436C163.397 82.5144 164.737 83.0276 165.914 83.6363C166.677 81.3027 169.139 79.6195 171.912 78.1661C174.889 80.4726 175.335 82.784 174.674 84.8111C176.825 83.4092 179.89 82.3561 183.237 82.007C182.457 83.6222 181.584 84.9478 180.672 86.0409C182.145 85.6508 183.912 85.4003 186.029 85.3987C185.918 85.6743 185.794 85.9361 185.659 86.1848C188.053 86.5794 189.855 87.2612 191.213 88.0851C191.503 87.843 191.812 87.609 192.135 87.3821C192.132 83.0267 195.281 80.1537 198.917 77.7397C202.365 81.1225 202.693 84.5151 201.764 87.4308C202.81 85.6372 204.575 84.0135 206.803 82.9748C206.909 84.449 206.889 85.7467 206.777 86.8929C207.974 86.0417 209.779 85.3129 212.41 85.4445C211.504 87.6677 209.877 88.6563 208.352 89.0717C208.63 89.066 208.908 89.0618 209.186 89.0592C212.701 89.0642 216.19 89.3204 219.507 89.8171C219.071 88.9581 218.645 88.0252 218.237 87.001C220.241 87.2275 222.159 87.8022 223.856 88.6216C224.868 88.3126 225.925 88.086 227.009 87.9635C226.726 88.6735 226.434 89.3372 226.137 89.9667C226.539 90.2535 226.92 90.5545 227.274 90.8699C229.413 90.0369 231.904 89.2767 234.694 88.6052C233.017 87.8233 231.009 86.4046 228.796 83.8496C231.466 83.4771 234.256 84.0724 236.218 85.2931C236.556 84.3439 236.97 83.335 237.48 82.256C238.219 82.9191 238.858 83.6481 239.399 84.417C241.322 83.3837 243.887 82.9055 246.348 83.2489C244.77 85.0707 243.299 86.309 241.974 87.1588C243.937 86.8395 245.982 86.56 248.094 86.3227C247.27 84.3444 246.642 81.7879 246.425 78.4716C247.885 78.9818 249.225 79.6884 250.401 80.5259C251.165 77.3154 253.627 74.9995 256.399 73L256.399 73.0002C259.377 76.1736 259.823 79.3539 259.161 82.1428C261.312 80.214 264.378 78.7649 267.725 78.2846C266.945 80.5063 266.072 82.3297 265.16 83.8333C266.633 83.2969 268.4 82.9527 270.517 82.9504C270.24 83.8916 269.885 84.7106 269.477 85.4337C271.86 85.4899 274.225 85.5962 276.549 85.7516C277.412 84.909 278.381 84.1357 279.394 83.4054C280.254 84.322 280.9 85.2393 281.372 86.1477C286.779 86.676 291.787 87.4729 296.147 88.4987C295.096 87.3825 295.156 86.1679 295.539 84.9633C302.013 85.2232 305.182 86.7562 306.721 88.3415C306.898 85.3317 309.964 83.3141 313.491 81.6116C316.939 84.0707 317.268 86.5369 316.338 88.6565C317.384 87.3526 319.15 86.1724 321.378 85.4173C321.484 86.4888 321.464 87.4316 321.352 88.2647C322.549 87.6462 324.354 87.1163 326.985 87.212C326.077 88.8313 324.446 89.5478 322.918 89.8487C323.199 89.8444 323.48 89.8412 323.761 89.8393C327.276 89.8431 330.765 90.0295 334.082 90.3907C333.645 89.7662 333.22 89.0878 332.812 88.3432C334.816 88.5078 336.734 88.9258 338.431 89.5213C339.443 89.2968 340.5 89.1322 341.584 89.0432C341.305 89.5509 341.019 90.0261 340.726 90.4771C342.648 89.7973 344.883 89.2035 347.364 88.7137C346.14 88.1039 344.798 87.25 343.371 86.0525C346.041 85.7817 348.831 86.2144 350.793 87.1018C351.131 86.4119 351.545 85.6783 352.055 84.8941C352.794 85.376 353.432 85.9061 353.974 86.4649C355.896 85.7138 358.462 85.3662 360.923 85.6158C360.109 86.2988 359.325 86.8654 358.572 87.344C359.809 87.2693 361.059 87.2173 362.317 87.1882C361.668 85.8535 361.185 84.1987 361 82.1436C362.459 82.5144 363.799 83.0276 364.976 83.6363C365.74 81.3027 368.202 79.6195 370.974 78.1661C373.951 80.4726 374.398 82.784 373.736 84.8111C375.887 83.4092 378.952 82.3561 382.299 82.007C381.519 83.6222 380.646 84.9478 379.734 86.0409C381.207 85.6508 382.974 85.4003 385.092 85.3987C384.469 86.9386 383.464 88.0472 382.295 88.8483C384.514 89.3154 386.52 89.8675 388.264 90.4906C389.252 88.5179 391.485 87.031 393.968 85.7292C398.338 89.1148 397.265 92.5121 395.219 95.0011C395.499 95.5047 395.642 96.0142 395.645 96.5247C395.645 99.0069 392.554 105.687 386.712 107.442C383.414 108.433 376.537 106.934 369.687 105.441C364.405 104.29 359.139 103.142 355.543 103.142C335.169 103.13 318.944 105.361 300.33 107.921C295.559 108.577 290.63 109.255 285.434 109.922C281.922 110.373 271.111 108.792 261.147 107.336C253.508 106.219 246.366 105.175 243.394 105.175C233.682 105.17 227.001 106.66 221.133 107.969C198.853 112.94 178.285 103.142 156.48 103.142C136.107 103.13 119.882 105.361 101.268 107.921C87.6919 109.788 75.7481 109.333 62.0846 107.336C48.3124 105.323 35.8148 104.903 22.0711 107.969C12.2644 110.157 4.73269 111.838 -10.8764 105.175C-11.8084 104.777 -12.8973 104.395 -14.0088 104.004C-20.0404 101.885 -26.7366 99.5325 -12.6455 93.2377C-16.7691 91.1402 -16.9672 88.4874 -16.363 85.8691C-11.638 86.1301 -8.67705 87.3251 -6.82048 88.7986C-7.58347 83.6328 -4.16143 80.4062 -0.145206 77.7397C3.3024 81.1225 3.63111 84.5151 2.70218 87.4308C3.7478 85.6372 5.5131 84.0135 7.74043 82.9748C7.84646 84.449 7.82656 85.7467 7.71476 86.8929C8.91197 86.0417 10.7165 85.3129 13.3477 85.4445C12.4418 87.6677 10.8144 88.6563 9.28991 89.0717C9.56775 89.066 9.84576 89.0618 10.1239 89.0592C13.639 89.0642 17.1274 89.3204 20.4444 89.8171C20.0082 88.9581 19.5827 88.0252 19.1744 87.001C21.1786 87.2275 23.0963 87.8022 24.7933 88.6216C25.8058 88.3126 26.863 88.086 27.9466 87.9635C27.6635 88.6735 27.3718 89.3372 27.0747 89.9667C27.4766 90.2535 27.8577 90.5545 28.2121 90.8699C30.3505 90.0369 32.8413 89.2767 35.632 88.6052C33.9544 87.8233 31.9466 86.4046 29.7336 83.8496C32.4033 83.4771 35.1936 84.0724 37.1553 85.2931C37.4941 84.3439 37.908 83.335 38.4176 82.256C39.1563 82.9191 39.7957 83.6481 40.3371 84.417C42.2598 83.3837 44.8247 82.9055 47.286 83.2489C45.7081 85.0707 44.2364 86.309 42.9114 87.1588C44.8746 86.8395 46.9202 86.56 49.0316 86.3227C48.2082 84.3444 47.5802 81.7879 47.3625 78.4716C48.8223 78.9818 50.1627 79.6884 51.3392 80.5259ZM1.84671 89.4897C1.85626 89.4506 1.86582 89.4114 1.87637 89.3723L1.87608 89.3716C1.86505 89.3925 1.85419 89.4134 1.84333 89.4343C1.82493 89.4697 1.80655 89.505 1.78741 89.54L1.83539 89.5359C1.8392 89.5205 1.84296 89.5051 1.84671 89.4897ZM116.452 90.0659C116.44 90.0818 116.429 90.0977 116.417 90.1136C116.399 90.139 116.381 90.1644 116.362 90.1895L116.41 90.1857C116.414 90.1749 116.418 90.1641 116.421 90.1532C116.431 90.1241 116.441 90.0949 116.452 90.0659ZM200.909 89.489C200.919 89.4501 200.928 89.4112 200.939 89.3723L200.938 89.3716C200.927 89.3924 200.917 89.4132 200.906 89.434C200.887 89.4695 200.869 89.505 200.85 89.54L200.898 89.5359C200.902 89.5202 200.905 89.5046 200.909 89.489ZM315.473 90.1857C315.486 90.1459 315.499 90.1058 315.514 90.0659C315.484 90.1071 315.455 90.1486 315.424 90.1895L315.473 90.1857Z" fill="#E0E0E0"/>
<g clip-path="url(#clip0_432_4427)">
<path d="M90.4671 103.919C97.3741 108.121 126.327 109.81 136.884 103.94C147.441 98.0706 140.079 82.3859 140.079 82.3859L114.448 72.7631L96.2707 76.3921L82.3226 92.5665L86.6956 104.17L90.4671 103.919Z" fill="#353838"/>
<path d="M220.625 103.919C227.532 108.121 256.485 109.81 267.042 103.94C277.599 98.0706 270.237 82.3859 270.237 82.3859L244.607 72.7631L226.432 76.3921L212.484 92.5665L216.857 104.17L220.625 103.919Z" fill="#353838"/>
<path d="M170.113 47.2262L177.344 42.4318C178.753 41.499 180.411 41 182.104 41H228.502C229.995 41 231.463 41.3874 232.759 42.125L241.739 47.2293H234.174L231.846 44.9762C230.244 43.4266 228.096 42.5589 225.862 42.5589H184.307C181.761 42.5589 179.345 43.6838 177.715 45.6301L176.375 47.2293H170.113V47.2262Z" fill="#495052"/>
<path d="M280.27 101.012H266.624C266.042 88.9931 256.055 79.4292 243.824 79.4292C231.594 79.4292 221.61 88.9931 221.024 101.012H136.027C135.441 88.9962 125.457 79.4292 113.227 79.4292C100.996 79.4292 91.0126 88.9931 90.4266 101.012H74.1782C74.1782 101.012 71.8935 91.522 73.6858 85.2091C73.6858 85.2091 81.0853 71.8828 85.7294 69.8963C90.3736 67.9097 133.608 60.915 133.608 60.915C133.608 60.915 152.605 49.1352 161.912 45.5805C163.652 44.9141 165.494 44.5546 167.358 44.5175H260.113C261.466 44.5175 262.17 46.1383 261.226 47.099C261.21 47.1145 261.195 47.13 261.179 47.1455C260.484 47.8273 260.562 48.9616 261.369 49.5133C266.185 52.7952 277.097 60.636 279.304 65.6628V79.9343L282 83.6006C282 83.5975 282.044 97.4382 280.27 101.012Z" fill="#BDBDBD"/>
<path opacity="0.64" d="M92.493 79.3734C92.493 79.3734 96.944 83.4271 97.8073 85.395" stroke="#3D4344" stroke-miterlimit="10"/>
<path opacity="0.19" d="M91.6857 88.2091C84.7818 99.6511 75.7771 101.012 75.7771 101.012L87.5683 101.628L91.6857 88.2091Z" fill="#3F3F3F"/>
<path opacity="0.19" d="M189.17 86.8082C187.985 92.647 188.899 101.012 186.941 101.012C184.984 101.012 190.127 103.94 190.127 103.94L189.17 86.8082Z" fill="#3F3F3F"/>
<path opacity="0.19" d="M223.851 84.2515C216.386 89.4859 214.127 99.9052 209.08 101.008C204.034 102.112 219.765 101.625 219.765 101.625L222.302 90.5675L223.851 84.2515Z" fill="#3F3F3F"/>
<path d="M138.704 67.4945C141.491 64.9067 150.717 56.4863 158.309 51.2643C162.243 48.5588 166.918 47.127 171.699 47.127H190.127V67.73L139.016 68.2661C138.607 68.2692 138.408 67.7734 138.704 67.4945Z" fill="#E0E0E0"/>
<path d="M143.426 66.4965C143.012 66.4996 142.815 65.9913 143.124 65.7186C145.736 63.416 153.615 56.601 160.126 52.3397C163.567 50.0866 167.66 48.8934 171.846 48.8934H186.86C187.455 48.8934 187.923 49.4048 187.864 49.9936L186.368 65.1577C186.318 65.6659 185.891 66.0564 185.373 66.0626L143.426 66.4965Z" fill="#373C3D"/>
<path opacity="0.4" d="M151.586 60.8779C151.586 60.8779 160.697 51.9772 166.282 50.9142C170.546 50.1022 183.643 50.2417 183.643 50.2417C184.298 50.2417 184.797 50.8305 184.681 51.472L182.961 61.9471C182.873 62.4491 182.434 62.8148 181.923 62.8148H152.147C151.156 62.8148 150.713 61.5783 151.48 60.9554C151.514 60.9275 151.552 60.9027 151.586 60.8779Z" fill="url(#paint0_linear_432_4427)"/>
<path d="M251.8 62.4212C237.466 50.9978 225.26 49.0516 216.857 47.1239H190.13V67.7269C190.13 67.7269 235.808 68.6412 251.084 65.4367C252.505 65.1361 252.935 63.3262 251.8 62.4212Z" fill="#E0E0E0"/>
<path d="M246.065 61.1505C233.769 52.0576 223.3 50.4647 216.059 48.8934H193.783C193.187 48.8934 192.72 49.4048 192.779 49.9936L194.278 65.0926C194.328 65.6009 194.752 65.9882 195.263 65.9975C200.998 66.0905 232.65 66.4841 245.342 64.2093C246.823 63.9397 247.272 62.0431 246.065 61.1505Z" fill="#373C3D"/>
<path opacity="0.4" d="M241.932 62.0989H233.115C232.928 61.9346 201.036 62.8024 196.999 62.7373C196.625 62.7311 196.314 62.446 196.279 62.0772L195.182 51.0505C195.142 50.6197 195.478 50.2478 195.915 50.2478H218.322C218.322 50.2478 218.322 50.2478 218.325 50.2478C218.565 50.316 233.984 54.692 242.49 60.258C243.326 60.8065 242.933 62.0989 241.932 62.0989Z" fill="url(#paint1_linear_432_4427)"/>
<path opacity="0.4" d="M279.304 71.9169V78.766H77.6536C79.5767 75.8931 81.9144 72.7692 83.9964 71.0275L279.304 71.9169Z" fill="white"/>
<path d="M83.7158 74.2568H98.4837C99.2005 74.2568 99.506 75.1649 98.9325 75.5926C95.9714 77.796 89.108 82.0264 79.1963 82.8631C78.5823 82.9158 78.174 82.2402 78.5075 81.7226L83.0862 74.5977C83.2234 74.3839 83.4634 74.2568 83.7158 74.2568Z" fill="#E0E0E0"/>
<path d="M89.3481 105.13H78.7881C78.4889 105.13 78.2052 105.013 77.9933 104.802L74.1782 101.012H90.4235C90.4048 101.38 90.3954 101.752 90.3954 102.127C90.3954 102.732 90.4203 103.327 90.4671 103.919C90.5201 104.569 90.0058 105.13 89.3481 105.13Z" fill="#E0E0E0"/>
<path d="M267.799 105.065C267.107 105.118 266.537 104.545 266.59 103.854C266.634 103.283 266.656 102.707 266.656 102.127C266.656 101.752 266.646 101.38 266.627 101.012H280.267C280.27 101.012 274.962 104.532 267.799 105.065Z" fill="#E0E0E0"/>
<path d="M140.079 101.012H136.03C135.444 88.9963 125.46 79.4293 113.23 79.4293C100.999 79.4293 91.0157 88.9932 90.4297 101.012H86.3809C86.9668 86.7711 98.7643 75.4066 113.23 75.4066C127.695 75.4066 139.493 86.7711 140.079 101.012Z" fill="#E0E0E0"/>
<path d="M270.673 101.012H266.624C266.042 88.9932 256.055 79.4293 243.827 79.4293C231.597 79.4293 221.613 88.9932 221.027 101.012H216.979C217.564 86.7711 229.362 75.4066 243.827 75.4066C258.293 75.4066 270.087 86.7711 270.673 101.012Z" fill="#E0E0E0"/>
<path d="M113.23 120C123.157 120 131.205 111.998 131.205 102.127C131.205 92.2565 123.157 84.2546 113.23 84.2546C103.302 84.2546 95.2546 92.2565 95.2546 102.127C95.2546 111.998 103.302 120 113.23 120Z" fill="#495052"/>
<path d="M113.23 113.684C119.649 113.684 124.853 108.51 124.853 102.127C124.853 95.7448 119.649 90.5707 113.23 90.5707C106.811 90.5707 101.607 95.7448 101.607 102.127C101.607 108.51 106.811 113.684 113.23 113.684Z" fill="#363432"/>
<path d="M113.23 112.587C119.039 112.587 123.749 107.904 123.749 102.127C123.749 96.3506 119.039 91.6677 113.23 91.6677C107.42 91.6677 102.71 96.3506 102.71 102.127C102.71 107.904 107.42 112.587 113.23 112.587Z" fill="#434849"/>
<path d="M117.041 105.916C119.145 103.823 119.145 100.431 117.041 98.3382C114.936 96.2456 111.524 96.2456 109.419 98.3382C107.315 100.431 107.315 103.823 109.419 105.916C111.524 108.009 114.936 108.009 117.041 105.916Z" fill="#363432"/>
<path d="M113.23 106.587C115.707 106.587 117.715 104.59 117.715 102.127C117.715 99.6643 115.707 97.6676 113.23 97.6676C110.753 97.6676 108.745 99.6643 108.745 102.127C108.745 104.59 110.753 106.587 113.23 106.587Z" fill="#BDBDBD"/>
<path d="M257.176 72.7282C257.588 70.9925 256.507 69.2531 254.761 68.8433C253.016 68.4335 251.267 69.5083 250.854 71.244C250.442 72.9797 251.523 74.719 253.269 75.1288C255.014 75.5387 256.764 74.4639 257.176 72.7282Z" fill="#4F4F4F"/>
<path d="M279.304 65.6598H272.387C270.165 65.6598 269.442 68.6288 271.421 69.6391L279.304 73.6618V65.6598Z" fill="#4F4F4F"/>
<path d="M279.304 65.6598V66.5803H272.387C271.253 66.5803 270.508 67.3551 270.315 68.2445C270.05 67.0452 270.866 65.6567 272.387 65.6567H279.304V65.6598Z" fill="#4F4F4F"/>
<path opacity="0.64" d="M214.198 47.1239C214.198 47.1239 235.499 63.0225 237.559 66.571C239.62 70.1226 239.196 71.0771 238.282 74.7651C237.369 78.453 236.624 80.7495 236.624 80.7495" stroke="#3D4344" stroke-miterlimit="10"/>
<path opacity="0.64" d="M190.13 47.1239V67.7269C190.13 67.7269 187.973 91.7049 190.13 102.357" stroke="#3D4344" stroke-miterlimit="10"/>
<path d="M137.111 105.13C136.454 105.13 135.939 104.569 135.992 103.919C136.039 103.327 136.064 102.732 136.064 102.127C136.064 101.752 136.055 101.38 136.036 101.012H221.021C221.002 101.38 220.993 101.752 220.993 102.127C220.993 102.732 221.018 103.327 221.065 103.919C221.118 104.573 220.604 105.13 219.946 105.13H137.111Z" fill="#E0E0E0"/>
<path opacity="0.64" d="M138.704 101.012C136.65 80.3745 138.704 67.4945 138.704 67.4945" stroke="#3D4344" stroke-miterlimit="10"/>
<path opacity="0.19" d="M143.666 68.4955C144.321 71.0244 146.1 70.4046 147.805 70.3736C149.401 70.3457 147.943 68.1639 147.943 68.1639L143.666 68.4955Z" fill="#3F3F3F"/>
<path d="M144.174 69.3261L144.617 69.5554C144.751 69.6236 144.9 69.6608 145.053 69.6608H147.188C147.422 69.6608 147.646 69.574 147.821 69.4191C148.182 69.0937 148.232 68.5513 147.942 68.1639C147.581 67.6774 147.182 66.9181 147.182 65.9387C147.182 64.1443 143.669 65.9387 143.669 65.9387V68.4955C143.666 68.8426 143.862 69.1649 144.174 69.3261Z" fill="#E0E0E0"/>
<path d="M144.084 62.3065C144.084 62.3065 142.974 63.5927 142.974 64.6526C142.974 65.7094 143.669 65.9387 143.669 65.9387H148.722C148.956 65.9387 149.183 65.8705 149.383 65.7466L149.769 65.5017C150.118 65.2786 150.33 64.8943 150.33 64.479V60.2363C150.33 60.0566 150.29 59.8768 150.212 59.7157L150.199 59.6909C149.997 59.2694 149.566 58.9998 149.096 58.9998H148.522C147.344 58.9998 146.235 59.5421 145.515 60.4718L144.084 62.3065Z" fill="#828282"/>
<path opacity="0.19" d="M145.284 63.7414C146.291 62.26 148.797 61.8448 150.324 61.8913V62.9945C150.324 62.9945 149.342 62.8148 147.989 62.9945C146.889 63.1402 145.284 63.7414 145.284 63.7414Z" fill="#3F3F3F"/>
<path d="M113.239 100.491L111.871 100.934C111.481 101.061 111.067 100.835 110.961 100.441L109.1 93.456C109.003 93.0934 109.209 92.7184 109.567 92.6006C109.904 92.4921 110.272 92.6471 110.428 92.9632L113.654 99.5055C113.85 99.8929 113.651 100.358 113.239 100.491Z" fill="#BDBDBD"/>
<path d="M113.22 100.491L114.589 100.934C114.978 101.061 115.393 100.835 115.499 100.441L117.36 93.456C117.456 93.0934 117.251 92.7184 116.892 92.6006C116.555 92.4921 116.188 92.6471 116.032 92.9632L112.806 99.5055C112.61 99.8929 112.809 100.358 113.22 100.491Z" fill="#BDBDBD"/>
<path d="M113.239 103.761L111.871 103.317C111.481 103.19 111.067 103.417 110.961 103.81L109.1 110.796C109.003 111.158 109.209 111.533 109.567 111.651C109.904 111.759 110.272 111.605 110.428 111.288L113.654 104.746C113.85 104.359 113.651 103.894 113.239 103.761Z" fill="#BDBDBD"/>
<path d="M113.22 103.761L114.589 103.317C114.978 103.19 115.393 103.417 115.499 103.81L117.36 110.796C117.456 111.158 117.251 111.533 116.892 111.651C116.555 111.759 116.188 111.605 116.032 111.288L112.806 104.746C112.61 104.359 112.809 103.894 113.22 103.761Z" fill="#BDBDBD"/>
<path d="M111.534 102.137L111.98 100.776C112.108 100.389 111.88 99.9766 111.484 99.8712L104.459 98.0242C104.094 97.9281 103.717 98.1326 103.598 98.489C103.489 98.8237 103.645 99.1894 103.963 99.3444L110.543 102.552C110.933 102.741 111.4 102.546 111.534 102.137Z" fill="#BDBDBD"/>
<path d="M111.534 102.118L111.98 103.479C112.108 103.866 111.88 104.278 111.484 104.383L104.459 106.234C104.094 106.33 103.717 106.125 103.598 105.769C103.489 105.434 103.645 105.068 103.963 104.913L110.543 101.706C110.933 101.511 111.4 101.706 111.534 102.118Z" fill="#BDBDBD"/>
<path d="M114.925 102.137L114.48 100.776C114.352 100.389 114.579 99.9765 114.975 99.8712L122.001 98.021C122.365 97.9249 122.742 98.1295 122.861 98.4859C122.97 98.8206 122.814 99.1863 122.496 99.3412L115.917 102.549C115.53 102.741 115.059 102.546 114.925 102.137Z" fill="#BDBDBD"/>
<path d="M114.925 102.118L114.48 103.479C114.352 103.866 114.579 104.278 114.975 104.383L122.001 106.234C122.365 106.33 122.742 106.125 122.861 105.769C122.97 105.434 122.814 105.068 122.496 104.913L115.917 101.706C115.53 101.511 115.059 101.706 114.925 102.118Z" fill="#BDBDBD"/>
<path d="M113.23 104.693C114.655 104.693 115.81 103.545 115.81 102.127C115.81 100.71 114.655 99.5613 113.23 99.5613C111.804 99.5613 110.649 100.71 110.649 102.127C110.649 103.545 111.804 104.693 113.23 104.693Z" fill="#B4ADAF"/>
<path d="M113.23 104.17C114.364 104.17 115.284 103.255 115.284 102.127C115.284 100.999 114.364 100.085 113.23 100.085C112.095 100.085 111.176 100.999 111.176 102.127C111.176 103.255 112.095 104.17 113.23 104.17Z" fill="#514F50"/>
<path d="M243.824 120C253.752 120 261.799 111.998 261.799 102.127C261.799 92.2565 253.752 84.2546 243.824 84.2546C233.897 84.2546 225.849 92.2565 225.849 102.127C225.849 111.998 233.897 120 243.824 120Z" fill="#495052"/>
<path d="M243.824 113.684C250.243 113.684 255.447 108.51 255.447 102.127C255.447 95.7448 250.243 90.5707 243.824 90.5707C237.405 90.5707 232.201 95.7448 232.201 102.127C232.201 108.51 237.405 113.684 243.824 113.684Z" fill="#363432"/>
<path d="M243.824 112.587C249.634 112.587 254.344 107.904 254.344 102.127C254.344 96.3506 249.634 91.6677 243.824 91.6677C238.015 91.6677 233.305 96.3506 233.305 102.127C233.305 107.904 238.015 112.587 243.824 112.587Z" fill="#434849"/>
<path d="M247.635 105.917C249.739 103.825 249.739 100.432 247.635 98.3395C245.53 96.2469 242.118 96.2469 240.013 98.3395C237.909 100.432 237.909 103.825 240.013 105.917C242.118 108.01 245.53 108.01 247.635 105.917Z" fill="#363432"/>
<path d="M243.824 106.587C246.301 106.587 248.31 104.59 248.31 102.127C248.31 99.6643 246.301 97.6676 243.824 97.6676C241.347 97.6676 239.339 99.6643 239.339 102.127C239.339 104.59 241.347 106.587 243.824 106.587Z" fill="#BDBDBD"/>
<path d="M243.834 100.491L242.465 100.934C242.076 101.061 241.661 100.835 241.555 100.441L239.694 93.456C239.598 93.0934 239.803 92.7184 240.162 92.6006C240.499 92.4921 240.866 92.6471 241.022 92.9632L244.248 99.5055C244.445 99.8929 244.248 100.358 243.834 100.491Z" fill="#BDBDBD"/>
<path d="M243.815 100.491L245.183 100.934C245.573 101.061 245.987 100.835 246.093 100.441L247.954 93.456C248.051 93.0934 247.845 92.7184 247.487 92.6006C247.15 92.4921 246.782 92.6471 246.626 92.9632L243.4 99.5055C243.207 99.8929 243.403 100.358 243.815 100.491Z" fill="#BDBDBD"/>
<path d="M243.834 103.761L242.465 103.317C242.076 103.19 241.661 103.417 241.555 103.81L239.694 110.796C239.598 111.158 239.803 111.533 240.162 111.651C240.499 111.759 240.866 111.605 241.022 111.288L244.248 104.746C244.445 104.359 244.248 103.894 243.834 103.761Z" fill="#BDBDBD"/>
<path d="M243.815 103.761L245.183 103.317C245.573 103.19 245.987 103.417 246.093 103.81L247.954 110.796C248.051 111.158 247.845 111.533 247.487 111.651C247.15 111.759 246.782 111.605 246.626 111.288L243.4 104.746C243.207 104.359 243.403 103.894 243.815 103.761Z" fill="#BDBDBD"/>
<path d="M242.129 102.137L242.574 100.776C242.702 100.389 242.475 99.9766 242.079 99.8712L235.053 98.0242C234.689 97.9281 234.312 98.1326 234.193 98.489C234.084 98.8237 234.24 99.1894 234.558 99.3444L241.138 102.552C241.527 102.741 241.995 102.546 242.129 102.137Z" fill="#BDBDBD"/>
<path d="M242.129 102.118L242.574 103.479C242.702 103.866 242.475 104.278 242.079 104.383L235.053 106.234C234.689 106.33 234.312 106.125 234.193 105.769C234.084 105.434 234.24 105.068 234.558 104.913L241.138 101.706C241.527 101.511 241.995 101.706 242.129 102.118Z" fill="#BDBDBD"/>
<path d="M245.523 102.137L245.077 100.776C244.949 100.389 245.177 99.9765 245.573 99.8712L252.598 98.021C252.963 97.9249 253.34 98.1295 253.459 98.4859C253.568 98.8206 253.412 99.1863 253.094 99.3412L246.514 102.549C246.125 102.741 245.657 102.546 245.523 102.137Z" fill="#BDBDBD"/>
<path d="M245.523 102.118L245.077 103.479C244.949 103.866 245.177 104.278 245.573 104.383L252.598 106.234C252.963 106.33 253.34 106.125 253.459 105.769C253.568 105.434 253.412 105.068 253.094 104.913L246.514 101.706C246.125 101.511 245.657 101.706 245.523 102.118Z" fill="#BDBDBD"/>
<path d="M243.824 104.693C245.25 104.693 246.405 103.545 246.405 102.127C246.405 100.71 245.25 99.5613 243.824 99.5613C242.399 99.5613 241.244 100.71 241.244 102.127C241.244 103.545 242.399 104.693 243.824 104.693Z" fill="#B4ADAF"/>
<path d="M243.824 104.17C244.959 104.17 245.878 103.255 245.878 102.127C245.878 100.999 244.959 100.085 243.824 100.085C242.69 100.085 241.77 100.999 241.77 102.127C241.77 103.255 242.69 104.17 243.824 104.17Z" fill="#514F50"/>
<path opacity="0.4" d="M133.608 60.915L126.439 64.9501C122.565 67.1319 118.239 68.4025 113.794 68.666L84.866 70.3736L85.8416 69.8498L86.6987 69.5647C94.5626 67.228 133.608 60.915 133.608 60.915Z" fill="white"/>
<path d="M98.9326 75.5926C96.2645 77.576 90.4359 81.2051 82.0671 82.5191C81.6868 80.9975 81.2598 77.607 83.7159 74.2568H98.4837C99.2037 74.2568 99.5092 75.1649 98.9326 75.5926Z" fill="#4F4F4F"/>
<path opacity="0.32" d="M88.1294 81.0749C87.4749 81.2857 86.7985 81.484 86.1003 81.67C86.278 81.1834 86.8047 76.0388 84.3486 74.2568H90.3206C92.1128 76.6835 88.2728 80.139 88.1294 81.0749Z" fill="#ECF1F2"/>
<path opacity="0.19" d="M97.8042 76.3921C89.7938 80.4953 82.3475 81.8001 81.7803 80.4984C81.7803 80.4984 81.7865 81.6234 82.067 82.5191C82.067 82.5191 91.9787 81.0129 97.4364 76.6679L97.8042 76.3921Z" fill="#3F3F3F"/>
<path opacity="0.32" d="M85.6608 74.5822H97.7107C97.7731 74.5822 97.8292 74.6069 97.8728 74.6503C98.0193 74.796 97.9164 75.0408 97.7107 75.0408H85.6608C85.399 75.0408 85.3398 74.6751 85.5891 74.5946C85.611 74.5884 85.6359 74.5822 85.6608 74.5822Z" fill="#ECF1F2"/>
<path opacity="0.32" d="M98.2561 76.0822C98.0847 76.2031 96.2052 77.3994 96.0151 77.5264C95.6442 76.8508 96.3704 74.7744 93.774 74.2568H94.7029C96.7226 74.5915 97.8135 75.574 98.2561 76.0822Z" fill="#ECF1F2"/>
<path d="M274.127 59.3934L253.505 51.3635C252.097 50.815 252.492 48.7355 254.004 48.7355H260.78C260.88 49.0392 261.076 49.3119 261.366 49.5103C264.427 51.596 269.944 55.5195 274.127 59.3934Z" fill="#495052"/>
</g>
<g clip-path="url(#clip1_432_4427)">
<path d="M301.661 93.8174C301.661 93.8174 300.997 95.1186 299.894 96.3372C299.202 97.1005 298.287 97.6234 297.279 97.8236L277.057 101.86C274.157 102.438 271.195 101.202 269.555 98.727L221.221 25.7991C220.893 25.3036 220.935 24.648 221.326 24.1976L223.245 21.9855C223.536 21.6502 223.972 21.485 224.41 21.5451L232.392 22.6261L301.661 93.8174Z" fill="#3A3A3A"/>
<path d="M301.659 92.1533L252.21 26.4071C251.772 25.824 251.125 25.4387 250.406 25.3311L224.693 21.4725C223.675 21.3199 222.966 22.4584 223.546 23.3142L273.853 97.2406C274.707 98.4942 276.208 99.1298 277.696 98.8671L300.614 94.8283C301.846 94.6106 302.416 93.1592 301.659 92.1533Z" fill="#4C4C4C"/>
<path d="M297.107 87.5965L253.614 29.1696L226.874 25.6063L271.753 91.5227L297.107 87.5965Z" fill="#E0E0E0"/>
<path d="M243.873 26.1043C244.009 26.292 243.855 26.5522 243.626 26.5197L235.386 25.4212C235.318 25.4112 235.256 25.3761 235.214 25.3236L235.174 25.2735C235.027 25.0884 235.181 24.8181 235.415 24.8481L243.693 25.9942C243.768 26.0067 243.83 26.0467 243.873 26.1043Z" fill="#3A3A3A"/>
<path d="M228.447 30.2407L246.048 34.9626L262.186 58.5446L282.788 65.3359" stroke="#BDBDBD" stroke-miterlimit="10"/>
<path d="M257.218 51.9735L242.768 51.5581" stroke="#BDBDBD" stroke-miterlimit="10"/>
<path d="M264.958 59.6931V71.3315L273.637 84.3586L284.195 90.8446" stroke="#BDBDBD" stroke-miterlimit="10"/>
<path d="M269.314 77.8726L295.566 82.4594" stroke="#BDBDBD" stroke-miterlimit="10"/>
<path d="M282.126 64.5977L283.453 80.3423" stroke="#BDBDBD" stroke-miterlimit="10"/>
<path d="M256.464 39.8497L249.194 39.5619" stroke="#BDBDBD" stroke-miterlimit="10"/>
<path d="M257.775 72.6852L264.958 71.3314" stroke="#BDBDBD" stroke-miterlimit="10"/>
<path d="M262.186 58.5446L247.676 58.7723" stroke="#BDBDBD" stroke-miterlimit="10"/>
<path d="M246.048 34.9626L249.194 33.4437L247.932 27.2679" stroke="#BDBDBD" stroke-miterlimit="10"/>
<path d="M270.257 0C258.806 0 249.522 9.33369 249.522 20.8469C249.522 39.0063 270.257 61.8901 270.257 61.8901C270.257 61.8901 290.992 39.0038 290.992 20.8469C290.992 9.33369 281.708 0 270.257 0ZM270.257 31.1966C264.572 31.1966 259.963 26.5622 259.963 20.8469C259.963 15.1316 264.572 10.4973 270.257 10.4973C275.942 10.4973 280.551 15.1291 280.551 20.8469C280.551 26.5622 275.942 31.1966 270.257 31.1966Z" fill="#828282"/>
</g>
<defs>
<linearGradient id="paint0_linear_432_4427" x1="168.08" y1="43.9214" x2="167.822" y2="61.8243" gradientUnits="userSpaceOnUse">
<stop stop-color="white" stop-opacity="0.4"/>
<stop offset="0.1307" stop-color="#EFEFEF" stop-opacity="0.4784"/>
<stop offset="0.3881" stop-color="#C3C6C6" stop-opacity="0.6329"/>
<stop offset="0.7437" stop-color="#7F8485" stop-opacity="0.8462"/>
<stop offset="1" stop-color="#495052"/>
</linearGradient>
<linearGradient id="paint1_linear_432_4427" x1="218.735" y1="48.2462" x2="219.251" y2="60.7006" gradientUnits="userSpaceOnUse">
<stop stop-color="white" stop-opacity="0.4"/>
<stop offset="0.1307" stop-color="#EFEFEF" stop-opacity="0.4784"/>
<stop offset="0.3881" stop-color="#C3C6C6" stop-opacity="0.6329"/>
<stop offset="0.7437" stop-color="#7F8485" stop-opacity="0.8462"/>
<stop offset="1" stop-color="#495052"/>
</linearGradient>
<clipPath id="clip0_432_4427">
<rect width="209" height="79" fill="white" transform="translate(73 41)"/>
</clipPath>
<clipPath id="clip1_432_4427">
<rect width="81" height="102" fill="white" transform="translate(221)"/>
</clipPath>
</defs>
</svg>
