<svg width="16" height="16" viewBox="0 0 16 16" fill="none" xmlns="http://www.w3.org/2000/svg">
<path d="M14.2501 7.45501L14.8551 6.85501C14.9017 6.80839 14.9387 6.75305 14.9639 6.69214C14.9892 6.63123 15.0021 6.56594 15.0021 6.50001C15.0021 6.43408 14.9892 6.3688 14.9639 6.30789C14.9387 6.24698 14.9017 6.19163 14.8551 6.14501C14.8085 6.09839 14.7531 6.06141 14.6922 6.03618C14.6313 6.01095 14.566 5.99797 14.5001 5.99797C14.4342 5.99797 14.3689 6.01095 14.308 6.03618C14.2471 6.06141 14.1917 6.09839 14.1451 6.14501L13.2651 7.03001C13.1777 7.0129 13.0891 7.00287 13.0001 7.00001H3.06009L3.36009 4.30501C3.38364 4.08314 3.48876 3.87793 3.65506 3.72918C3.82136 3.58044 4.03698 3.49876 4.26009 3.50001H11.7601C11.9832 3.49876 12.1988 3.58044 12.3651 3.72918C12.5314 3.87793 12.6365 4.08314 12.6601 4.30501L12.8001 5.55501C12.8147 5.68762 12.8813 5.809 12.9854 5.89246C13.0895 5.97591 13.2225 6.0146 13.3551 6.00001C13.4877 5.98542 13.6091 5.91876 13.6925 5.81467C13.776 5.71059 13.8147 5.57762 13.8001 5.44501L13.6601 4.19501C13.609 3.72395 13.3838 3.28897 13.0286 2.97539C12.6734 2.66181 12.2138 2.49226 11.7401 2.50001H4.24009C3.77408 2.50342 3.32557 2.67799 2.97986 2.99051C2.63415 3.30303 2.41536 3.7317 2.36509 4.19501L2.12009 6.41001L1.85509 6.14501C1.76094 6.05086 1.63324 5.99797 1.50009 5.99797C1.36694 5.99797 1.23924 6.05086 1.14509 6.14501C1.05094 6.23916 0.998047 6.36686 0.998047 6.50001C0.998047 6.63316 1.05094 6.76086 1.14509 6.85501L1.75009 7.45501C1.51818 7.64067 1.33055 7.87566 1.20081 8.14291C1.07108 8.41016 1.00251 8.70295 1.00009 9.00001V12C1.00009 12.5304 1.21081 13.0392 1.58588 13.4142C1.96095 13.7893 2.46966 14 3.00009 14C3.53053 14 4.03923 13.7893 4.41431 13.4142C4.78938 13.0392 5.00009 12.5304 5.00009 12V11.5C5.00009 11.3674 4.94741 11.2402 4.85365 11.1465C4.75988 11.0527 4.6327 11 4.50009 11H2.00009V9.00001C2.00009 8.7348 2.10545 8.48044 2.29299 8.29291C2.48052 8.10537 2.73488 8.00001 3.00009 8.00001H13.0001C13.2653 8.00001 13.5197 8.10537 13.7072 8.29291C13.8947 8.48044 14.0001 8.7348 14.0001 9.00001V11H6.50009C6.36748 11 6.24031 11.0527 6.14654 11.1465C6.05277 11.2402 6.00009 11.3674 6.00009 11.5C6.00009 11.6326 6.05277 11.7598 6.14654 11.8536C6.24031 11.9473 6.36748 12 6.50009 12H11.0001C11.0001 12.5304 11.2108 13.0392 11.5859 13.4142C11.961 13.7893 12.4697 14 13.0001 14C13.5305 14 14.0392 13.7893 14.4143 13.4142C14.7894 13.0392 15.0001 12.5304 15.0001 12V9.00001C14.9977 8.70295 14.9291 8.41016 14.7994 8.14291C14.6696 7.87566 14.482 7.64067 14.2501 7.45501V7.45501ZM4.00009 12C4.00009 12.2652 3.89474 12.5196 3.7072 12.7071C3.51966 12.8947 3.26531 13 3.00009 13C2.73488 13 2.48052 12.8947 2.29299 12.7071C2.10545 12.5196 2.00009 12.2652 2.00009 12H4.00009ZM13.0001 13C12.7349 13 12.4805 12.8947 12.293 12.7071C12.1054 12.5196 12.0001 12.2652 12.0001 12H14.0001C14.0001 12.2652 13.8947 12.5196 13.7072 12.7071C13.5197 12.8947 13.2653 13 13.0001 13Z" fill="#20215A"/>
<path d="M5.50025 9H4.00024C3.86764 9 3.74046 9.05268 3.64669 9.14645C3.55292 9.24021 3.50024 9.36739 3.50024 9.5C3.50024 9.63261 3.55292 9.75979 3.64669 9.85356C3.74046 9.94732 3.86764 10 4.00024 10H5.50025C5.63285 10 5.76003 9.94732 5.8538 9.85356C5.94757 9.75979 6.00025 9.63261 6.00025 9.5C6.00025 9.36739 5.94757 9.24021 5.8538 9.14645C5.76003 9.05268 5.63285 9 5.50025 9Z" fill="#20215A"/>
<path d="M12.0002 10C12.1329 10 12.26 9.94732 12.3538 9.85356C12.4476 9.75979 12.5002 9.63261 12.5002 9.5C12.5002 9.36739 12.4476 9.24021 12.3538 9.14645C12.26 9.05268 12.1329 9 12.0002 9H10.5002C10.3676 9 10.2405 9.05268 10.1467 9.14645C10.0529 9.24021 10.0002 9.36739 10.0002 9.5C10.0002 9.63261 10.0529 9.75979 10.1467 9.85356C10.2405 9.94732 10.3676 10 10.5002 10H12.0002Z" fill="#20215A"/>
</svg>
