<svg width="16" height="16" viewBox="0 0 16 16" fill="none" xmlns="http://www.w3.org/2000/svg">
<path d="M8.80008 10.0001C8.66675 10.0667 8.53341 10.0667 8.40008 10.1334C8.33341 10.0001 8.26675 9.86672 8.20008 9.80006C7.66675 9.33339 6.86675 9.26672 6.20008 9.66672C5.66675 10.0001 5.33341 10.6667 5.33341 11.3334C5.33341 11.6667 5.66675 12.0001 6.00008 11.9334C6.33341 11.9334 6.66675 11.6001 6.66675 11.2667C6.66675 11.0667 6.73341 10.9334 6.86675 10.8001C6.93341 10.8001 7.00008 10.7334 7.06675 10.7334C6.86675 11.1334 7.00008 11.6001 7.40008 11.8667C7.53341 11.9334 7.60008 11.9334 7.73341 11.9334C8.00008 11.9334 8.26675 11.8001 8.46675 11.6001C8.53341 11.5334 8.66675 11.4667 8.80008 11.4001C8.86675 11.6667 9.13341 11.9334 9.46675 11.9334H10.0001C10.4001 11.9334 10.6667 11.6667 10.6667 11.2667C10.6667 10.9334 10.4001 10.6667 10.0667 10.6001C10.0001 10.4667 10.0001 10.4001 9.86675 10.2667C9.66675 10.0667 9.20008 9.93339 8.80008 10.0001ZM13.3334 5.93339C13.3334 5.86672 13.3334 5.80006 13.2667 5.73339V5.66672C13.2667 5.60006 13.2001 5.53339 13.1334 5.46672L9.13341 1.46672C9.06675 1.40006 9.00008 1.40006 8.93341 1.33339H8.86675C8.80008 1.33339 8.73341 1.33339 8.66675 1.26672H4.66675C3.53341 1.33339 2.66675 2.20006 2.66675 3.33339V12.6667C2.66675 13.8001 3.53341 14.6667 4.66675 14.6667H11.3334C12.4667 14.6667 13.3334 13.8001 13.3334 12.6667V5.93339C13.3334 6.00006 13.3334 6.00006 13.3334 5.93339ZM9.33341 3.60006L11.0667 5.33339H10.0001C9.60008 5.33339 9.33341 5.06672 9.33341 4.66672V3.60006ZM12.0001 12.6667C12.0001 13.0667 11.7334 13.3334 11.3334 13.3334H4.66675C4.26675 13.3334 4.00008 13.0667 4.00008 12.6667V3.33339C4.00008 2.93339 4.26675 2.66672 4.66675 2.66672H8.00008V4.66672C8.00008 5.80006 8.86675 6.66672 10.0001 6.66672H12.0001V12.6667ZM6.00008 6.66672H6.66675C7.06675 6.66672 7.33341 6.40006 7.33341 6.00006C7.33341 5.60006 7.06675 5.33339 6.66675 5.33339H6.00008C5.60008 5.33339 5.33341 5.60006 5.33341 6.00006C5.33341 6.40006 5.60008 6.66672 6.00008 6.66672Z" fill="#20215A"/>
</svg>
