<svg width="8" height="8" viewBox="0 0 8 8" fill="none" xmlns="http://www.w3.org/2000/svg">
<g clip-path="url(#clip0_329_529)">
<path d="M7.74686 7.2408L7.20006 5.6H6.60006L6.93326 7.2H1.06686L1.40006 5.6H0.800063L0.252863 7.2408C0.114063 7.6584 0.360063 8 0.800063 8H7.20006C7.64006 8 7.88606 7.6584 7.74686 7.2408ZM6.00006 2C6.00006 1.46957 5.78935 0.960859 5.41428 0.585786C5.0392 0.210714 4.5305 0 4.00006 0C3.46963 0 2.96092 0.210714 2.58585 0.585786C2.21078 0.960859 2.00006 1.46957 2.00006 2C2.00006 3.91 4.00006 6 4.00006 6C4.00006 6 6.00006 3.91 6.00006 2ZM2.92006 2.024C2.92006 1.4276 3.40326 0.9444 4.00006 0.9444C4.28644 0.9444 4.5611 1.05816 4.7636 1.26067C4.9661 1.46317 5.07986 1.73782 5.07986 2.0242C5.07986 2.31058 4.9661 2.58523 4.7636 2.78773C4.5611 2.99024 4.28644 3.104 4.00006 3.104C3.71363 3.104 3.43893 2.99021 3.23639 2.78768C3.03385 2.58514 2.92006 2.31043 2.92006 2.024Z" fill="#20215A"/>
</g>
<defs>
<clipPath id="clip0_329_529">
<rect width="8" height="8" fill="white"/>
</clipPath>
</defs>
</svg>
