<svg width="24" height="24" viewBox="0 0 24 24" fill="currentColor" xmlns="http://www.w3.org/2000/svg">
<rect width="24" height="24" fill="white"/>
<path d="M19 22H5C4.73478 22 4.48043 21.8946 4.29289 21.7071C4.10536 21.5196 4 21.2652 4 21V11.414C4.00006 11.1488 4.10545 10.8945 4.293 10.707L11.293 3.70698C11.3859 3.61401 11.4962 3.54025 11.6176 3.48992C11.739 3.4396 11.8691 3.4137 12.0005 3.4137C12.1319 3.4137 12.262 3.4396 12.3834 3.48992C12.5048 3.54025 12.6151 3.61401 12.708 3.70698L19.708 10.707C19.801 10.7997 19.8746 10.9099 19.9247 11.0313C19.9748 11.1526 20.0004 11.2827 20 11.414V21C20 21.2652 19.8946 21.5196 19.7071 21.7071C19.5196 21.8946 19.2652 22 19 22ZM10 15H14V20H18V11.828L12 5.82798L6 11.828V20H10V15Z" fill="currentColor"/>
</svg>
