<svg width="10" height="10" viewBox="0 0 10 10" fill="currentColor" xmlns="http://www.w3.org/2000/svg">
<path d="M4.6625 0.566626L1.74583 1.86246C1.44583 1.99579 1.25 2.29579 1.25 2.62496V4.58329C1.25 6.89579 2.85 9.05829 5 9.58329C7.15 9.05829 8.75 6.89579 8.75 4.58329V2.62496C8.75 2.29579 8.55417 1.99579 8.25417 1.86246L5.3375 0.566626C5.125 0.470793 4.875 0.470793 4.6625 0.566626ZM3.87083 6.78746L2.79167 5.70829C2.75309 5.66972 2.72249 5.62392 2.70161 5.57352C2.68074 5.52312 2.66999 5.4691 2.66999 5.41454C2.66999 5.35999 2.68074 5.30597 2.70161 5.25557C2.72249 5.20516 2.75309 5.15937 2.79167 5.12079C2.83024 5.08222 2.87604 5.05162 2.92644 5.03074C2.97684 5.00986 3.03086 4.99912 3.08542 4.99912C3.13997 4.99912 3.19399 5.00986 3.24439 5.03074C3.29479 5.05162 3.34059 5.08222 3.37917 5.12079L4.16667 5.90413L6.61667 3.45413C6.65524 3.41555 6.70104 3.38495 6.75144 3.36407C6.80184 3.3432 6.85586 3.33245 6.91042 3.33245C6.96497 3.33245 7.01899 3.3432 7.06939 3.36407C7.11979 3.38495 7.16559 3.41555 7.20417 3.45413C7.24274 3.4927 7.27334 3.5385 7.29422 3.5889C7.3151 3.6393 7.32584 3.69332 7.32584 3.74788C7.32584 3.80243 7.3151 3.85645 7.29422 3.90685C7.27334 3.95725 7.24274 4.00305 7.20417 4.04163L4.45833 6.78746C4.41979 6.82609 4.374 6.85673 4.32359 6.87764C4.27319 6.89855 4.21915 6.90931 4.16458 6.90931C4.11001 6.90931 4.05598 6.89855 4.00557 6.87764C3.95517 6.85673 3.90938 6.82609 3.87083 6.78746Z" fill="currentColor"/>
</svg>
