<svg width="24" height="24" viewBox="0 0 24 24" fill="none" xmlns="http://www.w3.org/2000/svg">
<path d="M16.4545 12.0002H23.9999C23.9999 5.37237 18.6274 0 11.9998 0C15.3135 0 16.4547 5.99989 16.4545 12.0002Z" fill="#BB2029"/>
<path d="M0 12.0002H16.9703C16.9705 5.99989 15.3135 0 11.9998 0C5.37257 0 0 5.37237 0 12.0002Z" fill="#CD2029"/>
<path d="M16.2019 12.0001C16.2019 18 15.3137 23.9999 11.9998 23.9999C18.6274 23.9999 23.9999 18.6274 23.9999 12.0001H16.2019Z" fill="#E4E4E4"/>
<path d="M16.9703 12.0001H0C0 18.6274 5.37257 23.9999 11.9998 23.9999C15.3135 23.9999 16.9703 18 16.9703 12.0001Z" fill="#F3F4F5"/>
</svg>
