<svg width="32" height="32" viewBox="0 0 32 32" fill="none" xmlns="http://www.w3.org/2000/svg">
<circle cx="16" cy="16" r="16" fill="#0C10F7" fill-opacity="0.3"/>
<path d="M22.6667 22L19.676 19.004L22.6667 22ZM21.3333 15C21.3333 16.5029 20.7363 17.9442 19.6736 19.0069C18.6109 20.0696 17.1696 20.6666 15.6667 20.6666C14.1638 20.6666 12.7224 20.0696 11.6597 19.0069C10.597 17.9442 10 16.5029 10 15C10 13.4971 10.597 12.0557 11.6597 10.993C12.7224 9.93034 14.1638 9.33331 15.6667 9.33331C17.1696 9.33331 18.6109 9.93034 19.6736 10.993C20.7363 12.0557 21.3333 13.4971 21.3333 15V15Z" stroke="white" stroke-width="2" stroke-linecap="round"/>
<path d="M15.6667 15H13.3333M15.6667 12.6666V15V12.6666ZM15.6667 15V17.3333V15ZM15.6667 15H18H15.6667Z" stroke="white" stroke-width="2"/>
</svg>
