<svg width="64" height="64" viewBox="0 0 64 64" fill="none" xmlns="http://www.w3.org/2000/svg">
<path d="M10 12C6.71 12 4 14.71 4 18V46C4 49.29 6.71 52 10 52H54C57.29 52 60 49.29 60 46V18C60 14.71 57.29 12 54 12H10ZM10 16H54C55.132 16 56 16.868 56 18V46C56 47.132 55.132 48 54 48H10C8.868 48 8 47.132 8 46V18C8 16.868 8.868 16 10 16ZM22 20C17.6 20 14 23.6 14 28C14 30.226 14.954 32.234 16.438 33.688C15.0766 34.6067 13.9606 35.8443 13.1871 37.293C12.4135 38.7418 12.006 40.3577 12 42H16C16 38.664 18.664 36 22 36C25.336 36 28 38.664 28 42H32C31.994 40.3577 31.5865 38.7418 30.8129 37.293C30.0394 35.8443 28.9234 34.6067 27.562 33.688C29.046 32.234 30 30.228 30 28C30 23.6 26.4 20 22 20ZM36 22V26H52V22H36ZM22 24C24.234 24 26 25.766 26 28C26 30.234 24.234 32 22 32C19.766 32 18 30.234 18 28C18 25.766 19.766 24 22 24ZM36 30V34H52V30H36ZM36 38V42H46V38H36Z" fill="#20215A"/>
</svg>
