<svg width="17" height="17" viewBox="0 0 17 17" fill="none" xmlns="http://www.w3.org/2000/svg">
<path d="M12.0416 8.49996V8.43621C12.0384 8.36822 12.024 8.30122 11.9991 8.23788C11.9802 8.1893 11.9539 8.14391 11.9212 8.10329C11.9024 8.07096 11.8811 8.04017 11.8575 8.01121L9.83165 5.88621C9.76746 5.81877 9.69062 5.76463 9.60552 5.72689C9.52041 5.68915 9.42871 5.66853 9.33563 5.66623C9.14767 5.66158 8.96555 5.73179 8.82935 5.86142C8.69315 5.99104 8.61403 6.16946 8.60938 6.35743C8.60473 6.5454 8.67494 6.72751 8.80456 6.86371L9.67581 7.79163H5.66665C5.47878 7.79163 5.29862 7.86625 5.16578 7.99909C5.03294 8.13193 4.95831 8.3121 4.95831 8.49996C4.95831 8.68782 5.03294 8.86799 5.16578 9.00083C5.29862 9.13367 5.47878 9.20829 5.66665 9.20829H9.62623L8.7054 10.122C8.639 10.1879 8.58631 10.2662 8.55035 10.3526C8.51439 10.4389 8.49587 10.5315 8.49587 10.625C8.49587 10.7185 8.51439 10.8111 8.55035 10.8974C8.58631 10.9837 8.639 11.062 8.7054 11.1279C8.77124 11.1943 8.84959 11.247 8.9359 11.2829C9.02222 11.3189 9.1148 11.3374 9.20831 11.3374C9.30182 11.3374 9.3944 11.3189 9.48072 11.2829C9.56704 11.247 9.64538 11.1943 9.71123 11.1279L11.8362 9.00288C11.8999 8.9376 11.9505 8.86064 11.985 8.77621C12.0222 8.68886 12.0415 8.59491 12.0416 8.49996Z" fill="white"/>
<path d="M8.49999 1.41663C7.09904 1.41663 5.72955 1.83206 4.5647 2.61038C3.39986 3.38871 2.49197 4.49497 1.95585 5.78928C1.41973 7.08359 1.27945 8.50782 1.55276 9.88185C1.82608 11.2559 2.5007 12.518 3.49132 13.5086C4.48194 14.4993 5.74407 15.1739 7.1181 15.4472C8.49214 15.7205 9.91636 15.5802 11.2107 15.0441C12.505 14.508 13.6112 13.6001 14.3896 12.4352C15.1679 11.2704 15.5833 9.90091 15.5833 8.49996C15.5833 7.56976 15.4001 6.64867 15.0441 5.78928C14.6882 4.9299 14.1664 4.14903 13.5087 3.49129C12.8509 2.83354 12.0701 2.31178 11.2107 1.95581C10.3513 1.59984 9.43019 1.41663 8.49999 1.41663ZM8.49999 14.1666C7.37923 14.1666 6.28364 13.8343 5.35176 13.2116C4.41988 12.589 3.69357 11.7039 3.26468 10.6685C2.83578 9.63305 2.72356 8.49367 2.94221 7.39445C3.16086 6.29522 3.70056 5.28552 4.49305 4.49302C5.28555 3.70052 6.29526 3.16083 7.39448 2.94218C8.49371 2.72353 9.63309 2.83575 10.6685 3.26464C11.704 3.69354 12.589 4.41985 13.2117 5.35173C13.8343 6.28361 14.1667 7.3792 14.1667 8.49996C14.1667 10.0029 13.5696 11.4442 12.5069 12.5069C11.4442 13.5696 10.0029 14.1666 8.49999 14.1666Z" fill="white"/>
</svg>
