<svg width="32" height="32" viewBox="0 0 32 32" fill="none" xmlns="http://www.w3.org/2000/svg">
<circle cx="16" cy="16" r="16" fill="#5886EE"/>
<g clip-path="url(#clip0)">
<path d="M22.3348 23.455L9.0241 26.3654L5.65927 10.9759L7.3969 8.26584L18.4837 5.84175L22.3348 23.455Z" fill="#F1F1FB"/>
<path d="M21.5023 10.3873L21.2069 9.03598C21.1879 8.94948 21.1862 8.8601 21.2019 8.77294C21.2175 8.68579 21.2501 8.60256 21.2979 8.52802C21.3457 8.45348 21.4077 8.38909 21.4804 8.33852C21.5531 8.28795 21.635 8.2522 21.7215 8.23331C21.8081 8.2143 21.8975 8.21254 21.9847 8.22812C22.0719 8.24369 22.1552 8.27631 22.2298 8.32409C22.3044 8.37187 22.3689 8.43389 22.4195 8.5066C22.4701 8.5793 22.5059 8.66127 22.5248 8.74782L22.8203 10.0993L21.5023 10.3873Z" fill="#F2C94C"/>
<path d="M24.541 17.9721L24.279 19.9306L23.2236 18.2601L24.541 17.9721Z" fill="#F2C94C"/>
<path d="M22.8203 10.0992C24.3084 14.582 24.5416 17.9719 24.5416 17.9719L23.2243 18.26C23.2243 18.26 22.0213 15.082 21.5029 10.3872L22.8203 10.0992Z" fill="#172B4D"/>
<path d="M7.3969 8.26584L7.88314 10.4897L5.65927 10.9759L7.3969 8.26584Z" fill="#E1D8FA"/>
<path d="M19.6831 21.9846L17.5534 22.4502C17.4826 22.4657 17.4085 22.4524 17.3474 22.4133C17.2864 22.3741 17.2434 22.3123 17.2279 22.2415C17.2124 22.1706 17.2257 22.0965 17.2648 22.0355C17.304 21.9744 17.3658 21.9314 17.4366 21.916L19.5663 21.4503C19.6372 21.4348 19.7113 21.4481 19.7723 21.4873C19.8334 21.5264 19.8764 21.5882 19.8918 21.659C19.9073 21.7299 19.894 21.804 19.8549 21.865C19.8158 21.9261 19.754 21.9691 19.6831 21.9846Z" fill="#E1D8FA"/>
<path d="M14.6748 9.2846L10.0713 10.2912C10.0004 10.3066 9.92631 10.2934 9.86526 10.2542C9.80421 10.2151 9.76121 10.1533 9.74572 10.0824C9.73023 10.0116 9.74352 9.93749 9.78266 9.87644C9.82181 9.81539 9.8836 9.77239 9.95444 9.7569L14.558 8.75035C14.6289 8.73486 14.703 8.74815 14.764 8.78729C14.8251 8.82643 14.8681 8.88822 14.8836 8.95907C14.8991 9.02992 14.8858 9.10401 14.8466 9.16506C14.8075 9.22611 14.7457 9.26911 14.6748 9.2846Z" fill="#E1D8FA"/>
<path d="M11.0308 14.6796L8.90109 15.1453C8.83024 15.1608 8.75615 15.1475 8.6951 15.1083C8.63405 15.0692 8.59105 15.0074 8.57556 14.9366C8.56007 14.8657 8.57335 14.7916 8.6125 14.7306C8.65164 14.6695 8.71343 14.6265 8.78428 14.611L10.914 14.1454C10.9848 14.1299 11.0589 14.1432 11.12 14.1823C11.181 14.2215 11.224 14.2833 11.2395 14.3541C11.255 14.4249 11.2417 14.499 11.2026 14.5601C11.1634 14.6211 11.1016 14.6641 11.0308 14.6796Z" fill="#E1D8FA"/>
<path d="M17.2843 11.0132L8.42129 12.9511C8.35045 12.9666 8.27635 12.9533 8.2153 12.9141C8.15425 12.875 8.11125 12.8132 8.09576 12.7423C8.08027 12.6715 8.09356 12.5974 8.1327 12.5364C8.17184 12.4753 8.23363 12.4323 8.30448 12.4168L17.1674 10.479C17.2383 10.4635 17.3124 10.4768 17.3734 10.5159C17.4345 10.5551 17.4775 10.6168 17.493 10.6877C17.5085 10.7585 17.4952 10.8326 17.456 10.8937C17.4169 10.9547 17.3551 10.9977 17.2843 11.0132Z" fill="#E1D8FA"/>
<path d="M18.2438 15.4018L9.38083 17.3396C9.30998 17.3551 9.23588 17.3418 9.17483 17.3027C9.11378 17.2635 9.07078 17.2017 9.05529 17.1309C9.0398 17.06 9.05309 16.986 9.09223 16.9249C9.13138 16.8639 9.19317 16.8209 9.26401 16.8054L18.127 14.8675C18.1978 14.852 18.2719 14.8653 18.333 14.9045C18.394 14.9436 18.437 15.0054 18.4525 15.0762C18.468 15.1471 18.4547 15.2212 18.4156 15.2822C18.3764 15.3433 18.3146 15.3863 18.2438 15.4018Z" fill="#E1D8FA"/>
<path d="M18.7236 17.596L9.86062 19.5338C9.78978 19.5493 9.71568 19.536 9.65463 19.4969C9.59358 19.4577 9.55058 19.396 9.53509 19.3251C9.5196 19.2543 9.53289 19.1802 9.57203 19.1191C9.61117 19.0581 9.67297 19.0151 9.74381 18.9996L18.6068 17.0617C18.6776 17.0462 18.7517 17.0595 18.8128 17.0987C18.8738 17.1378 18.9168 17.1996 18.9323 17.2705C18.9478 17.3413 18.9345 17.4154 18.8954 17.4764C18.8562 17.5375 18.7944 17.5805 18.7236 17.596Z" fill="#E1D8FA"/>
<path d="M19.2033 19.7903L10.3404 21.7282C10.2695 21.7437 10.1954 21.7304 10.1344 21.6912C10.0733 21.6521 10.0303 21.5903 10.0148 21.5194C9.99934 21.4486 10.0126 21.3745 10.0518 21.3135C10.0909 21.2524 10.1527 21.2094 10.2235 21.1939L19.0865 19.2561C19.1574 19.2406 19.2315 19.2539 19.2925 19.293C19.3536 19.3322 19.3966 19.3939 19.412 19.4648C19.4275 19.5356 19.4142 19.6097 19.3751 19.6708C19.336 19.7318 19.2742 19.7748 19.2033 19.7903Z" fill="#E1D8FA"/>
<path d="M23.356 9.70175L22.7607 9.83191L22.8191 10.099C22.8482 10.1867 22.8759 10.2734 22.9042 10.3603L23.4723 10.2361C23.523 10.225 23.5759 10.2345 23.6195 10.2625C23.6631 10.2904 23.6938 10.3346 23.7049 10.3852L24.3003 13.1087C24.3158 13.1795 24.3588 13.2413 24.4199 13.2804C24.4809 13.3196 24.555 13.3329 24.6259 13.3174C24.6967 13.3019 24.7585 13.2589 24.7977 13.1978C24.8368 13.1368 24.8501 13.0627 24.8346 12.9918L24.2392 10.2688C24.1971 10.0766 24.0805 9.90895 23.9149 9.80264C23.7493 9.69632 23.5483 9.66004 23.356 9.70175Z" fill="#172B4D"/>
</g>
<defs>
<clipPath id="clip0">
<rect width="20" height="20" fill="white" transform="translate(4 8) rotate(-12.3334)"/>
</clipPath>
</defs>
</svg>
