<svg width="16" height="16" viewBox="0 0 16 16" fill="none" xmlns="http://www.w3.org/2000/svg">
<path fill-rule="evenodd" clip-rule="evenodd" d="M8.10511 2.06502C8.07422 2.05508 8.04099 2.05508 8.01011 2.06502L2.90011 3.72502C2.86882 3.7345 2.84134 3.75363 2.82158 3.77968C2.80183 3.80572 2.79081 3.83734 2.79011 3.87002V7.00002C2.79011 10.38 4.82511 12.875 8.01511 14.08C8.04257 14.0899 8.07264 14.0899 8.10011 14.08C11.2901 12.875 13.3251 10.38 13.3251 7.00002V3.87002C13.3244 3.83734 13.3134 3.80572 13.2936 3.77968C13.2739 3.75363 13.2464 3.7345 13.2151 3.72502L8.10511 2.06502ZM7.72511 1.18002C7.94126 1.11008 8.17396 1.11008 8.39011 1.18002L13.5001 2.84002C13.7178 2.91068 13.9075 3.04834 14.0422 3.23334C14.1769 3.41833 14.2497 3.64118 14.2501 3.87002V7.00002C14.2501 10.835 11.9151 13.63 8.42511 14.95C8.18405 15.035 7.92117 15.035 7.68011 14.95C4.20011 13.615 1.86011 10.82 1.86011 7.00002V3.87002C1.86053 3.64118 1.93329 3.41833 2.068 3.23334C2.2027 3.04834 2.39245 2.91068 2.61011 2.84002L7.72511 1.18002ZM8.67511 8.05502C8.8612 7.94818 9.01624 7.79471 9.12496 7.60971C9.23368 7.42471 9.29232 7.21458 9.29511 7.00002C9.30586 6.83089 9.28184 6.66136 9.22451 6.50188C9.16719 6.3424 9.07778 6.19637 8.96182 6.07279C8.84585 5.94921 8.70578 5.85072 8.55026 5.78339C8.39475 5.71606 8.22708 5.68132 8.05761 5.68132C7.88814 5.68132 7.72047 5.71606 7.56495 5.78339C7.40943 5.85072 7.26937 5.94921 7.1534 6.07279C7.03743 6.19637 6.94803 6.3424 6.8907 6.50188C6.83338 6.66136 6.80935 6.83089 6.82011 7.00002C6.82028 7.21713 6.87768 7.43036 6.98653 7.61821C7.09538 7.80607 7.25183 7.9619 7.44011 8.07002V9.78502C7.43238 9.87078 7.44261 9.95721 7.47013 10.0388C7.49765 10.1204 7.54187 10.1954 7.59996 10.2589C7.65805 10.3225 7.72875 10.3732 7.80754 10.408C7.88634 10.4427 7.9715 10.4606 8.05761 10.4606C8.14372 10.4606 8.22888 10.4427 8.30767 10.408C8.38647 10.3732 8.45716 10.3225 8.51526 10.2589C8.57335 10.1954 8.61757 10.1204 8.64509 10.0388C8.67261 9.95721 8.68283 9.87078 8.67511 9.78502V8.05502Z" fill="#20215A"/>
</svg>
