<svg width="20" height="20" viewBox="0 0 20 20" fill="none" xmlns="http://www.w3.org/2000/svg">
<path d="M9.99993 1.60718C11.847 1.60718 13.6184 2.34091 14.9244 3.64697C16.2305 4.95303 16.9642 6.72442 16.9642 8.57146C16.9642 11.5143 14.8964 14.7215 10.8142 18.2272C10.5872 18.4222 10.2978 18.5293 9.99859 18.529C9.69936 18.5287 9.41014 18.4211 9.1835 18.2257L8.9135 17.9915C5.01207 14.5772 3.03564 11.4486 3.03564 8.57146C3.03564 6.72442 3.76938 4.95303 5.07544 3.64697C6.38149 2.34091 8.15289 1.60718 9.99993 1.60718ZM9.99993 2.67861C8.43705 2.67861 6.93818 3.29946 5.83305 4.40458C4.72793 5.50971 4.10707 7.00858 4.10707 8.57146C4.10707 11.0729 5.92707 13.955 9.61707 17.1836L9.8835 17.4143C9.9159 17.4422 9.95721 17.4575 9.99993 17.4575C10.0427 17.4575 10.084 17.4422 10.1164 17.4143C13.9849 14.0915 15.8928 11.1322 15.8928 8.57146C15.8928 7.7976 15.7404 7.03132 15.4442 6.31637C15.1481 5.60141 14.714 4.95179 14.1668 4.40458C13.6196 3.85738 12.97 3.42332 12.255 3.12717C11.5401 2.83103 10.7738 2.67861 9.99993 2.67861ZM9.99993 5.89289C10.7103 5.89289 11.3916 6.1751 11.894 6.67743C12.3963 7.17976 12.6785 7.86106 12.6785 8.57146C12.6785 9.28187 12.3963 9.96317 11.894 10.4655C11.3916 10.9678 10.7103 11.25 9.99993 11.25C9.28953 11.25 8.60822 10.9678 8.10589 10.4655C7.60357 9.96317 7.32136 9.28187 7.32136 8.57146C7.32136 7.86106 7.60357 7.17976 8.10589 6.67743C8.60822 6.1751 9.28953 5.89289 9.99993 5.89289ZM9.99993 6.96432C9.57369 6.96432 9.16491 7.13364 8.86351 7.43504C8.56211 7.73644 8.39279 8.14522 8.39279 8.57146C8.39279 8.9977 8.56211 9.40649 8.86351 9.70788C9.16491 10.0093 9.57369 10.1786 9.99993 10.1786C10.4262 10.1786 10.835 10.0093 11.1364 9.70788C11.4378 9.40649 11.6071 8.9977 11.6071 8.57146C11.6071 8.14522 11.4378 7.73644 11.1364 7.43504C10.835 7.13364 10.4262 6.96432 9.99993 6.96432Z" fill="#20215A"/>
</svg>
