<svg width="76" height="27" viewBox="0 0 76 27" fill="none" xmlns="http://www.w3.org/2000/svg">
<path d="M3.24786 23.2936C3.24786 22.6249 2.82755 21.9945 2.02514 21.9945C1.16541 21.9945 0.802414 22.5867 0.802414 23.3509C0.802414 24.1151 1.18451 24.8411 1.96782 24.8411C2.86576 24.822 3.24786 24.0769 3.24786 23.2936ZM3.99296 25.0704C3.99296 26.446 3.0186 27 1.8914 27C1.28004 27 0.668678 26.9045 0.191051 26.637L0.401206 26.2167C0.897938 26.4651 1.37556 26.5415 1.8723 26.5415C2.73202 26.5415 3.24786 26.0639 3.24786 25.1277V24.631H3.22876C2.94218 24.9749 2.50277 25.2805 1.85319 25.2805C0.706889 25.2805 0 24.4972 0 23.3509C0 22.4148 0.802412 21.5168 1.96782 21.5168C2.46455 21.5168 2.9995 21.727 3.22876 22.1091H3.24786V21.6124H3.99296V25.0704Z" fill="white"/>
<path d="M5.50225 19.912H6.24735V25.2041H5.50225V19.912Z" fill="white"/>
<path d="M9.22775 23.2745C8.57818 23.4464 8.23429 23.7139 8.23429 24.1724C8.23429 24.5545 8.53997 24.7838 8.82654 24.7838C9.36149 24.7838 10.0302 24.2106 9.93464 23.1025L9.22775 23.2745ZM9.68627 24.8029C9.3997 25.0512 9.0367 25.2805 8.6546 25.2805C7.96681 25.2805 7.48919 24.8411 7.48919 24.1724C7.48919 23.5419 8.10055 23.1598 8.96028 22.9306L9.95374 22.6631C9.91553 22.2237 9.53343 21.9371 9.13222 21.9371C8.6546 21.9371 8.34892 22.109 8.04324 22.3192L7.75666 21.9944C8.17697 21.6505 8.59728 21.4977 9.17044 21.4977C9.7818 21.4977 10.6988 21.6696 10.6988 22.7204V24.3061C10.6988 24.5736 10.7371 24.9175 10.8708 25.185H10.0684C9.97285 25.0321 9.95374 24.8029 9.95374 24.5736L9.68627 24.8029Z" fill="white"/>
<path d="M14.1569 22.1855C13.8512 22.0135 13.6219 21.9562 13.3927 21.9562C13.1252 21.9562 12.7813 22.0708 12.7813 22.3574C12.7813 22.6631 13.1634 22.8159 13.641 23.1216C14.176 23.4655 14.5199 23.7712 14.5199 24.2679C14.5199 24.8793 13.8321 25.2805 13.0679 25.2805C12.5902 25.2805 12.0744 25.1085 11.7878 24.822L12.1508 24.459C12.3992 24.65 12.7049 24.822 13.0488 24.822C13.3927 24.822 13.7557 24.6691 13.7557 24.3061C13.7557 23.8858 13.3353 23.7139 12.9341 23.4655C12.4565 23.1789 12.0553 22.9306 12.0553 22.4338C12.0553 21.8607 12.7049 21.4977 13.4309 21.4977C13.8321 21.4977 14.2333 21.6505 14.4434 21.8225L14.1569 22.1855Z" fill="white"/>
<path d="M17.7104 22.1855C17.4047 22.0135 17.1755 21.9562 16.9462 21.9562C16.6787 21.9562 16.3348 22.0708 16.3348 22.3574C16.3348 22.6631 16.7169 22.8159 17.1946 23.1216C17.7295 23.4655 18.0734 23.7712 18.0734 24.2679C18.0734 24.8793 17.3856 25.2805 16.6214 25.2805C16.1438 25.2805 15.6279 25.1085 15.3414 24.822L15.7044 24.459C15.9527 24.65 16.2584 24.822 16.6023 24.822C16.9462 24.822 17.3092 24.6691 17.3092 24.3061C17.3092 23.8858 16.8889 23.7139 16.4877 23.4655C16.01 23.1789 15.6088 22.9306 15.6088 22.4338C15.6088 21.8607 16.2584 21.4977 16.9844 21.4977C17.3856 21.4977 17.7868 21.6505 17.997 21.8225L17.7104 22.1855Z" fill="white"/>
<path d="M22.735 22.0518C23.0789 21.7079 23.5757 21.5168 24.0342 21.5168C24.6837 21.5168 25.085 21.7461 25.3524 22.0518C25.7536 21.727 26.3077 21.5168 26.7662 21.5168C27.6832 21.5168 28.1418 22.0327 28.18 22.7969V25.2041H27.4349V23.0644C27.4349 22.5485 27.282 22.0327 26.5178 22.0327C25.8874 22.0327 25.4671 22.3193 25.4671 23.0453V25.2041H24.722V23.0644C24.722 22.3957 24.3972 22.0327 23.7858 22.0327C23.1553 22.0327 22.7541 22.3766 22.7541 23.0835V25.2232H22.009V21.6315H22.735V22.0518Z" fill="white"/>
<path d="M31.1986 23.2745C30.549 23.4464 30.2051 23.7139 30.2051 24.1724C30.2051 24.5545 30.5108 24.7838 30.7974 24.7838C31.3323 24.7838 32.001 24.2106 31.9055 23.1025L31.1986 23.2745ZM31.6571 24.8029C31.3705 25.0512 31.0075 25.2805 30.6254 25.2805C29.9376 25.2805 29.46 24.8411 29.46 24.1724C29.46 23.5419 30.0714 23.1598 30.9311 22.9306L31.9246 22.6631C31.8864 22.2237 31.5043 21.9371 31.103 21.9371C30.6254 21.9371 30.3197 22.109 30.0141 22.3192L29.7275 21.9944C30.1478 21.6505 30.5681 21.4977 31.1413 21.4977C31.7526 21.4977 32.6697 21.6696 32.6697 22.7204V24.3061C32.6697 24.5736 32.7079 24.9175 32.8607 25.185H32.0583C31.9628 25.0321 31.9437 24.8029 31.9437 24.5736L31.6571 24.8029Z" fill="white"/>
<path d="M37.1594 23.2936C37.1594 22.6249 36.7391 21.9944 35.9366 21.9944C35.0769 21.9944 34.7139 22.5867 34.7139 23.3509C34.7139 24.1151 35.096 24.8411 35.8793 24.8411C36.7773 24.822 37.1594 24.0769 37.1594 23.2936ZM37.1594 24.6309C36.8537 24.9748 36.4143 25.2805 35.7456 25.2805C34.6375 25.2805 33.9115 24.4972 33.9115 23.3509C33.9115 22.4148 34.6948 21.5168 35.822 21.5168C36.3761 21.5168 36.8919 21.7079 37.1403 22.0518H37.1594V19.912H37.9045V25.2041H37.1594V24.6309Z" fill="white"/>
<path d="M42.0312 23.007C42.0312 22.453 41.7637 21.9754 41.1141 21.9754C40.3117 21.9754 40.006 22.5485 39.9869 23.007H42.0312ZM39.9296 23.4465C39.9296 24.1724 40.5028 24.822 41.3243 24.822C41.7064 24.822 42.1649 24.7074 42.4515 24.5163L42.6616 24.8602C42.2222 25.1277 41.7255 25.2805 41.2861 25.2805C40.006 25.2805 39.1463 24.5928 39.1463 23.3318C39.1463 22.09 40.178 21.5168 41.1141 21.5168C42.375 21.5168 42.7954 22.5103 42.6998 23.4465H39.9296Z" fill="white"/>
<path d="M47.1704 23.3509C47.1704 24.0196 47.4379 24.822 48.4123 24.822C49.3866 24.822 49.6541 24.0387 49.6541 23.3509C49.6541 22.7014 49.3484 21.9754 48.4123 21.9754C47.4761 21.9754 47.1704 22.7205 47.1704 23.3509ZM46.368 23.3509C46.368 22.1855 47.3615 21.5168 48.4123 21.5168C49.4439 21.5168 50.4565 22.1855 50.4565 23.3509C50.4565 24.459 49.635 25.2805 48.4123 25.2805C47.1895 25.2805 46.368 24.4781 46.368 23.3509Z" fill="white"/>
<path d="M51.7939 25.2041V21.9753H51.1252V21.5932H51.7939V21.1538C51.7939 20.1986 52.5389 19.912 52.9975 19.912C53.2076 19.912 53.4751 19.9502 53.647 20.0648L53.4751 20.3896C53.3414 20.3705 53.2267 20.3323 53.0739 20.3323C52.9593 20.3323 52.5389 20.3514 52.5389 20.9437V21.5932H53.5324V21.9753H52.5389V25.2041H51.7939Z" fill="white"/>
<path d="M57.1242 20.4279C57.1242 20.2559 57.2961 20.0458 57.6018 20.0458C57.9075 20.0458 58.0794 20.2559 58.0794 20.4279C58.0794 20.6189 57.9648 20.8673 57.6018 20.8673C57.2388 20.8482 57.1242 20.6189 57.1242 20.4279ZM57.9648 25.2041H57.2197V21.6124H57.9648V25.2041Z" fill="white"/>
<path d="M62.3972 23.2936C62.3972 22.6249 61.9769 21.9944 61.1745 21.9944C60.3147 21.9944 59.9517 22.5867 59.9517 23.3509C59.9517 24.1151 60.3338 24.8411 61.1171 24.8411C62.0342 24.822 62.3972 24.0769 62.3972 23.2936ZM62.3972 24.6309C62.0915 24.9748 61.6521 25.2805 60.9834 25.2805C59.8753 25.2805 59.1493 24.4972 59.1493 23.3509C59.1493 22.4148 59.9326 21.5168 61.0598 21.5168C61.6139 21.5168 62.1297 21.7079 62.3781 22.0518H62.3972V19.912H63.1423V25.2041H62.3972V24.6309Z" fill="white"/>
<path d="M67.2881 23.007C67.2881 22.453 67.0206 21.9754 66.371 21.9754C65.5877 21.9754 65.2629 22.5485 65.2438 23.007H67.2881ZM65.1865 23.4465C65.1865 24.1724 65.7597 24.822 66.5812 24.822C66.9633 24.822 67.4218 24.7074 67.7084 24.5163L67.9185 24.8602C67.4791 25.1277 66.9824 25.2805 66.543 25.2805C65.2438 25.2805 64.4032 24.5928 64.4032 23.3318C64.4032 22.09 65.4349 21.5168 66.371 21.5168C67.632 21.5168 68.0523 22.5103 67.9759 23.4465H65.1865Z" fill="white"/>
<path d="M70.727 23.2745C70.0774 23.4464 69.7335 23.7139 69.7335 24.1724C69.7335 24.5545 70.0392 24.7838 70.3258 24.7838C70.8607 24.7838 71.5294 24.2106 71.4339 23.1025L70.727 23.2745ZM71.1664 24.8029C70.8798 25.0512 70.5168 25.2805 70.1347 25.2805C69.4469 25.2805 68.9693 24.8411 68.9693 24.1724C68.9693 23.5419 69.5807 23.1598 70.4404 22.9306L71.4339 22.6631C71.3957 22.2237 71.0136 21.9371 70.6124 21.9371C70.1347 21.9371 69.829 22.109 69.5234 22.3192L69.2368 21.9944C69.6571 21.6505 70.0774 21.4977 70.6506 21.4977C71.2619 21.4977 72.179 21.6696 72.179 22.7204V24.3061C72.179 24.5736 72.2172 24.9175 72.37 25.185H71.5676C71.4721 25.0321 71.453 24.8029 71.453 24.5736L71.1664 24.8029Z" fill="white"/>
<path d="M75.637 22.1855C75.3313 22.0135 75.102 21.9562 74.8728 21.9562C74.6053 21.9562 74.2614 22.0708 74.2614 22.3574C74.2614 22.6631 74.6435 22.8159 75.1211 23.1216C75.6561 23.4655 76 23.7712 76 24.2679C76 24.8793 75.3122 25.2805 74.548 25.2805C74.0704 25.2805 73.5545 25.1085 73.2679 24.822L73.6309 24.459C73.8793 24.65 74.185 24.822 74.5289 24.822C74.8728 24.822 75.2358 24.6691 75.2358 24.3061C75.2358 23.8858 74.7964 23.7139 74.4142 23.4655C73.9366 23.1789 73.5354 22.9306 73.5354 22.4338C73.5354 21.8607 74.185 21.4977 74.911 21.4977C75.3122 21.4977 75.7134 21.6505 75.9235 21.8225L75.637 22.1855Z" fill="white"/>
<path d="M22.2766 1.34192C23.8623 1.34192 25.257 1.83865 26.4797 2.75569L25.7155 3.86379C24.8176 3.11869 23.2892 2.73659 22.1429 2.73659C18.9332 2.73659 17.0227 5.01009 17.0227 8.21975C17.0227 11.6778 19.2962 13.8557 22.1429 13.8557C23.3847 13.8557 24.5883 13.5501 25.6009 12.8623L26.3269 13.9513C25.1041 14.7728 23.4993 15.2313 22.0473 15.2313C17.2711 15.2313 14.8256 11.9643 14.8256 8.25795C14.8256 4.87635 17.4812 1.34192 22.2766 1.34192Z" fill="white"/>
<path d="M27.7215 1.57117H29.7849V6.9588H36.2806V1.57117H38.344V14.9829H36.2806V8.35347H29.7849V14.9829H27.7215V1.57117Z" fill="white"/>
<path d="M49.2577 0.97644C52.1569 1.93288 54.2641 4.68265 54.2641 7.91065C54.2641 11.9456 50.9913 15.2035 46.9563 15.2035C43.6984 15.2035 40.9337 13.0665 39.9922 10.1224C41.1429 12.1997 43.3696 13.6194 45.9102 13.6194C49.6463 13.6194 52.6651 10.6006 52.6651 6.86454C52.6651 4.33893 51.2902 2.1421 49.2577 0.97644Z" fill="white"/>
<path d="M45.9102 1.3501C48.4358 1.3501 50.5579 3.03882 51.2154 5.3552C50.3487 3.9056 48.7645 2.94915 46.9563 2.94915C44.2214 2.94915 41.9947 5.17587 41.9947 7.9107C41.9947 9.70402 42.9362 11.2582 44.3559 12.14C42.0844 11.4675 40.4106 9.3603 40.4106 6.86459C40.4106 3.81593 42.8764 1.3501 45.9102 1.3501Z" fill="white"/>
<path d="M59.1685 2.94673V14.9829H57.1051V2.94673H53.8955V1.57117H62.4163V2.94673H59.1685Z" fill="white"/>
<path d="M68.6637 2.94673V14.9829H66.6004V2.94673H63.3907V1.57117H71.9116V2.94673H68.6637Z" fill="white"/>
<path d="M9.26603 1.34192C10.7562 1.34192 12.3228 1.85775 13.4883 2.75569L12.8005 3.902C11.8261 3.23332 10.5843 2.73659 9.38066 2.73659C7.18358 2.73659 6.24743 3.59632 6.24743 4.70441C6.24743 5.71698 7.48926 6.32834 9.93471 7.16897C12.0554 7.89496 14.1951 8.86932 14.0423 11.4676C13.9086 13.6265 11.6733 15.1931 8.86483 15.1931C7.29821 15.1931 5.42591 14.6008 4.14587 13.6265L4.96739 12.4229C6.07549 13.2253 7.39373 13.7793 8.82662 13.7793C10.527 13.7793 11.979 12.9196 11.979 11.4294C11.979 9.82457 9.01766 9.13679 7.89047 8.69737C5.50233 7.79943 4.16498 6.74865 4.2605 4.81904C4.31782 2.69838 6.34296 1.34192 9.26603 1.34192Z" fill="white"/>
</svg>
