<svg width="60" height="60" viewBox="0 0 60 60" fill="none" xmlns="http://www.w3.org/2000/svg">
<path d="M57.0436 8.09351H2.95594V46.9838H57.0436V8.09351Z" fill="#F1F1FB"/>
<path d="M57.0441 57.044V43.2576C57.044 42.5613 56.8225 41.8831 56.4115 41.321C56.0006 40.7589 55.4215 40.3422 54.758 40.131L49.0312 38.3066H42.0417L36.3122 40.131C35.6488 40.3423 35.0698 40.7591 34.6589 41.3211C34.248 41.8832 34.0266 42.5614 34.0266 43.2576V57.044H57.0441Z" fill="#172B4D"/>
<path d="M14.5102 25.4292H10.2169V35.504H14.5102V25.4292Z" fill="#5886EE"/>
<path d="M22.2755 15.3544H17.9822V35.5045H22.2755V15.3544Z" fill="#5886EE"/>
<path d="M30.0408 20.317H25.748V35.504H30.0408V20.317Z" fill="#5886EE"/>
<path d="M51.8475 8.09343L49.8605 4.22812C49.6635 3.84497 49.3647 3.52351 48.997 3.29908C48.6292 3.07465 48.2068 2.95592 47.7759 2.95593H12.2241C11.7932 2.95592 11.3708 3.07465 11.003 3.29908C10.6353 3.52351 10.3365 3.84497 10.1395 4.22812L8.1525 8.09343H22.4203V9.57093C22.4203 9.88173 22.5438 10.1798 22.7635 10.3996C22.9833 10.6193 23.2814 10.7428 23.5922 10.7428H36.4073C36.7181 10.7428 37.0162 10.6193 37.236 10.3996C37.4558 10.1798 37.5792 9.88173 37.5792 9.57093V8.09343H51.8475Z" fill="#172B4D"/>
<path d="M51.0511 38.9507L45.5353 49.2168L40.0195 38.9507L42.0417 38.3066H49.0289L51.0511 38.9507Z" fill="#5886EE"/>
<path d="M45.5353 26.3949C45.5353 26.3949 51.0511 26.1399 51.0511 32.7075C51.0511 36.9755 48.7214 38.9072 47.0902 39.7388C46.6085 39.9838 46.0757 40.1115 45.5353 40.1115C44.9949 40.1115 44.4622 39.9838 43.9805 39.7388C42.3492 38.9091 40.0195 36.9774 40.0195 32.7075C40.0195 26.1399 45.5353 26.3949 45.5353 26.3949Z" fill="#FFDECE"/>
<path d="M31.8333 7.66968H28.1663C27.9487 7.66968 27.74 7.58325 27.5862 7.42941C27.4324 7.27557 27.3459 7.06693 27.3459 6.84936C27.3459 6.6318 27.4324 6.42315 27.5862 6.26932C27.74 6.11548 27.9487 6.02905 28.1663 6.02905H31.8333C32.0508 6.02905 32.2595 6.11548 32.4133 6.26932C32.5672 6.42315 32.6536 6.6318 32.6536 6.84936C32.6536 7.06693 32.5672 7.27557 32.4133 7.42941C32.2595 7.58325 32.0508 7.66968 31.8333 7.66968Z" fill="#005ABB"/>
<path d="M49.7813 16.1747H39.2231C39.0056 16.1747 38.7969 16.0883 38.6431 15.9344C38.4892 15.7806 38.4028 15.5719 38.4028 15.3544C38.4028 15.1368 38.4892 14.9282 38.6431 14.7743C38.7969 14.6205 39.0056 14.5341 39.2231 14.5341H49.7813C49.9988 14.5341 50.2075 14.6205 50.3613 14.7743C50.5151 14.9282 50.6016 15.1368 50.6016 15.3544C50.6016 15.5719 50.5151 15.7806 50.3613 15.9344C50.2075 16.0883 49.9988 16.1747 49.7813 16.1747Z" fill="#E1D8FA"/>
<path d="M49.7813 21.1373H39.2231C39.0056 21.1373 38.7969 21.0509 38.6431 20.8971C38.4892 20.7432 38.4028 20.5346 38.4028 20.317C38.4028 20.0995 38.4892 19.8908 38.6431 19.737C38.7969 19.5831 39.0056 19.4967 39.2231 19.4967H49.7813C49.9988 19.4967 50.2075 19.5831 50.3613 19.737C50.5151 19.8908 50.6016 20.0995 50.6016 20.317C50.6016 20.5346 50.5151 20.7432 50.3613 20.8971C50.2075 21.0509 49.9988 21.1373 49.7813 21.1373Z" fill="#E1D8FA"/>
<path d="M30.0408 40.5436H10.2187C10.0012 40.5436 9.79254 40.4572 9.6387 40.3033C9.48486 40.1495 9.39843 39.9408 9.39843 39.7233C9.39843 39.5057 9.48486 39.2971 9.6387 39.1432C9.79254 38.9894 10.0012 38.903 10.2187 38.903H30.0408C30.2583 38.903 30.467 38.9894 30.6208 39.1432C30.7747 39.2971 30.8611 39.5057 30.8611 39.7233C30.8611 39.9408 30.7747 40.1495 30.6208 40.3033C30.467 40.4572 30.2583 40.5436 30.0408 40.5436Z" fill="#E1D8FA"/>
<path d="M40.0453 46.9828V57.0422H38.4047V46.9828C38.4047 46.7652 38.4911 46.5566 38.645 46.4027C38.7988 46.2489 39.0074 46.1625 39.225 46.1625C39.4426 46.1625 39.6512 46.2489 39.8051 46.4027C39.9589 46.5566 40.0453 46.7652 40.0453 46.9828Z" fill="#005ABB"/>
<path d="M52.6687 46.9828V57.0422H51.0281V46.9828C51.0281 46.7652 51.1145 46.5566 51.2684 46.4027C51.4222 46.2489 51.6309 46.1625 51.8484 46.1625C52.066 46.1625 52.2746 46.2489 52.4285 46.4027C52.5823 46.5566 52.6687 46.7652 52.6687 46.9828Z" fill="#005ABB"/>
</svg>
