<svg width="60" height="60" viewBox="0 0 60 60" fill="none" xmlns="http://www.w3.org/2000/svg">
<path d="M46.0036 48.24H13.9959V57.0441H46.0036V48.24Z" fill="#005ABB"/>
<path d="M41.5088 33.6061V19.8202C41.5087 19.1239 41.2872 18.4457 40.8762 17.8836C40.4653 17.3216 39.8861 16.9048 39.2227 16.6936L33.4936 14.8693H26.5092L20.7769 16.6936C20.1135 16.9049 19.5345 17.3217 19.1236 17.8837C18.7127 18.4458 18.4913 19.124 18.4913 19.8202V33.6061H41.5088Z" fill="#172B4D"/>
<path d="M35.5158 15.5133L30 25.7794L24.4842 15.5133L26.5069 14.8693H33.4936L35.5158 15.5133Z" fill="#5886EE"/>
<path d="M50.2636 48.24H9.73641L7.66922 33.6061H52.3308L50.2636 48.24Z" fill="#5886EE"/>
<path d="M16.9219 13.2103C16.6479 12.9363 16.494 12.5647 16.494 12.1772C16.494 11.7897 16.6479 11.4181 16.9219 11.1441L17.8177 10.2483C17.9533 10.1127 18.1143 10.0051 18.2915 9.93164C18.4688 9.85822 18.6587 9.82043 18.8505 9.82043C19.0424 9.82043 19.2323 9.85822 19.4096 9.93164C19.5868 10.0051 19.7478 10.1127 19.8834 10.2483C20.1574 10.5223 20.3114 10.8939 20.3114 11.2814C20.3114 11.6689 20.1574 12.0406 19.8834 12.3146L18.9881 13.2103C18.7141 13.4843 18.3425 13.6383 17.955 13.6383C17.5675 13.6383 17.1959 13.4843 16.9219 13.2103Z" fill="#172B4D"/>
<path d="M43.0781 13.2103C43.3521 12.9363 43.506 12.5647 43.506 12.1772C43.506 11.7897 43.3521 11.4181 43.0781 11.1441L42.1823 10.2483C42.0467 10.1127 41.8857 10.0051 41.7085 9.93164C41.5312 9.85822 41.3413 9.82043 41.1495 9.82043C40.9576 9.82043 40.7677 9.85822 40.5904 9.93164C40.4132 10.0051 40.2522 10.1127 40.1166 10.2483C39.9808 10.384 39.8732 10.545 39.7997 10.7223C39.7263 10.8995 39.6884 11.0896 39.6884 11.2814C39.6884 11.4733 39.7263 11.6633 39.7997 11.8406C39.8732 12.0179 39.9808 12.1789 40.1166 12.3146L41.0119 13.2103C41.2859 13.4843 41.6575 13.6383 42.045 13.6383C42.4325 13.6383 42.8041 13.4843 43.0781 13.2103Z" fill="#172B4D"/>
<path d="M30 2.95738C30 2.95738 35.5158 2.70238 35.5158 9.27003C35.5158 13.538 33.1861 15.4697 31.5548 16.3013C31.0732 16.5463 30.5404 16.674 30 16.674C29.4596 16.674 28.9268 16.5463 28.4452 16.3013C26.8139 15.4716 24.4842 13.5399 24.4842 9.27003C24.4842 2.70238 30 2.95738 30 2.95738Z" fill="#FFDECE"/>
<path d="M24.5062 23.5454V33.6048H22.8656V23.5454C22.8656 23.3278 22.9521 23.1192 23.1059 22.9654C23.2597 22.8115 23.4684 22.7251 23.6859 22.7251C23.9035 22.7251 24.1121 22.8115 24.266 22.9654C24.4198 23.1192 24.5062 23.3278 24.5062 23.5454Z" fill="#005ABB"/>
<path d="M37.1344 23.5454V33.6048H35.4938V23.5454C35.4938 23.3278 35.5802 23.1192 35.734 22.9654C35.8879 22.8115 36.0965 22.7251 36.3141 22.7251C36.5316 22.7251 36.7403 22.8115 36.8941 22.9654C37.0479 23.1192 37.1344 23.3278 37.1344 23.5454Z" fill="#005ABB"/>
<path d="M46.5839 15.555L43.4808 12.4519C43.4257 12.7391 43.2857 13.0032 43.0789 13.21C42.872 13.4168 42.6079 13.5567 42.3206 13.6116L45.1838 16.4747V33.6061H46.8244V16.1349C46.8243 15.9174 46.7378 15.7088 46.5839 15.555Z" fill="#005ABB"/>
<path d="M16.9219 13.2099C16.7147 13.0034 16.5747 12.7392 16.5202 12.4519L13.417 15.555C13.2632 15.7088 13.1767 15.9174 13.1766 16.1349V33.6061H14.8172V16.4747L17.6803 13.6116C17.3928 13.5571 17.1285 13.4171 16.9219 13.2099Z" fill="#005ABB"/>
</svg>
