<svg width="60" height="60" viewBox="0 0 60 60" fill="none" xmlns="http://www.w3.org/2000/svg">
<path d="M57.0441 13.0978V46.9022L50.2828 53.6634H16.478V13.0978H57.0441Z" fill="#005ABB"/>
<path d="M50.2828 53.6635V46.9022H57.0441L50.2828 53.6635Z" fill="#F1F1FB"/>
<path d="M43.5216 6.33655H2.95594V46.9022H43.5216V6.33655Z" fill="#5886EE"/>
<path d="M15.4594 11.2195H12.1359V14.9756H15.4594V11.2195Z" fill="#F9502E"/>
<path d="M23.2392 40.9617H12.1364C11.9188 40.9617 11.7102 40.8752 11.5564 40.7214C11.4025 40.5676 11.3161 40.3589 11.3161 40.1414C11.3161 39.9238 11.4025 39.7151 11.5564 39.5613C11.7102 39.4075 11.9188 39.321 12.1364 39.321H23.2392C23.4568 39.321 23.6654 39.4075 23.8193 39.5613C23.9731 39.7151 24.0595 39.9238 24.0595 40.1414C24.0595 40.3589 23.9731 40.5676 23.8193 40.7214C23.6654 40.8752 23.4568 40.9617 23.2392 40.9617Z" fill="#E1D8FA"/>
<path d="M34.342 34.2009H12.1364C11.9188 34.2009 11.7102 34.1145 11.5564 33.9607C11.4025 33.8068 11.3161 33.5982 11.3161 33.3806C11.3161 33.1631 11.4025 32.9544 11.5564 32.8006C11.7102 32.6467 11.9188 32.5603 12.1364 32.5603H34.342C34.5596 32.5603 34.7682 32.6467 34.9221 32.8006C35.0759 32.9544 35.1623 33.1631 35.1623 33.3806C35.1623 33.5982 35.0759 33.8068 34.9221 33.9607C34.7682 34.1145 34.5596 34.2009 34.342 34.2009Z" fill="#E1D8FA"/>
<path d="M34.342 27.4397H12.1364C11.9188 27.4397 11.7102 27.3533 11.5564 27.1994C11.4025 27.0456 11.3161 26.8369 11.3161 26.6194C11.3161 26.4018 11.4025 26.1932 11.5564 26.0393C11.7102 25.8855 11.9188 25.7991 12.1364 25.7991H34.342C34.5596 25.7991 34.7682 25.8855 34.9221 26.0393C35.0759 26.1932 35.1623 26.4018 35.1623 26.6194C35.1623 26.8369 35.0759 27.0456 34.9221 27.1994C34.7682 27.3533 34.5596 27.4397 34.342 27.4397Z" fill="#E1D8FA"/>
<path d="M34.342 20.679H12.1364C11.9188 20.679 11.7102 20.5925 11.5564 20.4387C11.4025 20.2849 11.3161 20.0762 11.3161 19.8586C11.3161 19.6411 11.4025 19.4324 11.5564 19.2786C11.7102 19.1248 11.9188 19.0383 12.1364 19.0383H34.342C34.5596 19.0383 34.7682 19.1248 34.9221 19.2786C35.0759 19.4324 35.1623 19.6411 35.1623 19.8586C35.1623 20.0762 35.0759 20.2849 34.9221 20.4387C34.7682 20.5925 34.5596 20.679 34.342 20.679Z" fill="#E1D8FA"/>
<path d="M23.2392 12.277H18.6694V13.9176H23.2392C23.4568 13.9176 23.6654 13.8312 23.8193 13.6773C23.9731 13.5235 24.0595 13.3149 24.0595 13.0973C24.0595 12.8797 23.9731 12.6711 23.8193 12.5172C23.6654 12.3634 23.4568 12.277 23.2392 12.277Z" fill="#005ABB"/>
<path d="M15.4594 14.9756L18.6694 16.3655V9.82971L15.4594 11.2196V14.9756Z" fill="#FFD92D"/>
<path d="M47.8636 19.0383H43.522V20.679H47.8636C48.0812 20.679 48.2898 20.5925 48.4436 20.4387C48.5975 20.2849 48.6839 20.0762 48.6839 19.8586C48.6839 19.6411 48.5975 19.4324 48.4436 19.2786C48.2898 19.1248 48.0812 19.0383 47.8636 19.0383Z" fill="#F1F1FB"/>
<path d="M47.8636 25.7991H43.522V27.4397H47.8636C48.0812 27.4397 48.2898 27.3533 48.4436 27.1994C48.5975 27.0456 48.6839 26.8369 48.6839 26.6194C48.6839 26.4018 48.5975 26.1932 48.4436 26.0393C48.2898 25.8855 48.0812 25.7991 47.8636 25.7991Z" fill="#F1F1FB"/>
<path d="M47.8636 32.5598H43.522V34.2004H47.8636C48.0812 34.2004 48.2898 34.114 48.4436 33.9602C48.5975 33.8063 48.6839 33.5977 48.6839 33.3801C48.6839 33.1626 48.5975 32.9539 48.4436 32.8001C48.2898 32.6462 48.0812 32.5598 47.8636 32.5598Z" fill="#F1F1FB"/>
<path d="M47.8636 39.3206H43.522V40.9612H47.8636C48.0812 40.9612 48.2898 40.8748 48.4436 40.7209C48.5975 40.5671 48.6839 40.3584 48.6839 40.1409C48.6839 39.9233 48.5975 39.7147 48.4436 39.5608C48.2898 39.407 48.0812 39.3206 47.8636 39.3206Z" fill="#F1F1FB"/>
</svg>
