<svg width="60" height="60" viewBox="0 0 60 60" fill="none" xmlns="http://www.w3.org/2000/svg">
<path d="M45.5353 2.95642V15.4013C45.5353 15.8985 45.3378 16.3755 44.9861 16.7271C44.6345 17.0787 44.1576 17.2763 43.6603 17.2763H41.9062V23.033L37.3233 17.2763H24.9094V2.95642H45.5353Z" fill="#005ABB"/>
<path d="M57.0441 57.0441V43.2577C57.044 42.5614 56.8225 41.8832 56.4115 41.3211C56.0006 40.7591 55.4215 40.3423 54.758 40.1311L49.0312 38.3068H42.0422L36.3122 40.1311C35.6488 40.3424 35.0698 40.7592 34.6589 41.3212C34.248 41.8833 34.0266 42.5615 34.0266 43.2577V57.0441H57.0441Z" fill="#172B4D"/>
<path d="M51.0511 38.9508L45.5353 49.2169L40.0195 38.9508L42.0422 38.3068H49.0289L51.0511 38.9508Z" fill="#5886EE"/>
<path d="M25.9734 57.0441V43.2577C25.9734 42.5614 25.7519 41.8832 25.3409 41.3211C24.9299 40.7591 24.3508 40.3423 23.6873 40.1311L17.9583 38.3068H10.9739L5.24156 40.1311C4.57816 40.3424 3.99915 40.7592 3.58827 41.3212C3.17739 41.8833 2.95593 42.5615 2.95594 43.2577V57.0441H25.9734Z" fill="#172B4D"/>
<path d="M19.9805 38.9508L14.4647 49.2169L8.9489 38.9508L10.9716 38.3068H17.9583L19.9805 38.9508Z" fill="#5886EE"/>
<path d="M45.5353 26.3949C45.5353 26.3949 51.0511 26.1399 51.0511 32.7075C51.0511 36.9755 48.7214 38.9072 47.0902 39.7388C46.6085 39.9838 46.0757 40.1115 45.5353 40.1115C44.9949 40.1115 44.4622 39.9838 43.9805 39.7388C42.3492 38.9091 40.0195 36.9774 40.0195 32.7075C40.0195 26.1399 45.5353 26.3949 45.5353 26.3949Z" fill="#FFDECE"/>
<path d="M14.4647 26.3949C14.4647 26.3949 19.9805 26.1399 19.9805 32.7075C19.9805 36.9755 17.6508 38.9072 16.0195 39.7388C15.5378 39.9838 15.0051 40.1115 14.4647 40.1115C13.9243 40.1115 13.3915 39.9838 12.9098 39.7388C11.2786 38.9091 8.9489 36.9774 8.9489 32.7075C8.9489 26.1399 14.4647 26.3949 14.4647 26.3949Z" fill="#FFDECE"/>
<path d="M40.0453 46.9828V57.0422H38.4047V46.9828C38.4047 46.7652 38.4911 46.5566 38.645 46.4027C38.7988 46.2489 39.0074 46.1625 39.225 46.1625C39.4426 46.1625 39.6512 46.2489 39.8051 46.4027C39.9589 46.5566 40.0453 46.7652 40.0453 46.9828Z" fill="#005ABB"/>
<path d="M52.6688 46.9828V57.0422H51.0281V46.9828C51.0281 46.7652 51.1146 46.5566 51.2684 46.4027C51.4222 46.2489 51.6309 46.1625 51.8484 46.1625C52.066 46.1625 52.2747 46.2489 52.4285 46.4027C52.5823 46.5566 52.6688 46.7652 52.6688 46.9828Z" fill="#005ABB"/>
<path d="M8.97187 46.9828V57.0422H7.33124V46.9828C7.33124 46.7652 7.41767 46.5566 7.57151 46.4027C7.72534 46.2489 7.93399 46.1625 8.15155 46.1625C8.36911 46.1625 8.57777 46.2489 8.7316 46.4027C8.88544 46.5566 8.97187 46.7652 8.97187 46.9828Z" fill="#005ABB"/>
<path d="M21.5953 46.9828V57.0422H19.9547V46.9828C19.9547 46.7652 20.0411 46.5566 20.1949 46.4027C20.3488 46.2489 20.5574 46.1625 20.775 46.1625C20.9926 46.1625 21.2012 46.2489 21.355 46.4027C21.5089 46.5566 21.5953 46.7652 21.5953 46.9828Z" fill="#005ABB"/>
<path d="M40.5277 11.4482H35.0906V13.0889H40.5281C40.7457 13.0889 40.9543 13.0024 41.1082 12.8486C41.262 12.6948 41.3484 12.4861 41.3484 12.2686C41.3484 12.051 41.262 11.8423 41.1082 11.6885C40.9543 11.5347 40.7457 11.4482 40.5281 11.4482H40.5277Z" fill="#5886EE"/>
<path d="M40.5277 7.14331H35.0906V8.78394H40.5281C40.7457 8.78394 40.9543 8.69751 41.1082 8.54367C41.262 8.38983 41.3484 8.18118 41.3484 7.96362C41.3484 7.74606 41.262 7.53741 41.1082 7.38357C40.9543 7.22974 40.7457 7.14331 40.5281 7.14331H40.5277Z" fill="#5886EE"/>
<path d="M14.4647 4.83142V17.2763H18.0937V23.033L22.6748 17.2763H33.2156C33.7129 17.2763 34.1898 17.0787 34.5415 16.7271C34.8931 16.3755 35.0906 15.8985 35.0906 15.4013V2.95642H16.3406C16.0943 2.9563 15.8504 3.00471 15.6228 3.09888C15.3952 3.19305 15.1884 3.33114 15.0142 3.50526C14.84 3.67939 14.7018 3.88613 14.6075 4.11367C14.5132 4.34122 14.4647 4.58511 14.4647 4.83142Z" fill="#172B4D"/>
<path d="M30.083 13.0889H19.4723C19.2548 13.0889 19.0461 13.0024 18.8923 12.8486C18.7384 12.6948 18.652 12.4861 18.652 12.2686C18.652 12.051 18.7384 11.8423 18.8923 11.6885C19.0461 11.5347 19.2548 11.4482 19.4723 11.4482H30.083C30.3005 11.4482 30.5092 11.5347 30.663 11.6885C30.8168 11.8423 30.9033 12.051 30.9033 12.2686C30.9033 12.4861 30.8168 12.6948 30.663 12.8486C30.5092 13.0024 30.3005 13.0889 30.083 13.0889Z" fill="#005ABB"/>
<path d="M30.083 8.78394H19.4723C19.2548 8.78394 19.0461 8.69751 18.8923 8.54367C18.7384 8.38983 18.652 8.18118 18.652 7.96362C18.652 7.74606 18.7384 7.53741 18.8923 7.38357C19.0461 7.22974 19.2548 7.14331 19.4723 7.14331H30.083C30.3005 7.14331 30.5092 7.22974 30.663 7.38357C30.8168 7.53741 30.9033 7.74606 30.9033 7.96362C30.9033 8.18118 30.8168 8.38983 30.663 8.54367C30.5092 8.69751 30.3005 8.78394 30.083 8.78394Z" fill="#005ABB"/>
</svg>
