<svg width="20" height="20" viewBox="0 0 20 20" fill="none" xmlns="http://www.w3.org/2000/svg">
<path d="M6.00003 2C5.46959 2 4.96089 2.21071 4.58581 2.58579C4.21074 2.96086 4.00003 3.46957 4.00003 4V9.207C4.32691 9.11447 4.66168 9.05254 5.00003 9.022V4C5.00003 3.73478 5.10538 3.48043 5.29292 3.29289C5.48046 3.10536 5.73481 3 6.00003 3H10V6.5C10 6.89782 10.1581 7.27936 10.4394 7.56066C10.7207 7.84196 11.1022 8 11.5 8H15V16C15 16.2652 14.8947 16.5196 14.7071 16.7071C14.5196 16.8946 14.2652 17 14 17H10.4C10.218 17.3562 9.9977 17.6915 9.74303 18H14C14.5305 18 15.0392 17.7893 15.4142 17.4142C15.7893 17.0391 16 16.5304 16 16V7.414C15.9997 7.01631 15.8414 6.63503 15.56 6.354L11.646 2.439C11.3648 2.15798 10.9836 2.00008 10.586 2H6.00003ZM14.793 7H11.5C11.3674 7 11.2402 6.94732 11.1465 6.85355C11.0527 6.75979 11 6.63261 11 6.5V3.207L14.793 7ZM8.68203 17.682C9.52595 16.8381 10.0001 15.6935 10.0001 14.5C10.0001 13.3065 9.52595 12.1619 8.68203 11.318C8.26416 10.9001 7.76808 10.5687 7.22211 10.3425C6.67615 10.1164 6.09098 9.99997 5.50003 9.99997C4.30655 9.99997 3.16195 10.4741 2.31803 11.318C1.47411 12.1619 1 13.3065 1 14.5C1 15.6935 1.47411 16.8381 2.31803 17.682C3.16195 18.5259 4.30655 19 5.50003 19C6.69351 19 7.83811 18.5259 8.68203 17.682ZM3.73203 12.732C3.82579 12.6383 3.95295 12.5856 4.08553 12.5856C4.21811 12.5856 4.34526 12.6383 4.43903 12.732L5.49903 13.792L6.56103 12.732C6.60715 12.6842 6.66232 12.6462 6.72333 12.6199C6.78433 12.5937 6.84994 12.58 6.91633 12.5794C6.98272 12.5788 7.04856 12.5914 7.11 12.6166C7.17145 12.6417 7.22728 12.6789 7.27423 12.7258C7.32117 12.7727 7.3583 12.8286 7.38344 12.89C7.40858 12.9515 7.42123 13.0173 7.42065 13.0837C7.42008 13.1501 7.40628 13.2157 7.38008 13.2767C7.35387 13.3377 7.31578 13.3929 7.26803 13.439L6.20703 14.5L7.26703 15.56C7.31352 15.6064 7.3504 15.6615 7.37559 15.7222C7.40077 15.7829 7.41376 15.8479 7.41381 15.9136C7.41385 15.9793 7.40096 16.0444 7.37586 16.1051C7.35076 16.1658 7.31395 16.221 7.26753 16.2675C7.22111 16.314 7.16598 16.3509 7.1053 16.3761C7.04462 16.4012 6.97958 16.4142 6.91388 16.4143C6.84818 16.4143 6.78312 16.4014 6.72241 16.3763C6.66169 16.3512 6.60652 16.3144 6.56003 16.268L5.50003 15.208L4.44003 16.268C4.39354 16.3145 4.33835 16.3514 4.27761 16.3765C4.21687 16.4017 4.15177 16.4146 4.08603 16.4146C4.02028 16.4146 3.95518 16.4017 3.89444 16.3765C3.8337 16.3514 3.77852 16.3145 3.73203 16.268C3.68554 16.2215 3.64866 16.1663 3.6235 16.1056C3.59835 16.0448 3.5854 15.9797 3.5854 15.914C3.5854 15.8483 3.59835 15.7832 3.6235 15.7224C3.64866 15.6617 3.68554 15.6065 3.73203 15.56L4.79203 14.5L3.73203 13.44C3.68546 13.3936 3.64852 13.3384 3.62331 13.2776C3.59811 13.2169 3.58513 13.1518 3.58513 13.086C3.58513 13.0202 3.59811 12.9551 3.62331 12.8944C3.64852 12.8336 3.68546 12.7784 3.73203 12.732Z" fill="#CB3A31"/>
</svg>
