<svg width="20" height="20" viewBox="0 0 20 20" fill="none" xmlns="http://www.w3.org/2000/svg">
<path d="M6.75 6.5C6.94891 6.5 7.13968 6.42098 7.28033 6.28033C7.42098 6.13968 7.5 5.94891 7.5 5.75C7.5 5.55109 7.42098 5.36032 7.28033 5.21967C7.13968 5.07902 6.94891 5 6.75 5C6.55109 5 6.36032 5.07902 6.21967 5.21967C6.07902 5.36032 6 5.55109 6 5.75C6 5.94891 6.07902 6.13968 6.21967 6.28033C6.36032 6.42098 6.55109 6.5 6.75 6.5ZM7.5 8.75C7.5 8.94891 7.42098 9.13968 7.28033 9.28033C7.13968 9.42098 6.94891 9.5 6.75 9.5C6.55109 9.5 6.36032 9.42098 6.21967 9.28033C6.07902 9.13968 6 8.94891 6 8.75C6 8.55109 6.07902 8.36032 6.21967 8.21967C6.36032 8.07902 6.55109 8 6.75 8C6.94891 8 7.13968 8.07902 7.28033 8.21967C7.42098 8.36032 7.5 8.55109 7.5 8.75ZM6.75 12.5C6.84849 12.5 6.94602 12.4806 7.03701 12.4429C7.12801 12.4052 7.21069 12.35 7.28033 12.2803C7.34997 12.2107 7.40522 12.128 7.44291 12.037C7.4806 11.946 7.5 11.8485 7.5 11.75C7.5 11.6515 7.4806 11.554 7.44291 11.463C7.40522 11.372 7.34997 11.2893 7.28033 11.2197C7.21069 11.15 7.12801 11.0948 7.03701 11.0571C6.94602 11.0194 6.84849 11 6.75 11C6.55109 11 6.36032 11.079 6.21967 11.2197C6.07902 11.3603 6 11.5511 6 11.75C6 11.9489 6.07902 12.1397 6.21967 12.2803C6.36032 12.421 6.55109 12.5 6.75 12.5V12.5ZM10.5 5.75C10.5 5.94891 10.421 6.13968 10.2803 6.28033C10.1397 6.42098 9.94891 6.5 9.75 6.5C9.55109 6.5 9.36032 6.42098 9.21967 6.28033C9.07902 6.13968 9 5.94891 9 5.75C9 5.55109 9.07902 5.36032 9.21967 5.21967C9.36032 5.07902 9.55109 5 9.75 5C9.94891 5 10.1397 5.07902 10.2803 5.21967C10.421 5.36032 10.5 5.55109 10.5 5.75ZM9.75 9.5C9.94891 9.5 10.1397 9.42098 10.2803 9.28033C10.421 9.13968 10.5 8.94891 10.5 8.75C10.5 8.55109 10.421 8.36032 10.2803 8.21967C10.1397 8.07902 9.94891 8 9.75 8C9.55109 8 9.36032 8.07902 9.21967 8.21967C9.07902 8.36032 9 8.55109 9 8.75C9 8.94891 9.07902 9.13968 9.21967 9.28033C9.36032 9.42098 9.55109 9.5 9.75 9.5ZM10.5 11.75C10.5 11.9489 10.421 12.1397 10.2803 12.2803C10.1397 12.421 9.94891 12.5 9.75 12.5C9.55109 12.5 9.36032 12.421 9.21967 12.2803C9.07902 12.1397 9 11.9489 9 11.75C9 11.5511 9.07902 11.3603 9.21967 11.2197C9.36032 11.079 9.55109 11 9.75 11C9.94891 11 10.1397 11.079 10.2803 11.2197C10.421 11.3603 10.5 11.5511 10.5 11.75ZM12.75 12.5C12.8485 12.5 12.946 12.4806 13.037 12.4429C13.128 12.4052 13.2107 12.35 13.2803 12.2803C13.35 12.2107 13.4052 12.128 13.4429 12.037C13.4806 11.946 13.5 11.8485 13.5 11.75C13.5 11.6515 13.4806 11.554 13.4429 11.463C13.4052 11.372 13.35 11.2893 13.2803 11.2197C13.2107 11.15 13.128 11.0948 13.037 11.0571C12.946 11.0194 12.8485 11 12.75 11C12.5511 11 12.3603 11.079 12.2197 11.2197C12.079 11.3603 12 11.5511 12 11.75C12 11.9489 12.079 12.1397 12.2197 12.2803C12.3603 12.421 12.5511 12.5 12.75 12.5V12.5ZM4.5 18C4.36739 18 4.24021 17.9473 4.14645 17.8536C4.05268 17.7598 4 17.6326 4 17.5V3.5C4 3.10218 4.15804 2.72064 4.43934 2.43934C4.72064 2.15804 5.10218 2 5.5 2H11.5C11.8978 2 12.2794 2.15804 12.5607 2.43934C12.842 2.72064 13 3.10218 13 3.5V8H14.5C14.8978 8 15.2794 8.15804 15.5607 8.43934C15.842 8.72064 16 9.10218 16 9.5V17.5C16 17.6326 15.9473 17.7598 15.8536 17.8536C15.7598 17.9473 15.6326 18 15.5 18H4.5ZM5 3.5V17H7V14.5C7 14.3674 7.05268 14.2402 7.14645 14.1464C7.24021 14.0527 7.36739 14 7.5 14H12.5C12.6326 14 12.7598 14.0527 12.8536 14.1464C12.9473 14.2402 13 14.3674 13 14.5V17H15V9.5C15 9.36739 14.9473 9.24021 14.8536 9.14645C14.7598 9.05268 14.6326 9 14.5 9H12.5C12.3674 9 12.2402 8.94732 12.1464 8.85355C12.0527 8.75979 12 8.63261 12 8.5V3.5C12 3.36739 11.9473 3.24021 11.8536 3.14645C11.7598 3.05268 11.6326 3 11.5 3H5.5C5.36739 3 5.24021 3.05268 5.14645 3.14645C5.05268 3.24021 5 3.36739 5 3.5ZM12 15H10.5V17H12V15ZM9.5 15H8V17H9.5V15Z" fill="black"/>
</svg>
