<svg width="202" height="150" viewBox="0 0 202 150" fill="none" xmlns="http://www.w3.org/2000/svg">
<path d="M201.31 131.818H0V131.918H201.31V131.818Z" fill="#EBEBEB"/>
<path d="M181.139 138.296H167.804V138.397H181.139V138.296Z" fill="#EBEBEB"/>
<path d="M133.356 139.391H129.857V139.492H133.356V139.391Z" fill="#EBEBEB"/>
<path d="M167.401 134.56H159.675V134.66H167.401V134.56Z" fill="#EBEBEB"/>
<path d="M38.5105 135.236H21.1214V135.337H38.5105V135.236Z" fill="#EBEBEB"/>
<path d="M44.6465 135.236H42.0979V135.337H44.6465V135.236Z" fill="#EBEBEB"/>
<path d="M90.6498 136.935H52.9324V137.036H90.6498V136.935Z" fill="#EBEBEB"/>
<path d="M95.4209 113.861H17.679C17.07 113.86 16.4863 113.617 16.056 113.186C15.6258 112.755 15.3841 112.171 15.3841 111.562V2.27883C15.3894 1.6733 15.6334 1.09431 16.0631 0.667631C16.4928 0.240951 17.0735 0.0010373 17.679 0H95.4209C96.0306 0 96.6153 0.242211 97.0465 0.673349C97.4776 1.10449 97.7198 1.68924 97.7198 2.29896V111.562C97.7198 112.172 97.4776 112.756 97.0465 113.188C96.6153 113.619 96.0306 113.861 95.4209 113.861ZM17.679 0.0805242C17.0967 0.0815908 16.5386 0.313667 16.1272 0.725813C15.7158 1.13796 15.4847 1.6965 15.4847 2.27883V111.562C15.4847 112.144 15.7158 112.703 16.1272 113.115C16.5386 113.527 17.0967 113.759 17.679 113.76H95.4209C96.0036 113.759 96.5621 113.527 96.9741 113.115C97.3862 112.703 97.6181 112.145 97.6192 111.562V2.27883C97.6181 1.69613 97.3862 1.1376 96.9741 0.725568C96.5621 0.313536 96.0036 0.0815885 95.4209 0.0805242H17.679Z" fill="#EBEBEB"/>
<path d="M182.512 113.861H104.766C104.156 113.86 103.572 113.617 103.141 113.186C102.71 112.755 102.468 112.171 102.467 111.562V2.27883C102.473 1.67293 102.718 1.09395 103.148 0.667379C103.579 0.24081 104.16 0.00102599 104.766 0H182.512C183.116 0.00209543 183.696 0.242477 184.125 0.669044C184.554 1.09561 184.797 1.67399 184.802 2.27883V111.562C184.802 112.17 184.561 112.754 184.132 113.185C183.703 113.616 183.12 113.859 182.512 113.861ZM104.766 0.0805242C104.183 0.0815885 103.624 0.313536 103.212 0.725568C102.8 1.1376 102.568 1.69613 102.567 2.27883V111.562C102.568 112.145 102.8 112.703 103.212 113.115C103.624 113.527 104.183 113.759 104.766 113.76H182.512C183.094 113.759 183.653 113.527 184.065 113.115C184.477 112.703 184.709 112.145 184.71 111.562V2.27883C184.709 1.69613 184.477 1.1376 184.065 0.725568C183.653 0.313536 183.094 0.0815885 182.512 0.0805242H104.766Z" fill="#EBEBEB"/>
<path d="M26.891 131.818H81.5265L81.5265 16.3504H26.891L26.891 131.818Z" fill="#E6E6E6"/>
<path d="M25.6791 131.818H80.3146L80.3146 16.3504H25.6791L25.6791 131.818Z" fill="#F5F5F5"/>
<path d="M78.1364 129.37V18.7983L27.8613 18.7983L27.8613 129.37H78.1364Z" fill="#FAFAFA"/>
<path d="M66.557 129.37L53.8182 18.7983H39.4366L52.1755 129.37H66.557Z" fill="white"/>
<path d="M28.7793 129.37L28.7793 18.7983H27.8613L27.8613 129.37H28.7793Z" fill="#E6E6E6"/>
<path d="M26.581 31.662L79.4127 31.662V28.3766L26.581 28.3766V31.662Z" fill="#F5F5F5"/>
<path d="M110.41 131.818V64.8218H88.3509V131.818H110.41Z" fill="#F0F0F0"/>
<path d="M109.199 86.4143V66.7786H89.5628V86.4143H109.199Z" fill="#F5F5F5"/>
<path d="M109.199 107.813V88.1777H89.5628V107.813H109.199Z" fill="#F5F5F5"/>
<path d="M109.199 129.213V109.577H89.5628V129.213H109.199Z" fill="#F5F5F5"/>
<path d="M103.727 66.5209H95.0182C95.0155 66.7886 95.0663 67.0542 95.1675 67.3021C95.2687 67.55 95.4184 67.7752 95.6078 67.9646C95.7971 68.1539 96.0223 68.3036 96.2702 68.4048C96.5181 68.506 96.7837 68.5568 97.0515 68.5541H101.674C101.942 68.5562 102.208 68.5052 102.457 68.4041C102.706 68.3029 102.932 68.1535 103.123 67.9645C103.314 67.7756 103.466 67.5508 103.569 67.303C103.673 67.0552 103.726 66.7894 103.727 66.5209Z" fill="#E6E6E6"/>
<path d="M103.727 87.92H95.0182C95.0182 88.4597 95.2323 88.9772 95.6135 89.3592C95.9947 89.7411 96.5118 89.9562 97.0514 89.9573H101.673C101.942 89.9589 102.209 89.9074 102.457 89.8058C102.706 89.7042 102.933 89.5544 103.123 89.3651C103.314 89.1758 103.466 88.9508 103.569 88.7028C103.673 88.4548 103.726 88.1888 103.727 87.92Z" fill="#E6E6E6"/>
<path d="M103.727 109.319H95.0182C95.0182 109.859 95.2323 110.377 95.6135 110.758C95.9947 111.14 96.5118 111.356 97.0514 111.357H101.673C101.942 111.358 102.209 111.307 102.457 111.205C102.706 111.103 102.933 110.954 103.123 110.764C103.314 110.575 103.466 110.35 103.569 110.102C103.673 109.854 103.726 109.588 103.727 109.319Z" fill="#E6E6E6"/>
<path d="M121.426 131.818V64.8218H110.406V131.818H121.426Z" fill="#F5F5F5"/>
<path d="M169.298 130.171H175.413V79.7307H169.298V130.171Z" fill="#F0F0F0"/>
<path d="M115.842 131.818H174.568V130.171H115.842V131.818Z" fill="#F0F0F0"/>
<path d="M169.298 79.7307H114.992V130.171H169.298V79.7307Z" fill="#FAFAFA"/>
<path d="M125.617 109.207H158.656C160.216 109.207 161.713 108.587 162.816 107.484C163.919 106.381 164.539 104.884 164.539 103.324C164.539 101.764 163.919 100.268 162.816 99.1649C161.713 98.0618 160.216 97.442 158.656 97.442H125.617C124.057 97.442 122.561 98.0618 121.458 99.1649C120.355 100.268 119.735 101.764 119.735 103.324C119.735 104.884 120.355 106.381 121.458 107.484C122.561 108.587 124.057 109.207 125.617 109.207ZM158.664 97.8366C159.385 97.8366 160.099 97.9785 160.764 98.2543C161.43 98.5301 162.035 98.9343 162.545 99.4439C163.054 99.9535 163.459 100.558 163.734 101.224C164.01 101.89 164.152 102.604 164.152 103.324C164.152 104.045 164.01 104.759 163.734 105.424C163.459 106.09 163.054 106.695 162.545 107.205C162.035 107.714 161.43 108.118 160.764 108.394C160.099 108.67 159.385 108.812 158.664 108.812H125.617C124.162 108.812 122.766 108.234 121.737 107.205C120.708 106.176 120.13 104.78 120.13 103.324C120.13 101.869 120.708 100.473 121.737 99.4439C122.766 98.4148 124.162 97.8366 125.617 97.8366H158.664Z" fill="#F0F0F0"/>
<path d="M125.617 123.842H158.656C160.216 123.842 161.713 123.222 162.816 122.119C163.919 121.016 164.539 119.52 164.539 117.96C164.539 116.399 163.919 114.903 162.816 113.8C161.713 112.697 160.216 112.077 158.656 112.077H125.617C124.057 112.077 122.561 112.697 121.458 113.8C120.355 114.903 119.735 116.399 119.735 117.96C119.735 119.52 120.355 121.016 121.458 122.119C122.561 123.222 124.057 123.842 125.617 123.842ZM158.656 112.472C159.389 112.452 160.119 112.579 160.802 112.846C161.485 113.113 162.107 113.514 162.632 114.025C163.158 114.536 163.575 115.148 163.861 115.823C164.146 116.499 164.293 117.224 164.293 117.958C164.293 118.691 164.146 119.416 163.861 120.092C163.575 120.767 163.158 121.379 162.632 121.89C162.107 122.401 161.485 122.802 160.802 123.069C160.119 123.336 159.389 123.463 158.656 123.443H125.617C124.884 123.463 124.155 123.336 123.472 123.069C122.789 122.802 122.167 122.401 121.641 121.89C121.116 121.379 120.698 120.767 120.413 120.092C120.128 119.416 119.981 118.691 119.981 117.958C119.981 117.224 120.128 116.499 120.413 115.823C120.698 115.148 121.116 114.536 121.641 114.025C122.167 113.514 122.789 113.113 123.472 112.846C124.155 112.579 124.884 112.452 125.617 112.472H158.656Z" fill="#F0F0F0"/>
<path d="M137.16 102.056H147.129C147.455 102.055 147.766 101.925 147.996 101.695C148.227 101.465 148.356 101.153 148.357 100.828C148.356 100.503 148.227 100.191 147.996 99.9608C147.766 99.7308 147.455 99.601 147.129 99.6H137.16C136.835 99.601 136.523 99.7308 136.293 99.9608C136.063 100.191 135.933 100.503 135.932 100.828C135.933 101.153 136.063 101.465 136.293 101.695C136.523 101.925 136.835 102.055 137.16 102.056Z" fill="#EBEBEB"/>
<path d="M125.617 94.5713H158.656C160.216 94.5713 161.713 93.9516 162.816 92.8484C163.919 91.7453 164.539 90.2491 164.539 88.689C164.539 87.129 163.919 85.6328 162.816 84.5296C161.713 83.4265 160.216 82.8068 158.656 82.8068H125.617C124.057 82.8068 122.561 83.4265 121.458 84.5296C120.355 85.6328 119.735 87.129 119.735 88.689C119.735 90.2491 120.355 91.7453 121.458 92.8484C122.561 93.9516 124.057 94.5713 125.617 94.5713ZM158.656 83.2013C160.112 83.2013 161.508 83.7795 162.537 84.8086C163.566 85.8378 164.144 87.2336 164.144 88.689C164.144 90.1445 163.566 91.5403 162.537 92.5694C161.508 93.5986 160.112 94.1767 158.656 94.1767H125.617C124.162 94.1767 122.766 93.5986 121.737 92.5694C120.708 91.5403 120.13 90.1445 120.13 88.689C120.13 87.2336 120.708 85.8378 121.737 84.8086C122.766 83.7795 124.162 83.2013 125.617 83.2013H158.656Z" fill="#F0F0F0"/>
<path d="M137.16 87.4208H147.129C147.455 87.4198 147.766 87.2901 147.996 87.06C148.227 86.8299 148.356 86.5182 148.357 86.1928C148.352 85.8707 148.22 85.5635 147.991 85.3375C147.761 85.1116 147.452 84.9849 147.129 84.985H137.16C136.838 84.9849 136.529 85.1116 136.299 85.3375C136.069 85.5635 135.938 85.8707 135.932 86.1928C135.933 86.5182 136.063 86.8299 136.293 87.06C136.523 87.2901 136.835 87.4198 137.16 87.4208Z" fill="#EBEBEB"/>
<path d="M137.16 116.687H147.129C147.452 116.687 147.761 116.561 147.991 116.335C148.22 116.109 148.352 115.802 148.357 115.479C148.351 115.157 148.219 114.851 147.989 114.625C147.76 114.399 147.451 114.272 147.129 114.271H137.16C136.839 114.272 136.53 114.399 136.3 114.625C136.071 114.851 135.939 115.157 135.932 115.479C135.938 115.802 136.069 116.109 136.299 116.335C136.529 116.561 136.838 116.687 137.16 116.687Z" fill="#EBEBEB"/>
<path d="M113.873 79.7307H169.294V77.166H113.873V79.7307Z" fill="#F0F0F0"/>
<path d="M176.613 77.1702H169.298V79.7349H176.613V77.1702Z" fill="#E6E6E6"/>
<path d="M129.644 36.7954C130.88 37.4154 134.229 36.7471 133.114 39.0138C132.472 40.2012 131.704 41.3162 130.823 42.3395C129.575 43.8815 129.813 45.5604 131.286 46.1563C131.602 46.2647 131.881 46.4601 132.091 46.72C132.772 47.6943 131.169 48.9988 130.38 49.9731C129.591 50.9475 129.277 51.9057 129.857 52.6304C130.501 53.4357 131.838 53.1337 132.901 53.3753C135.453 53.9591 132.828 57.482 133.098 59.2898C133.283 60.5298 134.306 60.8761 135.655 61.0492C136.77 61.1942 138.256 61.2948 138.316 62.4342C138.372 63.4247 137.084 64.544 136.746 65.5827C136.585 66.0297 136.524 66.5063 136.568 66.9792C136.611 67.4522 136.757 67.91 136.995 68.3205C137.222 68.6666 137.518 68.9619 137.864 69.1878C138.211 69.4138 138.6 69.5654 139.008 69.6331C140.273 69.8988 142.185 69.6331 142.278 71.0503C142.318 71.6864 141.875 72.2582 142.181 72.8379C142.351 73.0825 142.571 73.2873 142.828 73.4382C143.084 73.589 143.371 73.6823 143.667 73.7116C144.878 73.8965 146.111 73.8747 147.315 73.6472C148.8 73.3734 150.994 72.0649 150.189 70.8047C150.05 70.624 149.877 70.4726 149.68 70.3592C149.482 70.2459 149.264 70.1729 149.038 70.1444C148.683 70.0719 147.645 70.1847 147.512 69.9431C147.379 69.7015 147.737 68.7715 147.749 68.4373C147.786 67.5092 147.64 66.583 147.319 65.7116C146.908 64.5721 146.254 63.5361 145.402 62.6758C145.048 62.3175 144.488 62.0558 144.416 61.5364C144.343 61.017 144.669 60.4453 145.032 59.9259C145.599 59.1207 146.481 58.3637 146.799 57.5102C147.298 56.1654 146.087 55.7387 144.963 55.4327C143.949 55.1549 142.612 54.8006 142.95 53.5685C143.2 52.6788 144.323 51.9581 144.657 51.0803C145.112 49.9168 144.009 49.8725 143.224 49.4699C142.197 48.9304 141.94 47.9641 142.31 46.7441C142.926 44.731 146.618 41.8845 144.726 40.576C144.247 40.2418 143.8 40.1331 143.518 39.6298C143.236 39.1266 143.163 38.422 142.761 37.9469C142.125 37.1779 140.808 37.0491 140.124 36.3364C138.711 34.8709 141.758 32.274 138.976 31.6539C138.389 31.5783 137.833 31.3461 137.366 30.9816C137.112 30.744 136.903 29.5966 136.617 29.516C135.341 29.1617 133.042 31.6378 132.317 32.3988C131.435 33.3168 128.178 36.0546 129.644 36.7954Z" fill="#E0E0E0"/>
<path d="M151.542 70.9457C150.785 69.5405 147.472 68.1273 149.67 66.5169C150.855 65.71 152.131 65.0439 153.471 64.532C155.395 63.7267 156.08 61.8747 155.105 60.3407C154.881 60.0182 154.743 59.6442 154.703 59.2536C154.622 57.8364 156.736 57.4982 157.952 56.9869C159.168 56.4755 159.965 55.6944 159.832 54.5913C159.695 53.3834 158.358 52.8439 157.549 51.938C155.609 49.7558 159.812 47.7789 160.541 45.7578C161.04 44.3728 160.339 43.3944 159.228 42.3677C158.322 41.5263 157.062 40.5036 157.618 39.2957C158.101 38.2489 159.836 37.9027 160.69 37.0491C161.083 36.6632 161.397 36.2029 161.611 35.6948C161.825 35.1868 161.936 34.6412 161.938 34.0899C161.919 33.1238 161.538 32.2001 160.871 31.501C159.896 30.4421 158.052 29.5362 158.741 28.0184C159.047 27.342 159.743 27.04 159.784 26.2468C159.771 25.9034 159.691 25.5659 159.546 25.254C159.402 24.9422 159.196 24.6624 158.942 24.431C157.999 23.507 156.897 22.7609 155.689 22.2287C154.232 21.5845 151.594 21.5644 151.631 23.356C151.676 23.8835 151.91 24.3769 152.291 24.7451C152.569 25.043 153.543 25.5704 153.531 25.9006C153.519 26.2307 152.726 26.9595 152.512 27.2937C151.979 28.2433 151.615 29.2788 151.437 30.3536C151.188 31.7783 151.211 33.2374 151.506 34.6535C151.623 35.2373 151.981 35.8614 151.763 36.4331C151.546 37.0048 150.958 37.3914 150.366 37.6853C149.436 38.1523 148.249 38.3899 147.512 39.0663C146.348 40.1332 147.19 41.3249 148.019 42.3355C148.768 43.2495 149.754 44.4412 148.792 45.4921C148.096 46.249 146.715 46.2973 145.974 46.9777C144.951 47.8917 145.897 48.6204 146.376 49.5384C146.988 50.7463 146.703 51.8736 145.72 52.8922C144.11 54.5752 139.319 55.1952 140.289 57.7236C140.534 58.3638 140.865 58.7544 140.852 59.4469C140.84 60.1394 140.522 60.8963 140.619 61.6411C140.768 62.8248 141.859 63.775 142.085 64.9305C142.544 67.31 138.461 68.079 140.587 70.4384C141.083 70.9038 141.452 71.4888 141.658 72.1374C141.758 72.5401 141.324 73.8405 141.533 74.1022C142.471 75.2577 145.825 74.1546 146.872 73.8204C148.108 73.3976 152.448 72.6166 151.542 70.9457Z" fill="#F5F5F5"/>
<path d="M160.029 67.777C160.029 67.777 159.627 77.1701 144.255 77.1701C128.883 77.1701 128.48 67.777 128.48 67.777H160.029Z" fill="#F0F0F0"/>
<path d="M100.655 150C143.768 150 178.719 147.96 178.719 145.442C178.719 142.925 143.768 140.885 100.655 140.885C57.5414 140.885 22.591 142.925 22.591 145.442C22.591 147.96 57.5414 150 100.655 150Z" fill="#F5F5F5"/>
<g opacity="0.2">
<path opacity="0.2" d="M145.237 142.072L119.594 94.676L93.9513 142.072H145.237Z" fill="#407BFF"/>
<path opacity="0.2" d="M145.237 61.8907L119.594 109.283L93.9513 61.8907H145.237Z" fill="#407BFF"/>
</g>
<path d="M124.293 89.8728L120.54 96.8059C120.448 96.9766 120.312 97.1193 120.145 97.2187C119.978 97.3181 119.788 97.3706 119.594 97.3706C119.4 97.3706 119.21 97.3181 119.043 97.2187C118.877 97.1193 118.74 96.9766 118.648 96.8059L114.896 89.8728C114.557 89.2461 114.388 88.5423 114.403 87.8303C114.419 87.1184 114.619 86.4226 114.984 85.8113C115.35 85.2 115.867 84.6941 116.487 84.3432C117.107 83.9922 117.807 83.8083 118.519 83.8093H120.689C121.4 83.8117 122.097 83.9982 122.714 84.3506C123.331 84.703 123.846 85.2092 124.209 85.8199C124.572 86.4307 124.771 87.1251 124.785 87.8354C124.8 88.5457 124.63 89.2476 124.293 89.8728Z" fill="#407BFF"/>
<path d="M120.001 130.106L131.657 134.898C131.884 134.994 132.072 135.165 132.188 135.383C132.304 135.6 132.341 135.852 132.294 136.094C132.247 136.336 132.118 136.555 131.928 136.713C131.739 136.871 131.501 136.96 131.254 136.963H107.954C107.708 136.96 107.469 136.871 107.28 136.713C107.091 136.555 106.961 136.336 106.914 136.094C106.867 135.852 106.905 135.6 107.021 135.383C107.137 135.165 107.324 134.994 107.552 134.898L119.175 130.106C119.306 130.052 119.446 130.023 119.588 130.023C119.73 130.023 119.87 130.052 120.001 130.106Z" fill="#407BFF"/>
<path d="M119.594 120.991C120.419 120.991 121.088 120.322 121.088 119.497C121.088 118.672 120.419 118.004 119.594 118.004C118.769 118.004 118.1 118.672 118.1 119.497C118.1 120.322 118.769 120.991 119.594 120.991Z" fill="#407BFF"/>
<path d="M119.594 104.665C120.019 104.665 120.363 104.321 120.363 103.896C120.363 103.471 120.019 103.127 119.594 103.127C119.169 103.127 118.825 103.471 118.825 103.896C118.825 104.321 119.169 104.665 119.594 104.665Z" fill="#407BFF"/>
<path d="M119.594 112.206C120.077 112.206 120.468 111.815 120.468 111.332C120.468 110.85 120.077 110.459 119.594 110.459C119.112 110.459 118.72 110.85 118.72 111.332C118.72 111.815 119.112 112.206 119.594 112.206Z" fill="#407BFF"/>
<path d="M145.108 139.733H94.0801C93.4608 139.735 92.8674 139.983 92.4298 140.421C91.9922 140.859 91.746 141.453 91.7449 142.072C91.7471 142.691 91.9938 143.284 92.4312 143.721C92.8687 144.159 93.4615 144.405 94.0801 144.408H145.108C145.727 144.405 146.32 144.159 146.757 143.721C147.195 143.284 147.441 142.691 147.443 142.072C147.442 141.453 147.196 140.859 146.758 140.421C146.321 139.983 145.728 139.735 145.108 139.733Z" fill="#407BFF"/>
<path d="M145.108 59.5554H94.0801C93.4615 59.5575 92.8687 59.8043 92.4312 60.2417C91.9938 60.6792 91.7471 61.2719 91.7449 61.8906C91.7471 62.5093 91.9938 63.102 92.4312 63.5395C92.8687 63.977 93.4615 64.2237 94.0801 64.2258H145.108C145.727 64.2237 146.32 63.977 146.757 63.5395C147.195 63.102 147.441 62.5093 147.443 61.8906C147.441 61.2719 147.195 60.6792 146.757 60.2417C146.32 59.8043 145.727 59.5575 145.108 59.5554Z" fill="#407BFF"/>
<path d="M78.3619 141.191L75.5234 140.269L77.2869 133.573L80.1254 134.495L78.3619 141.191Z" fill="#FF8B7B"/>
<path d="M75.4791 139.89L78.6679 140.925C78.7217 140.941 78.7673 140.977 78.795 141.026C78.8228 141.075 78.8306 141.132 78.8169 141.187L78.1525 143.764C78.11 143.896 78.0167 144.007 77.893 144.071C77.7693 144.135 77.6252 144.148 77.4922 144.106C76.3891 143.727 75.8818 143.49 74.4766 143.035C73.611 142.753 70.7685 142.02 69.5767 141.634C68.385 141.247 68.7997 140.08 69.3392 140.136C71.7549 140.39 73.9291 140.277 74.9356 139.906C75.11 139.841 75.3012 139.835 75.4791 139.89Z" fill="#263238"/>
<path opacity="0.2" d="M80.1253 134.499L77.2869 133.573L76.377 137.028L79.2194 137.95L80.1253 134.499Z" fill="black"/>
<path d="M87.8838 66.7223C87.8838 66.7223 82.7907 90.2957 81.5949 98.7708C80.2864 108.051 75.3704 135.921 75.3704 135.921L80.6407 137.378C80.6407 137.378 87.9442 110.35 90.0781 101.327C92.3932 91.5317 98.5331 66.7021 98.5331 66.7021L87.8838 66.7223Z" fill="#407BFF"/>
<path opacity="0.3" d="M94.1808 74.4526C92.1677 79.0183 91.1732 88.9469 91.9543 93.5166C93.3796 87.6585 95.0947 80.6932 96.4194 75.3343C95.9725 73.7802 95.2316 72.0691 94.1808 74.4526Z" fill="black"/>
<path d="M80.7736 137.483L75.1289 135.928L75.2416 133.63L81.595 135.824L80.7736 137.483Z" fill="#263238"/>
<path d="M74.3115 140.059C74.5741 140.136 74.844 140.185 75.1168 140.204C75.1302 140.205 75.1437 140.202 75.1555 140.196C75.1674 140.189 75.1772 140.18 75.1839 140.168C75.1906 140.156 75.1939 140.143 75.1934 140.129C75.193 140.116 75.1887 140.103 75.1812 140.092C75.1087 139.999 74.4847 139.19 74.0941 139.214C74.0492 139.216 74.0055 139.23 73.9675 139.254C73.9294 139.278 73.8981 139.311 73.8767 139.351C73.8363 139.409 73.8121 139.477 73.8065 139.548C73.8008 139.618 73.8139 139.689 73.8445 139.753C73.9587 139.908 74.1243 140.016 74.3115 140.059ZM74.9517 140.059C74.4122 139.995 74.0418 139.858 73.9532 139.685C73.9346 139.644 73.9275 139.599 73.9324 139.554C73.9374 139.51 73.9543 139.467 73.9814 139.431C73.9916 139.412 74.0065 139.396 74.0249 139.384C74.0432 139.372 74.0642 139.364 74.0861 139.363C74.2954 139.339 74.69 139.733 74.9517 140.047V140.059Z" fill="#263238"/>
<path d="M75.0886 140.2H75.1208C75.1325 140.198 75.1434 140.192 75.1525 140.185C75.1616 140.177 75.1687 140.167 75.1731 140.156C75.1731 140.124 75.5153 139.327 75.318 138.948C75.2935 138.9 75.2582 138.859 75.2148 138.828C75.1714 138.796 75.1213 138.776 75.0684 138.767C75.0113 138.75 74.95 138.752 74.8945 138.774C74.839 138.796 74.7925 138.836 74.7624 138.888C74.5974 139.178 74.8268 139.906 75.0563 140.168L75.0886 140.2ZM75.0886 138.924C75.1155 138.932 75.1405 138.945 75.162 138.963C75.1835 138.981 75.201 139.003 75.2134 139.029C75.2808 139.353 75.2427 139.69 75.1047 139.991C74.9097 139.69 74.8363 139.326 74.8993 138.972C74.8993 138.936 74.9557 138.896 75.0563 138.916L75.0886 138.924Z" fill="#263238"/>
<path d="M93.3031 44.3407C93.1501 44.7031 93.0213 44.9768 92.8803 45.2828C92.7394 45.5888 92.5864 45.8707 92.4375 46.1605C92.1395 46.7443 91.8255 47.312 91.4994 47.8797C90.8406 49.0197 90.1146 50.1194 89.3252 51.1732C88.5173 52.2628 87.6218 53.2849 86.6478 54.229C85.6101 55.2505 84.4336 56.1207 83.153 56.8139L83.0524 56.8662C82.8895 56.9504 82.7162 57.0126 82.537 57.0514C81.62 57.2421 80.6702 57.2048 79.771 56.9427C79.0239 56.7191 78.3133 56.3882 77.6613 55.9603C76.5676 55.2248 75.5858 54.3353 74.7463 53.3191C73.9665 52.3925 73.2573 51.4087 72.6245 50.376C71.9997 49.3611 71.4442 48.3052 70.9617 47.2154C70.8375 46.9272 70.8213 46.6038 70.9162 46.3046C71.0111 46.0054 71.2107 45.7505 71.4784 45.5866C71.746 45.4226 72.0638 45.3607 72.3734 45.4122C72.6831 45.4636 72.9638 45.625 73.1641 45.8666L73.2043 45.9149C73.8686 46.7202 74.5893 47.5778 75.314 48.3588C76.0202 49.1365 76.7703 49.8732 77.5607 50.5652C78.2592 51.1984 79.0358 51.7396 79.8717 52.1757C80.1842 52.3364 80.5196 52.4477 80.8662 52.5058C81.0603 52.5419 81.2605 52.5252 81.4459 52.4575L80.8299 52.6951C81.662 52.134 82.4208 51.4713 83.0886 50.7222C83.8156 49.9057 84.4881 49.0422 85.1017 48.1374C85.7379 47.2114 86.3418 46.2411 86.9095 45.2426C87.1994 44.7473 87.4772 44.2441 87.7389 43.7327L88.1415 42.9718C88.2663 42.7262 88.4032 42.4444 88.4998 42.2471L88.524 42.1907C88.8175 41.5713 89.3423 41.0918 89.9855 40.8552C90.6288 40.6186 91.3392 40.6438 91.9641 40.9254C92.589 41.207 93.0785 41.7225 93.3274 42.3611C93.5762 42.9998 93.5646 43.7105 93.295 44.3407H93.3031Z" fill="#263238"/>
<path opacity="0.3" d="M86.7203 49.8081C87.9845 46.4503 90.67 46.3939 91.8336 47.2837C91.749 47.4407 91.6604 47.5977 91.5719 47.7547C90.9403 48.8539 90.248 49.9172 89.4984 50.9395C88.7289 51.9913 87.8825 52.9844 86.9659 53.9108C86.676 54.1967 86.3781 54.4785 86.068 54.7523C85.9614 53.0775 86.1829 51.398 86.7203 49.8081Z" fill="black"/>
<path d="M70.8611 47.4246L68.2441 47.5212L68.8963 44.723C69.7973 44.7677 70.6916 44.9026 71.5657 45.1256C71.7248 45.1738 71.8704 45.2588 71.9906 45.3737C72.1108 45.4886 72.2022 45.6302 72.2575 45.7871C72.3128 45.9439 72.3304 46.1115 72.3088 46.2764C72.2872 46.4413 72.2271 46.5988 72.1334 46.7361C71.9918 46.9442 71.8024 47.1154 71.581 47.2352C71.3596 47.3549 71.1128 47.4199 70.8611 47.4246Z" fill="#FF8B7B"/>
<path d="M72.3266 45.0613C72.0697 44.8576 71.7757 44.7058 71.4609 44.6144C71.2435 45.7578 69.8505 47.6864 69.8505 47.6864H70.9416C71.0819 47.6868 71.2207 47.6563 71.348 47.5972C71.4753 47.5381 71.5881 47.4517 71.6784 47.3441L72.4433 46.4262C72.5271 46.3297 72.5907 46.2174 72.6303 46.096C72.6698 45.9745 72.6846 45.8463 72.6737 45.719C72.6629 45.5917 72.6265 45.4679 72.5669 45.3549C72.5072 45.242 72.4255 45.1421 72.3266 45.0613Z" fill="#407BFF"/>
<path d="M66.239 46.233L66.9718 44.2601L68.8883 44.7272L68.236 47.5214L66.239 46.233Z" fill="#FF8B7B"/>
<path d="M99.1452 142.495H96.1617L96.0571 135.582H99.0405L99.1452 142.495Z" fill="#FF8B7B"/>
<path d="M96.0047 142.149H99.3585C99.3865 142.148 99.4145 142.152 99.4408 142.162C99.4671 142.172 99.4912 142.187 99.5118 142.206C99.5324 142.225 99.549 142.248 99.5607 142.273C99.5724 142.299 99.5789 142.326 99.58 142.354L99.741 145.008C99.741 145.147 99.6861 145.281 99.5882 145.381C99.4903 145.48 99.3572 145.537 99.2176 145.539C98.05 145.519 97.4944 145.451 95.9966 145.451C95.0908 145.451 92.059 145.543 90.8069 145.543C89.5547 145.543 89.599 144.303 90.1184 144.19C92.5019 143.691 94.6277 142.983 95.4692 142.334C95.6206 142.212 95.8101 142.146 96.0047 142.149Z" fill="#263238"/>
<path opacity="0.2" d="M99.0445 135.586H96.0571L96.1134 139.149H99.0968L99.0445 135.586Z" fill="black"/>
<path d="M93.7057 66.7222C93.7057 66.7222 92.5663 92.6549 93.0494 101.203C93.5809 110.559 94.6921 138.288 94.6921 138.288H100.16C100.16 138.288 101.537 111.312 101.867 102.052C102.225 91.9866 103.848 66.7222 103.848 66.7222H93.7057Z" fill="#407BFF"/>
<path d="M100.381 138.288H94.4747L94.0238 136.09L100.542 136.416L100.381 138.288Z" fill="#263238"/>
<path d="M94.9458 142.668C95.2171 142.662 95.487 142.627 95.7511 142.564C95.7638 142.559 95.7753 142.552 95.7844 142.542C95.7935 142.532 95.8001 142.52 95.8034 142.507C95.8049 142.495 95.8031 142.481 95.7981 142.47C95.7932 142.458 95.7853 142.447 95.7752 142.439C95.6786 142.37 94.8331 141.795 94.4667 141.94C94.426 141.956 94.39 141.982 94.3619 142.016C94.3338 142.05 94.3144 142.09 94.3056 142.133C94.2873 142.198 94.2858 142.267 94.3012 142.334C94.3167 142.4 94.3487 142.461 94.3942 142.511C94.5526 142.63 94.7489 142.686 94.9458 142.668ZM95.5497 142.463C95.0143 142.568 94.6237 142.552 94.4828 142.415C94.4539 142.381 94.4342 142.34 94.4257 142.296C94.4172 142.253 94.4203 142.207 94.4345 142.165C94.4374 142.144 94.446 142.123 94.4595 142.106C94.4729 142.089 94.4907 142.076 94.511 142.069C94.7083 141.992 95.2035 142.242 95.5497 142.463Z" fill="#263238"/>
<path d="M95.7269 142.564C95.7374 142.567 95.7487 142.567 95.7591 142.564C95.7693 142.558 95.7779 142.55 95.7842 142.54C95.7905 142.53 95.7943 142.519 95.7954 142.507C95.7954 142.471 95.8638 141.613 95.5619 141.324C95.5235 141.286 95.4771 141.258 95.4262 141.241C95.3752 141.224 95.3211 141.219 95.2679 141.227C95.209 141.229 95.1525 141.251 95.1073 141.289C95.0621 141.327 95.0308 141.379 95.0183 141.436C94.9459 141.762 95.3928 142.386 95.6907 142.564C95.7025 142.567 95.7151 142.567 95.7269 142.564ZM95.3243 141.356C95.352 141.355 95.3795 141.36 95.4051 141.37C95.4307 141.381 95.4539 141.396 95.4733 141.416C95.6396 141.703 95.7088 142.037 95.6706 142.366C95.4129 142.145 95.115 141.67 95.1592 141.456C95.1592 141.416 95.1914 141.368 95.2921 141.356H95.3243Z" fill="#263238"/>
<path d="M105.341 42.6536C105.386 42.4019 105.38 42.1437 105.322 41.8946C105.265 41.6455 105.158 41.4106 105.007 41.2038C104.857 40.9971 104.666 40.8228 104.447 40.6914C104.228 40.56 103.984 40.4742 103.731 40.4392H103.699C102.737 40.2983 101.529 40.1533 100.345 40.0969C98.0854 39.968 95.8204 39.968 93.5608 40.0969C92.518 40.1936 91.4994 40.3667 90.6861 40.5237H90.6539C90.1454 40.6264 89.6746 40.8659 89.2922 41.2164C88.9098 41.5669 88.6303 42.0151 88.4838 42.5127C87.5094 45.794 86.3459 52.4936 87.8678 66.7182H103.832C103.944 65.2929 103.626 60.6547 103.86 54.7483C104.093 50.689 104.588 46.6491 105.341 42.6536Z" fill="#263238"/>
<path opacity="0.3" d="M105.188 43.5314C104.858 45.4398 104.452 48.0367 104.17 50.7786C104.17 50.7786 102.712 47.92 102.447 45.4761C102.181 43.0322 104.279 42.847 105.188 43.5314Z" fill="black"/>
<g opacity="0.2">
<path opacity="0.2" d="M94.4828 43.9098C94.4497 43.9082 94.4179 43.896 94.3924 43.8748C94.3668 43.8537 94.3488 43.8248 94.3411 43.7926C94.3334 43.7603 94.3364 43.7264 94.3496 43.696C94.3628 43.6656 94.3855 43.6403 94.4143 43.6239L99.3907 41.0431C99.4261 41.0259 99.4668 41.023 99.5043 41.035C99.5418 41.047 99.5732 41.073 99.592 41.1076C99.6105 41.1434 99.6141 41.185 99.602 41.2235C99.59 41.2619 99.5632 41.294 99.5276 41.3129L94.5512 43.8856C94.5302 43.898 94.5069 43.9062 94.4828 43.9098Z" fill="white"/>
<path opacity="0.2" d="M96.7616 44.1433C96.742 44.1442 96.7224 44.1406 96.7043 44.133C96.6862 44.1253 96.67 44.1137 96.657 44.099L93.9272 41.3894C93.9003 41.3604 93.8854 41.3223 93.8854 41.2827C93.8854 41.2432 93.9003 41.2051 93.9272 41.176C93.9558 41.1482 93.994 41.1327 94.0339 41.1327C94.0737 41.1327 94.112 41.1482 94.1406 41.176L96.8663 43.8897C96.8941 43.9182 96.9097 43.9565 96.9097 43.9964C96.9097 44.0362 96.8941 44.0745 96.8663 44.1031C96.8524 44.1164 96.836 44.1268 96.818 44.1337C96.8001 44.1407 96.7809 44.1439 96.7616 44.1433Z" fill="white"/>
<path opacity="0.2" d="M100.357 40.0929C98.0988 39.964 95.8351 39.964 93.5769 40.0929H93.4642C93.4094 40.3001 93.3964 40.5161 93.4262 40.7284C93.4559 40.9406 93.5277 41.1448 93.6373 41.329C94.0158 41.9329 94.8089 42.2711 96.0007 42.3355H96.4476C99.6686 42.3355 100.913 40.3788 100.965 40.2942L101.078 40.113L100.357 40.0929Z" fill="white"/>
</g>
<path d="M93.899 40.0689C95.8718 39.6018 96.2181 38.3819 96.0852 37.0412C96.0539 36.7054 96.0015 36.3719 95.9282 36.0427L98.4003 33.9893L100.216 32.4835C99.7128 34.6697 99.1451 38.6517 100.619 40.1091C100.619 40.1091 99.4109 42.1222 96.0168 41.9451C93.1703 41.7881 93.899 40.0689 93.899 40.0689Z" fill="#FF8B7B"/>
<path opacity="0.2" d="M95.9282 36.0426C96.0014 36.3718 96.0539 36.7053 96.0852 37.0411C97.0072 36.8559 98.2392 35.8735 98.368 34.9314C98.4133 34.6195 98.4241 34.3035 98.4002 33.9893L95.9282 36.0426Z" fill="black"/>
<path d="M94.6157 25.5665C93.2749 26.3718 93.4883 28.3849 93.126 29.8262C93.9795 29.9108 95.3243 28.3929 95.3243 28.3929L96.1295 26.0859L94.6157 25.5665Z" fill="#263238"/>
<path d="M101.746 29.6168C100.888 32.4593 100.538 34.1624 98.7184 35.3501C98.1331 35.7415 97.452 35.9654 96.7487 35.9976C96.0453 36.0298 95.3466 35.8691 94.728 35.5329C94.1095 35.1966 93.5946 34.6977 93.2391 34.0899C92.8837 33.4822 92.7011 32.7888 92.7113 32.0849C92.7113 29.3752 94.1043 25.1799 97.2126 24.6002C97.8825 24.457 98.5783 24.4926 99.2302 24.7033C99.882 24.9141 100.467 25.2926 100.926 25.8008C101.386 26.3091 101.703 26.9293 101.847 27.5991C101.991 28.2689 101.956 28.9647 101.746 29.6168Z" fill="#FF8B7B"/>
<path d="M99.0686 32.0285C101.082 29.6933 98.5653 28.5418 100.623 26.9192C98.3077 27.0279 94.4949 26.8629 93.8144 25.2765C93.134 23.6902 95.2276 21.5402 96.971 21.3389C98.9841 21.1054 98.5492 23.5976 98.5492 23.5976C98.5492 23.5976 106.251 23.1185 103.807 26.416C105.66 26.3032 105.148 29.2987 101.927 31.8272C101.118 32.0969 99.0686 32.0285 99.0686 32.0285Z" fill="#263238"/>
<path d="M103.344 26.4562C103.344 26.4562 104.931 25.9852 104.878 24.729C105.45 25.1236 105.511 26.3234 103.344 26.4562Z" fill="#263238"/>
<path d="M102.217 32.5841C101.754 33.1565 101.106 33.5506 100.385 33.6993C99.4713 33.8644 99.2579 33.0189 99.7128 32.1936C100.115 31.4527 101.094 30.4744 101.915 30.6797C102.737 30.885 102.801 31.8634 102.217 32.5841Z" fill="#FF8B7B"/>
<path d="M97.1602 29.5443C97.1038 29.7779 96.9347 29.9469 96.7777 29.9107C96.6207 29.8745 96.5442 29.6651 96.6006 29.4316C96.6569 29.1981 96.826 29.029 96.979 29.0612C97.132 29.0934 97.2166 29.3068 97.1602 29.5443Z" fill="#263238"/>
<path d="M94.4909 29.0088C94.4345 29.2423 94.2654 29.4114 94.1124 29.3792C93.9594 29.347 93.8749 29.1336 93.9312 28.9001C93.9876 28.6666 94.1567 28.4975 94.3097 28.5297C94.4627 28.5619 94.5472 28.7753 94.4909 29.0088Z" fill="#263238"/>
<path d="M95.3122 29.2947C94.8577 29.9575 94.316 30.5561 93.7017 31.0743C93.8386 31.2218 94.0061 31.3376 94.1925 31.4134C94.379 31.4892 94.5797 31.5233 94.7807 31.5131L95.3122 29.2947Z" fill="#FF5652"/>
<path d="M95.6021 32.3345C95.8808 32.3606 96.1619 32.3299 96.4284 32.2441C96.6949 32.1582 96.9411 32.0191 97.1522 31.8352C97.159 31.8292 97.1645 31.8217 97.1683 31.8134C97.172 31.8051 97.174 31.796 97.174 31.7869C97.174 31.7778 97.172 31.7687 97.1683 31.7604C97.1645 31.7521 97.159 31.7446 97.1522 31.7386C97.1386 31.7255 97.1206 31.7183 97.1018 31.7183C97.0831 31.7183 97.065 31.7255 97.0515 31.7386C96.8201 31.9353 96.5463 32.0759 96.2515 32.1492C95.9568 32.2226 95.6491 32.2267 95.3524 32.1613C95.3434 32.1596 95.3342 32.1597 95.3252 32.1616C95.3162 32.1635 95.3078 32.1672 95.3002 32.1725C95.2927 32.1777 95.2864 32.1844 95.2815 32.1922C95.2766 32.2 95.2734 32.2087 95.2719 32.2177C95.2684 32.2364 95.2723 32.2557 95.2828 32.2715C95.2933 32.2873 95.3097 32.2984 95.3283 32.3022L95.6021 32.3345Z" fill="#263238"/>
<path d="M98.1909 28.8921C98.2131 28.8994 98.2371 28.8994 98.2594 28.8921C98.2763 28.8847 98.2915 28.874 98.3042 28.8606C98.3168 28.8472 98.3266 28.8313 98.333 28.8141C98.3394 28.7968 98.3423 28.7783 98.3414 28.7599C98.3405 28.7415 98.3358 28.7235 98.3278 28.7069C98.2414 28.501 98.1053 28.3197 97.9318 28.1792C97.7583 28.0387 97.5527 27.9434 97.3333 27.9016C97.2961 27.897 97.2585 27.907 97.2284 27.9295C97.1984 27.952 97.1783 27.9853 97.1723 28.0224C97.17 28.0409 97.1715 28.0597 97.1766 28.0777C97.1817 28.0956 97.1903 28.1124 97.2019 28.127C97.2135 28.1416 97.2279 28.1538 97.2442 28.1628C97.2606 28.1718 97.2785 28.1774 97.2971 28.1794C97.4676 28.2154 97.6269 28.2921 97.7615 28.4028C97.8961 28.5136 98.002 28.6552 98.0701 28.8156C98.0819 28.8377 98.0993 28.8563 98.1204 28.8698C98.1416 28.8832 98.1659 28.8909 98.1909 28.8921Z" fill="#263238"/>
<path d="M93.8305 27.4064C93.8522 27.4143 93.8756 27.4162 93.8983 27.4119C93.9209 27.4077 93.942 27.3974 93.9594 27.3822C94.0984 27.2665 94.2625 27.1848 94.4386 27.1435C94.6147 27.1023 94.798 27.1027 94.974 27.1447C94.9917 27.1505 95.0104 27.1528 95.029 27.1514C95.0476 27.15 95.0657 27.1449 95.0823 27.1365C95.099 27.1281 95.1138 27.1165 95.1259 27.1023C95.1381 27.0882 95.1473 27.0718 95.1531 27.0541C95.159 27.0364 95.1612 27.0177 95.1598 26.9991C95.1584 26.9805 95.1534 26.9624 95.145 26.9458C95.1365 26.9291 95.1249 26.9143 95.1108 26.9021C95.0967 26.89 95.0803 26.8807 95.0626 26.8749C94.8422 26.8205 94.6122 26.818 94.3907 26.8676C94.1693 26.9172 93.9623 27.0176 93.7863 27.1608C93.757 27.1838 93.738 27.2175 93.7335 27.2544C93.7289 27.2914 93.7392 27.3287 93.7621 27.3581C93.7784 27.3818 93.8027 27.399 93.8305 27.4064Z" fill="#263238"/>
<path d="M105.486 41.5062L105.821 41.9612L106.122 42.388C106.324 42.6738 106.505 42.9597 106.694 43.2455C107.061 43.8213 107.407 44.4051 107.741 44.9929C108.411 46.168 109.018 47.3775 109.561 48.6165C109.843 49.2285 110.084 49.8646 110.342 50.4887C110.6 51.1127 110.817 51.7609 111.014 52.4132C111.439 53.7114 111.788 55.0328 112.061 56.3709L112.093 56.5239C112.152 56.7942 112.158 57.0734 112.109 57.3456C112.059 57.6178 111.957 57.8777 111.807 58.1103C111.289 58.9065 110.673 59.6354 109.976 60.2804C109.258 60.9381 108.443 61.4813 107.56 61.8909C106.688 62.2972 105.755 62.5557 104.798 62.6558C104.33 62.7041 103.858 62.7122 103.389 62.68C103.155 62.68 102.922 62.6357 102.688 62.5995L102.334 62.531L101.931 62.4304C101.884 62.4189 101.843 62.3892 101.817 62.3478C101.792 62.3063 101.783 62.2564 101.794 62.2089L102.35 59.8737C102.35 59.8536 102.455 59.8496 102.519 59.8335L102.74 59.7892C102.893 59.757 103.042 59.7207 103.195 59.6805C103.494 59.5997 103.786 59.4974 104.069 59.3745C104.618 59.1492 105.132 58.8469 105.595 58.4766C106.502 57.7305 107.226 56.7872 107.713 55.7187L107.459 57.458C107.113 56.3186 106.747 55.1913 106.304 54.076C105.861 52.9607 105.378 51.8656 104.85 50.7866C104.323 49.7076 103.759 48.6406 103.151 47.6019C102.853 47.0825 102.539 46.5712 102.225 46.0639L101.746 45.315L101.508 44.9526L101.287 44.6306L101.207 44.5098C100.808 43.9422 100.652 43.2397 100.771 42.5567C100.891 41.8738 101.277 41.2664 101.845 40.8681C102.412 40.4698 103.115 40.3132 103.798 40.4329C104.481 40.5526 105.088 40.9387 105.486 41.5062Z" fill="#263238"/>
<path d="M100.164 62.1968L99.2982 63.614L103.055 63.465C103.055 63.465 104.041 60.9366 102.696 60.538L102.173 60.6789C101.336 60.9133 100.618 61.4555 100.164 62.1968Z" fill="#FF8B7B"/>
<path d="M101.71 60.2119C101.439 60.3948 101.207 60.6287 101.025 60.9003C102.048 61.456 103.473 63.3483 103.473 63.3483L103.803 62.3095C103.845 62.1755 103.857 62.0339 103.839 61.8948C103.82 61.7557 103.771 61.6223 103.695 61.5043L103.071 60.4977C103.002 60.3869 102.912 60.2912 102.806 60.2163C102.7 60.1415 102.579 60.0891 102.452 60.0623C102.324 60.0356 102.193 60.0351 102.065 60.0608C101.938 60.0865 101.817 60.1379 101.71 60.2119Z" fill="#407BFF"/>
<path d="M99.6283 65.7963L102.724 65.5225L103.055 63.4651L99.2982 63.6141L99.6283 65.7963Z" fill="#FF8B7B"/>
<path d="M61.6249 16.6444L61.4196 16.2981C62.01 15.9482 62.6249 15.6414 63.2595 15.3801L63.4125 15.7546C62.7954 16.0064 62.1979 16.3038 61.6249 16.6444Z" fill="#407BFF"/>
<path d="M55.7467 23.7546L55.3441 23.6177C56.2985 20.9749 58.0253 18.68 60.3003 17.0309L60.5378 17.357C58.3346 18.9601 56.6651 21.1894 55.7467 23.7546Z" fill="#407BFF"/>
<path d="M68.5258 40.7331C75.3701 40.7331 80.9184 35.1848 80.9184 28.3405C80.9184 21.4962 75.3701 15.9479 68.5258 15.9479C61.6816 15.9479 56.1332 21.4962 56.1332 28.3405C56.1332 35.1848 61.6816 40.7331 68.5258 40.7331Z" fill="#407BFF"/>
<path opacity="0.6" d="M78.8772 28.3405C78.8764 30.7554 78.0313 33.0941 76.4881 34.9517C74.9449 36.8093 72.8008 38.0689 70.4269 38.5124C68.053 38.9559 65.5987 38.5554 63.4889 37.3803C61.3791 36.2052 59.7466 34.3294 58.874 32.0776C58.0013 29.8258 57.9434 27.3398 58.7103 25.0498C59.4773 22.7599 61.0207 20.8101 63.0735 19.5381C65.1263 18.2661 67.5593 17.7518 69.9512 18.0843C72.3432 18.4169 74.5436 19.5753 76.1716 21.3591C76.1748 21.3576 76.1782 21.3569 76.1817 21.3569C76.1851 21.3569 76.1886 21.3576 76.1917 21.3591C77.9275 23.2691 78.8855 25.7596 78.8772 28.3405Z" fill="white"/>
<path d="M78.8772 28.3405C78.8772 30.3526 78.2907 32.3211 77.1896 34.0051C76.0884 35.6892 74.5203 37.0159 72.6771 37.8228C70.8338 38.6297 68.7954 38.8819 66.8111 38.5486C64.8267 38.2153 62.9826 37.3108 61.5042 35.946C59.6966 33.9762 58.7212 31.3835 58.7822 28.7108C58.8432 26.0381 59.9359 23.4926 61.8315 21.6074C63.7271 19.7222 66.2785 18.6436 68.9516 18.5973C71.6246 18.551 74.2119 19.5406 76.1716 21.359C76.1748 21.3576 76.1782 21.3568 76.1817 21.3568C76.1851 21.3568 76.1886 21.3576 76.1917 21.359C77.9275 23.2691 78.8855 25.7596 78.8772 28.3405Z" fill="white"/>
<path d="M68.5258 28.9444C68.4465 28.9445 68.3679 28.929 68.2947 28.8985C68.2214 28.8681 68.1549 28.8235 68.099 28.7672L63.0502 23.7184C62.9909 23.6631 62.9433 23.5964 62.9103 23.5223C62.8772 23.4482 62.8595 23.3683 62.8581 23.2872C62.8566 23.2061 62.8715 23.1256 62.9019 23.0504C62.9323 22.9752 62.9775 22.9068 63.0349 22.8495C63.0922 22.7921 63.1605 22.7469 63.2357 22.7166C63.3109 22.6862 63.3915 22.6713 63.4726 22.6727C63.5536 22.6741 63.6336 22.6919 63.7077 22.7249C63.7818 22.7579 63.8485 22.8055 63.9037 22.8648L68.5258 27.4869L71.1952 24.8175C71.3097 24.7109 71.4611 24.6528 71.6175 24.6555C71.774 24.6583 71.9233 24.7217 72.0339 24.8323C72.1446 24.943 72.208 25.0923 72.2107 25.2487C72.2135 25.4052 72.1554 25.5566 72.0487 25.6711L68.9526 28.7672C68.8392 28.8801 68.6858 28.9438 68.5258 28.9444Z" fill="#263238"/>
</svg>
