<svg width="18" height="18" viewBox="0 0 18 18" fill="none" xmlns="http://www.w3.org/2000/svg">
<path d="M9 18C13.9706 18 18 13.9706 18 9C18 4.02944 13.9706 0 9 0C4.02944 0 0 4.02944 0 9C0 13.9706 4.02944 18 9 18Z" fill="#00B2FF"/>
<path d="M9.00008 17.0292C13.4344 17.0292 17.0292 13.4344 17.0292 9.00006C17.0292 4.5657 13.4344 0.970947 9.00008 0.970947C4.56571 0.970947 0.970947 4.5657 0.970947 9.00006C0.970947 13.4344 4.56571 17.0292 9.00008 17.0292Z" fill="#00B2FF"/>
<path d="M9.18738 3.99902V13.8282" stroke="white" stroke-width="2"/>
<path d="M4.2738 8.9126H14.101" stroke="white" stroke-width="2"/>
</svg>
