<svg width="60" height="54" viewBox="0 0 60 54" fill="none" xmlns="http://www.w3.org/2000/svg">
<path d="M6.75428 48.8342H2.03174V48.871H6.75428V48.8342Z" fill="#EBEBEB"/>
<path d="M26.6344 48.8531H18.9546V48.89H26.6344V48.8531Z" fill="#EBEBEB"/>
<path d="M12.3696 49.582H9.6333V49.6188H12.3696V49.582Z" fill="#EBEBEB"/>
<path d="M58.1463 49.5648H55.4043V49.6016H58.1463V49.5648Z" fill="#EBEBEB"/>
<path d="M54.134 49.5648H49.8149V49.6016H54.134V49.5648Z" fill="#EBEBEB"/>
<path d="M47.4368 49.3256H41.3682V49.3624H47.4368V49.3256Z" fill="#EBEBEB"/>
<path d="M28.3453 40.9899H0.812757C0.59707 40.9895 0.390345 40.9022 0.237964 40.747C0.0855838 40.5918 -3.30767e-07 40.3815 0 40.1623V0.820378C0.0018776 0.602387 0.0882902 0.393952 0.240468 0.240347C0.392646 0.0867424 0.598299 0.00037343 0.812757 0H28.3453C28.5612 0 28.7683 0.087196 28.921 0.242406C29.0737 0.397616 29.1594 0.608125 29.1594 0.827625V40.1623C29.1594 40.3818 29.0737 40.5923 28.921 40.7475C28.7683 40.9027 28.5612 40.9899 28.3453 40.9899ZM0.812757 0.0289887C0.606524 0.0293727 0.408866 0.11292 0.263171 0.261293C0.117475 0.409665 0.0356469 0.610739 0.0356472 0.820378V40.1623C0.0356469 40.3719 0.117475 40.573 0.263171 40.7214C0.408866 40.8697 0.606524 40.9533 0.812757 40.9537H28.3453C28.5516 40.9533 28.7494 40.8698 28.8953 40.7215C29.0413 40.5731 29.1234 40.3721 29.1238 40.1623V0.820378C29.1234 0.610606 29.0413 0.409536 28.8953 0.261204C28.7494 0.112873 28.5516 0.0293719 28.3453 0.0289887H0.812757Z" fill="#EBEBEB"/>
<path d="M59.1884 40.9899H31.6545C31.4387 40.9895 31.2318 40.9022 31.0792 40.7471C30.9266 40.5919 30.8407 40.3817 30.8403 40.1623V0.820378C30.8426 0.602255 30.9293 0.393822 31.0817 0.240257C31.2341 0.0866917 31.4399 0.000369357 31.6545 0H59.1884C59.4026 0.000754356 59.6079 0.0872919 59.7598 0.240856C59.9117 0.39442 59.9979 0.602637 59.9998 0.820378V40.1623C59.9998 40.3813 59.9144 40.5914 59.7623 40.7465C59.6102 40.9016 59.4039 40.9891 59.1884 40.9899ZM31.6545 0.0289887C31.4481 0.0293719 31.2503 0.112873 31.1044 0.261204C30.9585 0.409536 30.8764 0.610606 30.876 0.820378V40.1623C30.8764 40.3721 30.9585 40.5731 31.1044 40.7215C31.2503 40.8698 31.4481 40.9533 31.6545 40.9537H59.1884C59.3948 40.9533 59.5926 40.8698 59.7385 40.7215C59.8844 40.5731 59.9666 40.3721 59.967 40.1623V0.820378C59.9666 0.610606 59.8844 0.409536 59.7385 0.261204C59.5926 0.112873 59.3948 0.0293719 59.1884 0.0289887H31.6545Z" fill="#EBEBEB"/>
<path d="M54.4218 5.22083H37.8672V25.3128H54.4218V5.22083Z" fill="#E6E6E6"/>
<path d="M54.8353 5.22083H38.2808V25.3128H54.8353V5.22083Z" fill="#F5F5F5"/>
<path d="M54.0938 24.4649V6.06726L39.0235 6.06726V24.4649H54.0938Z" fill="white"/>
<path d="M54.0923 24.4649V6.06726H53.78V24.4649H54.0923Z" fill="#E6E6E6"/>
<path d="M54.5274 20.1066H38.5874V21.2444H54.5274V20.1066Z" fill="#F5F5F5"/>
<path d="M55.6439 3.81921H37.0589C37.0286 3.81921 36.9996 3.83143 36.9782 3.85318C36.9568 3.87492 36.9448 3.90442 36.9448 3.93517C36.9448 3.96592 36.9568 3.99541 36.9782 4.01716C36.9996 4.03891 37.0286 4.05112 37.0589 4.05112H55.6439C55.6742 4.05112 55.7032 4.03891 55.7246 4.01716C55.746 3.99541 55.758 3.96592 55.758 3.93517C55.758 3.90442 55.746 3.87492 55.7246 3.85318C55.7032 3.83143 55.6742 3.81921 55.6439 3.81921Z" fill="#E6E6E6"/>
<path d="M55.7579 4.51501C56.0729 4.51501 56.3282 4.25544 56.3282 3.93524C56.3282 3.61504 56.0729 3.35547 55.7579 3.35547C55.4429 3.35547 55.1875 3.61504 55.1875 3.93524C55.1875 4.25544 55.4429 4.51501 55.7579 4.51501Z" fill="#E6E6E6"/>
<path d="M38.0212 4.58452C37.9803 4.58452 37.9412 4.56803 37.9123 4.53868C37.8834 4.50932 37.8672 4.4695 37.8672 4.42799V4.09172C37.8676 4.05032 37.8839 4.01072 37.9127 3.98145C37.9415 3.95217 37.9805 3.93556 38.0212 3.93518C38.062 3.93518 38.1012 3.95167 38.1301 3.98103C38.159 4.01039 38.1752 4.0502 38.1752 4.09172V4.42799C38.1752 4.4695 38.159 4.50932 38.1301 4.53868C38.1012 4.56803 38.062 4.58452 38.0212 4.58452Z" fill="#E6E6E6"/>
<path d="M53.9216 4.58452C53.8807 4.58452 53.8416 4.56803 53.8127 4.53868C53.7838 4.50932 53.7676 4.4695 53.7676 4.42799V4.09172C53.768 4.05032 53.7843 4.01072 53.8131 3.98145C53.8419 3.95217 53.8808 3.93556 53.9216 3.93518C53.9624 3.93518 54.0016 3.95167 54.0305 3.98103C54.0593 4.01039 54.0756 4.0502 54.0756 4.09172V4.42799C54.0756 4.4695 54.0593 4.50932 54.0305 4.53868C54.0016 4.56803 53.9624 4.58452 53.9216 4.58452Z" fill="#E6E6E6"/>
<path opacity="0.5" d="M55.6068 3.93518H38.5874V12.3738H55.6068V3.93518Z" fill="#E0E0E0"/>
<path d="M39.858 4.51501C40.173 4.51501 40.4283 4.25544 40.4283 3.93524C40.4283 3.61504 40.173 3.35547 39.858 3.35547C39.543 3.35547 39.2876 3.61504 39.2876 3.93524C39.2876 4.25544 39.543 4.51501 39.858 4.51501Z" fill="#E6E6E6"/>
<path d="M7.34333 27.4711H1.30469L1.8394 20.2863H6.80862L7.34333 27.4711Z" fill="#EBEBEB"/>
<path d="M6.01883 27.4711H4.98078L4.75977 20.2863H5.71796L6.01883 27.4711Z" fill="#F5F5F5"/>
<path d="M4.62704 27.4711H4.02246V47.4544H4.62704V27.4711Z" fill="#F0F0F0"/>
<path d="M4.55272 30.4148H4.09644C3.87436 30.4148 3.69434 30.5978 3.69434 30.8235V32.3324C3.69434 32.5581 3.87436 32.7411 4.09644 32.7411H4.55272C4.77479 32.7411 4.95482 32.5581 4.95482 32.3324V30.8235C4.95482 30.5978 4.77479 30.4148 4.55272 30.4148Z" fill="#F0F0F0"/>
<path d="M4.55272 34.1428H4.09644C3.87436 34.1428 3.69434 34.3258 3.69434 34.5516V36.0604C3.69434 36.2862 3.87436 36.4692 4.09644 36.4692H4.55272C4.77479 36.4692 4.95482 36.2862 4.95482 36.0604V34.5516C4.95482 34.3258 4.77479 34.1428 4.55272 34.1428Z" fill="#F0F0F0"/>
<path d="M5.28028 47.4543H3.36816C3.36816 47.3444 3.41113 47.239 3.48761 47.1612C3.56409 47.0835 3.66781 47.0398 3.77597 47.0398H4.87248C4.98063 47.0398 5.08436 47.0835 5.16084 47.1612C5.23732 47.239 5.28028 47.3444 5.28028 47.4543Z" fill="#F0F0F0"/>
<path d="M4.62704 27.4711H4.02246V27.8465H4.62704V27.4711Z" fill="#E0E0E0"/>
<path d="M8.28453 21.5095L24.9731 21.5095L24.9731 4.499L8.28453 4.499L8.28453 21.5095Z" fill="#F0F0F0"/>
<path d="M8.28461 4.49902H7.99658V21.5095H8.28461V4.49902Z" fill="#E0E0E0"/>
<path d="M9.7587 20.4341H23.5L23.5 5.57307L9.7587 5.57307L9.7587 20.4341Z" fill="#FAFAFA"/>
<path d="M15.839 17.1409H17.4218C19.0976 17.1409 20.4561 15.7599 20.4561 14.0565V11.9505C20.4561 10.247 19.0976 8.86607 17.4218 8.86607H15.839C14.1632 8.86607 12.8047 10.247 12.8047 11.9505V14.0565C12.8047 15.7599 14.1632 17.1409 15.839 17.1409Z" fill="#F5F5F5"/>
<path d="M52.6595 27.8928H46.3071V47.4529H52.6595V27.8928Z" fill="#E6E6E6"/>
<path d="M49.5582 47.4543H52.6595V44.754H46.3071L49.5582 47.4543Z" fill="#FAFAFA"/>
<path d="M27.326 27.8928H20.9736V47.4529H27.326V27.8928Z" fill="#E6E6E6"/>
<path d="M52.6578 27.8928H24.6191V46.5238H52.6578V27.8928Z" fill="#FAFAFA"/>
<path d="M27.721 47.4543H24.6211V44.754H30.9734L27.721 47.4543Z" fill="#FAFAFA"/>
<path d="M50.2541 34.8357H27.0264V39.4985H50.2541V34.8357Z" fill="#F0F0F0"/>
<path d="M50.2541 40.4956H27.0264V45.1584H50.2541V40.4956Z" fill="#F0F0F0"/>
<path d="M44.7216 35.3342H32.5573C32.3221 35.3342 32.0965 35.2392 31.9302 35.0701C31.7638 34.901 31.6704 34.6717 31.6704 34.4326H45.6085C45.6087 34.5511 45.5859 34.6684 45.5413 34.7778C45.4968 34.8873 45.4315 34.9868 45.3491 35.0705C45.2667 35.1543 45.1689 35.2207 45.0612 35.2659C44.9535 35.3112 44.8381 35.3344 44.7216 35.3342Z" fill="#FAFAFA"/>
<path d="M50.2541 29.177H27.0264V33.8398H50.2541V29.177Z" fill="#F0F0F0"/>
<path d="M44.7216 29.6756H32.5573C32.322 29.6752 32.0964 29.5799 31.9301 29.4106C31.7638 29.2413 31.6704 29.0118 31.6704 28.7726H45.6085C45.6087 28.8911 45.5859 29.0085 45.5414 29.118C45.4969 29.2276 45.4316 29.3271 45.3492 29.411C45.2668 29.4949 45.169 29.5614 45.0613 29.6068C44.9536 29.6522 44.8382 29.6756 44.7216 29.6756Z" fill="#FAFAFA"/>
<path d="M44.7216 40.9943H32.5573C32.322 40.9939 32.0964 40.8986 31.9301 40.7293C31.7638 40.56 31.6704 40.3305 31.6704 40.0913H45.6085C45.6087 40.2098 45.5859 40.3272 45.5414 40.4368C45.4969 40.5463 45.4316 40.6459 45.3492 40.7297C45.2668 40.8136 45.169 40.8801 45.0613 40.9255C44.9536 40.9709 44.8382 40.9943 44.7216 40.9943Z" fill="#FAFAFA"/>
<path d="M30.1988 54C45.4676 54 57.8454 53.2654 57.8454 52.3593C57.8454 51.4531 45.4676 50.7185 30.1988 50.7185C14.93 50.7185 2.55225 51.4531 2.55225 52.3593C2.55225 53.2654 14.93 54 30.1988 54Z" fill="#F5F5F5"/>
<path d="M5.3244 23.5516H26.6044C25.9728 23.5437 25.3672 23.2945 24.9081 22.8536C24.4489 22.4126 24.1698 21.8122 24.1262 21.1717L23.7497 14.7246H2.47119L2.8462 21.1717C2.88984 21.8122 3.16896 22.4126 3.62811 22.8536C4.08725 23.2945 4.6928 23.5437 5.3244 23.5516Z" fill="#005ABB"/>
<path opacity="0.6" d="M5.3244 23.5516H26.6044C25.9728 23.5437 25.3672 23.2945 24.9081 22.8536C24.4489 22.4126 24.1698 21.8122 24.1262 21.1717L23.7497 14.7246H2.47119L2.8462 21.1717C2.88984 21.8122 3.16896 22.4126 3.62811 22.8536C4.08725 23.2945 4.6928 23.5437 5.3244 23.5516Z" fill="white"/>
<path d="M28.1813 10.436H9.23832C8.93634 10.4324 8.6369 10.4925 8.35897 10.6126C8.08104 10.7328 7.83068 10.9102 7.62373 11.1338C7.41677 11.3574 7.25774 11.6222 7.15671 11.9115C7.05567 12.2008 7.01482 12.5083 7.03675 12.8145L7.52726 21.1734C7.54963 21.4797 7.50908 21.7873 7.40821 22.0768C7.30733 22.3663 7.14832 22.6313 6.94128 22.855C6.73424 23.0787 6.48369 23.2561 6.20556 23.3761C5.92743 23.4961 5.62779 23.556 5.32568 23.5519H26.6042C26.9063 23.556 27.206 23.4961 27.4841 23.3761C27.7622 23.2561 28.0128 23.0787 28.2198 22.855C28.4269 22.6313 28.5859 22.3663 28.6868 22.0768C28.7876 21.7873 28.8282 21.4797 28.8058 21.1734L28.8586 22.0778L28.3196 12.8203C28.2964 12.5136 28.3363 12.2053 28.4368 11.9151C28.5373 11.6249 28.6962 11.3591 28.9033 11.1348C29.1104 10.9105 29.3613 10.7325 29.6398 10.6122C29.9184 10.4919 30.2185 10.4319 30.5211 10.436H28.1813Z" fill="#005ABB"/>
<path d="M30.5211 10.436H9.23828C9.86985 10.4433 10.4756 10.692 10.9348 11.1328C11.3941 11.5736 11.6731 12.174 11.7165 12.8146L13.5487 44.2223H34.8273L32.9993 12.8203C32.9567 12.179 32.678 11.5776 32.2188 11.1357C31.7595 10.6939 31.1534 10.444 30.5211 10.436Z" fill="#005ABB"/>
<path opacity="0.8" d="M30.5211 10.436H9.23828C9.86985 10.4433 10.4756 10.692 10.9348 11.1328C11.3941 11.5736 11.6731 12.174 11.7165 12.8146L13.5487 44.2223H34.8273L32.9993 12.8203C32.9567 12.179 32.678 11.5776 32.2188 11.1357C31.7595 10.6939 31.1534 10.444 30.5211 10.436Z" fill="white"/>
<path d="M18.8862 19.3759H14.9422L14.7041 15.3639H18.6495L18.8862 19.3759ZM15.37 18.9034H18.3886L18.2218 15.835H15.1975L15.37 18.9034Z" fill="white"/>
<path d="M19.4365 28.8133H15.4882L15.2544 24.7998H19.2027L19.4365 28.8133ZM15.9246 28.3408H18.9432L18.7649 25.2723H15.7463L15.9246 28.3408Z" fill="white"/>
<path d="M19.9852 38.2504H16.0369L15.7974 34.2369H19.7457L19.9852 38.2504ZM16.4747 37.7779H19.4933L19.3136 34.7095H16.295L16.4747 37.7779Z" fill="white"/>
<path d="M29.8912 15.3625H20.814V15.8351H29.8912V15.3625Z" fill="white"/>
<path d="M28.9272 17.1338H20.9165V17.6063H28.9272V17.1338Z" fill="white"/>
<path d="M30.0963 18.9036H21.019V19.3761H30.0963V18.9036Z" fill="white"/>
<path d="M30.44 24.7998H21.3628V25.2723H30.44V24.7998Z" fill="white"/>
<path d="M26.7939 26.5709H21.4653V27.0434H26.7939V26.5709Z" fill="white"/>
<path d="M24.3199 28.3407H21.5693V28.8132H24.3199V28.3407Z" fill="white"/>
<path d="M30.647 28.3407H26.1084V28.8132H30.647V28.3407Z" fill="white"/>
<path d="M30.9888 34.2369H21.9116V34.7095H30.9888V34.2369Z" fill="white"/>
<path d="M31.0928 36.0082H22.0156V36.4807H31.0928V36.0082Z" fill="white"/>
<path d="M27.1392 37.7781H22.1187V38.2506H27.1392V37.7781Z" fill="white"/>
<path d="M17.1708 18.431C17.0721 18.4311 16.9772 18.3927 16.9055 18.3237L15.9402 17.3932C15.9033 17.3577 15.8737 17.3151 15.853 17.268C15.8322 17.2209 15.8209 17.17 15.8195 17.1184C15.8167 17.0142 15.8547 16.9131 15.9252 16.8373C15.9958 16.7616 16.093 16.7174 16.1956 16.7146C16.2981 16.7117 16.3976 16.7504 16.4721 16.8221L17.1594 17.4816L18.7064 15.8104C18.7768 15.7345 18.8739 15.6901 18.9765 15.6869C19.079 15.6838 19.1786 15.7222 19.2533 15.7937C19.328 15.8652 19.3716 15.964 19.3747 16.0682C19.3778 16.1725 19.34 16.2737 19.2697 16.3496L17.4574 18.3078C17.4226 18.3457 17.3807 18.3762 17.3342 18.3973C17.2877 18.4185 17.2374 18.4299 17.1864 18.431H17.1708Z" fill="#005ABB"/>
<path d="M17.7211 27.8682C17.6224 27.8686 17.5274 27.8302 17.4559 27.761L16.4863 26.8304C16.4481 26.7954 16.4172 26.7529 16.3954 26.7055C16.3735 26.6582 16.3612 26.6068 16.3592 26.5545C16.3571 26.5023 16.3654 26.4501 16.3834 26.4011C16.4015 26.3521 16.429 26.3073 16.4643 26.2693C16.4997 26.2312 16.5421 26.2007 16.5892 26.1796C16.6363 26.1585 16.687 26.1471 16.7385 26.1462C16.7899 26.1453 16.8411 26.1548 16.8888 26.1742C16.9366 26.1937 16.9801 26.2226 17.0167 26.2594L17.7054 26.9189L19.2511 25.2477C19.3214 25.1717 19.4186 25.1273 19.5211 25.1242C19.6237 25.1211 19.7232 25.1595 19.7979 25.231C19.8726 25.3025 19.9163 25.4012 19.9194 25.5055C19.9225 25.6097 19.8847 25.7109 19.8143 25.7868L18.002 27.745C17.9675 27.7828 17.9259 27.8132 17.8796 27.8344C17.8333 27.8556 17.7833 27.8671 17.7325 27.8682H17.7211Z" fill="#005ABB"/>
<path d="M18.27 37.3068C18.1711 37.3067 18.0761 37.2678 18.0047 37.1981L17.0351 36.2676C16.9969 36.2325 16.966 36.1901 16.9442 36.1427C16.9224 36.0953 16.9101 36.044 16.908 35.9917C16.906 35.9394 16.9142 35.8873 16.9323 35.8383C16.9503 35.7893 16.9778 35.7445 17.0132 35.7064C17.0485 35.6684 17.0909 35.6379 17.138 35.6168C17.1851 35.5956 17.2359 35.5843 17.2873 35.5833C17.3388 35.5824 17.3899 35.592 17.4377 35.6114C17.4855 35.6308 17.5289 35.6598 17.5656 35.6965L18.2543 36.356L19.8014 34.6848C19.8738 34.6215 19.9667 34.5878 20.0622 34.5901C20.1577 34.5923 20.2489 34.6305 20.3184 34.6971C20.3878 34.7637 20.4306 34.8542 20.4383 34.9509C20.446 35.0477 20.4183 35.1439 20.3603 35.2211L18.548 37.1793C18.5131 37.217 18.4712 37.2473 18.4247 37.2685C18.3782 37.2896 18.328 37.3012 18.2771 37.3025L18.27 37.3068Z" fill="#005ABB"/>
<path d="M38.7201 15.0944L35.9502 15.7839L44.2437 49.9528L47.0136 49.2632L38.7201 15.0944Z" fill="#005ABB"/>
<path opacity="0.2" d="M38.7183 15.0917L37.875 15.3024L46.1394 49.4786L46.9826 49.2679L38.7183 15.0917Z" fill="black"/>
<path d="M46.7747 49.7766L44.6284 50.3129C44.4564 50.3559 44.3512 50.5325 44.3935 50.7074L44.7529 52.1938C44.7952 52.3687 44.969 52.4756 45.141 52.4326L47.2873 51.8964C47.4593 51.8534 47.5645 51.6767 47.5222 51.5018L47.1628 50.0155C47.1205 49.8406 46.9468 49.7336 46.7747 49.7766Z" fill="#005ABB"/>
<path opacity="0.7" d="M46.7747 49.7766L44.6284 50.3129C44.4564 50.3559 44.3512 50.5325 44.3935 50.7074L44.7529 52.1938C44.7952 52.3687 44.969 52.4756 45.141 52.4326L47.2873 51.8964C47.4593 51.8534 47.5645 51.6767 47.5222 51.5018L47.1628 50.0155C47.1205 49.8406 46.9468 49.7336 46.7747 49.7766Z" fill="white"/>
<path d="M46.7914 48.7764L44.1591 49.4341C44 49.4739 43.9028 49.6372 43.9419 49.7989L44.1774 50.7729C44.2165 50.9346 44.3772 51.0334 44.5362 50.9937L47.1685 50.336C47.3276 50.2962 47.4248 50.1329 47.3857 49.9712L47.1502 48.9972C47.1111 48.8355 46.9504 48.7367 46.7914 48.7764Z" fill="#E0E0E0"/>
<path d="M38.7198 15.0886L35.9507 15.7814L36.2758 13.4261L36.484 11.9158L37.358 13.155L38.7198 15.0886Z" fill="#E0E0E0"/>
<path d="M37.3581 13.155L36.2759 13.4261L36.4841 11.9158L37.3581 13.155Z" fill="#005ABB"/>
<path d="M45.8723 12.8535C45.858 13.7232 45.6926 15.3625 46.1432 15.8973C45.1075 16.2435 44.1789 16.8592 43.4497 17.683C42.8323 16.6568 43.6379 16.1046 43.6379 16.1046C44.5262 15.8147 44.472 15.1349 44.2852 14.5102L45.8723 12.8535Z" fill="#FFB573"/>
<path d="M43.1875 16.7974C43.4228 15.9089 42.7597 15.7828 43.8648 15.348C44.7289 15.0001 46.3615 14.9509 46.7451 15.2306C46.9576 15.3871 46.6652 15.935 46.6652 15.935L43.1875 16.7974Z" fill="#5886EE"/>
<path d="M47.9768 16.6062C48.041 16.7106 48.0866 16.7903 48.1379 16.8816C48.1892 16.9729 48.232 17.057 48.2805 17.1454C48.3718 17.3222 48.4573 17.499 48.54 17.6788C48.7054 18.0368 48.8494 18.4035 48.982 18.7745C49.2484 19.5261 49.4394 20.3031 49.5524 21.0936L49.5895 21.3922C49.5966 21.4343 49.6023 21.5096 49.6066 21.5748C49.6109 21.6401 49.6066 21.6995 49.6066 21.7575C49.6033 21.9713 49.5876 22.1847 49.5595 22.3967C49.5096 22.7967 49.4341 23.175 49.3514 23.5562C49.183 24.2997 48.9701 25.0321 48.714 25.7492C48.6799 25.8464 48.6122 25.9278 48.5235 25.9779C48.4348 26.0281 48.3312 26.0438 48.2319 26.0219C48.1327 26.0001 48.0447 25.9423 47.9844 25.8593C47.924 25.7763 47.8955 25.6738 47.9041 25.5709C47.9611 24.8346 48.0281 24.0925 48.0809 23.3678C48.1065 23.0054 48.1265 22.6431 48.1322 22.301C48.1322 22.1314 48.1322 21.9633 48.1165 21.8227L48.1037 21.7256L48.0852 21.6314L48.0324 21.3792C47.8801 20.6999 47.6751 20.034 47.4193 19.3877C47.2909 19.063 47.1526 18.7412 47.0072 18.4238C46.9349 18.2643 46.8594 18.1078 46.7805 17.9542L46.6607 17.7252L46.5481 17.515L46.5281 17.4773C46.4242 17.2827 46.399 17.0546 46.458 16.8414C46.5169 16.6282 46.6552 16.4468 46.8437 16.3356C47.0321 16.2245 47.2557 16.1924 47.467 16.2462C47.6783 16.2999 47.8607 16.4353 47.9754 16.6236L47.9768 16.6062Z" fill="#FFB573"/>
<path d="M47.5948 26.042L47.7131 25.8419L48.0468 25.2709L48.6585 25.6231C48.7854 26.2029 48.3975 26.716 48.3975 26.716L48.225 26.8609C48.1662 26.9129 48.0902 26.9402 48.0123 26.9372C47.9344 26.9343 47.8606 26.9013 47.8058 26.845L47.6732 26.7203C47.5898 26.631 47.537 26.5167 47.5229 26.3944C47.5087 26.2721 47.534 26.1485 47.5948 26.042Z" fill="#FFB573"/>
<path d="M39.4671 25.7462L39.3688 25.3838C39.3457 25.2986 39.2906 25.226 39.2155 25.1815C39.1403 25.1371 39.051 25.1244 38.9667 25.1461L38.5389 25.2577L38.2751 25.3244C38.1364 25.3612 38.0132 25.4429 37.9242 25.5572C37.8351 25.6715 37.7852 25.8121 37.7817 25.9578V26.1738C37.7811 26.2678 37.8157 26.3586 37.8784 26.4278C37.9412 26.497 38.0274 26.5393 38.1197 26.5463L38.3835 26.5724C38.7792 26.5083 39.142 26.3101 39.413 26.01C39.4423 25.9738 39.4626 25.9308 39.472 25.8849C39.4815 25.8389 39.4798 25.7913 39.4671 25.7462Z" fill="#FFB573"/>
<path d="M47.2637 15.9684C48.0123 16.3061 48.6982 17.1106 49.26 18.5991C49.0803 19.2122 47.2252 20.2167 47.2252 20.2167C47.2252 20.2167 44.911 15.2292 47.2637 15.9684Z" fill="#005ABB"/>
<path d="M41.0711 17.8743C41.0783 18.4266 40.1785 19.7064 41.2137 20.4485C41.3035 21.566 41.4247 22.6661 41.66 24.4997H47.1967C46.6706 22.4705 47.1255 21.108 47.9696 17.5424C48.0178 17.3508 48.0247 17.1509 47.9898 16.9563C47.9549 16.7617 47.8791 16.5771 47.7675 16.4151C47.656 16.2531 47.5113 16.1175 47.3433 16.0176C47.1754 15.9178 46.9883 15.8559 46.7947 15.8364C46.5736 15.8147 46.3398 15.7958 46.1017 15.7828C45.2643 15.7218 44.4237 15.7218 43.5864 15.7828C43.3141 15.8074 43.0332 15.8422 42.7637 15.8799C42.2927 15.9497 41.8622 16.1898 41.5513 16.5561C41.2404 16.9225 41.0699 17.3905 41.0711 17.8743Z" fill="#005ABB"/>
<path d="M42.9048 17.3366C42.9176 17.7511 42.9048 18.1483 42.9048 18.5541C42.9048 18.96 42.8791 19.3615 42.8534 19.7673C42.8093 20.5901 42.714 21.4092 42.5683 22.2197C42.5512 22.3227 42.5241 22.4299 42.4998 22.5343C42.4756 22.6386 42.4542 22.743 42.4214 22.8531L42.3758 23.014L42.3515 23.0952C42.3424 23.1316 42.3309 23.1675 42.3173 23.2025C42.2576 23.3586 42.176 23.505 42.0749 23.6373C41.9358 23.8207 41.7838 23.9937 41.62 24.1547C41.4703 24.3069 41.3178 24.4446 41.1638 24.5896C40.5574 25.1206 39.913 25.6051 39.236 26.039C39.1509 26.0933 39.0496 26.1148 38.9503 26.0995C38.8511 26.0843 38.7605 26.0333 38.695 25.9559C38.6296 25.8785 38.5937 25.7798 38.5938 25.6778C38.5938 25.5757 38.63 25.4771 38.6955 25.3998C39.2046 24.8099 39.7293 24.2243 40.2184 23.6445C40.3382 23.4996 40.4551 23.3546 40.5663 23.2097C40.6707 23.081 40.766 22.9449 40.8515 22.8024C40.8857 22.7488 40.9071 22.6836 40.8886 22.7198C40.87 22.756 40.8886 22.701 40.8886 22.685L40.9014 22.6212L40.9285 22.4951C40.9485 22.414 40.9599 22.3227 40.9741 22.2342C40.9884 22.1458 41.0055 22.0574 41.014 21.9646C41.111 21.2327 41.1566 20.4616 41.1837 19.6905C41.2108 18.9194 41.2279 18.1338 41.2322 17.3714C41.231 17.2597 41.2514 17.1488 41.2924 17.0451C41.3333 16.9414 41.3939 16.8469 41.4708 16.767C41.626 16.6057 41.8379 16.5137 42.0599 16.5112C42.2819 16.5087 42.4958 16.5959 42.6545 16.7537C42.8132 16.9115 42.9037 17.1269 42.9062 17.3526L42.9048 17.3366Z" fill="#FFB573"/>
<path d="M42.2945 16.009C41.6115 16.3539 40.9342 17.0236 40.6533 18.5571C40.8316 19.1644 43.2727 20.3341 43.2727 20.3341C43.2727 20.3341 44.6315 15.1219 42.2945 16.009Z" fill="#005ABB"/>
<path d="M42.4445 12.2999C42.463 12.4086 42.4202 12.5101 42.349 12.5231C42.2777 12.5362 42.2064 12.4608 42.1878 12.3507C42.1693 12.2405 42.2135 12.1405 42.2834 12.1274C42.3532 12.1144 42.4274 12.1898 42.4445 12.2999Z" fill="#5886EE"/>
<path d="M42.3187 12.126L42.0464 12.1028C42.0464 12.1028 42.2104 12.2811 42.3187 12.126Z" fill="#5886EE"/>
<path d="M42.4188 12.4216C42.3628 12.6919 42.2712 12.9532 42.1465 13.1985C42.209 13.2282 42.2771 13.2436 42.3461 13.2436C42.4151 13.2436 42.4832 13.2282 42.5457 13.1985L42.4188 12.4216Z" fill="#ED893E"/>
<path d="M42.1619 11.552C42.1456 11.5518 42.1298 11.5456 42.1177 11.5346C42.1116 11.5285 42.1069 11.5213 42.1036 11.5133C42.1003 11.5054 42.0986 11.4968 42.0986 11.4882C42.0986 11.4796 42.1003 11.471 42.1036 11.4631C42.1069 11.4551 42.1116 11.4479 42.1177 11.4418C42.1873 11.3638 42.2742 11.3037 42.3711 11.2664C42.468 11.2292 42.5722 11.2157 42.6752 11.2273C42.6834 11.2288 42.6912 11.232 42.6981 11.2367C42.7051 11.2413 42.711 11.2473 42.7157 11.2544C42.7203 11.2614 42.7235 11.2693 42.7252 11.2775C42.7268 11.2858 42.7268 11.2944 42.7251 11.3027C42.7217 11.32 42.7117 11.3353 42.6973 11.3453C42.6829 11.3553 42.6653 11.3593 42.6481 11.3563C42.5665 11.3488 42.4843 11.3607 42.4081 11.3911C42.3319 11.4216 42.2637 11.4697 42.2089 11.5317C42.1965 11.5445 42.1796 11.5518 42.1619 11.552Z" fill="#5886EE"/>
<path d="M45.9735 11.22C46.1161 12.5825 46.2016 13.1565 45.6555 13.9739C44.8328 15.2132 43.1788 15.1335 42.6469 13.8536C42.1678 12.6941 42.0181 10.6649 43.2101 9.87351C43.4665 9.69574 43.7644 9.5896 44.0739 9.56571C44.3834 9.54183 44.6936 9.60104 44.9735 9.73742C45.2534 9.8738 45.4931 10.0825 45.6686 10.3428C45.8441 10.603 45.9492 10.9055 45.9735 11.22Z" fill="#FFB573"/>
<path d="M43.5351 12.2158C42.6796 12.0621 42.4729 11.0635 42.7894 10.6287C41.3478 10.6939 40.3768 9.05457 41.9339 8.11969C43.4909 7.1848 44.8655 8.63279 44.7543 9.17922C46.6721 9.00239 47.7957 10.6069 46.7505 11.7998C48.1294 12.0274 50.1941 13.6072 48.6783 15.2668C50.7273 15.5727 50.9498 22.0951 45.3717 20.9356C39.4913 19.7122 44.6003 14.5102 44.6003 14.5102C44.6003 14.5102 43.1102 14.0841 43.5351 12.2158Z" fill="#5886EE"/>
<path d="M48.9976 15.6915L48.8764 15.6162C49.394 14.761 49.4795 13.9827 49.1302 13.2971C48.681 12.4274 47.5916 11.9143 46.7461 11.865L46.7546 11.7201C47.6387 11.7708 48.7837 12.2999 49.2571 13.229C49.625 13.9537 49.5351 14.803 48.9976 15.6915Z" fill="#5886EE"/>
<path d="M47.3763 11.9463C47.8682 11.8636 47.6358 11.0476 47.2736 10.8316C46.9114 10.6157 45.1761 10.9664 45.3672 11.5288C45.5583 12.0912 46.7161 12.0579 47.3763 11.9463Z" fill="white"/>
<path d="M47.4651 11.7403C47.9556 11.6447 47.7588 10.9837 47.391 10.7764C47.0231 10.5692 45.5074 10.7228 45.7141 11.2779C45.9209 11.8331 46.8092 11.8722 47.4651 11.7403Z" fill="#005ABB"/>
<path d="M42.326 10.7939C41.9975 10.7894 41.6799 10.6736 41.4235 10.4648C41.0142 10.1416 40.7889 9.6575 40.8531 9.23137C40.8916 8.96032 41.0584 8.58782 41.6402 8.35156L41.6929 8.48636C41.2823 8.65304 41.0413 8.92119 40.9943 9.25166C40.9429 9.62851 41.1468 10.059 41.5161 10.3503C41.6875 10.4955 41.8938 10.5917 42.1138 10.6289C42.3339 10.6661 42.5597 10.643 42.7681 10.5619L42.8223 10.6967C42.6648 10.7622 42.4961 10.7952 42.326 10.7939Z" fill="#5886EE"/>
<path d="M43.8731 12.3752C43.809 12.7317 43.789 12.8839 43.6065 13.0506C43.5546 13.1096 43.4865 13.1512 43.4109 13.1702C43.3353 13.1891 43.2559 13.1844 43.183 13.1567C43.1101 13.1289 43.0472 13.0795 43.0024 13.0148C42.9576 12.9501 42.9331 12.8731 42.9321 12.794C42.9035 12.4665 43.0133 11.9389 43.3399 11.8287C43.6664 11.7186 43.9373 12.02 43.8731 12.3752Z" fill="#FFB573"/>
<path d="M43.0858 13.5101L42.9703 13.2999C42.9655 13.2913 42.9629 13.2816 42.9629 13.2717C42.9629 13.2617 42.9655 13.252 42.9703 13.2434L43.0858 13.0347C43.0908 13.0256 43.098 13.0181 43.1068 13.0128C43.1156 13.0075 43.1256 13.0048 43.1357 13.0048C43.1459 13.0048 43.1559 13.0075 43.1647 13.0128C43.1735 13.0181 43.1807 13.0256 43.1856 13.0347L43.3011 13.2434C43.306 13.252 43.3086 13.2617 43.3086 13.2717C43.3086 13.2816 43.306 13.2913 43.3011 13.2999L43.1856 13.5101C43.1807 13.5191 43.1735 13.5267 43.1647 13.532C43.1559 13.5372 43.1459 13.54 43.1357 13.54C43.1256 13.54 43.1156 13.5372 43.1068 13.532C43.098 13.5267 43.0908 13.5191 43.0858 13.5101Z" fill="white"/>
<path d="M41.6631 24.4952C41.6631 24.4952 41.4678 31.7627 41.2069 36.5429C40.9302 40.9303 40.5752 51.1909 40.5752 51.1909L41.666 51.2488C41.666 51.2488 44.0786 42.6146 43.9774 37.3981C46.8092 30.1016 45.7911 24.7141 45.7911 24.7141L41.6631 24.4952Z" fill="#FFB573"/>
<path d="M40.6564 50.73C40.6321 50.7122 40.6029 50.7026 40.573 50.7026C40.543 50.7026 40.5138 50.7122 40.4895 50.73C39.9661 51.125 39.332 51.3393 38.6801 51.3417C37.9557 51.3736 38.134 51.7765 39.1706 51.9113C40.3897 52.065 40.6507 52.3201 41.0442 52.4201C41.4378 52.5201 41.75 52.2157 41.7429 51.375C41.7422 51.3463 41.7332 51.3185 41.717 51.295C41.7007 51.2715 41.678 51.2535 41.6516 51.2431C41.3012 51.1124 40.9672 50.9402 40.6564 50.73Z" fill="#5886EE"/>
<path d="M43.1104 24.4952C43.1104 24.4952 45.1066 33.0962 46.263 37.1053C47.4793 41.3086 48.4432 50.901 48.436 51.2184H49.38C49.38 51.2184 50.5991 43.4437 49.0948 37.1009C48.9522 26.81 47.2069 24.5025 47.2069 24.5025L43.1104 24.4952Z" fill="#FFB573"/>
<path d="M48.4116 50.8751C48.387 50.8648 48.3598 50.8629 48.3341 50.8697C48.3084 50.8765 48.2856 50.8916 48.269 50.9128C48.0252 51.2345 47.8484 51.5911 47.1283 51.9042C46.5323 52.1622 46.8617 52.5158 47.7942 52.3868C48.8907 52.2332 48.9064 52.4144 49.2757 52.4144C49.645 52.4144 49.819 52.0404 49.5495 51.2273C49.5409 51.2004 49.5252 51.1764 49.504 51.158C49.4829 51.1396 49.4572 51.1274 49.4297 51.1229C49.0817 51.0824 48.7399 50.9992 48.4116 50.8751Z" fill="#5886EE"/>
<path d="M41.6631 24.4954C41.6631 24.4954 40.722 30.8642 40.8546 39.5695C43.8317 39.5522 46.79 39.0883 49.6338 38.1925C49.6338 38.1925 49.6766 26.913 47.1998 24.4997C45.7696 24.1084 41.6959 24.3678 41.6631 24.4954Z" fill="#5886EE"/>
<path opacity="0.2" d="M41.7729 38.333C41.7637 38.333 41.7548 38.3294 41.7482 38.3229C41.7415 38.3164 41.7376 38.3076 41.7372 38.2982C41.4706 32.7397 42.118 24.8924 42.1237 24.8185C42.1238 24.8137 42.125 24.8089 42.127 24.8046C42.1291 24.8002 42.132 24.7964 42.1357 24.7932C42.1393 24.7901 42.1435 24.7877 42.1481 24.7864C42.1526 24.785 42.1574 24.7846 42.1622 24.7852C42.1668 24.7856 42.1714 24.7869 42.1756 24.789C42.1798 24.7912 42.1835 24.7942 42.1866 24.7978C42.1896 24.8015 42.1919 24.8057 42.1934 24.8102C42.1948 24.8148 42.1953 24.8196 42.1949 24.8243C42.1878 24.904 41.5419 32.7455 41.8085 38.304C41.8089 38.3088 41.8083 38.3137 41.8068 38.3182C41.8053 38.3228 41.8028 38.327 41.7996 38.3305C41.7964 38.3341 41.7924 38.3369 41.7881 38.3388C41.7837 38.3407 41.7791 38.3417 41.7743 38.3417L41.7729 38.333Z" fill="white"/>
<path opacity="0.2" d="M45.4985 32.7745L46.3099 28.4059L46.6364 29.4509L45.4985 32.7745Z" fill="black"/>
</svg>
