<svg width="60" height="60" viewBox="0 0 60 60" fill="none" xmlns="http://www.w3.org/2000/svg">
<path d="M2.95594 23.3165V18.667C2.95594 18.0454 3.20287 17.4492 3.6424 17.0097C4.08194 16.5702 4.67808 16.3232 5.29969 16.3232H54.7003C55.3219 16.3232 55.918 16.5702 56.3576 17.0097C56.7971 17.4492 57.0441 18.0454 57.0441 18.667V23.3165H2.95594Z" fill="#005ABB"/>
<path d="M57.0441 57.044H2.95594V23.3165H11.9709L18.3445 30.3098H41.6555L48.0291 23.3165H57.0441V57.044Z" fill="#5886EE"/>
<path d="M11.9709 23.3166V9.32999L18.3445 2.95593H48.0291V23.3166L41.6555 30.3098H18.3445L11.9709 23.3166Z" fill="#F1F1FB"/>
<path d="M18.3445 2.95593V9.33H11.9709L18.3445 2.95593Z" fill="#E1D8FA"/>
<path d="M44.3766 40.0237H15.6239C13.6064 40.0237 11.9709 41.6592 11.9709 43.6767V43.6771C11.9709 45.6946 13.6064 47.3301 15.6239 47.3301H44.3766C46.394 47.3301 48.0295 45.6946 48.0295 43.6771V43.6767C48.0295 41.6592 46.394 40.0237 44.3766 40.0237Z" fill="#F1F1FB"/>
<path d="M36.2344 10.1498H23.7656C23.5481 10.1498 23.3394 10.0634 23.1856 9.90952C23.0317 9.75568 22.9453 9.54703 22.9453 9.32947C22.9453 9.11191 23.0317 8.90326 23.1856 8.74942C23.3394 8.59558 23.5481 8.50916 23.7656 8.50916H36.2344C36.4519 8.50916 36.6606 8.59558 36.8144 8.74942C36.9683 8.90326 37.0547 9.11191 37.0547 9.32947C37.0547 9.54703 36.9683 9.75568 36.8144 9.90952C36.6606 10.0634 36.4519 10.1498 36.2344 10.1498Z" fill="#E1D8FA"/>
<path d="M41.6555 17.1431H18.3445C18.127 17.1431 17.9183 17.0566 17.7645 16.9028C17.6106 16.749 17.5242 16.5403 17.5242 16.3228C17.5242 16.1052 17.6106 15.8965 17.7645 15.7427C17.9183 15.5889 18.127 15.5024 18.3445 15.5024H41.6555C41.873 15.5024 42.0817 15.5889 42.2355 15.7427C42.3894 15.8965 42.4758 16.1052 42.4758 16.3228C42.4758 16.5403 42.3894 16.749 42.2355 16.9028C42.0817 17.0566 41.873 17.1431 41.6555 17.1431Z" fill="#E1D8FA"/>
<path d="M41.6555 24.1368H18.3445C18.127 24.1368 17.9183 24.0504 17.7645 23.8966C17.6106 23.7427 17.5242 23.5341 17.5242 23.3165C17.5242 23.099 17.6106 22.8903 17.7645 22.7365C17.9183 22.5826 18.127 22.4962 18.3445 22.4962H41.6555C41.873 22.4962 42.0817 22.5826 42.2355 22.7365C42.3894 22.8903 42.4758 23.099 42.4758 23.3165C42.4758 23.5341 42.3894 23.7427 42.2355 23.8966C42.0817 24.0504 41.873 24.1368 41.6555 24.1368Z" fill="#E1D8FA"/>
</svg>
