<svg width="80" height="80" viewBox="0 0 80 80" fill="none" xmlns="http://www.w3.org/2000/svg">
<rect width="80" height="80" rx="40" fill="#F5F6FF"/>
<path fill-rule="evenodd" clip-rule="evenodd" d="M40 58C49.941 58 58 49.941 58 40C58 30.059 49.941 22 40 22C30.059 22 22 30.059 22 40C22 49.941 30.059 58 40 58ZM40 60C51.046 60 60 51.046 60 40C60 28.954 51.046 20 40 20C28.954 20 20 28.954 20 40C20 51.046 28.954 60 40 60Z" fill="#20215A"/>
<path d="M28 51.63C28 50.597 28.772 49.724 29.8 49.61C37.515 48.756 42.52 48.833 50.218 49.629C50.6024 49.6694 50.9667 49.8208 51.2665 50.0648C51.5663 50.3089 51.7885 50.6349 51.906 51.0031C52.0235 51.3714 52.0312 51.7658 51.9282 52.1384C51.8252 52.5109 51.616 52.8454 51.326 53.101C42.241 61.02 37.049 60.911 28.64 53.109C28.23 52.729 28 52.189 28 51.631V51.63Z" fill="#20215A"/>
<path fill-rule="evenodd" clip-rule="evenodd" d="M50.115 50.623C42.478 49.833 37.545 49.759 29.909 50.604C29.6576 50.6333 29.4259 50.7543 29.2582 50.9438C29.0905 51.1333 28.9986 51.378 29 51.631C29 51.917 29.119 52.188 29.32 52.376C33.488 56.242 36.646 57.989 39.733 58C42.831 58.011 46.159 56.278 50.669 52.348C50.8123 52.2205 50.9154 52.0541 50.9659 51.869C51.0164 51.684 51.012 51.4883 50.9533 51.3056C50.8946 51.123 50.7842 50.9614 50.6354 50.8404C50.4865 50.7194 50.3058 50.6442 50.115 50.624V50.623ZM29.69 48.616C37.486 47.753 42.564 47.831 50.322 48.634C50.9003 48.6944 51.4485 48.9221 51.8994 49.2892C52.3503 49.6563 52.6844 50.1469 52.8607 50.7009C53.0371 51.255 53.0481 51.8484 52.8924 52.4086C52.7367 52.9688 52.421 53.4715 51.984 53.855C47.409 57.843 43.599 60.015 39.727 60C35.844 59.986 32.202 57.777 27.961 53.842C27.6574 53.5592 27.4153 53.2168 27.2499 52.8362C27.0846 52.4556 26.9995 52.045 27 51.63C26.9985 50.8845 27.2722 50.1646 27.7686 49.6082C28.2649 49.0519 28.9491 48.6982 29.69 48.615V48.616Z" fill="#20215A"/>
<path d="M48 36C48 38.1217 47.1571 40.1566 45.6569 41.6569C44.1566 43.1571 42.1217 44 40 44C37.8783 44 35.8434 43.1571 34.3431 41.6569C32.8429 40.1566 32 38.1217 32 36C32 33.8783 32.8429 31.8434 34.3431 30.3431C35.8434 28.8429 37.8783 28 40 28C42.1217 28 44.1566 28.8429 45.6569 30.3431C47.1571 31.8434 48 33.8783 48 36Z" fill="#20215A"/>
<path fill-rule="evenodd" clip-rule="evenodd" d="M40 42C41.5913 42 43.1174 41.3679 44.2426 40.2426C45.3679 39.1174 46 37.5913 46 36C46 34.4087 45.3679 32.8826 44.2426 31.7574C43.1174 30.6321 41.5913 30 40 30C38.4087 30 36.8826 30.6321 35.7574 31.7574C34.6321 32.8826 34 34.4087 34 36C34 37.5913 34.6321 39.1174 35.7574 40.2426C36.8826 41.3679 38.4087 42 40 42ZM40 44C42.1217 44 44.1566 43.1571 45.6569 41.6569C47.1571 40.1566 48 38.1217 48 36C48 33.8783 47.1571 31.8434 45.6569 30.3431C44.1566 28.8429 42.1217 28 40 28C37.8783 28 35.8434 28.8429 34.3431 30.3431C32.8429 31.8434 32 33.8783 32 36C32 38.1217 32.8429 40.1566 34.3431 41.6569C35.8434 43.1571 37.8783 44 40 44Z" fill="#20215A"/>
</svg>
