<svg width="202" height="150" viewBox="0 0 202 150" fill="none" xmlns="http://www.w3.org/2000/svg">
<path d="M201.31 131.818H0V131.918H201.31V131.818Z" fill="#EBEBEB"/>
<path d="M181.139 138.296H167.804V138.397H181.139V138.296Z" fill="#EBEBEB"/>
<path d="M133.356 139.391H129.857V139.492H133.356V139.391Z" fill="#EBEBEB"/>
<path d="M167.401 134.56H159.675V134.66H167.401V134.56Z" fill="#EBEBEB"/>
<path d="M38.5106 135.236H21.1215V135.337H38.5106V135.236Z" fill="#EBEBEB"/>
<path d="M44.6465 135.236H42.0979V135.337H44.6465V135.236Z" fill="#EBEBEB"/>
<path d="M90.6498 136.935H52.9324V137.036H90.6498V136.935Z" fill="#EBEBEB"/>
<path d="M95.4209 113.861H17.679C17.07 113.86 16.4863 113.617 16.056 113.186C15.6258 112.755 15.3841 112.171 15.3841 111.562V2.27883C15.3894 1.6733 15.6334 1.09431 16.0631 0.667631C16.4928 0.240951 17.0735 0.0010373 17.679 0H95.4209C96.0306 0 96.6153 0.242211 97.0465 0.673349C97.4776 1.10449 97.7198 1.68924 97.7198 2.29896V111.562C97.7198 112.172 97.4776 112.756 97.0465 113.188C96.6153 113.619 96.0306 113.861 95.4209 113.861ZM17.679 0.0805243C17.0967 0.0815908 16.5386 0.313667 16.1272 0.725813C15.7158 1.13796 15.4847 1.6965 15.4847 2.27883V111.562C15.4847 112.144 15.7158 112.703 16.1272 113.115C16.5386 113.527 17.0967 113.759 17.679 113.76H95.4209C96.0036 113.759 96.5621 113.527 96.9741 113.115C97.3862 112.703 97.6181 112.145 97.6192 111.562V2.27883C97.6181 1.69613 97.3862 1.1376 96.9741 0.725568C96.5621 0.313536 96.0036 0.0815885 95.4209 0.0805243H17.679Z" fill="#EBEBEB"/>
<path d="M182.512 113.861H104.766C104.156 113.86 103.572 113.617 103.141 113.186C102.71 112.755 102.468 112.171 102.467 111.562V2.27883C102.473 1.67293 102.718 1.09395 103.148 0.66738C103.579 0.24081 104.16 0.00102599 104.766 0H182.512C183.116 0.00209543 183.696 0.242477 184.125 0.669044C184.554 1.09561 184.797 1.67399 184.802 2.27883V111.562C184.802 112.17 184.561 112.754 184.132 113.185C183.703 113.616 183.12 113.859 182.512 113.861ZM104.766 0.0805243C104.183 0.0815885 103.624 0.313536 103.212 0.725568C102.8 1.1376 102.568 1.69613 102.567 2.27883V111.562C102.568 112.145 102.8 112.703 103.212 113.115C103.624 113.527 104.183 113.759 104.766 113.76H182.512C183.094 113.759 183.653 113.527 184.065 113.115C184.477 112.703 184.709 112.145 184.71 111.562V2.27883C184.709 1.69613 184.477 1.1376 184.065 0.725568C183.653 0.313536 183.094 0.0815885 182.512 0.0805243H104.766Z" fill="#EBEBEB"/>
<path d="M158.262 8.51941H40.7814V63.4851H158.262V8.51941Z" fill="#E6E6E6"/>
<path d="M160.029 8.51941H41.6067V63.4851H160.029V8.51941Z" fill="#F0F0F0"/>
<path d="M158.262 63.4851H40.7814V66.2873H158.262V63.4851Z" fill="#E6E6E6"/>
<path d="M162.976 63.4851H44.5539V66.2873H162.976V63.4851Z" fill="#F0F0F0"/>
<path d="M157.553 61.0089V10.9995L44.0869 10.9995V61.0089L157.553 61.0089Z" fill="#FAFAFA"/>
<path d="M56.2581 61.0089L63.1549 10.9995H73.917L67.0201 61.0089H56.2581Z" fill="white"/>
<path d="M45.2303 58.5409C45.1833 58.5409 45.1383 58.5222 45.105 58.489C45.0718 58.4558 45.0532 58.4107 45.0532 58.3637V12.61C45.0532 12.563 45.0718 12.518 45.105 12.4847C45.1383 12.4515 45.1833 12.4329 45.2303 12.4329C45.2536 12.4329 45.2766 12.4374 45.2981 12.4463C45.3196 12.4552 45.3391 12.4683 45.3556 12.4847C45.372 12.5012 45.3851 12.5207 45.394 12.5422C45.4029 12.5637 45.4075 12.5868 45.4075 12.61V58.3798C45.4044 58.4243 45.3842 58.4659 45.3512 58.4959C45.3182 58.5259 45.2749 58.542 45.2303 58.5409Z" fill="#F0F0F0"/>
<path d="M69.3311 61.0089L76.228 10.9995H80.4233L73.5264 61.0089H69.3311Z" fill="white"/>
<path d="M157.553 61.0089V10.9995H157.239V61.0089H157.553Z" fill="#E6E6E6"/>
<path opacity="0.6" d="M160.613 14.7358H43.1367L42.9072 11.9618H160.388L160.613 14.7358Z" fill="#EBEBEB"/>
<path opacity="0.6" d="M160.613 19.2815H43.1367L42.9072 16.5074H160.388L160.613 19.2815Z" fill="#EBEBEB"/>
<path opacity="0.6" d="M160.613 23.8311H43.1367L42.9072 21.057H160.388L160.613 23.8311Z" fill="#EBEBEB"/>
<path opacity="0.6" d="M160.613 28.3766H43.1367L42.9072 25.6025H160.388L160.613 28.3766Z" fill="#EBEBEB"/>
<path opacity="0.6" d="M160.613 32.9263H43.1367L42.9072 30.1522H160.388L160.613 32.9263Z" fill="#EBEBEB"/>
<path opacity="0.6" d="M160.613 37.4718H43.1367L42.9072 34.6978H160.388L160.613 37.4718Z" fill="#EBEBEB"/>
<path d="M176.75 77.303H158.821V131.818H176.75V77.303Z" fill="#E6E6E6"/>
<path d="M171.963 131.818H176.75V124.293H166.942L171.963 131.818Z" fill="#FAFAFA"/>
<path d="M127.868 77.303H109.939V131.818H127.868V77.303Z" fill="#E6E6E6"/>
<path d="M176.75 77.303H123.689V129.229H176.75V77.303Z" fill="#FAFAFA"/>
<path d="M128.476 131.818H123.689V124.293H133.497L128.476 131.818Z" fill="#FAFAFA"/>
<path d="M173.034 96.6528H127.401V109.645H173.034V96.6528Z" fill="#F0F0F0"/>
<path d="M173.034 112.423H127.401V125.416H173.034V112.423Z" fill="#F0F0F0"/>
<path d="M134.572 95.5255H165.879V96.1576C165.879 96.6563 165.681 97.1345 165.329 97.4872C164.976 97.8398 164.498 98.0379 163.999 98.0379H136.456C135.957 98.0379 135.479 97.8398 135.126 97.4872C134.774 97.1345 134.576 96.6563 134.576 96.1576V95.5255H134.572Z" fill="#FAFAFA"/>
<path d="M173.034 80.8783H127.401V93.8708H173.034V80.8783Z" fill="#F0F0F0"/>
<path d="M134.572 79.7549H165.879V80.387C165.879 80.8857 165.681 81.3639 165.329 81.7165C164.976 82.0691 164.498 82.2672 163.999 82.2672H136.456C135.957 82.2672 135.479 82.0691 135.126 81.7165C134.774 81.3639 134.576 80.8857 134.576 80.387V79.7549H134.572Z" fill="#FAFAFA"/>
<path d="M134.572 111.296H165.879V111.928C165.879 112.427 165.681 112.905 165.329 113.258C164.976 113.61 164.498 113.808 163.999 113.808H136.456C135.957 113.808 135.479 113.61 135.126 113.258C134.774 112.905 134.576 112.427 134.576 111.928V111.296H134.572Z" fill="#FAFAFA"/>
<path d="M21.5079 88.9266C22.5064 86.0559 30.3656 89.9573 33.5865 94.7082C35.7164 97.8728 37.0169 101.251 37.6127 105.788C37.5403 100.611 37.4597 95.0504 37.3792 89.8003C36.731 88.4917 35.2534 85.4721 34.1945 83.0805C30.6514 75.1006 22.2286 72.1293 19.2976 67.0925C15.4848 60.4895 15.5089 50.5851 18.754 47.0179C21.5724 43.9096 30.9131 64.9063 31.968 67.2535C35.5916 75.3059 36.6384 81.309 37.3148 87.1107C37.2383 82.1786 37.1658 77.6532 37.1054 74.1585C36.9082 62.7643 36.6585 59.1005 36.5458 57.9732C36.1432 57.4216 35.6963 56.7653 35.4265 56.4352C33.1678 53.5242 28.1512 50.0617 25.6469 45.8301C21.9871 39.654 22.5789 32.2619 25.1436 29.5079C27.8492 26.6292 32.6122 33.4174 35.1125 40.1733C37.6127 46.9293 36.5538 53.3632 37.2625 58.9636C37.4114 60.0587 37.5604 64.2299 37.7053 70.0155C38.4703 63.791 39.9922 59.6199 42.8106 55.7346C46.2811 50.9555 49.2766 45.1376 52.1352 45.8905C54.9938 46.6434 53.4558 54.3456 51.1931 59.7487C49.18 64.56 39.2433 69.3633 37.7778 73.2324C37.9509 81.0755 38.1039 91.0081 38.2167 100.256C38.9977 95.4772 38.4582 95.0786 41.6711 87.7751C43.5796 83.4268 51.4025 78.0679 52.3365 81.0554C53.2706 84.0428 51.8494 89.6875 48.8982 93.6412C46.5147 96.834 41.2484 96.83 40.0043 98.8069C39.7184 99.2699 38.7964 101.041 38.2368 102.056C38.3616 113.349 38.422 123.314 38.3576 126.712L37.8422 126.749C37.8704 125.871 37.806 120.126 37.7053 112.524C36.421 108.498 27.7808 106.122 25.1114 101.915C22.3172 97.5024 20.3081 92.3649 21.5079 88.9266Z" fill="#E6E6E6"/>
<path d="M29.6328 131.818H46.2207C46.6602 131.817 47.0861 131.665 47.4264 131.387C47.7668 131.109 48.0008 130.722 48.0889 130.292L49.2645 124.486H26.5729L27.7807 130.292C27.8682 130.72 28.0999 131.105 28.4369 131.382C28.774 131.66 29.1961 131.814 29.6328 131.818Z" fill="#F0F0F0"/>
<path d="M26.1139 126.737H49.7397C50.0137 126.736 50.278 126.635 50.4822 126.453C50.6864 126.27 50.8162 126.019 50.8469 125.746L51.33 121.454C51.347 121.299 51.331 121.141 51.2831 120.992C51.2352 120.843 51.1565 120.706 51.052 120.589C50.9476 120.473 50.8198 120.38 50.6769 120.316C50.5341 120.252 50.3793 120.218 50.2228 120.218H25.6308C25.4743 120.218 25.3195 120.252 25.1767 120.316C25.0338 120.38 24.906 120.473 24.8016 120.589C24.6971 120.706 24.6184 120.843 24.5705 120.992C24.5226 121.141 24.5066 121.299 24.5236 121.454L25.0067 125.746C25.0374 126.019 25.1672 126.27 25.3714 126.453C25.5756 126.635 25.8399 126.736 26.1139 126.737Z" fill="#F0F0F0"/>
<path d="M71.6019 105.736H57.4257V131.818H71.6019V105.736Z" fill="#E0E0E0"/>
<path d="M107.733 131.818H60.2681L55.2797 96.4274H102.745L107.733 131.818Z" fill="#E6E6E6"/>
<path d="M114.658 131.818H62.1524L57.168 96.4274H109.67L114.658 131.818Z" fill="#F0F0F0"/>
<path d="M67.2898 126.286L63.0905 101.959H104.532L108.731 126.286H67.2898Z" fill="white"/>
<path d="M85.0977 126.286L71.014 101.959H75.4308L89.5184 126.286H85.0977Z" fill="#FAFAFA"/>
<path d="M91.3906 126.286L77.303 101.959H84.84L98.9237 126.286H91.3906Z" fill="#FAFAFA"/>
<path d="M100.655 150C143.768 150 178.719 147.959 178.719 145.442C178.719 142.925 143.768 140.885 100.655 140.885C57.5414 140.885 22.591 142.925 22.591 145.442C22.591 147.959 57.5414 150 100.655 150Z" fill="#F5F5F5"/>
<path d="M31.1104 67.0482C31.0672 67.0484 31.0254 67.0324 30.9934 67.0033C30.9613 66.9743 30.9413 66.9343 30.9373 66.8912L30.0435 56.1412C30.0412 56.0977 30.0559 56.0549 30.0844 56.0219C30.1129 55.9889 30.1531 55.9682 30.1965 55.9641C30.2418 55.9607 30.2866 55.9753 30.3212 56.0047C30.3559 56.0341 30.3776 56.0759 30.3817 56.1211L31.2755 66.8711C31.2789 66.9164 31.2643 66.9612 31.2349 66.9958C31.2055 67.0305 31.1637 67.0522 31.1185 67.0563L31.1104 67.0482Z" fill="#005ABB"/>
<path d="M31.6419 73.4338C31.5987 73.434 31.5569 73.418 31.5249 73.389C31.4928 73.3599 31.4728 73.3199 31.4688 73.2768L31.199 70.0237C31.1968 70.0011 31.1992 69.9784 31.2059 69.9567C31.2127 69.9351 31.2237 69.9151 31.2384 69.8978C31.253 69.8805 31.271 69.8664 31.2912 69.8562C31.3114 69.846 31.3335 69.84 31.3561 69.8385C31.3786 69.8362 31.4014 69.8386 31.423 69.8453C31.4446 69.8521 31.4646 69.8631 31.4819 69.8778C31.4992 69.8924 31.5133 69.9104 31.5235 69.9306C31.5337 69.9508 31.5398 69.9729 31.5413 69.9955L31.811 73.2486C31.8144 73.2939 31.7998 73.3387 31.7704 73.3734C31.7411 73.408 31.6992 73.4297 31.654 73.4338H31.6419Z" fill="#005ABB"/>
<path d="M122.219 104.025H39.0863C38.0389 104.004 37.0355 103.6 36.266 102.889C35.4965 102.179 35.0144 101.21 34.9112 100.168L30.2287 43.8855C30.1787 43.3939 30.2332 42.8973 30.3887 42.4283C30.5443 41.9593 30.7973 41.5285 31.1312 41.1642C31.465 40.7999 31.8722 40.5104 32.3259 40.3146C32.7796 40.1189 33.2696 40.0214 33.7637 40.0284H116.893C117.94 40.0489 118.944 40.4527 119.715 41.1635C120.485 41.8742 120.968 42.8427 121.072 43.8855L125.754 100.16C125.805 100.652 125.751 101.149 125.596 101.619C125.44 102.088 125.187 102.52 124.854 102.885C124.52 103.25 124.112 103.54 123.658 103.737C123.204 103.933 122.714 104.031 122.219 104.025Z" fill="white"/>
<path d="M122.219 104.186H39.0864C37.9981 104.168 36.9545 103.75 36.1547 103.012C35.3549 102.274 34.8549 101.267 34.7501 100.184L30.0677 43.9057C30.0204 43.3922 30.0808 42.8745 30.2451 42.3857C30.4095 41.8969 30.674 41.4478 31.0219 41.0672C31.368 40.684 31.7912 40.3783 32.2637 40.1702C32.7362 39.962 33.2474 39.8561 33.7637 39.8593H116.893C117.985 39.8767 119.033 40.2974 119.834 41.0407C120.636 41.7839 121.134 42.7972 121.233 43.8855L125.911 100.16C125.963 100.673 125.906 101.191 125.743 101.681C125.58 102.17 125.316 102.62 124.967 103C124.619 103.38 124.194 103.682 123.72 103.887C123.246 104.091 122.735 104.193 122.219 104.186ZM33.7637 40.1975C33.2911 40.1898 32.8223 40.2825 32.3881 40.4694C31.954 40.6563 31.5644 40.9332 31.2452 41.2817C30.9259 41.6303 30.6842 42.0426 30.5361 42.4914C30.3879 42.9402 30.3367 43.4154 30.3857 43.8855L35.0682 100.156C35.1678 101.16 35.633 102.093 36.3753 102.776C37.1176 103.46 38.0853 103.847 39.0944 103.864H122.219C122.691 103.871 123.158 103.778 123.591 103.591C124.025 103.405 124.413 103.128 124.732 102.781C125.051 102.433 125.292 102.022 125.44 101.574C125.589 101.127 125.641 100.653 125.593 100.184L120.911 43.9057C120.812 42.901 120.347 41.9679 119.605 41.284C118.862 40.6002 117.894 40.2134 116.885 40.1975H33.7637Z" fill="#005ABB"/>
<path d="M116.893 40.0365H33.7637C33.2704 40.0295 32.7812 40.1269 32.3281 40.3221C31.875 40.5174 31.4682 40.8062 31.1345 41.1696C30.8007 41.5329 30.5475 41.9627 30.3915 42.4308C30.2354 42.8988 30.1799 43.3946 30.2287 43.8855H121.072C120.966 42.8441 120.482 41.8776 119.712 41.1685C118.942 40.4594 117.939 40.0567 116.893 40.0365Z" fill="#005ABB"/>
<path d="M35.7084 41.9651C35.7198 42.0712 35.7086 42.1785 35.6754 42.2799C35.6422 42.3813 35.5878 42.4745 35.5158 42.5533C35.4439 42.6321 35.356 42.6948 35.258 42.737C35.16 42.7793 35.0541 42.8002 34.9474 42.7985C34.7213 42.7937 34.5046 42.7063 34.3385 42.5528C34.1723 42.3992 34.0681 42.1902 34.0456 41.9651C34.0348 41.8591 34.0465 41.752 34.08 41.6509C34.1134 41.5498 34.1678 41.4568 34.2396 41.3781C34.3115 41.2995 34.3991 41.2369 34.4968 41.1944C34.5945 41.1519 34.7 41.1305 34.8065 41.1316C35.0332 41.1346 35.2508 41.2215 35.4173 41.3753C35.5838 41.5292 35.6875 41.7393 35.7084 41.9651Z" fill="white"/>
<path d="M39.0904 41.9651C39.1018 42.0712 39.0905 42.1785 39.0573 42.2799C39.0241 42.3813 38.9697 42.4745 38.8978 42.5533C38.8258 42.6321 38.7379 42.6948 38.64 42.737C38.542 42.7793 38.4361 42.8002 38.3294 42.7985C38.106 42.7899 37.8933 42.7007 37.7305 42.5476C37.5677 42.3944 37.4658 42.1875 37.4436 41.9651C37.4329 41.8591 37.4446 41.752 37.478 41.6509C37.5115 41.5498 37.5659 41.4568 37.6377 41.3781C37.7095 41.2995 37.7971 41.2369 37.8948 41.1944C37.9925 41.1519 38.0981 41.1305 38.2046 41.1316C38.4285 41.1386 38.6421 41.2271 38.8053 41.3806C38.9684 41.5341 39.0698 41.742 39.0904 41.9651Z" fill="white"/>
<path d="M42.4724 41.9651C42.4838 42.0712 42.4725 42.1785 42.4393 42.2799C42.4061 42.3813 42.3518 42.4745 42.2798 42.5533C42.2078 42.6321 42.12 42.6948 42.022 42.737C41.924 42.7793 41.8181 42.8002 41.7114 42.7985C41.4852 42.7937 41.2686 42.7063 41.1025 42.5528C40.9363 42.3992 40.8321 42.1902 40.8095 41.9651C40.7988 41.8591 40.8105 41.752 40.8439 41.6509C40.8774 41.5498 40.9318 41.4568 41.0036 41.3781C41.0754 41.2995 41.1631 41.2369 41.2607 41.1944C41.3584 41.1519 41.464 41.1305 41.5705 41.1316C41.7972 41.1346 42.0148 41.2215 42.1813 41.3753C42.3478 41.5292 42.4515 41.7393 42.4724 41.9651Z" fill="white"/>
<path d="M115.004 96.6488H45.0934C44.2607 96.6332 43.4627 96.3127 42.8505 95.748C42.2383 95.1833 41.8545 94.4136 41.7718 93.5849L38.4865 54.3536C38.4472 53.9624 38.4912 53.5672 38.6156 53.1942C38.74 52.8211 38.9419 52.4787 39.2081 52.1892C39.4743 51.8998 39.7988 51.67 40.1601 51.515C40.5215 51.36 40.9116 51.2832 41.3048 51.2897H111.228C112.06 51.3053 112.859 51.6258 113.471 52.1905C114.083 52.7552 114.467 53.5249 114.549 54.3536L117.815 93.605C117.851 93.994 117.805 94.3863 117.679 94.7563C117.554 95.1263 117.353 95.4659 117.088 95.7529C116.822 96.04 116.5 96.2681 116.141 96.4224C115.782 96.5768 115.395 96.6539 115.004 96.6488Z" fill="#F0F0F0"/>
<path opacity="0.1" d="M93.3756 58.1423L71.7146 84.224C71.0338 85.0429 70.5756 86.0236 70.3842 87.0713C70.1928 88.1189 70.2746 89.1982 70.6218 90.2051C70.969 91.2119 71.5699 92.1122 72.3664 92.8192C73.1629 93.5262 74.1282 94.0159 75.1691 94.2411L110.318 101.839C111.417 102.077 112.561 102.012 113.626 101.65C114.691 101.288 115.637 100.642 116.363 99.7834C117.09 98.9243 117.568 97.8838 117.748 96.7733C117.928 95.6629 117.802 94.5245 117.384 93.4802L103.908 59.797C103.51 58.7976 102.859 57.919 102.018 57.2477C101.177 56.5764 100.176 56.1356 99.1133 55.9686C98.0505 55.8017 96.9626 55.9143 95.9565 56.2954C94.9505 56.6765 94.061 57.313 93.3756 58.1423Z" fill="#263238"/>
<path opacity="0.1" d="M45.1578 61.7981L37.6127 82.1344C37.3868 82.7553 37.3217 83.4233 37.4236 84.0761C37.5254 84.729 37.7909 85.3454 38.1952 85.8679C38.5996 86.3904 39.1297 86.8021 39.7361 87.0645C40.3424 87.3269 41.0054 87.4315 41.6631 87.3685L63.6985 85.2064C64.3997 85.138 65.0694 84.8814 65.6369 84.464C66.2045 84.0465 66.6488 83.4836 66.923 82.8346C67.1972 82.1856 67.2911 81.4746 67.1948 80.7766C67.0985 80.0787 66.8156 79.4197 66.3759 78.8692L51.8816 60.711C51.4486 60.1706 50.8799 59.7547 50.2336 59.5059C49.5873 59.257 48.8865 59.1841 48.2028 59.2947C47.5192 59.4052 46.8771 59.6952 46.3421 60.135C45.8072 60.5748 45.3985 61.1487 45.1578 61.7981Z" fill="#263238"/>
<path d="M100.848 51.5756L80.5964 80.9668C79.9639 81.8848 79.5776 82.9498 79.4744 84.0599C79.3712 85.17 79.5546 86.2879 80.0071 87.3068C80.4596 88.3257 81.166 89.2114 82.0587 89.8792C82.9514 90.547 84.0006 90.9745 85.1058 91.1209L122.332 96.0771C123.503 96.2331 124.694 96.0678 125.778 95.5989C126.862 95.1301 127.798 94.3753 128.486 93.4154C129.175 92.4555 129.589 91.3266 129.685 90.1494C129.781 88.9722 129.555 87.7911 129.032 86.7323L112.057 52.3727C111.553 51.3549 110.792 50.4864 109.849 49.8534C108.906 49.2205 107.814 48.8452 106.681 48.7646C105.548 48.684 104.414 48.901 103.391 49.3941C102.367 49.8872 101.491 50.6392 100.848 51.5756Z" fill="#005ABB"/>
<path d="M85.9876 88.4958C85.3152 88.4043 84.6759 88.1481 84.1266 87.7498C83.5773 87.3515 83.135 86.8235 82.8391 86.2129C82.534 85.6357 82.3905 84.9868 82.4238 84.3348C82.4572 83.6828 82.666 83.0519 83.0283 82.5088L103.332 53.029C103.699 52.5031 104.207 52.0913 104.798 51.8407C105.388 51.59 106.037 51.5107 106.67 51.6118C107.343 51.7025 107.982 51.9585 108.532 52.3569C109.081 52.7553 109.523 53.2836 109.819 53.8946L126.825 88.3387C127.13 88.9159 127.274 89.5648 127.24 90.2168C127.207 90.8688 126.998 91.4997 126.636 92.0428C126.27 92.5698 125.762 92.9827 125.172 93.2341C124.581 93.4855 123.932 93.5652 123.298 93.4641L85.9876 88.4958Z" fill="white"/>
<path d="M104.943 62.0316L107.314 62.3456C108.056 62.4502 108.733 62.824 109.216 63.3958C109.7 63.9676 109.956 64.6973 109.935 65.4458L109.774 68.5379C109.77 68.6501 109.758 68.7617 109.738 68.8721L108.051 78.1927C107.93 78.8351 107.564 79.405 107.029 79.781C106.494 80.157 105.834 80.3094 105.188 80.2058C104.503 80.1085 103.872 79.7821 103.396 79.2799C102.92 78.7776 102.628 78.1291 102.567 77.4398L101.887 67.8092C101.879 67.6979 101.879 67.5863 101.887 67.475L102.044 64.3789C102.061 64.0271 102.152 63.683 102.311 63.3689C102.471 63.0548 102.694 62.7779 102.968 62.5563C103.242 62.3347 103.559 62.1734 103.899 62.083C104.24 61.9926 104.595 61.975 104.943 62.0316ZM104.754 82.7907L105.398 82.8752C106.061 82.9689 106.667 83.3033 107.1 83.8149C107.533 84.3265 107.763 84.9794 107.745 85.6493C107.731 85.9652 107.65 86.2745 107.508 86.5569C107.366 86.8394 107.166 87.0886 106.92 87.2882C106.675 87.4878 106.391 87.6333 106.085 87.7151C105.78 87.797 105.46 87.8133 105.148 87.763L104.504 87.6744C103.841 87.5817 103.235 87.248 102.802 86.7371C102.369 86.2262 102.139 85.5739 102.157 84.9044C102.17 84.5883 102.251 84.2787 102.393 83.9959C102.534 83.7131 102.735 83.4636 102.98 83.2639C103.226 83.0642 103.51 82.9187 103.816 82.8371C104.122 82.7556 104.441 82.7397 104.754 82.7907Z" fill="#005ABB"/>
<path d="M52.9445 56.0688L47.3843 77.154C47.2167 77.7948 47.2143 78.4675 47.3776 79.1094C47.5408 79.7513 47.8643 80.3412 48.3177 80.824C48.7711 81.3067 49.3396 81.6665 49.9699 81.8697C50.6003 82.0728 51.2719 82.1127 51.9219 81.9855L73.4902 77.7781C74.1745 77.6416 74.8099 77.3246 75.3305 76.86C75.8511 76.3954 76.238 75.8 76.4512 75.1355C76.6643 74.4711 76.6959 73.7618 76.5427 73.081C76.3895 72.4002 76.057 71.7728 75.5798 71.2637L59.5877 54.3738C59.1081 53.8642 58.5007 53.4923 57.8287 53.2969C57.1566 53.1015 56.4445 53.0897 55.7664 53.2627C55.0883 53.4358 54.4689 53.7873 53.9726 54.2808C53.4763 54.7743 53.1213 55.3917 52.9445 56.0688Z" fill="#005ABB"/>
<path d="M51.8776 80.2864C51.4816 80.3581 51.0739 80.3285 50.6923 80.2003C50.3108 80.0722 49.9679 79.8498 49.6954 79.5536C49.4143 79.2683 49.2111 78.9156 49.1053 78.5293C48.9996 78.143 48.9948 77.736 49.0915 77.3472L54.6637 56.2057C54.7603 55.8363 54.96 55.502 55.2395 55.2417C55.5189 54.9815 55.8666 54.8062 56.242 54.7361C56.6383 54.6653 57.0462 54.6957 57.4276 54.8245C57.8091 54.9533 58.1519 55.1763 58.4242 55.4729L74.4726 72.3829C74.7541 72.6681 74.9578 73.0206 75.0643 73.4069C75.1707 73.7931 75.1763 74.2002 75.0806 74.5893C74.9833 74.958 74.7833 75.2914 74.5039 75.5509C74.2245 75.8103 73.8772 75.9851 73.5023 76.0548L51.8776 80.2864Z" fill="white"/>
<path d="M57.2888 61.17L58.6617 60.9002C59.105 60.8287 59.5591 60.9235 59.9366 61.1666C60.3142 61.4096 60.5886 61.7837 60.707 62.2168L61.1982 64.0567C61.2168 64.1243 61.2316 64.1929 61.2425 64.2621L62.1162 70.0558C62.1843 70.4458 62.0956 70.847 61.8694 71.172C61.6432 71.497 61.2978 71.7195 60.9083 71.7911C60.5 71.8589 60.0807 71.7848 59.7203 71.5811C59.3599 71.3775 59.0801 71.0566 58.9274 70.6718L56.6969 65.1639C56.6699 65.0997 56.647 65.0338 56.6285 64.9667L56.1212 63.1227C56.0552 62.9177 56.0337 62.701 56.0582 62.487C56.0826 62.2731 56.1524 62.0668 56.263 61.882C56.3735 61.6972 56.5221 61.5381 56.699 61.4153C56.8759 61.2925 57.077 61.2089 57.2888 61.17ZM61.1741 73.3613L61.5485 73.2888C61.9456 73.22 62.354 73.3026 62.6931 73.5203C63.0323 73.7379 63.2775 74.0748 63.3804 74.4645C63.4372 74.6459 63.455 74.8373 63.4328 75.0261C63.4107 75.2149 63.3489 75.3969 63.2517 75.5603C63.1544 75.7236 63.0238 75.8646 62.8684 75.9741C62.713 76.0836 62.5363 76.1591 62.3497 76.1957L61.9753 76.2682C61.5787 76.3371 61.1708 76.2551 60.8317 76.0382C60.4927 75.8214 60.2471 75.4855 60.1434 75.0966C60.0866 74.9149 60.0687 74.7233 60.0909 74.5342C60.113 74.3451 60.1747 74.1629 60.2719 73.9992C60.3691 73.8355 60.4997 73.6942 60.6551 73.5843C60.8105 73.4743 60.9874 73.3984 61.1741 73.3613Z" fill="#005ABB"/>
<path d="M156.361 60.7955L153.237 61.8101L155.749 64.7815C156.463 64.1636 157.08 63.4431 157.581 62.6436C157.711 62.4172 157.747 62.149 157.68 61.8967C157.614 61.6444 157.451 61.4282 157.227 61.2948L156.361 60.7955Z" fill="#7F3E3B"/>
<path d="M151.8 64.2662L153.672 66.541L155.753 64.7976L153.237 61.8263L151.8 64.2662Z" fill="#7F3E3B"/>
<path d="M157.372 36.5095C158.133 38.6031 158.833 40.6968 159.498 42.8186C160.162 44.9404 160.774 47.0702 161.31 49.3008L161.499 50.1583L161.587 50.6052L161.632 50.8307V50.8871V50.9716L161.656 51.1407C161.744 51.9067 161.706 52.682 161.543 53.4357C161.286 54.6449 160.898 55.8223 160.384 56.9465C159.445 59.0473 158.29 61.0444 156.937 62.9053L154.848 61.7498C155.588 59.7367 156.321 57.6793 156.861 55.6863C157.127 54.7524 157.313 53.7974 157.416 52.8317C157.45 52.4983 157.434 52.1618 157.368 51.8332L157.195 51.2051L156.969 50.4603C156.337 48.4472 155.617 46.3737 154.904 44.3123C154.191 42.2509 153.479 40.1693 152.794 38.1039L157.372 36.5095Z" fill="#7F3E3B"/>
<path d="M139.983 24.0524C140.035 24.3061 139.947 24.5396 139.786 24.5839C139.625 24.6282 139.447 24.451 139.383 24.1813C139.319 23.9115 139.415 23.6941 139.58 23.6539C139.745 23.6136 139.93 23.8028 139.983 24.0524Z" fill="#263238"/>
<path d="M139.971 24.5356C139.835 25.3789 139.588 26.2005 139.238 26.9795C139.436 27.0594 139.649 27.0944 139.862 27.0818C140.075 27.0693 140.283 27.0096 140.47 26.9071L139.971 24.5356Z" fill="#630F0F"/>
<path d="M139.306 22.5467C139.282 22.5467 139.258 22.5409 139.236 22.5297C139.215 22.5185 139.196 22.5022 139.182 22.4823C139.17 22.4662 139.162 22.448 139.157 22.4287C139.153 22.4095 139.152 22.3895 139.156 22.37C139.159 22.3505 139.166 22.3319 139.177 22.3152C139.188 22.2986 139.202 22.2842 139.218 22.2729C139.42 22.1476 139.65 22.0727 139.888 22.0545C140.125 22.0363 140.363 22.0753 140.583 22.1682C140.601 22.1757 140.618 22.1868 140.632 22.2008C140.646 22.2149 140.657 22.2316 140.665 22.2499C140.672 22.2683 140.676 22.288 140.676 22.3079C140.675 22.3277 140.671 22.3473 140.663 22.3655C140.648 22.4027 140.619 22.4324 140.582 22.4482C140.545 22.464 140.503 22.4647 140.466 22.4501C140.294 22.3743 140.107 22.341 139.92 22.3529C139.733 22.3648 139.552 22.4216 139.391 22.5185C139.367 22.5374 139.337 22.5473 139.306 22.5467Z" fill="#263238"/>
<path d="M148.611 24.8496C148.893 27.7726 148.478 30.603 149.13 33.1436C149.13 33.1436 148.406 35.5029 144.086 35.5029C139.335 35.5029 141.907 33.1436 141.907 33.1436C144.524 32.5276 144.528 30.603 144.15 28.7953L148.611 24.8496Z" fill="#7F3E3B"/>
<path d="M150.052 33.9529C150.423 33.2081 150.668 32.1492 149.903 31.8835C149.062 31.5895 144.565 31.4808 142.934 32.0445C142.499 32.1594 142.127 32.4397 141.896 32.8256C141.665 33.2116 141.594 33.6725 141.698 34.1099L150.052 33.9529Z" fill="#263238"/>
<path d="M159.76 139.987C160.056 139.91 160.342 139.8 160.613 139.657C160.628 139.65 160.64 139.639 160.648 139.625C160.657 139.612 160.661 139.596 160.661 139.58C160.661 139.564 160.655 139.548 160.645 139.535C160.635 139.521 160.621 139.512 160.605 139.508C160.464 139.459 159.216 139.045 158.886 139.327C158.85 139.358 158.823 139.398 158.808 139.444C158.793 139.489 158.791 139.538 158.801 139.584C158.808 139.668 158.835 139.75 158.882 139.82C158.928 139.891 158.992 139.948 159.067 139.987C159.291 140.064 159.535 140.064 159.76 139.987ZM160.355 139.584C159.808 139.834 159.365 139.918 159.148 139.806C159.097 139.781 159.054 139.743 159.023 139.697C158.992 139.65 158.974 139.596 158.97 139.54C158.964 139.522 158.963 139.502 158.968 139.483C158.973 139.465 158.984 139.448 158.999 139.435C159.164 139.306 159.84 139.447 160.355 139.6V139.584Z" fill="#005ABB"/>
<path d="M160.597 139.665C160.608 139.662 160.618 139.657 160.627 139.65C160.636 139.643 160.644 139.635 160.649 139.625C160.655 139.615 160.658 139.605 160.66 139.593C160.661 139.582 160.66 139.571 160.657 139.56C160.657 139.52 160.331 138.562 159.852 138.352C159.796 138.323 159.735 138.305 159.671 138.301C159.608 138.297 159.545 138.306 159.486 138.328C159.425 138.342 159.372 138.377 159.334 138.426C159.297 138.475 159.278 138.536 159.28 138.598C159.28 139 160.15 139.572 160.545 139.681L160.597 139.665ZM159.59 138.457C159.658 138.441 159.729 138.45 159.792 138.481C160.099 138.731 160.325 139.068 160.44 139.447C160.037 139.266 159.466 138.807 159.458 138.574C159.458 138.554 159.458 138.505 159.554 138.465L159.59 138.457Z" fill="#005ABB"/>
<path d="M137.768 142.447C138.074 142.438 138.378 142.396 138.674 142.322C138.69 142.317 138.705 142.309 138.716 142.297C138.727 142.285 138.735 142.27 138.739 142.254C138.74 142.237 138.737 142.221 138.73 142.206C138.723 142.191 138.712 142.178 138.698 142.169C138.574 142.092 137.454 141.404 137.068 141.601C137.025 141.623 136.989 141.657 136.964 141.698C136.939 141.739 136.926 141.787 136.927 141.835C136.918 141.916 136.929 141.997 136.959 142.073C136.988 142.148 137.035 142.216 137.096 142.27C137.295 142.401 137.531 142.463 137.768 142.447ZM138.437 142.205C137.849 142.322 137.394 142.302 137.205 142.141C137.162 142.105 137.13 142.058 137.11 142.006C137.09 141.954 137.084 141.898 137.092 141.843C137.092 141.778 137.12 141.758 137.144 141.746C137.342 141.646 137.982 141.94 138.437 142.205Z" fill="#005ABB"/>
<path d="M138.654 142.322C138.67 142.326 138.687 142.326 138.703 142.322C138.714 142.313 138.724 142.302 138.73 142.288C138.737 142.275 138.74 142.26 138.739 142.246C138.739 142.205 138.65 141.203 138.248 140.873C138.2 140.831 138.144 140.8 138.084 140.782C138.023 140.764 137.96 140.759 137.897 140.768C137.836 140.768 137.776 140.789 137.728 140.828C137.68 140.867 137.648 140.921 137.636 140.981C137.563 141.384 138.256 142.129 138.618 142.326L138.654 142.322ZM137.954 140.917C138.023 140.916 138.09 140.94 138.143 140.985C138.384 141.3 138.524 141.68 138.545 142.076C138.187 141.803 137.74 141.231 137.789 141.001C137.789 141.001 137.789 140.929 137.909 140.917H137.946H137.954Z" fill="#005ABB"/>
<path d="M142.395 142.197H139.214L139.182 134.837H142.362L142.395 142.197Z" fill="#7F3E3B"/>
<path d="M164.535 139.476L161.475 140.035L159.28 132.792L162.34 132.232L164.535 139.476Z" fill="#7F3E3B"/>
<path d="M160.895 139.222L164.37 138.417C164.43 138.402 164.494 138.408 164.549 138.436C164.605 138.463 164.65 138.509 164.676 138.566L165.827 141.195C165.855 141.26 165.868 141.331 165.865 141.402C165.862 141.474 165.844 141.543 165.811 141.607C165.778 141.67 165.732 141.725 165.676 141.769C165.62 141.813 165.554 141.843 165.485 141.859C164.277 142.125 163.665 142.189 162.135 142.551C161.197 142.773 159.28 143.333 157.98 143.639C156.679 143.945 156.261 142.688 156.772 142.431C159.051 141.34 159.808 140.418 160.432 139.532C160.544 139.377 160.709 139.267 160.895 139.222Z" fill="#263238"/>
<path d="M139.25 141.827H142.721C142.783 141.827 142.843 141.848 142.891 141.888C142.939 141.928 142.971 141.983 142.982 142.044L143.502 144.863C143.514 144.932 143.511 145.004 143.493 145.072C143.474 145.14 143.441 145.204 143.395 145.257C143.349 145.311 143.292 145.354 143.228 145.384C143.163 145.413 143.093 145.427 143.023 145.426C141.77 145.406 139.967 145.334 138.392 145.334C136.553 145.334 135.896 145.434 133.738 145.434C132.434 145.434 132.128 144.114 132.675 143.997C135.18 143.449 136.275 143.393 138.477 142.068C138.708 141.919 138.975 141.835 139.25 141.827Z" fill="#263238"/>
<path d="M156.216 33.9649C159.184 36.0545 160.078 41.4335 160.078 41.4335L153.354 44.8397C152.291 42.7138 151.467 40.4762 150.898 38.1683C150.177 34.9876 154.107 32.4833 156.216 33.9649Z" fill="#005ABB"/>
<path opacity="0.2" d="M152.855 37.3953L155.504 43.7405L153.354 44.8397C152.687 43.4926 152.106 42.1048 151.615 40.6847L152.855 37.3953Z" fill="black"/>
<path d="M136.444 47.9117C136.468 51.4588 136.681 55.8715 137.209 61.3471H154.203C154.409 58.8509 153.366 47.0823 155.898 35.2976C155.943 35.0901 155.945 34.8756 155.904 34.6673C155.863 34.4591 155.78 34.2614 155.659 34.0865C155.539 33.9115 155.384 33.763 155.205 33.65C155.025 33.537 154.824 33.462 154.614 33.4295C153.28 33.216 151.936 33.0723 150.588 32.9987C148.181 32.8597 145.768 32.8597 143.361 32.9987C142.39 33.0828 141.423 33.2172 140.466 33.4013C139.754 33.546 139.097 33.8887 138.572 34.3902C138.046 34.8917 137.673 35.5314 137.495 36.2357C136.966 38.4071 136.654 40.6257 136.565 42.8588C136.488 44.3082 136.432 45.9872 136.444 47.9117Z" fill="#005ABB"/>
<path opacity="0.2" d="M141.807 41.2524C140.683 42.0576 138.533 42.4602 136.573 42.6253C136.605 42.1059 136.645 41.6147 136.689 41.1517C137.217 40.8739 137.724 40.6202 138.203 40.3867L141.807 41.2524Z" fill="black"/>
<g opacity="0.2">
<path opacity="0.2" d="M139.182 134.837L139.202 138.928H142.378L142.362 134.837H139.182Z" fill="black"/>
<path opacity="0.2" d="M162.34 132.232L159.28 132.796L160.416 136.528L163.476 135.965L162.34 132.232Z" fill="black"/>
</g>
<path d="M148.164 21.4274C148.627 24.5558 149.058 26.3595 147.85 28.3324C147.466 28.9739 146.915 29.4984 146.255 29.849C145.595 30.1996 144.851 30.363 144.105 30.3216C143.358 30.2801 142.638 30.0353 142.02 29.6138C141.403 29.1922 140.913 28.6098 140.603 27.9298C139.359 25.3288 138.807 20.6464 141.533 18.6695C142.111 18.2274 142.795 17.9453 143.517 17.8514C144.239 17.7575 144.972 17.8553 145.644 18.1347C146.316 18.4142 146.903 18.8656 147.345 19.4436C147.788 20.0216 148.07 20.7058 148.164 21.4274Z" fill="#7F3E3B"/>
<path d="M141.658 23.7143C140.478 23.1949 140.591 21.3388 140.949 20.5577C139.584 21.0248 137.611 21.2945 137.257 19.9055C136.903 18.5164 138.107 18.0736 137.37 16.8858C136.633 15.6981 138.98 14.4057 140.075 16.0806C141.171 17.7555 143.876 17.0066 145.624 15.4082C146.896 14.2447 148.756 15.7464 148.019 17.2643C148.019 17.2643 151.844 17.0187 151.083 19.6156C150.322 22.2125 149.247 22.3011 149.493 24.1491C149.662 25.3972 149.807 27.9337 148.309 28.2921C146.497 28.7068 141.98 27.1003 141.658 23.7143Z" fill="#263238"/>
<path opacity="0.2" d="M141.634 27.1003C141.287 27.35 140.929 27.6157 140.563 27.9056L140.583 27.9499C140.94 28.7044 141.513 29.3361 142.229 29.7657C142.459 29.5442 142.588 28.7994 143.015 28.8115C144.291 28.8477 146.759 28.3122 147.17 26.8708L141.634 27.1003Z" fill="black"/>
<path d="M142.628 23.67C142.716 24.3656 142.61 25.0721 142.322 25.7113C141.96 26.4481 141.388 25.977 141.167 25.0711C140.965 24.2659 140.913 22.893 141.436 22.4903C141.96 22.0877 142.527 22.752 142.628 23.67Z" fill="#7F3E3B"/>
<path d="M143.24 61.3593C143.24 61.3593 145.909 85.6453 147.536 94.7445C149.32 104.709 158.556 135.985 158.556 135.985L164.249 134.777C164.249 134.777 157.891 105.515 157.022 95.6504C156.092 84.9407 154.203 61.3593 154.203 61.3593H143.24Z" fill="#005ABB"/>
<path opacity="0.3" d="M143.24 61.3593C143.24 61.3593 145.909 85.6453 147.536 94.7445C149.32 104.709 158.556 135.985 158.556 135.985L164.249 134.777C164.249 134.777 157.891 105.515 157.022 95.6504C156.136 85.4722 156.136 85.4923 154.203 61.3593H143.24Z" fill="black"/>
<path d="M157.283 134.072C157.259 134.072 158.25 136.15 158.25 136.15L164.671 134.777L164.217 132.836L157.283 134.072Z" fill="#263238"/>
<path opacity="0.2" d="M145.185 70.0156C149.324 70.8208 148.281 86.3821 147.472 94.3821C146.489 88.7455 145.148 77.8465 144.251 70.1283C144.54 69.9845 144.87 69.9447 145.185 70.0156Z" fill="black"/>
<path d="M137.209 61.3592C137.209 61.3592 135.856 85.1138 135.828 94.8129C135.796 104.878 138.042 137.893 138.042 137.893H143.429C143.429 137.893 144.879 105.478 145.499 95.5779C146.175 84.7837 148.386 61.3552 148.386 61.3552L137.209 61.3592Z" fill="#005ABB"/>
<path opacity="0.3" d="M137.209 61.3592C137.209 61.3592 135.856 85.1138 135.828 94.8129C135.796 104.878 138.042 137.893 138.042 137.893H143.429C143.429 137.893 144.879 105.478 145.499 95.5779C146.175 84.7837 148.386 61.3552 148.386 61.3552L137.209 61.3592Z" fill="black"/>
<path d="M137.092 135.755C137.068 135.755 137.309 137.99 137.309 137.99H143.856L144.11 135.977L137.092 135.755Z" fill="#263238"/>
<path d="M143.945 38.9494C143.3 39.0098 142.757 39.046 142.165 39.0621C141.573 39.0782 141.01 39.0903 140.434 39.0863C139.274 39.0863 138.115 39.0138 136.947 38.885C135.762 38.7628 134.586 38.561 133.428 38.281C132.202 37.9928 131.011 37.5702 129.877 37.0208L129.744 36.9524C129.496 36.831 129.273 36.6616 129.091 36.454C128.908 36.2464 128.768 36.0046 128.679 35.7427C128.589 35.4807 128.553 35.2037 128.572 34.9276C128.59 34.6515 128.663 34.3818 128.786 34.1341C128.842 34.0198 128.908 33.9107 128.983 33.8079C129.464 33.1711 130.011 32.5867 130.614 32.0646C131.157 31.5814 131.701 31.1506 132.249 30.74C133.344 29.9146 134.463 29.1859 135.586 28.4772C136.71 27.7686 137.857 27.1124 139.013 26.4641C140.168 25.8159 141.332 25.2321 142.539 24.6725C142.805 24.5663 143.1 24.5578 143.371 24.6485C143.642 24.7391 143.872 24.923 144.021 25.1675C144.169 25.412 144.226 25.7011 144.181 25.9835C144.136 26.2659 143.992 26.5233 143.776 26.7097C142.765 27.4868 141.722 28.2558 140.712 29.0449C139.701 29.8341 138.698 30.6111 137.696 31.4083C136.693 32.2055 135.739 33.0188 134.825 33.824C134.37 34.2267 133.931 34.6293 133.541 35.0681C133.19 35.425 132.872 35.8131 132.591 36.2277L131.701 33.0067C132.578 33.3322 133.484 33.5735 134.407 33.7274C135.394 33.8952 136.39 34.0108 137.39 34.0737C138.409 34.1381 139.439 34.1743 140.474 34.1743C140.993 34.1743 141.513 34.1743 142.028 34.1743C142.544 34.1743 143.087 34.1341 143.538 34.1099H143.59C144.199 34.1093 144.786 34.3387 145.233 34.7521C145.68 35.1656 145.955 35.7327 146.001 36.3399C146.048 36.947 145.864 37.5495 145.486 38.0266C145.107 38.5038 144.563 38.8204 143.961 38.9131L143.945 38.9494Z" fill="#7F3E3B"/>
<path d="M146.199 24.0445L144.186 24.4914C144.186 24.4914 141.493 24.1572 140.877 26.1864L142.487 27.5473L144.951 27.9499C145.341 28.0105 145.74 27.9457 146.091 27.7647L146.719 27.4386C146.861 27.3651 146.983 27.2569 147.074 27.1239C147.164 26.9909 147.219 26.8375 147.234 26.6776L147.383 25.0671C147.398 24.9146 147.376 24.7608 147.319 24.6185C147.262 24.4763 147.172 24.3498 147.056 24.2496C146.94 24.1494 146.801 24.0785 146.652 24.0428C146.503 24.0071 146.348 24.0077 146.199 24.0445Z" fill="#7F3E3B"/>
<path d="M142.27 41.3007C138.884 42.2428 135.023 41.0671 135.023 41.0671L136.444 33.4858C136.444 33.4858 139.806 33.1879 141.907 33.1436C147.315 33.0147 148.373 39.6097 142.27 41.3007Z" fill="#005ABB"/>
</svg>
