<svg width="32" height="32" viewBox="0 0 32 32" fill="none" xmlns="http://www.w3.org/2000/svg">
<circle cx="16" cy="16" r="16" fill="#005ABB"/>
<path d="M21.6667 9.5143V25.0604H8.44778V8.60852H20.7575L21.6667 9.5143Z" fill="#B4DAFE"/>
<path d="M23.5522 11.3929V23.3932H10.3333V6.93958H19.0834L20.7575 8.60848L21.6667 9.51426L23.5522 11.3929Z" fill="#D8ECFD"/>
<path d="M23.5522 11.3929H19.0834V6.93958L20.7575 8.60848L21.6667 9.51426L23.5522 11.3929Z" fill="#EBF6FF"/>
<path d="M12.9903 13.3187H12.1156C12.0358 13.3187 11.9593 13.287 11.9029 13.2306C11.8465 13.1742 11.8148 13.0977 11.8148 13.0179C11.8148 12.9382 11.8465 12.8617 11.9029 12.8053C11.9593 12.7489 12.0358 12.7172 12.1156 12.7172H12.9906C13.0704 12.7172 13.1469 12.7489 13.2033 12.8053C13.2597 12.8617 13.2914 12.9382 13.2914 13.0179C13.2914 13.0977 13.2597 13.1742 13.2033 13.2306C13.1469 13.287 13.0704 13.3187 12.9906 13.3187H12.9903Z" fill="#B4DAFE"/>
<path d="M21.3178 13.3187H14.209C14.1293 13.3187 14.0528 13.287 13.9963 13.2306C13.9399 13.1742 13.9082 13.0977 13.9082 13.0179C13.9082 12.9382 13.9399 12.8617 13.9963 12.8053C14.0528 12.7489 14.1293 12.7172 14.209 12.7172H21.3178C21.3976 12.7172 21.4741 12.7489 21.5305 12.8053C21.5869 12.8617 21.6186 12.9382 21.6186 13.0179C21.6186 13.0977 21.5869 13.1742 21.5305 13.2306C21.4741 13.287 21.3976 13.3187 21.3178 13.3187Z" fill="#EBF6FF"/>
<path d="M12.9903 15.1626H12.1156C12.0358 15.1626 11.9593 15.1309 11.9029 15.0745C11.8465 15.0181 11.8148 14.9416 11.8148 14.8618C11.8148 14.782 11.8465 14.7055 11.9029 14.6491C11.9593 14.5927 12.0358 14.561 12.1156 14.561H12.9906C13.0704 14.561 13.1469 14.5927 13.2033 14.6491C13.2597 14.7055 13.2914 14.782 13.2914 14.8618C13.2914 14.9416 13.2597 15.0181 13.2033 15.0745C13.1469 15.1309 13.0704 15.1626 12.9906 15.1626H12.9903Z" fill="#B4DAFE"/>
<path d="M21.3178 15.1626H14.209C14.1293 15.1626 14.0528 15.1309 13.9963 15.0745C13.9399 15.0181 13.9082 14.9416 13.9082 14.8618C13.9082 14.782 13.9399 14.7055 13.9963 14.6491C14.0528 14.5927 14.1293 14.561 14.209 14.561H21.3178C21.3976 14.561 21.4741 14.5927 21.5305 14.6491C21.5869 14.7055 21.6186 14.782 21.6186 14.8618C21.6186 14.9416 21.5869 15.0181 21.5305 15.0745C21.4741 15.1309 21.3976 15.1626 21.3178 15.1626Z" fill="#EBF6FF"/>
<path d="M12.9903 17.0063H12.1156C12.0358 17.0063 11.9593 16.9747 11.9029 16.9183C11.8465 16.8618 11.8148 16.7853 11.8148 16.7056C11.8148 16.6258 11.8465 16.5493 11.9029 16.4929C11.9593 16.4365 12.0358 16.4048 12.1156 16.4048H12.9906C13.0704 16.4048 13.1469 16.4365 13.2033 16.4929C13.2597 16.5493 13.2914 16.6258 13.2914 16.7056C13.2914 16.7853 13.2597 16.8618 13.2033 16.9183C13.1469 16.9747 13.0704 17.0063 12.9906 17.0063H12.9903Z" fill="#B4DAFE"/>
<path d="M21.3178 17.0063H14.209C14.1293 17.0063 14.0528 16.9747 13.9963 16.9183C13.9399 16.8618 13.9082 16.7853 13.9082 16.7056C13.9082 16.6258 13.9399 16.5493 13.9963 16.4929C14.0528 16.4365 14.1293 16.4048 14.209 16.4048H21.3178C21.3976 16.4048 21.4741 16.4365 21.5305 16.4929C21.5869 16.5493 21.6186 16.6258 21.6186 16.7056C21.6186 16.7853 21.5869 16.8618 21.5305 16.9183C21.4741 16.9747 21.3976 17.0063 21.3178 17.0063Z" fill="#EBF6FF"/>
<path d="M12.9903 18.8502H12.1156C12.0358 18.8502 11.9593 18.8185 11.9029 18.7621C11.8465 18.7057 11.8148 18.6292 11.8148 18.5494C11.8148 18.4697 11.8465 18.3932 11.9029 18.3368C11.9593 18.2803 12.0358 18.2487 12.1156 18.2487H12.9906C13.0704 18.2487 13.1469 18.2803 13.2033 18.3368C13.2597 18.3932 13.2914 18.4697 13.2914 18.5494C13.2914 18.6292 13.2597 18.7057 13.2033 18.7621C13.1469 18.8185 13.0704 18.8502 12.9906 18.8502H12.9903Z" fill="#B4DAFE"/>
<path d="M21.3178 18.8502H14.209C14.1293 18.8502 14.0528 18.8185 13.9963 18.7621C13.9399 18.7057 13.9082 18.6292 13.9082 18.5494C13.9082 18.4697 13.9399 18.3932 13.9963 18.3368C14.0528 18.2803 14.1293 18.2487 14.209 18.2487H21.3178C21.3976 18.2487 21.4741 18.2803 21.5305 18.3368C21.5869 18.3932 21.6186 18.4697 21.6186 18.5494C21.6186 18.6292 21.5869 18.7057 21.5305 18.7621C21.4741 18.8185 21.3976 18.8502 21.3178 18.8502Z" fill="#EBF6FF"/>
<path d="M12.9903 20.6938H12.1156C12.0358 20.6938 11.9593 20.6622 11.9029 20.6058C11.8465 20.5493 11.8148 20.4728 11.8148 20.3931C11.8148 20.3133 11.8465 20.2368 11.9029 20.1804C11.9593 20.124 12.0358 20.0923 12.1156 20.0923H12.9906C13.0704 20.0923 13.1469 20.124 13.2033 20.1804C13.2597 20.2368 13.2914 20.3133 13.2914 20.3931C13.2914 20.4728 13.2597 20.5493 13.2033 20.6058C13.1469 20.6622 13.0704 20.6938 12.9906 20.6938H12.9903Z" fill="#B4DAFE"/>
<path d="M21.3178 20.6938H14.209C14.1293 20.6938 14.0528 20.6622 13.9963 20.6058C13.9399 20.5493 13.9082 20.4728 13.9082 20.3931C13.9082 20.3133 13.9399 20.2368 13.9963 20.1804C14.0528 20.124 14.1293 20.0923 14.209 20.0923H21.3178C21.3976 20.0923 21.4741 20.124 21.5305 20.1804C21.5869 20.2368 21.6186 20.3133 21.6186 20.3931C21.6186 20.4728 21.5869 20.5493 21.5305 20.6058C21.4741 20.6622 21.3976 20.6938 21.3178 20.6938Z" fill="#EBF6FF"/>
<path d="M14.1074 9.604H12.1152V11.5962H14.1074V9.604Z" fill="#B4DAFE"/>
</svg>
