<svg width="24" height="24" viewBox="0 0 24 24" fill="none" xmlns="http://www.w3.org/2000/svg">
<path d="M19.3311 10.9095L5.72303 4.11229C5.53945 4.02732 5.33751 3.98957 5.1356 4.00247C4.93368 4.01538 4.73821 4.07853 4.56696 4.18618C4.39572 4.29383 4.25414 4.44255 4.15513 4.61882C4.05611 4.79508 4.0028 4.99329 4.00004 5.19539V18.784C3.99833 18.9915 4.05021 19.1958 4.15068 19.3774C4.25116 19.559 4.39682 19.7116 4.57358 19.8205C4.75035 19.9294 4.95225 19.9909 5.15977 19.9991C5.36729 20.0072 5.5734 19.9618 5.75819 19.8671L19.3311 13.0699C19.5322 12.969 19.7012 12.8144 19.8193 12.6231C19.9374 12.4318 20 12.2115 20 11.9868C20 11.762 19.9374 11.5417 19.8193 11.3504C19.7012 11.1592 19.5322 11.0045 19.3311 10.9037V10.9095Z" fill="white"/>
</svg>
