<svg width="24" height="24" viewBox="0 0 24 24" fill="none" xmlns="http://www.w3.org/2000/svg">
<path d="M9 13.5C9 13.6475 8.97094 13.7936 8.91448 13.9299C8.85802 14.0663 8.77526 14.1901 8.67093 14.2944C8.56661 14.3988 8.44275 14.4815 8.30645 14.538C8.17014 14.5944 8.02404 14.6235 7.8765 14.6235C7.72896 14.6235 7.58286 14.5944 7.44656 14.538C7.31025 14.4815 7.18639 14.3988 7.08207 14.2944C6.97774 14.1901 6.89498 14.0663 6.83852 13.9299C6.78206 13.7936 6.753 13.6475 6.753 13.5C6.753 13.202 6.87137 12.9163 7.08207 12.7056C7.29276 12.4949 7.57853 12.3765 7.8765 12.3765C8.17447 12.3765 8.46024 12.4949 8.67093 12.7056C8.88163 12.9163 9 13.202 9 13.5ZM16.1235 14.6235C16.271 14.6235 16.4171 14.5944 16.5534 14.538C16.6898 14.4815 16.8136 14.3988 16.9179 14.2944C17.0223 14.1901 17.105 14.0663 17.1615 13.9299C17.2179 13.7936 17.247 13.6475 17.247 13.5C17.247 13.3525 17.2179 13.2064 17.1615 13.0701C17.105 12.9337 17.0223 12.8099 16.9179 12.7056C16.8136 12.6012 16.6898 12.5185 16.5534 12.462C16.4171 12.4056 16.271 12.3765 16.1235 12.3765C15.8255 12.3765 15.5398 12.4949 15.3291 12.7056C15.1184 12.9163 15 13.202 15 13.5C15 13.798 15.1184 14.0837 15.3291 14.2944C15.5398 14.5051 15.8255 14.6235 16.1235 14.6235ZM4.551 9.111L4.566 9H3.75C3.55109 9 3.36032 8.92098 3.21967 8.78033C3.07902 8.63968 3 8.44891 3 8.25C3 8.05109 3.07902 7.86032 3.21967 7.71967C3.36032 7.57902 3.55109 7.5 3.75 7.5H4.7595L5.0025 5.616C5.09588 4.89249 5.44969 4.22779 5.99773 3.74628C6.54577 3.26478 7.25048 2.99947 7.98 3H16.02C16.7499 2.99998 17.4548 3.26608 18.0027 3.74847C18.5505 4.23085 18.9037 4.89643 18.996 5.6205L19.2345 7.5H20.25C20.4489 7.5 20.6397 7.57902 20.7803 7.71967C20.921 7.86032 21 8.05109 21 8.25C21 8.44891 20.921 8.63968 20.7803 8.78033C20.6397 8.92098 20.4489 9 20.25 9H19.4265L19.4415 9.108C19.8945 9.25429 20.2893 9.54045 20.5694 9.92534C20.8494 10.3102 21.0002 10.774 21 11.25V15.75C21 16.3467 20.7629 16.919 20.341 17.341C19.919 17.7629 19.3467 18 18.75 18H18.7455V19.875C18.7455 20.1734 18.627 20.4595 18.416 20.6705C18.205 20.8815 17.9189 21 17.6205 21C17.3221 21 17.036 20.8815 16.825 20.6705C16.614 20.4595 16.4955 20.1734 16.4955 19.875V18H7.5V19.875C7.5 20.1734 7.38147 20.4595 7.1705 20.6705C6.95952 20.8815 6.67337 21 6.375 21C6.07663 21 5.79048 20.8815 5.5795 20.6705C5.36853 20.4595 5.25 20.1734 5.25 19.875V18C4.65326 18 4.08097 17.7629 3.65901 17.341C3.23705 16.919 3 16.3467 3 15.75V11.25C2.99993 10.7755 3.1499 10.313 3.42847 9.92886C3.70704 9.54469 4.09994 9.25842 4.551 9.111ZM6.4905 5.808L6.078 9H17.9145L17.5065 5.8095C17.4602 5.44785 17.2838 5.11545 17.0102 4.87445C16.7366 4.63344 16.3846 4.50033 16.02 4.5H7.98C7.61537 4.49992 7.2632 4.63266 6.98933 4.87339C6.71547 5.11412 6.53867 5.44637 6.492 5.808H6.4905ZM18.75 16.5C18.9489 16.5 19.1397 16.421 19.2803 16.2803C19.421 16.1397 19.5 15.9489 19.5 15.75V11.25C19.5 11.0511 19.421 10.8603 19.2803 10.7197C19.1397 10.579 18.9489 10.5 18.75 10.5H5.25C5.05109 10.5 4.86032 10.579 4.71967 10.7197C4.57902 10.8603 4.5 11.0511 4.5 11.25V15.75C4.5 15.9489 4.57902 16.1397 4.71967 16.2803C4.86032 16.421 5.05109 16.5 5.25 16.5H18.75Z" fill="#20215A"/>
</svg>
