<svg width="170" height="59" viewBox="0 0 170 59" fill="none" xmlns="http://www.w3.org/2000/svg">
<path d="M7.26496 49.9199C7.26496 48.4242 6.32478 47.014 4.52991 47.014C2.60684 47.014 1.79487 48.3387 1.79487 50.0481C1.79487 51.7575 2.64957 53.3815 4.40171 53.3815C6.41025 53.3387 7.26496 51.6721 7.26496 49.9199ZM8.93162 53.8943C8.93162 56.9712 6.75214 58.2105 4.23077 58.2105C2.86325 58.2105 1.49573 57.9969 0.42735 57.3986L0.897435 56.4584C2.00855 57.014 3.07692 57.1849 4.18803 57.1849C6.11111 57.1849 7.26496 56.1165 7.26496 54.0225V52.9114H7.22222C6.5812 53.6806 5.59829 54.3644 4.1453 54.3644C1.5812 54.3644 0 52.6122 0 50.0481C0 47.9541 1.79487 45.9456 4.40171 45.9456C5.51282 45.9456 6.7094 46.4157 7.22222 47.2704H7.26496V46.1593H8.93162V53.8943Z" fill="white"/>
<path d="M12.3077 42.3558H13.9743V54.1934H12.3077V42.3558Z" fill="white"/>
<path d="M20.6411 49.8772C19.1881 50.2618 18.4188 50.8601 18.4188 51.8857C18.4188 52.7404 19.1026 53.2533 19.7436 53.2533C20.9402 53.2533 22.4359 51.9712 22.2223 49.4926L20.6411 49.8772ZM21.6667 53.296C21.0257 53.8515 20.2137 54.3644 19.359 54.3644C17.8205 54.3644 16.7522 53.3815 16.7522 51.8857C16.7522 50.4755 18.1197 49.6208 20.0428 49.108L22.265 48.5097C22.1795 47.5268 21.3248 46.8857 20.4274 46.8857C19.359 46.8857 18.6752 47.2703 17.9915 47.7404L17.3505 47.0139C18.2906 46.2447 19.2308 45.9028 20.5129 45.9028C21.8804 45.9028 23.9317 46.2874 23.9317 48.6379V52.1849C23.9317 52.7832 24.0171 53.5524 24.3163 54.1507H22.5214C22.3077 53.8088 22.265 53.296 22.265 52.7832L21.6667 53.296Z" fill="white"/>
<path d="M31.6667 47.4413C30.9829 47.0567 30.4701 46.9285 29.9573 46.9285C29.359 46.9285 28.5897 47.1849 28.5897 47.8259C28.5897 48.5097 29.4444 48.8515 30.5128 49.5353C31.7094 50.3045 32.4786 50.9883 32.4786 52.0994C32.4786 53.4669 30.9402 54.3644 29.2308 54.3644C28.1624 54.3644 27.0085 53.9798 26.3675 53.3387L27.1795 52.5268C27.735 52.9541 28.4188 53.3387 29.188 53.3387C29.9573 53.3387 30.7692 52.9968 30.7692 52.1849C30.7692 51.2447 29.8291 50.8601 28.9316 50.3045C27.8632 49.6635 26.9658 49.108 26.9658 47.9968C26.9658 46.7148 28.4188 45.9028 30.0427 45.9028C30.9402 45.9028 31.8376 46.2447 32.3077 46.6293L31.6667 47.4413Z" fill="white"/>
<path d="M39.6154 47.4413C38.9316 47.0567 38.4188 46.9285 37.906 46.9285C37.3077 46.9285 36.5385 47.1849 36.5385 47.8259C36.5385 48.5097 37.3932 48.8515 38.4615 49.5353C39.6581 50.3045 40.4273 50.9883 40.4273 52.0994C40.4273 53.4669 38.8889 54.3644 37.1795 54.3644C36.1111 54.3644 34.9572 53.9798 34.3162 53.3387L35.1282 52.5268C35.6837 52.9541 36.3675 53.3387 37.1367 53.3387C37.906 53.3387 38.7179 52.9968 38.7179 52.1849C38.7179 51.2447 37.7778 50.8601 36.8803 50.3045C35.8119 49.6635 34.9145 49.108 34.9145 47.9968C34.9145 46.7148 36.3675 45.9028 37.9914 45.9028C38.8889 45.9028 39.7863 46.2447 40.2564 46.6293L39.6154 47.4413Z" fill="white"/>
<path d="M50.8547 47.1422C51.6239 46.3729 52.735 45.9456 53.7607 45.9456C55.2137 45.9456 56.1111 46.4584 56.7094 47.1422C57.6068 46.4157 58.8462 45.9456 59.8718 45.9456C61.9231 45.9456 62.9487 47.0994 63.0342 48.8088V54.1934H61.3675V49.4071C61.3675 48.2533 61.0256 47.0994 59.3162 47.0994C57.906 47.0994 56.9658 47.7405 56.9658 49.3644V54.1934H55.2991V49.4071C55.2991 47.9114 54.5727 47.0994 53.2051 47.0994C51.7949 47.0994 50.8974 47.8687 50.8974 49.4499V54.2362H49.2308V46.202H50.8547V47.1422Z" fill="white"/>
<path d="M69.7863 49.8772C68.3333 50.2618 67.5641 50.8601 67.5641 51.8857C67.5641 52.7404 68.2478 53.2533 68.8889 53.2533C70.0854 53.2533 71.5812 51.9712 71.3675 49.4926L69.7863 49.8772ZM70.8119 53.296C70.1709 53.8515 69.3589 54.3644 68.5042 54.3644C66.9658 54.3644 65.8974 53.3815 65.8974 51.8857C65.8974 50.4755 67.2649 49.6208 69.188 49.108L71.4102 48.5097C71.3248 47.5268 70.4701 46.8857 69.5726 46.8857C68.5042 46.8857 67.8205 47.2703 67.1367 47.7404L66.4957 47.0139C67.4359 46.2447 68.376 45.9028 69.6581 45.9028C71.0256 45.9028 73.0769 46.2874 73.0769 48.6379V52.1849C73.0769 52.7832 73.1624 53.5524 73.5042 54.1507H71.7094C71.4957 53.8088 71.453 53.296 71.453 52.7832L70.8119 53.296Z" fill="white"/>
<path d="M83.1197 49.9199C83.1197 48.4242 82.1795 47.014 80.3846 47.014C78.4615 47.014 77.6496 48.3387 77.6496 50.0481C77.6496 51.7575 78.5043 53.3815 80.2564 53.3815C82.265 53.3387 83.1197 51.6721 83.1197 49.9199ZM83.1197 52.9114C82.4359 53.6806 81.453 54.3644 79.9573 54.3644C77.4786 54.3644 75.8547 52.6122 75.8547 50.0481C75.8547 47.9541 77.6068 45.9456 80.1282 45.9456C81.3675 45.9456 82.5214 46.3729 83.0769 47.1422H83.1197V42.3558H84.7863V54.1934H83.1197V52.9114Z" fill="white"/>
<path d="M94.0171 49.2789C94.0171 48.0396 93.4188 46.9712 91.9658 46.9712C90.1709 46.9712 89.4872 48.2533 89.4444 49.2789H94.0171ZM89.3162 50.2618C89.3162 51.8857 90.5983 53.3387 92.4359 53.3387C93.2906 53.3387 94.3162 53.0823 94.9572 52.655L95.4273 53.4242C94.4444 54.0225 93.3333 54.3644 92.3504 54.3644C89.4872 54.3644 87.5641 52.8259 87.5641 50.0054C87.5641 47.2276 89.8718 45.9456 91.9658 45.9456C94.7863 45.9456 95.7265 48.1678 95.5128 50.2618H89.3162Z" fill="white"/>
<path d="M105.513 50.0481C105.513 51.5439 106.111 53.3387 108.291 53.3387C110.47 53.3387 111.068 51.5866 111.068 50.0481C111.068 48.5951 110.385 46.9712 108.291 46.9712C106.197 46.9712 105.513 48.6379 105.513 50.0481ZM103.718 50.0481C103.718 47.4413 105.94 45.9456 108.291 45.9456C110.598 45.9456 112.863 47.4413 112.863 50.0481C112.863 52.5268 111.026 54.3644 108.291 54.3644C105.556 54.3644 103.718 52.5695 103.718 50.0481Z" fill="white"/>
<path d="M115.855 54.1934V46.9712H114.359V46.1165H115.855V45.1336C115.855 42.9969 117.521 42.3558 118.547 42.3558C119.017 42.3558 119.615 42.4413 120 42.6977L119.615 43.4242C119.316 43.3815 119.06 43.296 118.718 43.296C118.462 43.296 117.521 43.3388 117.521 44.6635V46.1165H119.744V46.9712H117.521V54.1934H115.855Z" fill="white"/>
<path d="M127.778 43.5097C127.778 43.1251 128.162 42.655 128.846 42.655C129.53 42.655 129.915 43.1251 129.915 43.5097C129.915 43.937 129.658 44.4926 128.846 44.4926C128.034 44.4498 127.778 43.937 127.778 43.5097ZM129.658 54.1934H127.991V46.1592H129.658V54.1934Z" fill="white"/>
<path d="M139.573 49.9199C139.573 48.4242 138.632 47.014 136.838 47.014C134.915 47.014 134.103 48.3387 134.103 50.0481C134.103 51.7575 134.957 53.3815 136.709 53.3815C138.761 53.3387 139.573 51.6721 139.573 49.9199ZM139.573 52.9114C138.889 53.6806 137.906 54.3644 136.41 54.3644C133.932 54.3644 132.308 52.6122 132.308 50.0481C132.308 47.9541 134.06 45.9456 136.581 45.9456C137.821 45.9456 138.974 46.3729 139.53 47.1422H139.573V42.3558H141.239V54.1934H139.573V52.9114Z" fill="white"/>
<path d="M150.513 49.2789C150.513 48.0396 149.915 46.9712 148.462 46.9712C146.709 46.9712 145.983 48.2533 145.94 49.2789H150.513ZM145.812 50.2618C145.812 51.8857 147.094 53.3387 148.932 53.3387C149.786 53.3387 150.812 53.0823 151.453 52.655L151.923 53.4242C150.94 54.0225 149.829 54.3644 148.846 54.3644C145.94 54.3644 144.06 52.8259 144.06 50.0054C144.06 47.2276 146.368 45.9456 148.462 45.9456C151.282 45.9456 152.222 48.1678 152.051 50.2618H145.812Z" fill="white"/>
<path d="M158.205 49.8772C156.752 50.2618 155.983 50.8601 155.983 51.8857C155.983 52.7404 156.667 53.2533 157.308 53.2533C158.504 53.2533 160 51.9712 159.786 49.4926L158.205 49.8772ZM159.188 53.296C158.547 53.8515 157.735 54.3644 156.88 54.3644C155.342 54.3644 154.273 53.3815 154.273 51.8857C154.273 50.4755 155.641 49.6208 157.564 49.108L159.786 48.5097C159.701 47.5268 158.846 46.8857 157.949 46.8857C156.88 46.8857 156.197 47.2703 155.513 47.7404L154.872 47.0139C155.812 46.2447 156.752 45.9028 158.034 45.9028C159.402 45.9028 161.453 46.2874 161.453 48.6379V52.1849C161.453 52.7832 161.538 53.5524 161.88 54.1507H160.085C159.872 53.8088 159.829 53.296 159.829 52.7832L159.188 53.296Z" fill="white"/>
<path d="M169.188 47.4413C168.504 47.0567 167.991 46.9285 167.479 46.9285C166.88 46.9285 166.111 47.1849 166.111 47.8259C166.111 48.5097 166.966 48.8515 168.034 49.5353C169.231 50.3045 170 50.9883 170 52.0994C170 53.4669 168.461 54.3644 166.752 54.3644C165.684 54.3644 164.53 53.9798 163.889 53.3387L164.701 52.5268C165.256 52.9541 165.94 53.3387 166.709 53.3387C167.479 53.3387 168.291 52.9968 168.291 52.1849C168.291 51.2447 167.308 50.8601 166.453 50.3045C165.385 49.6635 164.487 49.108 164.487 47.9968C164.487 46.7148 165.94 45.9028 167.564 45.9028C168.462 45.9028 169.359 46.2447 169.829 46.6293L169.188 47.4413Z" fill="white"/>
<path d="M49.8292 0.817383C53.3762 0.817383 56.4959 1.92849 59.2309 3.97977L57.5215 6.4584C55.513 4.79173 52.0942 3.93704 49.5301 3.93704C42.3506 3.93704 38.0771 9.02251 38.0771 16.202C38.0771 23.937 43.1626 28.8088 49.5301 28.8088C52.3079 28.8088 55.0002 28.1251 57.2651 26.5866L58.8891 29.0225C56.154 30.8601 52.5643 31.8857 49.3164 31.8857C38.6327 31.8857 33.1626 24.5781 33.1626 16.2875C33.1626 8.72336 39.1027 0.817383 49.8292 0.817383Z" fill="white"/>
<path d="M62.0087 1.3302H66.6241V13.3815H81.154V1.3302H85.7694V31.3302H81.154V16.5011H66.6241V31.3302H62.0087V1.3302Z" fill="white"/>
<path d="M110.182 0C116.667 2.13941 121.38 8.29022 121.38 15.5107C121.38 24.5364 114.059 31.8237 105.034 31.8237C97.7464 31.8237 91.5622 27.0435 89.4562 20.4581C92.0302 25.1047 97.011 28.2803 102.694 28.2803C111.051 28.2803 117.803 21.5278 117.803 13.1707C117.803 7.52136 114.728 2.60741 110.182 0Z" fill="white"/>
<path d="M102.694 0.835724C108.343 0.835724 113.09 4.61313 114.561 9.79451C112.622 6.55197 109.079 4.41256 105.034 4.41256C98.9164 4.41256 93.9356 9.39337 93.9356 15.5107C93.9356 19.5221 96.0416 22.9987 99.2172 24.971C94.1361 23.4667 90.3922 18.7533 90.3922 13.1708C90.3922 6.35139 95.9078 0.835724 102.694 0.835724Z" fill="white"/>
<path d="M132.351 4.40713V31.3302H127.735V4.40713H120.556V1.3302H139.616V4.40713H132.351Z" fill="white"/>
<path d="M153.59 4.40713V31.3302H148.975V4.40713H141.795V1.3302H160.855V4.40713H153.59Z" fill="white"/>
<path d="M20.7267 0.817383C24.06 0.817383 27.5643 1.97123 30.1711 3.97977L28.6327 6.54388C26.4532 5.04815 23.6754 3.93704 20.9831 3.93704C16.0686 3.93704 13.9745 5.86012 13.9745 8.33875C13.9745 10.6037 16.7523 11.9712 22.2224 13.8516C26.966 15.4755 31.7523 17.655 31.4104 23.467C31.1113 28.296 26.1113 31.8003 19.8292 31.8003C16.325 31.8003 12.1369 30.4755 9.27368 28.296L11.1113 25.6037C13.5899 27.3986 16.5386 28.6379 19.7438 28.6379C23.5472 28.6379 26.795 26.7148 26.795 23.3815C26.795 19.7917 20.1711 18.2533 17.6497 17.2704C12.3079 15.2618 9.31641 12.9114 9.53009 8.59515C9.65829 3.85156 14.1882 0.817383 20.7267 0.817383Z" fill="white"/>
</svg>
