<svg width="231" height="202" viewBox="0 0 231 202" fill="none" xmlns="http://www.w3.org/2000/svg">
<path d="M70.1017 43.6752C115.861 -2.82298 196.231 -3.82954 223.361 64.7415C230.877 83.7351 229.43 111.234 211.866 125.129C188.328 143.753 166.6 119.137 141.972 122.062C117.44 124.968 101.591 153.384 76.0696 155.57C53.7704 157.434 30.1312 144.647 16.6112 127.595C1.78676 108.869 -7.24248 84.6404 17.7428 70.9714C30.9055 63.7766 48.5292 67.1001 56.8616 62.2996C63.2702 58.6188 64.6996 49.1428 70.1017 43.6752Z" fill="#78849E"/>
<path opacity="0.9" d="M70.1017 43.6752C115.861 -2.82298 196.231 -3.82954 223.361 64.7415C230.877 83.7351 229.43 111.234 211.866 125.129C188.328 143.753 166.6 119.137 141.972 122.062C117.44 124.968 101.591 153.384 76.0696 155.57C53.7704 157.434 30.1312 144.647 16.6112 127.595C1.78676 108.869 -7.24248 84.6404 17.7428 70.9714C30.9055 63.7766 48.5292 67.1001 56.8616 62.2996C63.2702 58.6188 64.6996 49.1428 70.1017 43.6752Z" fill="white"/>
<path d="M115.48 201.246C179.258 201.246 230.96 198.228 230.96 194.504C230.96 190.781 179.258 187.762 115.48 187.762C51.7023 187.762 0 190.781 0 194.504C0 198.228 51.7023 201.246 115.48 201.246Z" fill="#F5F5F5"/>
<path d="M223.315 45.6441L223.124 49.946L223.743 49.9735L223.933 45.6716L223.315 45.6441Z" fill="#78849E"/>
<path d="M223.978 30.7703L223.469 42.248L224.087 42.2755L224.597 30.7977L223.978 30.7703Z" fill="#78849E"/>
<path d="M214.2 99.9234H95.1942C94.5287 99.9275 93.8694 99.7956 93.2567 99.5358C92.644 99.2759 92.0909 98.8936 91.6314 98.4123C91.1718 97.9309 90.8154 97.3608 90.5841 96.7367C90.3529 96.1127 90.2516 95.448 90.2865 94.7834L94.3008 5.14014C94.3776 3.76395 94.9736 2.46811 95.9684 1.51414C96.9633 0.560176 98.283 0.0191113 99.6612 0.000139068H218.679C219.345 -0.00488791 220.005 0.126419 220.618 0.385974C221.231 0.645528 221.784 1.02784 222.244 1.50936C222.704 1.99087 223.06 2.56141 223.291 3.18583C223.522 3.81025 223.623 4.47534 223.587 5.14014L219.573 94.7834C219.494 96.1611 218.896 97.4578 217.899 98.4118C216.902 99.3658 215.58 99.906 214.2 99.9234Z" fill="#78849E"/>
<path opacity="0.5" d="M213.325 99.9233H95.1942C94.5287 99.9275 93.8694 99.7956 93.2567 99.5357C92.644 99.2759 92.0909 98.8936 91.6314 98.4122C91.1718 97.9309 90.8154 97.3607 90.5841 96.7367C90.3529 96.1126 90.2516 95.4479 90.2865 94.7833L94.3008 5.14009C94.3776 3.7639 94.9736 2.46806 95.9684 1.5141C96.9633 0.56013 98.283 0.0190657 99.6612 9.346e-05H217.804C218.469 -0.00402259 219.129 0.127858 219.742 0.387646C220.355 0.647434 220.908 1.02966 221.369 1.5109C221.829 1.99214 222.186 2.56225 222.417 3.18631C222.649 3.81036 222.751 4.47521 222.717 5.14009L218.697 94.7833C218.619 96.1611 218.021 97.4578 217.024 98.4118C216.027 99.3657 214.705 99.9059 213.325 99.9233Z" fill="white"/>
<path opacity="0.4" d="M178.637 76.028L157.339 75.8374L160.001 45.9563H180.436L178.637 76.028Z" fill="#78849E"/>
<path opacity="0.4" d="M127.184 42.3589L105.879 42.2637L108.405 12.3826L129.709 12.4779L127.184 42.3589Z" fill="#78849E"/>
<path opacity="0.4" d="M182.3 40.7984L160.871 41.7037L162.187 11.9299L182.759 11.0603L182.3 40.7984Z" fill="#78849E"/>
<path opacity="0.4" d="M205.939 65.4383L185.004 63.7944L187.911 33.9431L208.417 36.0873L205.939 65.4383Z" fill="#78849E"/>
<path opacity="0.4" d="M153.36 34.1338L136.969 33.6931L138.619 10.7209L154.819 10.9651L153.36 34.1338Z" fill="#78849E"/>
<path opacity="0.4" d="M124.777 95.492L108.679 95.1525L110.322 72.1744L125.784 71.8826L124.777 95.492Z" fill="#78849E"/>
<path opacity="0.4" d="M212.098 30.3876L195.689 30.4293L197.553 7.43329L213.647 7.3916L212.098 30.3876Z" fill="#78849E"/>
<path opacity="0.4" d="M131.651 66.6176L147.881 68.4878L150.781 45.0809L135.296 43.7825L131.651 66.6176Z" fill="#78849E"/>
<path d="M177.803 75.1525L156.505 74.9619L159.167 45.0808L180.466 45.2774L177.803 75.1525Z" fill="white"/>
<path d="M127.017 41.6859L105.718 41.4953L108.381 11.6143L129.679 11.8108L127.017 41.6859Z" fill="white"/>
<path d="M181.466 39.9229L160.037 40.8283L161.347 11.0603L182.783 10.155L181.466 39.9229Z" fill="white"/>
<path d="M205.284 65.1345L184.17 62.9249L187.077 33.0676L208.191 35.2773L205.284 65.1345Z" fill="white"/>
<path d="M153.045 33.2643L136.654 32.8236L138.298 9.84546L154.688 10.2862L153.045 33.2643Z" fill="white"/>
<path d="M124.236 94.7178L107.845 94.2771L109.489 71.3049L125.879 71.7457L124.236 94.7178Z" fill="white"/>
<path d="M211.544 30.0659L195.135 30.1076L197 7.10566L213.408 7.06396L211.544 30.0659Z" fill="white"/>
<path d="M130.817 65.7422L147.047 67.6123L150.686 44.7772L134.462 42.907L130.817 65.7422Z" fill="white"/>
<path opacity="0.4" d="M139.399 76.6831C139.399 76.6831 139.304 82.919 138.411 84.7713C141.323 85.6051 146.94 85.5932 146.94 85.5932C146.94 85.5932 148.167 79.5956 147.964 77.2549C146.29 76.8558 139.399 76.6831 139.399 76.6831Z" fill="#78849E"/>
<path d="M139.399 76.6831C139.399 76.6831 138.709 82.9071 137.821 84.7713C140.438 85.3952 143.094 85.8351 145.772 86.0876C145.772 86.0876 148.25 79.6134 147.964 77.237C146.29 76.8558 139.399 76.6831 139.399 76.6831Z" fill="white"/>
<path opacity="0.4" d="M183.253 77.7016C183.253 77.7016 186.63 86.2425 186.44 89.2562C191.014 88.744 198.977 86.1174 198.977 86.1174C198.977 86.1174 197.274 76.7129 195.636 73.6099C193.075 74.0506 183.253 77.7016 183.253 77.7016Z" fill="#78849E"/>
<path d="M182.151 77.0584C182.151 77.0584 184.986 88.0292 184.796 91.043C189.37 90.5248 198.197 86.9869 198.197 86.9869C198.197 86.9869 197.005 75.7778 195.219 72.6926C192.681 73.1512 182.151 77.0584 182.151 77.0584Z" fill="white"/>
<path opacity="0.4" d="M193.307 75.3133C193.293 75.5762 193.179 75.8238 192.989 76.0055C192.798 76.1871 192.546 76.2889 192.282 76.2901C192.156 76.292 192.03 76.2676 191.913 76.2187C191.796 76.1697 191.69 76.0971 191.602 76.0054C191.514 75.9138 191.446 75.805 191.403 75.6859C191.359 75.5668 191.34 75.44 191.347 75.3133C191.361 75.0499 191.475 74.8016 191.665 74.619C191.855 74.4364 192.108 74.3333 192.372 74.3306C192.499 74.3296 192.625 74.3547 192.742 74.4043C192.859 74.4539 192.965 74.5271 193.052 74.6192C193.14 74.7113 193.208 74.8205 193.252 74.9399C193.295 75.0593 193.314 75.1864 193.307 75.3133Z" fill="#78849E"/>
<path d="M127.833 11.8228C127.803 12.2686 127.608 12.6871 127.285 12.9958C126.961 13.3045 126.535 13.481 126.088 13.4904C125.871 13.4932 125.657 13.4515 125.457 13.3677C125.257 13.2839 125.077 13.16 124.927 13.0036C124.777 12.8472 124.662 12.6616 124.587 12.4585C124.512 12.2553 124.479 12.0389 124.492 11.8228C124.521 11.3769 124.717 10.9584 125.04 10.6497C125.363 10.341 125.79 10.1645 126.237 10.1551C126.453 10.1532 126.667 10.1955 126.867 10.2796C127.066 10.3637 127.246 10.4876 127.395 10.6438C127.545 10.8001 127.661 10.9853 127.736 11.188C127.811 11.3908 127.844 11.6068 127.833 11.8228Z" fill="#78849E"/>
<path d="M138.905 43.443C138.89 43.7622 138.753 44.0635 138.523 44.2851C138.292 44.5066 137.986 44.6315 137.666 44.6342C137.512 44.6361 137.359 44.6062 137.217 44.5462C137.075 44.4863 136.946 44.3976 136.84 44.2858C136.734 44.1739 136.652 44.0413 136.599 43.8963C136.547 43.7513 136.525 43.5969 136.535 43.443C136.55 43.1238 136.687 42.8224 136.917 42.6009C137.147 42.3794 137.454 42.2545 137.773 42.2518C137.928 42.2498 138.081 42.2798 138.223 42.3397C138.365 42.3997 138.493 42.4884 138.599 42.6002C138.706 42.7121 138.788 42.8447 138.84 42.9897C138.893 43.1347 138.915 43.289 138.905 43.443Z" fill="#78849E"/>
<path d="M189.334 19.7679C189.316 20.0861 189.179 20.3858 188.949 20.6068C188.719 20.8277 188.414 20.9536 188.095 20.9591C187.941 20.9601 187.788 20.9296 187.646 20.8694C187.504 20.8092 187.376 20.7206 187.269 20.609C187.163 20.4975 187.08 20.3653 187.027 20.2207C186.973 20.076 186.95 19.9219 186.958 19.7679C186.974 19.4491 187.112 19.1486 187.342 18.9274C187.572 18.7062 187.877 18.5808 188.197 18.5767C188.351 18.5757 188.504 18.6062 188.646 18.6664C188.788 18.7266 188.916 18.8152 189.023 18.9267C189.129 19.0383 189.212 19.1705 189.265 19.3151C189.319 19.4598 189.342 19.6138 189.334 19.7679Z" fill="#78849E"/>
<path d="M58.6901 25.6526C59.3333 28.9343 59.9706 34.9439 57.6776 37.1357C59.5392 40.1438 62.3092 42.482 65.5871 43.8123C69.9766 41.0666 67.8742 37.1357 67.8742 37.1357C64.2172 36.2602 64.3006 33.5621 64.9498 30.9951L58.6901 25.6526Z" fill="#B55B52"/>
<path d="M54.3363 26.7722C51.6382 26.4982 43.6156 37.8324 59.1487 42.8891C56.6234 40.5484 55.3667 38.2791 56.0278 35.599C56.4228 33.5231 56.531 31.4028 56.3494 29.2975C56.3494 29.2975 57.2726 27.07 54.3363 26.7722Z" fill="#263238"/>
<path d="M55.9801 40.5603C55.4265 39.9283 54.9907 39.2021 54.6936 38.4162C54.5094 37.8936 54.4628 37.3325 54.5583 36.7868C54.6537 36.2411 54.888 35.7291 55.2386 35.3001C55.5892 34.8711 56.0443 34.5396 56.5601 34.3374C57.0759 34.1353 57.6351 34.0692 58.1838 34.1457C59.8568 34.3755 61.5525 34.3875 63.2285 34.1815C67.0284 33.7109 69.0177 35.6228 71.0725 39.7205C71.0725 39.7205 70.1136 41.5073 67.2369 42.2041C64.3602 42.901 55.9801 40.5603 55.9801 40.5603Z" fill="#78849E"/>
<path d="M72.7283 22.7579C72.6271 23.1927 72.77 23.5977 73.0559 23.6632C73.3418 23.7288 73.6515 23.4369 73.7587 23.0021C73.8659 22.5673 73.717 22.1623 73.4311 22.0968C73.1452 22.0313 72.8355 22.3232 72.7283 22.7579Z" fill="#263238"/>
<path d="M73.3 22.091L74.4138 22.0374C74.4138 22.0374 73.6872 22.7223 73.3 22.091Z" fill="#263238"/>
<path d="M74.0029 20.316C74.0536 20.3184 74.104 20.306 74.1478 20.2804C74.1916 20.2547 74.2271 20.2168 74.2498 20.1714C74.2725 20.126 74.2815 20.0749 74.2758 20.0245C74.27 19.974 74.2497 19.9263 74.2173 19.8871C73.9568 19.5631 73.6223 19.3063 73.2419 19.1384C72.8616 18.9705 72.4464 18.8964 72.0315 18.9223C71.997 18.926 71.9635 18.9365 71.9331 18.9532C71.9027 18.9699 71.8759 18.9925 71.8543 19.0197C71.8327 19.0468 71.8167 19.078 71.8072 19.1114C71.7978 19.1447 71.795 19.1797 71.7992 19.2141C71.8081 19.2832 71.8436 19.346 71.8981 19.3894C71.9525 19.4327 72.0217 19.4532 72.091 19.4464C72.4203 19.4293 72.7489 19.4911 73.0493 19.6269C73.3498 19.7626 73.6135 19.9682 73.8182 20.2266C73.8659 20.2792 73.9321 20.3112 74.0029 20.316Z" fill="#263238"/>
<path d="M72.1863 24.0862C72.3338 25.1701 72.6304 26.2283 73.0678 27.2309C72.8088 27.3349 72.5303 27.3814 72.2516 27.367C71.9729 27.3526 71.7006 27.2777 71.4537 27.1475L72.1863 24.0862Z" fill="#A02724"/>
<path d="M58.5233 17.4691C57.5704 22.8771 57.0522 25.1404 59.0832 28.5233C62.1386 33.6097 68.982 33.5978 71.5371 28.5889C73.8301 24.0802 75.0094 15.998 70.3042 12.6269C69.271 11.8778 68.0634 11.4054 66.7962 11.2543C65.529 11.1032 64.2442 11.2786 63.0639 11.7638C61.8835 12.2489 60.8468 13.0277 60.0521 14.0263C59.2574 15.0248 58.7311 16.2099 58.5233 17.4691Z" fill="#B55B52"/>
<path d="M68.1303 21.7573C69.7682 21.0903 73.6634 19.6132 74.6163 17.2844C75.5693 14.9556 71.6384 8.73761 68.2792 9.96453C59.5299 8.10032 53.431 12.2874 53.4667 18.8985C53.5024 25.8074 56.2481 29.7383 60.7509 30.7628C65.2536 31.7872 69.1666 27.0701 68.1303 21.7573Z" fill="#263238"/>
<path d="M55.5573 23.6573C53.7705 23.4131 52.8175 25.2237 53.4667 26.7246C54.1159 28.2255 56.2839 30.602 57.1177 30.602C57.9515 30.602 59.6014 30.0064 60.0183 29.0713C60.4352 28.1362 56.7604 23.83 55.5573 23.6573Z" fill="#78849E"/>
<path d="M66.6413 21.257C66.5194 21.7676 66.4999 22.2974 66.5837 22.8156C66.6675 23.3339 66.8531 23.8304 67.1297 24.2767C67.8742 25.4678 69.1905 25.0331 69.7741 23.83C70.2983 22.7519 70.5365 20.852 69.4108 20.0539C69.1616 19.8846 68.8735 19.781 68.5735 19.7529C68.2735 19.7248 67.9713 19.773 67.6949 19.8931C67.4185 20.0131 67.177 20.2011 66.9928 20.4396C66.8086 20.6781 66.6877 20.9592 66.6413 21.257Z" fill="#B55B52"/>
<path d="M54.0921 42.651C54.0921 42.8714 54.0921 43.2466 54.0921 43.5384V44.5033C54.0921 45.1505 54.1219 45.7997 54.1814 46.4509C54.2722 47.7362 54.4392 49.015 54.6817 50.2806C55.1212 52.7014 56.0318 55.0124 57.3619 57.0823C57.8503 57.7136 57.6597 57.6124 58.0766 57.8983C58.5211 58.1758 58.997 58.3997 59.4941 58.5653C60.7193 58.9807 61.9735 59.3052 63.2464 59.5361C65.8968 60.0364 68.7021 60.3819 71.4537 60.6618L71.5311 63.4671C68.6134 63.8488 65.6667 63.9624 62.7282 63.8066C61.1789 63.7352 59.6396 63.5198 58.1302 63.1633C57.2584 62.9539 56.4132 62.6462 55.6108 62.2461C55.1097 61.9839 54.6435 61.6597 54.2231 61.2812C54.104 61.174 53.9849 61.049 53.8657 60.9239L53.6454 60.6678L53.2404 60.1853C52.2159 58.8996 51.363 57.4862 50.7031 55.9804C50.0604 54.5299 49.5617 53.0198 49.2141 51.4718C48.86 49.9611 48.6191 48.4262 48.4935 46.8797C48.4399 46.1114 48.4041 45.3431 48.3922 44.5688C48.3922 44.1817 48.3922 43.7945 48.3922 43.4074C48.3922 43.0203 48.422 42.6569 48.4637 42.1626L54.0921 42.651Z" fill="#B55B52"/>
<path d="M71.281 60.4533L77.1834 59.5242L74.2769 64.3366C74.2769 64.3366 70.7033 64.1877 69.7265 62.121L71.281 60.4533Z" fill="#B55B52"/>
<path d="M80.1018 61.1442L80.1197 64.7237L74.2769 64.3366L77.1834 59.5242L80.1018 61.1442Z" fill="#B55B52"/>
<path d="M92.5438 76.3855H74.0803C73.9581 76.4004 73.834 76.3829 73.7206 76.3347C73.6072 76.2866 73.5085 76.2095 73.4343 76.1112C73.3601 76.0128 73.313 75.8967 73.2978 75.7745C73.2827 75.6522 73.2999 75.5282 73.3477 75.4147L81.8707 50.5842C81.9841 50.3053 82.1763 50.0655 82.4238 49.8942C82.6714 49.7228 82.9635 49.6273 83.2644 49.6194H101.728C101.85 49.6031 101.974 49.6195 102.088 49.6668C102.201 49.7141 102.3 49.7907 102.375 49.8887C102.449 49.9868 102.496 50.1028 102.511 50.2249C102.527 50.3471 102.509 50.4711 102.461 50.5842L93.9375 75.4147C93.8232 75.6934 93.6309 75.9332 93.3837 76.1054C93.1365 76.2776 92.8449 76.3748 92.5438 76.3855Z" fill="#78849E"/>
<path d="M92.2162 75.5992H74.384C74.3157 75.6085 74.2461 75.5992 74.1824 75.5725C74.1188 75.5458 74.0635 75.5026 74.0222 75.4473C73.9809 75.392 73.9551 75.3267 73.9475 75.2581C73.94 75.1896 73.9508 75.1202 73.979 75.0572L82.4008 50.5008C82.4655 50.3454 82.5734 50.2117 82.7116 50.1157C82.8499 50.0196 83.0128 49.9652 83.181 49.9588H101.049C101.117 49.9503 101.187 49.9599 101.25 49.9867C101.314 50.0135 101.369 50.0565 101.411 50.1114C101.452 50.1663 101.479 50.2312 101.487 50.2995C101.496 50.3678 101.486 50.4373 101.46 50.5008L93.0322 75.0572C92.965 75.2182 92.8517 75.3555 92.7064 75.452C92.5612 75.5485 92.3906 75.5997 92.2162 75.5992Z" fill="white"/>
<path d="M48.5769 38.3149L54.5328 40.7271L57.7074 44.2471L58.1183 49.1012C58.1183 49.1012 51.1796 54.3663 47.4929 53.866C46.2183 44.9439 47.0164 40.0362 48.5769 38.3149Z" fill="#263238"/>
<path d="M77.8742 42.2519C77.9636 46.2602 77.3978 54.6045 74.5806 71.9305H52.1206C52.4959 62.788 52.9426 57.0405 48.5471 38.3031C51.5668 37.6821 54.6288 37.2879 57.7073 37.1238C61.1018 36.8793 64.5095 36.8793 67.9039 37.1238C70.1017 37.3263 72.4484 37.6777 74.2351 37.9874C75.2428 38.1645 76.1573 38.6871 76.8214 39.4653C77.4856 40.2436 77.8578 41.2289 77.8742 42.2519Z" fill="#263238"/>
<path opacity="0.2" d="M73.4847 43.8123L77.4812 50.3221C77.2727 52.639 76.969 55.4145 76.5342 58.732L73.2584 56.7963C71.9183 46.9451 73.4847 43.8123 73.4847 43.8123Z" fill="black"/>
<path d="M78.2435 43.9194C79.0734 46.5281 79.8675 49.1488 80.6259 51.7813L81.7695 55.7301L82.8713 59.6908L83.4133 61.6742L83.6813 62.6688C83.743 62.9229 83.8185 63.1734 83.9077 63.4193C84.0203 63.7451 84.1702 64.0569 84.3544 64.3484C84.396 64.408 84.3901 64.4199 84.3544 64.4377C84.3186 64.4556 84.3127 64.4913 84.3841 64.5032C84.7354 64.5055 85.0802 64.4085 85.3788 64.2233C85.8708 63.957 86.3374 63.6459 86.7725 63.2942C87.249 62.913 87.7195 62.4961 88.184 62.0553C88.6486 61.6146 89.1072 61.1203 89.5241 60.6795L91.9065 62.1804C91.5807 62.8549 91.2148 63.5093 90.8106 64.1399C90.4137 64.7871 89.9698 65.4042 89.4824 65.9863C88.9622 66.6212 88.3751 67.1983 87.7314 67.7076C86.9234 68.3611 85.9655 68.8032 84.944 68.994C84.2749 69.1064 83.5891 69.0678 82.9368 68.8809C82.2931 68.6904 81.6952 68.3701 81.1798 67.9398C80.3942 67.2607 79.7592 66.4249 79.3156 65.486C79.1246 65.1011 78.9614 64.703 78.8272 64.2948L78.4937 63.3121L77.8266 61.3525L76.5223 57.4216L75.2655 53.4728C74.4138 50.8403 73.6098 48.1958 72.8355 45.5454L78.2435 43.9194Z" fill="#B55B52"/>
<path d="M72.1446 42.4842C73.0916 40.2209 76.0577 38.7617 76.0577 38.7617C79.2501 40.8404 80.3281 41.8231 82.4485 52.3949C79.3573 55.0989 74.2352 55.0989 74.2352 55.0989L71.4716 47.9518C71.4716 47.9518 71.1976 44.7653 72.1446 42.4842Z" fill="#263238"/>
<path d="M88.7916 61.7279L90.9119 56.5581L93.5087 61.5432C93.5087 61.5432 91.5432 64.5212 89.2561 64.283L88.7916 61.7279Z" fill="#B55B52"/>
<path d="M94.8249 57.6004C94.7724 57.6017 94.7203 57.5898 94.6735 57.5659C94.6267 57.542 94.5866 57.5067 94.5569 57.4634L88.3686 48.994C88.3171 48.9212 88.2964 48.8309 88.3108 48.7429C88.3253 48.6548 88.3739 48.576 88.4461 48.5235C88.518 48.4723 88.6073 48.4517 88.6944 48.4662C88.7814 48.4807 88.8592 48.5292 88.9106 48.6009L95.0929 57.0703C95.1315 57.1193 95.1553 57.1784 95.1615 57.2405C95.1677 57.3025 95.1561 57.3651 95.1279 57.4208C95.0998 57.4765 95.0563 57.523 95.0026 57.5548C94.9489 57.5866 94.8873 57.6024 94.8249 57.6004Z" fill="#263238"/>
<path d="M95.5397 55.5515L96.9036 58.5533L93.5087 61.5432L90.9119 56.5581L95.5397 55.5515Z" fill="#B55B52"/>
<path d="M74.5806 71.9304C74.5806 71.9304 80.1911 114.39 82.1089 131.151C84.938 155.904 91.2573 188.923 91.2573 188.923L87.4872 189.596C87.4872 189.596 74.3126 157.285 72.3233 132.818C66.0755 114.796 57.1118 71.9304 57.1118 71.9304H74.5806Z" fill="#B55B52"/>
<path d="M90.9536 184.867L86.0756 187.25C85.9771 187.294 85.8983 187.374 85.8544 187.472C85.8105 187.571 85.8044 187.683 85.8374 187.786L87.4098 192.443C87.4581 192.561 87.5305 192.667 87.6223 192.755C87.714 192.843 87.8232 192.91 87.9426 192.953C88.0621 192.997 88.1892 193.014 88.3159 193.006C88.4426 192.997 88.5661 192.961 88.6784 192.902C90.6796 191.884 90.6856 191.747 93.2288 190.52C94.7952 189.751 97.3384 188.59 99.5004 187.542C101.662 186.493 100.733 184.403 99.7386 184.659C95.2836 185.814 93.8839 185.189 91.9959 184.772C91.6478 184.683 91.2797 184.717 90.9536 184.867Z" fill="#263238"/>
<path d="M68.714 71.9304C68.714 71.9304 65.0689 112.145 62.0016 128.732C58.7794 146.154 56.3732 187.667 56.3375 188.935H52.5078C52.5078 188.935 47.2665 142.27 52.1564 126.654C52.9664 107.595 52.1206 71.9304 52.1206 71.9304H68.714Z" fill="#B55B52"/>
<path d="M56.7901 188.155H52.4304C52.3221 188.153 52.2167 188.19 52.1343 188.261C52.0519 188.331 51.9983 188.429 51.9837 188.536L51.3404 193.521C51.3288 193.648 51.3438 193.775 51.3843 193.896C51.4249 194.016 51.4902 194.127 51.576 194.22C51.6618 194.314 51.7662 194.389 51.8826 194.44C51.999 194.491 52.1247 194.517 52.2517 194.516C54.4435 194.48 53.568 194.349 56.3375 194.349C58.0409 194.349 60.5067 194.528 62.889 194.528C65.2714 194.528 65.337 192.199 64.3542 191.991C59.9468 191.044 59.238 189.739 57.7371 188.501C57.472 188.278 57.1366 188.155 56.7901 188.155Z" fill="#263238"/>
<path opacity="0.2" d="M52.204 125.498L62.3709 126.618C62.7818 124.188 63.2047 121.383 63.6157 118.357L52.4125 117.208C52.347 120.156 52.2993 122.961 52.204 125.498Z" fill="black"/>
<path opacity="0.2" d="M80.7808 120.12L68.1303 118.822C68.9641 121.925 69.798 124.861 70.602 127.517L81.8231 128.744C81.5312 126.225 81.1739 123.295 80.7808 120.12Z" fill="black"/>
<path d="M74.5806 71.9304L82.6807 127.404L51.1856 123.414C54.2589 99.6674 44.9259 80.6261 52.1207 71.9304H74.5806Z" fill="#78849E"/>
<path opacity="0.2" d="M55.0748 83.3123C58.5179 86.3045 62.5115 88.5967 66.8319 90.0604C59.7562 89.9829 56.4745 87.4695 55.0748 83.3123Z" fill="black"/>
</svg>
