<svg width="37" height="36" viewBox="0 0 37 36" fill="none" xmlns="http://www.w3.org/2000/svg">
<rect width="34" height="34" rx="17" fill="#0C10F7" fill-opacity="0.3"/>
<path fill-rule="evenodd" clip-rule="evenodd" d="M10.25 11.75C10.25 11.1533 10.4871 10.581 10.909 10.159C11.331 9.73705 11.9033 9.5 12.5 9.5H21.5C22.0967 9.5 22.669 9.73705 23.091 10.159C23.5129 10.581 23.75 11.1533 23.75 11.75V23.75C23.7499 23.8913 23.7099 24.0296 23.6347 24.1492C23.5594 24.2687 23.4519 24.3645 23.3245 24.4257C23.1972 24.4868 23.0552 24.5107 22.9148 24.4947C22.7745 24.4786 22.6415 24.4233 22.5312 24.335L21.0845 23.1785L19.2913 24.374C19.1588 24.4624 19.0016 24.5064 18.8425 24.4995C18.6834 24.4926 18.5306 24.4353 18.4062 24.3358L17 23.21L15.5938 24.335C15.4694 24.4345 15.3166 24.4919 15.1575 24.4987C14.9984 24.5056 14.8412 24.4617 14.7087 24.3732L12.9155 23.1777L11.468 24.335C11.3577 24.4231 11.2248 24.4782 11.0846 24.4941C10.9444 24.5101 10.8025 24.4861 10.6753 24.425C10.5481 24.3639 10.4407 24.2681 10.3654 24.1487C10.2902 24.0293 10.2502 23.8911 10.25 23.75V11.75ZM14 12.5C13.8011 12.5 13.6103 12.579 13.4697 12.7197C13.329 12.8603 13.25 13.0511 13.25 13.25C13.25 13.4489 13.329 13.6397 13.4697 13.7803C13.6103 13.921 13.8011 14 14 14H20C20.1989 14 20.3897 13.921 20.5303 13.7803C20.671 13.6397 20.75 13.4489 20.75 13.25C20.75 13.0511 20.671 12.8603 20.5303 12.7197C20.3897 12.579 20.1989 12.5 20 12.5H14ZM14 15.5C13.8011 15.5 13.6103 15.579 13.4697 15.7197C13.329 15.8603 13.25 16.0511 13.25 16.25C13.25 16.4489 13.329 16.6397 13.4697 16.7803C13.6103 16.921 13.8011 17 14 17H20C20.1989 17 20.3897 16.921 20.5303 16.7803C20.671 16.6397 20.75 16.4489 20.75 16.25C20.75 16.0511 20.671 15.8603 20.5303 15.7197C20.3897 15.579 20.1989 15.5 20 15.5H14ZM14 18.5C13.8011 18.5 13.6103 18.579 13.4697 18.7197C13.329 18.8603 13.25 19.0511 13.25 19.25C13.25 19.4489 13.329 19.6397 13.4697 19.7803C13.6103 19.921 13.8011 20 14 20H17C17.1989 20 17.3897 19.921 17.5303 19.7803C17.671 19.6397 17.75 19.4489 17.75 19.25C17.75 19.0511 17.671 18.8603 17.5303 18.7197C17.3897 18.579 17.1989 18.5 17 18.5H14Z" fill="#20215A"/>
<g clip-path="url(#clip0_2922_5000)">
<rect x="23" y="22" width="14" height="14" rx="7" fill="white"/>
<circle cx="30" cy="29" r="7" fill="white"/>
<path d="M23 29C23 30.8565 23.7375 32.637 25.0503 33.9497C26.363 35.2625 28.1435 36 30 36C31.8565 36 33.637 35.2625 34.9497 33.9497C36.2625 32.637 37 30.8565 37 29C37 27.1435 36.2625 25.363 34.9497 24.0503C33.637 22.7375 31.8565 22 30 22C28.1435 22 26.363 22.7375 25.0503 24.0503C23.7375 25.363 23 27.1435 23 29V29ZM28.166 31.4526C28.1256 31.4944 28.0774 31.5277 28.024 31.5507C27.9706 31.5736 27.9132 31.5857 27.8551 31.5862C27.797 31.5867 27.7394 31.5756 27.6856 31.5536C27.6319 31.5316 27.583 31.4991 27.542 31.458C27.5009 31.417 27.4684 31.3681 27.4464 31.3144C27.4244 31.2606 27.4133 31.203 27.4138 31.1449C27.4143 31.0868 27.4264 31.0294 27.4493 30.976C27.4723 30.9226 27.5056 30.8744 27.5474 30.834L31.1314 27.25H28.7094C28.5933 27.25 28.4821 27.2039 28.4 27.1219C28.318 27.0398 28.2719 26.9285 28.2719 26.8125C28.2719 26.6965 28.318 26.5852 28.4 26.5031C28.4821 26.4211 28.5933 26.375 28.7094 26.375H32.1875C32.3035 26.375 32.4148 26.4211 32.4969 26.5031C32.5789 26.5852 32.625 26.6965 32.625 26.8125V30.2906C32.625 30.4067 32.5789 30.5179 32.4969 30.6C32.4148 30.682 32.3035 30.7281 32.1875 30.7281C32.0715 30.7281 31.9602 30.682 31.8781 30.6C31.7961 30.5179 31.75 30.4067 31.75 30.2906V27.8686L28.166 31.4526Z" fill="#CB3A31"/>
</g>
<rect x="23.5" y="22.5" width="13" height="13" rx="6.5" stroke="white"/>
<defs>
<clipPath id="clip0_2922_5000">
<rect x="23" y="22" width="14" height="14" rx="7" fill="white"/>
</clipPath>
</defs>
</svg>
