<svg width="36" height="35" viewBox="0 0 36 35" fill="none" xmlns="http://www.w3.org/2000/svg">
<rect width="34" height="34" rx="17" fill="#0C10F7" fill-opacity="0.3"/>
<path fill-rule="evenodd" clip-rule="evenodd" d="M10.25 11.75C10.25 11.1533 10.4871 10.581 10.909 10.159C11.331 9.73705 11.9033 9.5 12.5 9.5H21.5C22.0967 9.5 22.669 9.73705 23.091 10.159C23.5129 10.581 23.75 11.1533 23.75 11.75V23.75C23.7499 23.8913 23.7099 24.0296 23.6347 24.1492C23.5594 24.2687 23.4519 24.3645 23.3245 24.4257C23.1972 24.4868 23.0552 24.5107 22.9148 24.4947C22.7745 24.4786 22.6415 24.4233 22.5312 24.335L21.0845 23.1785L19.2913 24.374C19.1588 24.4624 19.0016 24.5064 18.8425 24.4995C18.6834 24.4926 18.5306 24.4353 18.4062 24.3358L17 23.21L15.5938 24.335C15.4694 24.4345 15.3166 24.4919 15.1575 24.4987C14.9984 24.5056 14.8412 24.4617 14.7087 24.3732L12.9155 23.1777L11.468 24.335C11.3577 24.4231 11.2248 24.4782 11.0846 24.4941C10.9444 24.5101 10.8025 24.4861 10.6753 24.425C10.5481 24.3639 10.4407 24.2681 10.3654 24.1487C10.2902 24.0293 10.2502 23.8911 10.25 23.75V11.75ZM14 12.5C13.8011 12.5 13.6103 12.579 13.4697 12.7197C13.329 12.8603 13.25 13.0511 13.25 13.25C13.25 13.4489 13.329 13.6397 13.4697 13.7803C13.6103 13.921 13.8011 14 14 14H20C20.1989 14 20.3897 13.921 20.5303 13.7803C20.671 13.6397 20.75 13.4489 20.75 13.25C20.75 13.0511 20.671 12.8603 20.5303 12.7197C20.3897 12.579 20.1989 12.5 20 12.5H14ZM14 15.5C13.8011 15.5 13.6103 15.579 13.4697 15.7197C13.329 15.8603 13.25 16.0511 13.25 16.25C13.25 16.4489 13.329 16.6397 13.4697 16.7803C13.6103 16.921 13.8011 17 14 17H20C20.1989 17 20.3897 16.921 20.5303 16.7803C20.671 16.6397 20.75 16.4489 20.75 16.25C20.75 16.0511 20.671 15.8603 20.5303 15.7197C20.3897 15.579 20.1989 15.5 20 15.5H14ZM14 18.5C13.8011 18.5 13.6103 18.579 13.4697 18.7197C13.329 18.8603 13.25 19.0511 13.25 19.25C13.25 19.4489 13.329 19.6397 13.4697 19.7803C13.6103 19.921 13.8011 20 14 20H17C17.1989 20 17.3897 19.921 17.5303 19.7803C17.671 19.6397 17.75 19.4489 17.75 19.25C17.75 19.0511 17.671 18.8603 17.5303 18.7197C17.3897 18.579 17.1989 18.5 17 18.5H14Z" fill="#20215A"/>
<rect x="22.5" y="21.5" width="13" height="13" rx="6.5" fill="white"/>
<circle cx="29" cy="28" r="7" fill="white"/>
<path d="M22 28C22 26.1435 22.7375 24.363 24.0503 23.0503C25.363 21.7375 27.1435 21 29 21C30.8565 21 32.637 21.7375 33.9497 23.0503C35.2625 24.363 36 26.1435 36 28C36 29.8565 35.2625 31.637 33.9497 32.9497C32.637 34.2625 30.8565 35 29 35C27.1435 35 25.363 34.2625 24.0503 32.9497C22.7375 31.637 22 29.8565 22 28ZM27.166 25.5474C27.1256 25.5056 27.0774 25.4723 27.024 25.4493C26.9706 25.4264 26.9132 25.4143 26.8551 25.4138C26.797 25.4133 26.7394 25.4244 26.6856 25.4464C26.6319 25.4684 26.583 25.5009 26.542 25.542C26.5009 25.583 26.4684 25.6319 26.4464 25.6856C26.4244 25.7394 26.4133 25.797 26.4138 25.8551C26.4143 25.9132 26.4264 25.9706 26.4493 26.024C26.4723 26.0774 26.5056 26.1256 26.5474 26.166L30.1314 29.75H27.7094C27.5933 29.75 27.4821 29.7961 27.4 29.8781C27.318 29.9602 27.2719 30.0715 27.2719 30.1875C27.2719 30.3035 27.318 30.4148 27.4 30.4969C27.4821 30.5789 27.5933 30.625 27.7094 30.625H31.1875C31.3035 30.625 31.4148 30.5789 31.4969 30.4969C31.5789 30.4148 31.625 30.3035 31.625 30.1875V26.7094C31.625 26.5933 31.5789 26.4821 31.4969 26.4C31.4148 26.318 31.3035 26.2719 31.1875 26.2719C31.0715 26.2719 30.9602 26.318 30.8781 26.4C30.7961 26.4821 30.75 26.5933 30.75 26.7094V29.1314L27.166 25.5474Z" fill="#00B2FF"/>
<rect x="22.5" y="21.5" width="13" height="13" rx="6.5" stroke="white"/>
</svg>
